<svg width="27" height="23" viewBox="0 0 27 23" fill="none" xmlns="http://www.w3.org/2000/svg">
<path fill-rule="evenodd" clip-rule="evenodd" d="M13.0276 3.09274C13.6311 2.52522 13.6603 1.57592 13.0927 0.972421C12.5252 0.36892 11.5759 0.33975 10.9724 0.907268L0.972417 10.311C0.670956 10.5945 0.5 10.9899 0.5 11.4038C0.5 11.8176 0.670956 12.213 0.972417 12.4965L10.9724 21.9003C11.5759 22.4678 12.5252 22.4386 13.0927 21.8351C13.6603 21.2316 13.6311 20.2823 13.0276 19.7148L5.88711 13.0001H25.5C26.3284 13.0001 27 12.3285 27 11.5001C27 10.6716 26.3284 10.0001 25.5 10.0001H5.68231L13.0276 3.09274Z" fill="black"/>
</svg>
