<svg width="165" height="176" viewBox="0 0 165 176" fill="none" xmlns="http://www.w3.org/2000/svg">
<path d="M73.1766 33.1777C72.3341 31.9863 71.2771 30.885 69.9236 30.3381C68.5701 29.7921 66.8778 29.91 65.8236 30.9182C65.365 31.3574 65.052 31.931 64.8384 32.5286C63.9977 34.8765 64.6782 37.6249 66.3024 39.517C67.9275 41.4091 70.3868 42.4772 72.8709 42.6917C73.3635 39.4516 73.5044 36.1572 73.1766 33.1777Z" fill="#FFCFBA"/>
<path d="M68.3853 39.8916C65.519 41.2248 63.2908 43.8609 62.4539 46.9086C62.2347 47.705 62.1067 48.5429 62.243 49.3577C62.3793 50.1726 62.8074 50.9644 63.5081 51.4018C64.5504 52.0518 65.9214 51.7931 67.0438 51.2941C67.5916 51.0501 68.1229 50.7517 68.5584 50.3402C69.0013 49.9222 69.3327 49.4019 69.631 48.8716C70.5499 47.2391 71.1981 45.4538 71.5416 43.6123" stroke="#3D271E" stroke-width="1.17846" stroke-miterlimit="10"/>
<path d="M71.8684 37.2219C71.8684 37.2219 68.8373 36.6539 67.1321 33.8115" stroke="#301C14" stroke-width="0.589229" stroke-miterlimit="10"/>
<path d="M117.294 36.8598C118.07 35.2753 119.335 33.9347 120.873 33.0692C121.954 32.4606 123.422 32.1291 124.357 32.9467C125.151 33.6419 125.197 34.8582 125.033 35.9014C124.709 37.9638 123.783 39.9508 122.304 41.424C120.824 42.8971 118.779 43.8262 116.691 43.8262C116.992 41.3494 116.414 38.6571 117.294 36.8598Z" fill="#FFCFBA"/>
<path d="M118.754 41.7734C121.367 43.7346 122.514 47.1846 122.477 50.4514C122.465 51.5121 122.333 52.6069 121.801 53.5249C121.269 54.4428 120.259 55.1454 119.203 55.0514C118.213 54.963 117.408 54.2292 116.768 53.4687C115.415 51.8592 114.426 49.945 113.898 47.9093" stroke="#3D271E" stroke-width="1.17846" stroke-miterlimit="10"/>
<path d="M121.967 37.043C121.967 37.043 119.981 39.2187 117.521 39.029" stroke="#301C14" stroke-width="0.589229" stroke-miterlimit="10"/>
<path d="M69.5195 66.4129C69.4044 61.8783 70.2008 58.815 70.4872 54.2877C70.7551 50.0431 70.489 44.3336 71.1077 40.1258C72.4594 30.9349 74.7935 21.5508 80.5076 14.2253C82.9936 11.0387 86.2282 8.23592 90.1441 7.23876C92.6669 6.59608 95.3343 6.73787 97.8903 7.23231C103.051 8.22947 107.994 10.7219 111.493 14.6443C116.388 20.131 118.047 27.8551 117.929 35.2063C117.756 45.9246 114.235 57.1862 101.917 61.8967L102.672 69.6926C91.6062 74.3276 79.0151 73.2273 69.5195 66.4129Z" fill="#FFCFBA"/>
<path d="M68.6208 17.0795C65.3218 16.0114 62.1526 14.5419 59.2062 12.7133C58.3831 12.2032 57.5563 11.6434 57.0149 10.8415C55.7083 8.90698 56.4762 6.22578 57.8058 4.30788C58.6878 3.03633 59.7955 1.92131 61.0615 1.03188C62.0964 0.304494 63.4103 -0.287543 64.5981 0.148889C65.4682 0.468386 66.0565 1.26483 66.5915 2.0226C68.8289 5.18902 71.0377 8.37663 73.2153 11.5845C73.323 11.7438 73.4344 11.9132 73.4436 12.1047C73.4556 12.3561 73.2899 12.578 73.1306 12.7732C71.6454 14.5972 69.9844 16.2793 68.6208 17.0795Z" fill="#3D271E"/>
<path d="M68.9376 20.2936C68.0159 19.9557 66.8623 20.2237 66.1192 19.5819C65.2721 18.8499 65.5511 17.4854 65.9811 16.4523C66.9866 14.0345 68.4312 11.8007 70.2239 9.89204C70.9006 9.1711 71.7468 8.44924 72.7338 8.50172C73.4713 8.54039 74.1186 9.01549 74.6112 9.56702C74.8175 9.7972 75.0117 10.0605 75.0495 10.3681C75.101 10.7833 74.858 11.1728 74.625 11.5208C73.0901 13.8181 71.5553 16.1162 70.0195 18.4135C69.5407 19.1298 69.0564 19.8563 68.9376 20.2936Z" fill="#FF7C6B"/>
<path d="M72.243 41.7942C72.243 41.7942 73.4363 36.1749 71.4254 33.0784C69.4145 29.982 65.8236 30.9193 65.8236 30.9193C65.8236 30.9193 67.0795 17.3163 71.3996 12.2467C75.1581 7.83632 80.2525 4.13126 86.0468 4.16625C88.9075 4.18374 91.9156 5.13763 93.7027 7.37135C95.5433 5.42766 98.1803 4.35776 100.842 4.07509C103.504 3.79243 106.198 4.24543 108.768 4.99675C110.605 5.53447 112.412 6.23147 114.017 7.27559C117.309 9.41723 119.549 12.8995 120.89 16.5907C122.232 20.282 122.757 24.2108 123.257 28.1064C123.32 28.6046 123.383 29.1239 123.222 29.599C123.089 29.9912 122.816 30.319 122.549 30.6357C121.063 32.3989 119.576 34.1631 118.09 35.9263C117.684 32.6696 116.288 29.5437 114.134 27.0688C114.167 28.2897 114.2 29.5096 114.233 30.7305C110.551 30.2628 107.064 28.4011 104.625 25.6029C104.811 27.0872 104.997 28.5723 105.183 30.0566C98.335 30.2564 91.4672 27.1212 87.1314 21.8168C87.0089 24.8139 86.8828 27.832 86.2079 30.7545C84.4502 29.2877 83.1556 27.275 82.5489 25.0671C81.1254 34.1511 72.243 41.7942 72.243 41.7942Z" fill="#3D271E"/>
<path d="M101.911 61.8275C97.7484 62.182 93.4191 60.4473 90.7379 57.2266" stroke="#301C14" stroke-width="0.589229" stroke-miterlimit="10"/>
<path d="M104.046 33.293C104.046 33.293 103.971 35.5672 104.492 37.5689C105.014 39.5715 106.133 41.3025 105.765 41.8025C105.335 42.3871 104.363 42.7168 102.984 42.2794" fill="#FFB18F"/>
<path d="M104.046 33.293C104.046 33.293 103.971 35.5672 104.492 37.5689C105.014 39.5715 106.133 41.3025 105.765 41.8025C105.335 42.3871 104.363 42.7168 102.984 42.2794" stroke="#301C14" stroke-width="0.589229" stroke-miterlimit="10"/>
<path d="M96.8231 44.832C96.8231 44.832 97.8046 48.4054 102.709 47.725" stroke="#301C14" stroke-width="0.589229" stroke-miterlimit="10"/>
<path d="M97.5154 36.0029C97.5154 36.6078 97.0439 37.0986 96.462 37.0986C95.8801 37.0986 95.4087 36.6078 95.4087 36.0029C95.4087 35.3971 95.8801 34.9072 96.462 34.9072C97.0439 34.9063 97.5154 35.3971 97.5154 36.0029Z" fill="#301C14"/>
<path d="M93.8776 32.771C93.8095 31.7417 98.1057 31.4894 98.3948 32.3871C98.6848 33.2848 93.9531 33.9072 93.8776 32.771Z" fill="#301C14" stroke="#301C14" stroke-width="0.294615" stroke-miterlimit="10"/>
<path d="M111.441 36.6435C111.441 37.2485 110.969 37.7392 110.387 37.7392C109.806 37.7392 109.334 37.2485 109.334 36.6435C109.334 36.0386 109.806 35.5479 110.387 35.5479C110.969 35.5479 111.441 36.0377 111.441 36.6435Z" fill="#301C14"/>
<path d="M108.968 33.7071C109.075 32.6814 113.347 33.2256 113.479 34.1629C113.611 35.0993 108.849 34.8396 108.968 33.7071Z" fill="#301C14" stroke="#301C14" stroke-width="0.294615" stroke-miterlimit="10"/>
<path d="M115.674 37.4268C112.955 37.4268 110.749 39.2093 110.749 41.409C110.749 43.6086 112.955 45.3912 115.674 45.3912C115.938 45.3912 116.191 45.3608 116.442 45.3286C117.256 42.9558 117.818 40.4707 118.132 37.9764C117.406 37.6358 116.574 37.4268 115.674 37.4268Z" fill="#FFB18F"/>
<path d="M90.7536 40.2693C90.7536 42.469 88.5485 44.2515 85.8286 44.2515C83.1087 44.2515 80.9036 42.468 80.9036 40.2693C80.9036 38.0697 83.1087 36.2871 85.8286 36.2871C88.5485 36.2871 90.7536 38.0697 90.7536 40.2693Z" fill="#FFB18F"/>
<path d="M67.5685 65.3252C56.7084 74.4028 41.6018 76.9431 30.4397 85.6469C17.425 95.7953 11.8168 111.842 6.87146 127.587C16.8643 133.674 27.1001 135.667 37.7945 135.593C37.1233 147.565 37.1058 159.573 37.7402 171.547C70.2746 174.34 102.976 170.578 135.412 166.821C136.553 156.783 137.157 146.888 136.543 136.804C143.746 135.424 150.147 131.483 155.18 126.148C148.863 115.622 149.278 101.588 141.183 92.3582C137.418 88.0666 132.224 85.3439 127.155 82.7171C120.124 79.0746 113.093 75.4313 106.062 71.7888C103.441 70.4307 103.082 69.5947 103.082 69.5947C91.3411 73.6459 76.9601 71.2364 67.5685 65.3252Z" fill="#548DFF"/>
<path d="M40.265 115.904C41.3874 125.3 40.1085 134.799 38.8314 144.176" stroke="#010103" stroke-width="0.589229" stroke-miterlimit="10"/>
<path d="M128.525 118.7C126.203 130.568 125.525 142.756 126.514 154.808" stroke="#010103" stroke-width="0.589229" stroke-miterlimit="10"/>
<path d="M61.3638 156.743C63.7844 157.027 66.2566 156.865 68.6201 156.268" stroke="#010103" stroke-width="0.589229" stroke-miterlimit="10"/>
<path d="M99.7411 151.442C102.829 153.476 106.38 155.602 109.986 154.787" stroke="#010103" stroke-width="0.589229" stroke-miterlimit="10"/>
<path d="M75.7788 163.318C79.0668 162.324 82.3557 161.329 85.6436 160.335" stroke="#010103" stroke-width="0.589229" stroke-miterlimit="10"/>
<path d="M82.3032 165.101C84.1834 164.418 86.0626 163.735 87.9418 163.052" stroke="#010103" stroke-width="0.589229" stroke-miterlimit="10"/>
<path d="M67.8669 65.4326C78.1977 72.1577 91.3228 73.293 103.083 69.5971" stroke="#010103" stroke-width="0.589229" stroke-miterlimit="10"/>
<path d="M9.74695 128.551C12.0645 122.185 14.5836 115.893 17.3007 109.687C19.656 104.306 22.2165 98.9021 26.1582 94.547C30.9037 89.3043 37.3149 85.939 43.4985 82.5092C52.2263 77.6689 60.7689 72.4962 69.1025 67.0049" stroke="#010103" stroke-width="0.589229" stroke-miterlimit="10"/>
<path d="M102.11 71.2178C108.964 75.1981 115.818 79.1785 122.672 83.1589C127.129 85.748 131.627 88.3657 135.419 91.858C145.461 101.11 149.269 115.129 152.624 128.364" stroke="#010103" stroke-width="0.589229" stroke-miterlimit="10"/>
<path d="M58.2784 76.8759C78.7594 75.4911 99.3867 76.2903 119.699 79.2551C119.546 85.9618 118.769 93.2633 114.096 98.076C110.003 102.293 103.846 103.623 98.0544 104.626C91.5392 105.755 84.8068 106.72 78.3634 105.232C74.7716 104.402 71.387 102.832 68.2021 100.975C65.1103 99.1735 62.0875 96.9969 60.2884 93.9032C57.5142 89.1301 58.1559 83.1904 58.2784 76.8759Z" fill="#FFA16B"/>
<path opacity="0.5" d="M105.062 100.692C102.571 100.408 100.065 100.107 97.5618 99.7682C103.213 99.3105 108.876 98.6633 114.461 97.6661C115.028 97.0372 115.535 96.3706 115.986 95.6699C105.523 96.6247 94.54 97.4773 83.5215 97.3089C77.5901 95.9609 71.8474 94.1608 66.52 91.615C79.2106 95.6524 92.8265 96.9093 105.991 95.1571C110.497 94.5568 114.329 93.648 117.642 92.3921C117.786 92.0229 117.92 91.6491 118.045 91.2697C114.638 92.649 110.644 93.6323 105.872 94.2676C94.5326 95.7786 82.8549 95.0309 71.736 92.1794L73.8942 92.4271C82.0593 93.3644 90.5044 94.333 98.8702 93.683C106.546 93.0873 113.388 91.0856 118.918 87.8519C118.992 87.4588 119.061 87.0638 119.123 86.666C113.6 90.0682 106.655 92.1776 98.8012 92.788C90.5182 93.4316 82.121 92.4685 73.9973 91.5358L66.5402 90.6795C64.8175 90.1262 63.1123 89.5212 61.4283 88.8638C60.3473 88.2055 59.2912 87.5039 58.2582 86.7645C58.3116 87.3906 58.388 88.0057 58.4865 88.6106C59.3299 88.9706 60.1706 89.3362 61.0259 89.6704C61.2856 89.8278 61.5471 89.9834 61.8086 90.1372L58.7139 89.7818C58.7848 90.0958 58.8659 90.4051 58.9533 90.7127L63.8471 91.2743C68.6874 93.8459 73.9034 95.7417 79.3164 97.1956C73.2524 96.9544 67.1958 96.3651 61.2331 95.2897C61.5158 95.6589 61.8159 96.0143 62.1317 96.3568C69.157 97.5556 76.2918 98.0961 83.4137 98.2066C85.4219 98.6605 87.4484 99.0638 89.4879 99.4266C87.2339 99.561 84.9882 99.6825 82.7591 99.8031L67.6138 100.622C67.8099 100.74 68.0042 100.86 68.2003 100.974C68.4747 101.134 68.7519 101.288 69.029 101.444L82.807 100.699C86.3104 100.509 89.8525 100.318 93.4093 100.076C97.2543 100.669 101.124 101.146 104.958 101.583C106.032 101.705 107.145 101.826 108.272 101.938C108.812 101.706 109.344 101.459 109.86 101.186C108.217 101.045 106.604 100.868 105.062 100.692ZM87.9042 98.2213C97.1438 98.1477 106.31 97.446 115.114 96.6524C107.976 97.9755 100.685 98.6798 93.4507 99.1743C91.5945 98.887 89.7429 98.5721 87.9042 98.2213Z" fill="#FFFCFA"/>
<path d="M119.018 79.1587C116.38 80.6125 113.562 81.734 110.664 82.5774C107.299 83.5644 103.809 84.1749 100.318 84.4704C93.3557 85.0625 86.3572 84.5064 79.4305 83.663C76.2898 83.2864 73.105 82.8288 70.0094 82.0931V82.0839C65.8017 81.0969 61.7725 79.5988 58.2737 77.1128V76.9692C58.3989 76.924 58.5343 76.8973 58.6595 76.8522C63.7742 76.5116 68.8972 76.3053 74.0202 76.2418C84.4467 76.1073 94.8722 76.5383 105.254 77.5161C109.856 77.9562 114.442 78.504 119.018 79.1587Z" fill="#FF7C6B"/>
<path opacity="0.57" d="M110.664 82.5774C107.299 83.5644 103.809 84.1749 100.318 84.4704C93.3557 85.0625 86.3572 84.5064 79.4304 83.663C76.2898 83.2864 73.1049 82.8288 70.0094 82.0931V82.0839C70.0996 81.0425 70.5922 79.2397 72.8803 78.2886C73.6251 77.9838 73.9299 77.2482 74.0201 76.2427C74.3433 72.7347 72.1538 65.8973 77.2326 62.2456C83.7643 57.5526 92.585 57.7772 92.9257 63.5107C93.2756 69.2349 98.5422 67.9791 103.011 68.7773C107.479 69.5848 103.926 73.138 104.616 76.2335C104.724 76.7178 104.949 77.1395 105.254 77.517C106.698 79.3382 109.928 80.2442 110.664 82.5774Z" fill="white"/>
<path d="M85.9833 102.703C86.0551 103.295 85.8037 103.887 85.5616 104.435C77.3071 122.873 69.0251 141.366 58.4467 158.567C55.9791 162.578 53.18 166.679 49.5008 169.468C48.0745 170.554 46.5222 171.443 44.7995 172.053C41.587 173.184 38.079 173.21 34.687 172.896C27.4278 172.232 19.8999 169.792 15.2879 164.157C13.7088 162.228 12.5514 160.012 11.6721 157.678C10.9991 155.893 10.488 154.027 10.0838 152.16C8.45045 144.704 8.28932 136.934 9.89509 129.55C15.1175 131.936 20.1853 133.539 25.776 134.849C29.3025 135.674 34.291 135.639 37.8626 135.066C45.5793 125.645 52.2289 116.97 59.6759 107.504C61.1656 102.345 63.1397 97.3201 65.5704 92.5295C66.6919 94.2973 67.0335 96.5402 66.4765 98.5594C67.957 95.1232 70.0204 91.9466 72.5598 89.1918C72.7845 88.9588 73.0358 88.6983 73.3673 88.6716C74.2374 88.5906 74.381 89.8916 74.1748 90.7442C73.4842 93.5349 72.7927 96.3165 72.1114 99.1063C73.8074 96.6387 75.5034 94.1712 77.2077 91.7036C77.8982 90.699 79.0648 89.5684 80.1329 90.1696C79.1192 93.7587 78.0511 97.3385 76.9296 100.901C78.1413 99.3034 79.3521 97.6976 80.5638 96.0918C81.3087 95.114 82.9237 94.1537 83.5157 95.23C83.7671 95.6784 83.605 96.2438 83.4347 96.7281C82.3583 99.8779 81.2811 103.027 80.2047 106.167C81.4431 104.848 82.6815 103.53 83.9199 102.219C84.1621 101.959 84.4309 101.69 84.7808 101.627C85.3728 101.519 85.9115 102.102 85.9833 102.703Z" fill="#FFCFBA"/>
<path d="M49.5008 169.468C48.0745 170.553 46.5222 171.442 44.7995 172.052C41.587 173.183 38.079 173.21 34.687 172.896C27.4278 172.232 19.8999 169.791 15.2879 164.156C13.7088 162.227 12.5514 160.011 11.6721 157.678C16.5263 155.946 21.919 155.497 27.1139 155.758C31.2775 155.974 35.476 156.611 39.2271 158.414C43.8658 160.647 47.5626 164.703 49.5008 169.468Z" fill="#FFB899"/>
<path d="M6.87231 127.586C15.8808 133.25 26.9758 136.103 37.5707 135.159" stroke="#010103" stroke-width="0.589229" stroke-miterlimit="10"/>
<path d="M31.8466 141.826C35.8407 137.326 39.6894 132.697 43.3834 127.948" stroke="#010103" stroke-width="0.589229" stroke-miterlimit="10"/>
<path d="M80.5609 115.159C80.1577 116.797 78.9745 118.224 77.4406 118.925" stroke="#010103" stroke-width="0.589229" stroke-miterlimit="10"/>
<path d="M159.54 151.64C158.948 160.047 155.906 168.248 149.087 171.326C149.069 171.326 149.051 171.336 149.034 171.345C148.989 171.362 148.935 171.381 148.89 171.398V171.389C146.315 172.179 143.624 172.654 140.976 172.896C137.584 173.21 134.076 173.184 130.864 172.053C124.709 169.882 120.635 164.13 117.217 158.567C106.638 141.366 98.3562 122.873 90.1018 104.435C89.8596 103.888 89.6083 103.295 89.6801 102.703C89.7519 102.101 90.2905 101.519 90.8826 101.626C91.2324 101.689 91.5013 101.959 91.7435 102.218C92.9819 103.529 94.2203 104.847 95.4577 106.167C94.3814 103.026 93.3041 99.8769 92.2278 96.7271C92.0574 96.2428 91.8954 95.6774 92.1467 95.229C92.7388 94.1527 94.3538 95.1121 95.0986 96.0908C96.3094 97.6966 97.5211 99.3033 98.7328 100.9C97.6113 97.3375 96.5433 93.7577 95.5296 90.1686C96.5976 89.5674 97.7633 90.6981 98.4547 91.7026C100.16 94.1702 101.855 96.6378 103.551 99.1054C102.869 96.3146 102.178 93.533 101.488 90.7432C101.281 89.8906 101.425 88.5896 102.295 88.6706C102.628 88.6973 102.878 88.9579 103.103 89.1908C105.642 91.9457 107.705 95.1213 109.186 98.5584C108.63 96.5393 108.971 94.2963 110.092 92.5285C112.524 97.32 114.498 102.345 115.987 107.503C123.434 116.97 130.935 126.831 138.652 136.252C138.948 136.297 139.298 136.045 139.593 136.081L153.914 127.809C153.914 127.809 155.188 129.845 156.713 133.067C158.841 137.535 160.035 144.66 159.54 151.64Z" fill="#FFCFBA"/>
<path d="M159.54 151.64C158.948 160.047 155.906 168.248 149.087 171.326C149.069 171.326 149.051 171.335 149.034 171.344C148.989 171.362 148.935 171.38 148.89 171.398V171.389C146.315 172.179 143.624 172.654 140.976 172.896C137.584 173.21 134.076 173.183 130.864 172.052C130.864 172.052 139.944 152.941 159.54 151.64Z" fill="#FFB899"/>
<path d="M154.889 126.242C150.035 130.511 144.469 133.961 138.5 136.44" stroke="#010103" stroke-width="0.589229" stroke-miterlimit="10"/>
<path d="M95.0314 115.319C95.4466 116.737 96.2873 118.167 97.6767 118.671" stroke="#010103" stroke-width="0.589229" stroke-miterlimit="10"/>
<path d="M132.472 128.514C135.463 132.993 139.027 137.089 143.052 140.667" stroke="#010103" stroke-width="0.589229" stroke-miterlimit="10"/>
<path d="M164.199 167.925H0V176.001H164.199V167.925Z" fill="white"/>
</svg>
