<svg width="165" height="230" viewBox="0 0 165 230" fill="none" xmlns="http://www.w3.org/2000/svg">
<path d="M19.3037 58.1925C14.4562 60.9923 14.4304 65.5351 19.2422 68.3304L64.1452 94.426C68.9633 97.2294 76.8005 97.2214 81.6489 94.4233L154.792 52.1901C159.638 49.3939 159.673 44.8555 154.851 42.0557L109.952 15.9602C105.14 13.1675 97.2964 13.1675 92.4542 15.9646L19.3037 58.1925Z" fill="#0ECFD8"/>
<path opacity="0.2" d="M150.929 70.6294L108.626 46.0478C104.09 43.4137 96.7039 43.4137 92.1415 46.0478L23.2308 85.8341C20.1058 87.6341 18.7032 90.2272 19.8287 92.5128L21.871 108.303C21.871 108.303 23.8769 110.711 25.8203 111.839L66.365 135.401C70.7162 137.929 77.7959 137.929 82.1729 135.397L148.225 97.2632C150.299 96.0665 152.151 93.3754 152.151 93.3754L154.318 77.1175C154.316 77.1192 154.157 72.5078 150.929 70.6294Z" fill="#7DD4F2"/>
<path opacity="0.5" d="M156.182 44.0707L109.334 28.4766C104.653 25.7552 97.0248 25.7552 92.3118 28.4766L18.3967 61.9148C15.1728 63.7736 17.1768 75.7864 17.1768 75.7864L19.7557 92.7634C19.7557 92.7634 21.8248 95.2451 23.8315 96.4115L65.6994 120.744C70.1931 123.355 77.4992 123.352 82.0179 120.74L150.223 81.3646C152.369 80.1269 154.278 77.3484 154.278 77.3484L156.513 60.5594C156.513 60.5594 159.517 46.0097 156.182 44.0707Z" fill="#7DD4F2"/>
<path d="M164.487 35.8906H158.447V46.1239H164.487V35.8906Z" fill="#0467D8"/>
<g opacity="0.4">
<path d="M30.7784 144.933C26.7436 147.261 26.7239 151.043 30.7258 153.366L68.0786 175.073C72.0858 177.399 78.6041 177.399 82.6408 175.068L143.484 139.942C147.514 137.613 147.542 133.837 143.533 131.508L106.178 109.802C102.176 107.477 95.6543 107.477 91.6238 109.802L30.7784 144.933Z" fill="#7DD4F2"/>
</g>
<path d="M106.588 87.4619C106.574 87.5964 106.565 87.7292 106.541 87.8611C106.522 87.9591 106.493 88.0571 106.467 88.156C106.432 88.2888 106.401 88.4171 106.353 88.5445C106.321 88.6381 106.274 88.7334 106.235 88.8315C106.176 88.9625 106.119 89.0952 106.047 89.2271C105.999 89.3171 105.938 89.4089 105.886 89.4989C105.794 89.6415 105.701 89.7849 105.594 89.9293C105.493 90.0638 105.388 90.2002 105.27 90.3365C105.24 90.3668 105.216 90.4007 105.183 90.4319C105.031 90.6047 104.855 90.7749 104.669 90.9398C104.549 91.0503 104.414 91.1519 104.283 91.2579C104.168 91.3479 104.064 91.4388 103.943 91.5252C103.805 91.6268 103.65 91.7213 103.504 91.8202C103.347 91.9218 103.196 92.0278 103.031 92.1258C102.66 92.3406 102.268 92.5295 101.868 92.7148C101.751 92.7639 101.632 92.8129 101.513 92.8619C101.2 92.9929 100.879 93.114 100.549 93.2272C100.429 93.2682 100.312 93.3145 100.19 93.3529C99.9839 93.4161 99.7727 93.4732 99.5633 93.5302C99.4002 93.5747 99.2372 93.6237 99.0732 93.6665C98.8487 93.7191 98.6179 93.7628 98.388 93.8091C98.2356 93.8394 98.0841 93.8768 97.9282 93.8991C97.4684 93.9864 97.0005 94.0515 96.5283 94.1005C96.3777 94.1147 96.2262 94.1228 96.0756 94.137C95.8065 94.1602 95.5329 94.1798 95.2593 94.1905C95.0776 94.1985 94.8976 94.2021 94.7176 94.2047C94.493 94.2092 94.2685 94.2128 94.0448 94.2092C93.8595 94.2047 93.6705 94.2021 93.4816 94.1932C93.274 94.1851 93.0682 94.1744 92.8596 94.1602C92.669 94.1441 92.4747 94.1299 92.284 94.1112C92.0799 94.0916 91.8768 94.0702 91.6763 94.0435C91.4891 94.0212 91.3047 93.9944 91.1176 93.9677C90.8992 93.9294 90.6836 93.8938 90.4671 93.8554C90.2951 93.8207 90.1276 93.7877 89.9574 93.7494C89.7007 93.6924 89.4441 93.6291 89.191 93.5605C89.0493 93.5266 88.9094 93.4883 88.7678 93.4518C88.316 93.3163 87.8722 93.1684 87.4463 93.0027C87.236 92.9198 87.0301 92.828 86.8305 92.7425C86.7209 92.6917 86.6104 92.6471 86.5062 92.5981C86.1943 92.4511 85.8886 92.2925 85.6008 92.1267C83.1708 90.7224 81.9536 88.8814 81.9616 87.0439L81.8565 123.567C81.852 125.41 83.0657 127.247 85.4957 128.654C85.7853 128.821 86.0909 128.979 86.3992 129.127C86.5053 129.17 86.6069 129.214 86.7102 129.258C86.8956 129.342 87.0818 129.428 87.2734 129.507C87.2957 129.515 87.3206 129.52 87.3429 129.53C87.7706 129.697 88.2126 129.844 88.6653 129.975C88.6991 129.986 88.7348 130.002 88.7713 130.009C88.8738 130.04 88.987 130.063 89.0903 130.09C89.3407 130.156 89.5938 130.221 89.8513 130.278C89.9199 130.292 89.9886 130.311 90.0572 130.327C90.1543 130.346 90.2594 130.361 90.3592 130.379C90.5793 130.42 90.7994 130.459 91.0213 130.496C91.1087 130.507 91.1915 130.526 91.2771 130.537C91.3689 130.553 91.4633 130.556 91.5578 130.572C91.7681 130.598 91.9784 130.621 92.1904 130.643C92.2858 130.651 92.3802 130.662 92.4747 130.674C92.5665 130.682 92.6547 130.682 92.7438 130.69C92.9559 130.701 93.1626 130.712 93.3774 130.72C93.4816 130.726 93.5859 130.734 93.6893 130.739C93.773 130.739 93.8568 130.734 93.9379 130.739C94.1669 130.739 94.3941 130.739 94.6204 130.734C94.7318 130.734 94.8414 130.734 94.9493 130.734C95.0188 130.731 95.0776 130.723 95.1435 130.72C95.4251 130.707 95.7085 130.69 95.9945 130.663C96.1005 130.651 96.2119 130.651 96.3171 130.644C96.35 130.636 96.3848 130.633 96.4187 130.628C96.8883 130.575 97.3605 130.512 97.823 130.432C97.8453 130.429 97.8658 130.429 97.889 130.421C98.0226 130.399 98.1536 130.366 98.2828 130.338C98.5118 130.293 98.7462 130.248 98.9699 130.191C99.1294 130.152 99.2844 130.107 99.4412 130.063C99.6605 130.006 99.8752 129.945 100.091 129.88C100.134 129.866 100.181 129.855 100.222 129.839C100.3 129.817 100.366 129.783 100.441 129.757C100.77 129.648 101.094 129.523 101.41 129.392C101.526 129.343 101.647 129.294 101.764 129.241C102.162 129.063 102.554 128.867 102.925 128.656C102.973 128.621 103.024 128.596 103.076 128.566C103.191 128.497 103.288 128.422 103.397 128.351C103.546 128.253 103.695 128.158 103.837 128.056C103.959 127.969 104.07 127.875 104.185 127.781C104.31 127.679 104.443 127.576 104.561 127.47C104.586 127.448 104.615 127.429 104.636 127.408C104.795 127.263 104.942 127.113 105.078 126.96C105.109 126.93 105.137 126.894 105.166 126.862C105.246 126.772 105.329 126.679 105.402 126.583C105.436 126.546 105.455 126.501 105.486 126.459C105.592 126.32 105.683 126.177 105.776 126.033C105.814 125.973 105.864 125.912 105.899 125.847C105.916 125.818 105.927 125.784 105.944 125.749C106.01 125.626 106.065 125.501 106.121 125.373C106.155 125.297 106.199 125.225 106.226 125.147C106.238 125.12 106.241 125.094 106.246 125.071C106.291 124.951 106.319 124.83 106.351 124.705C106.377 124.623 106.408 124.539 106.426 124.452C106.43 124.43 106.43 124.408 106.435 124.384C106.457 124.256 106.468 124.128 106.483 123.999C106.487 123.916 106.504 123.83 106.507 123.743C106.508 123.71 106.508 123.671 106.508 123.637L106.615 87.1108C106.618 87.2275 106.598 87.3451 106.588 87.4619Z" fill="#DAE5F8"/>
<path d="M103.401 128.347C103.55 128.249 103.7 128.153 103.842 128.052C103.964 127.965 104.074 127.87 104.189 127.777C104.315 127.674 104.447 127.572 104.565 127.466C104.59 127.443 104.619 127.425 104.641 127.403C104.799 127.259 104.946 127.108 105.083 126.956C105.113 126.926 105.142 126.89 105.17 126.858C105.25 126.768 105.333 126.674 105.406 126.579C105.44 126.541 105.46 126.497 105.49 126.454C105.596 126.315 105.688 126.173 105.781 126.028C105.819 125.969 105.869 125.908 105.904 125.843C105.92 125.813 105.932 125.78 105.949 125.745C106.015 125.622 106.069 125.496 106.125 125.369C106.159 125.292 106.204 125.221 106.231 125.142C106.242 125.116 106.246 125.09 106.251 125.067C106.296 124.946 106.323 124.825 106.355 124.7C106.381 124.619 106.412 124.535 106.43 124.447C106.435 124.425 106.435 124.404 106.44 124.38C106.461 124.251 106.473 124.123 106.487 123.995C106.492 123.912 106.509 123.825 106.511 123.738C106.513 123.705 106.513 123.667 106.513 123.632L106.601 93.04L103.506 91.8184C103.35 91.9199 103.199 92.026 103.034 92.124C102.663 92.3388 102.271 92.5277 101.87 92.713C101.754 92.762 101.634 92.811 101.516 92.86C101.203 92.991 100.881 93.1122 100.552 93.2254C100.432 93.2664 100.315 93.3127 100.193 93.351C99.9867 93.4143 99.7755 93.4713 99.5661 93.5284C99.403 93.5729 99.24 93.6219 99.076 93.6647C98.8514 93.7173 98.6207 93.7609 98.3908 93.8073C98.2384 93.8376 98.0869 93.875 97.9309 93.8973C97.4711 93.9846 97.0033 94.0497 96.531 94.0987C96.3804 94.1129 96.229 94.1209 96.0784 94.1352C96.0392 94.1397 95.9999 94.1396 95.9598 94.1432L81.9341 98.4597L81.9252 102.482C85.1393 105.538 91.3779 109.418 101.312 107.508C101.312 107.508 103.278 107.06 102.977 111.391C102.776 114.327 102.861 123.209 102.94 128.646C102.987 128.619 103.035 128.589 103.082 128.563C103.196 128.493 103.293 128.417 103.401 128.347Z" fill="#C0D3ED"/>
<path d="M102.981 88.2995C107.808 91.0868 107.83 95.6073 103.034 98.3965C98.233 101.184 90.4332 101.184 85.6035 98.3965C80.7738 95.6073 80.748 91.0913 85.5465 88.3022C90.3423 85.5104 98.1519 85.5104 102.981 88.2995Z" fill="#FFFFFE"/>
<path d="M102.981 88.2995C107.808 91.0868 107.83 95.6073 103.034 98.3965C98.233 101.184 90.4332 101.184 85.6035 98.3965C80.7738 95.6073 80.748 91.0913 85.5465 88.3022C90.3423 85.5104 98.1519 85.5104 102.981 88.2995Z" fill="#FFFFFE"/>
<path d="M104.898 88.7596C110.793 92.1627 110.819 97.6866 104.962 101.09C99.1045 104.493 89.5787 104.493 83.685 101.09C77.786 97.6866 77.7575 92.1654 83.6147 88.765C89.4727 85.3592 99.0038 85.3565 104.898 88.7596Z" fill="#DAE8FA"/>
<path d="M104.898 86.0729C110.793 89.4724 110.819 94.9972 104.962 98.4002C99.1045 101.803 89.5787 101.803 83.685 98.4002C77.786 94.9972 77.7575 89.4813 83.6147 86.0774C89.4727 82.6743 99.0038 82.6663 104.898 86.0729Z" fill="#FFFFFE"/>
<path d="M105.981 93.3473C106.108 92.7707 106.108 92.1853 105.981 91.6079V79.5986H82.4927V92.4606V92.4651V93.3464H82.6067C82.9418 94.7917 84.0565 96.1845 85.9759 97.2939C90.598 99.9609 98.0645 99.9609 102.655 97.2939C104.562 96.1845 105.664 94.7926 105.981 93.3473Z" fill="#DAE5F7"/>
<path d="M105.981 93.3473C106.108 92.7707 106.108 92.1853 105.981 91.6079V79.5986H82.4927V86.4012C85.2034 88.6076 90.361 90.9324 99.1917 88.6869C99.1917 88.6869 106.618 87.107 102.082 91.8191C99.5054 94.4941 100.962 97.0328 99.8324 98.5049C100.852 98.1912 101.802 97.7876 102.656 97.2939C104.562 96.1845 105.664 94.7926 105.981 93.3473Z" fill="#C0D3ED"/>
<path d="M102.606 74.7649C107.228 77.4372 107.247 81.7644 102.655 84.4332C98.0636 87.1011 90.5971 87.1011 85.976 84.4332C81.3521 81.7644 81.328 77.4373 85.9198 74.7702C90.5134 72.1023 97.9861 72.0969 102.606 74.7649Z" fill="#FFFFFE"/>
<path d="M99.2398 75.9301C101.989 77.5225 102 80.096 99.2683 81.6839C96.5353 83.2683 92.0933 83.2683 89.3425 81.6839C86.5917 80.096 86.5792 77.5225 89.3113 75.9328C92.0425 74.3458 96.4908 74.3458 99.2398 75.9301Z" fill="#DAE5F7"/>
<path d="M101.241 71.1582H87.2717V79.3393H101.241V71.1582Z" fill="#DAE5F7"/>
<path d="M99.2398 68.2787C101.989 69.8666 102 72.4436 99.2683 74.0325C96.5353 75.6168 92.0933 75.6168 89.3425 74.0325C86.5917 72.4436 86.5792 69.8711 89.3113 68.2823C92.0425 66.6935 96.4908 66.6899 99.2398 68.2787Z" fill="#FFFFFE"/>
<path d="M97.7483 69.1465C99.6668 70.2559 99.6766 72.0559 97.767 73.1653C95.8609 74.2747 92.7546 74.2747 90.8343 73.1653C88.9149 72.0559 88.9033 70.2559 90.8129 69.1465C92.7225 68.0371 95.828 68.0371 97.7483 69.1465Z" fill="#C7D7F2"/>
<path opacity="0.5" d="M157.977 49.6096C159.147 47.1983 158.116 44.5072 154.855 42.6145L109.954 16.5189C105.142 13.7236 97.2965 13.7236 92.4561 16.5225L19.3101 58.7521C16.2724 60.5023 15.1282 62.9358 15.8776 65.201L29.579 163.736C29.5799 163.75 29.5799 163.769 29.5843 163.789C29.8 165.071 30.7445 166.316 32.4305 167.292L68.6016 188.314C70.5798 189.465 73.1863 190.02 75.7892 189.996L75.7945 190.005L75.8034 189.996C78.3003 189.976 80.7873 189.416 82.7031 188.314L141.623 154.291C143.405 153.266 144.369 151.941 144.533 150.594L157.977 49.6096Z" fill="#DEFDFF"/>
<path d="M13.5786 57.34C8.31757 60.3778 8.28817 65.3019 13.5073 68.3361L62.2063 96.638C67.4325 99.6757 75.9317 99.6704 81.1892 96.63L160.522 50.8324C165.773 47.7982 165.812 42.8741 160.583 39.8363L111.885 11.5344C106.667 8.50471 98.16 8.50471 92.9106 11.5389L13.5786 57.34Z" fill="#0467D8"/>
<path d="M9.6532 54.0889V63.3517L15.6493 60.3176L9.6532 54.0889Z" fill="#0467D8"/>
<path d="M13.5786 48.0734C8.31757 51.1112 8.28817 56.038 13.5073 59.0731L62.2063 87.3741C67.4325 90.4118 75.9317 90.4038 81.1892 87.3661L160.522 41.564C165.773 38.5352 165.812 33.6101 160.583 30.5733L111.885 2.27495C106.667 -0.758318 98.16 -0.758318 92.9106 2.27495L13.5786 48.0734Z" fill="#298BED"/>
<path d="M45.0902 42.8684C42.0855 44.5998 42.0712 47.4139 45.0466 49.1453L72.8611 65.3097C75.8462 67.041 80.6982 67.041 83.7047 65.3052L129.01 39.1472C132.01 37.4185 132.033 34.6045 129.048 32.8695L101.232 16.7087C98.2562 14.9773 93.3936 14.9773 90.3968 16.7087L45.0902 42.8684Z" fill="#0467D8"/>
<path d="M66.0298 40.1575C66.0432 40.1904 66.0485 40.2252 66.0583 40.259C66.1546 40.5344 66.2963 40.7981 66.4718 41.0628C66.5003 41.1091 66.5315 41.1573 66.5645 41.2027C66.7552 41.4665 66.9824 41.7204 67.2533 41.961C67.4217 42.1161 67.6383 42.2524 67.8379 42.3968C68.0223 42.5278 68.1809 42.6677 68.3948 42.7915C68.9107 43.0891 69.4899 43.3315 70.0905 43.5391C70.3098 43.614 70.5361 43.6781 70.7615 43.7432C71.0395 43.8225 71.3167 43.8938 71.6009 43.9535C71.9574 44.0248 72.3094 44.0898 72.6738 44.1388C72.7531 44.1469 72.8324 44.1611 72.9144 44.1691C73.3974 44.2217 73.8901 44.2485 74.3802 44.2511C74.4506 44.2511 74.521 44.2511 74.5923 44.2511C75.0735 44.2511 75.5529 44.2208 76.0261 44.1718C76.1018 44.1656 76.1758 44.1576 76.2515 44.1469C76.722 44.0898 77.1845 44.0105 77.6363 43.9081C77.7183 43.8902 77.7967 43.8715 77.8805 43.8519C78.2921 43.7494 78.6922 43.6256 79.0772 43.4848C79.1503 43.4598 79.2224 43.4411 79.2928 43.4135C79.7589 43.2326 80.2008 43.0259 80.6099 42.7906L106.083 28.0832C107.788 27.0985 108.642 25.8127 108.638 24.5215L108.66 32.5057C108.662 33.796 107.813 35.0863 106.105 36.07L80.6357 50.7748C80.2436 51.0002 79.8221 51.2007 79.3855 51.3745C79.3623 51.3816 79.3383 51.3888 79.3169 51.3959C79.2465 51.4226 79.1743 51.4422 79.1048 51.4672C78.85 51.5625 78.5987 51.6525 78.334 51.7292C78.1914 51.7693 78.048 51.8004 77.9036 51.8352C77.8225 51.8575 77.7405 51.8762 77.6604 51.8949C77.5828 51.9136 77.5089 51.9323 77.4322 51.9519C77.1498 52.0072 76.8637 52.0562 76.5759 52.1025C76.4716 52.1132 76.3683 52.1212 76.2622 52.1328C76.1999 52.1435 76.1286 52.1515 76.0626 52.1596C75.9539 52.1702 75.8479 52.1845 75.7365 52.1925C75.4549 52.2193 75.1715 52.2299 74.8873 52.2388C74.8 52.2388 74.7108 52.2388 74.6226 52.2388C74.5433 52.2388 74.4694 52.2388 74.3927 52.2388C74.2635 52.2388 74.1307 52.2389 74.0033 52.2344C73.6852 52.2228 73.3671 52.2041 73.049 52.1711C73.0133 52.1667 72.9795 52.1604 72.9447 52.1551C72.8529 52.1471 72.7674 52.1328 72.6756 52.1221C72.4305 52.0918 72.1882 52.0615 71.9476 52.0161C71.8398 51.9974 71.7399 51.9591 71.6375 51.9403C71.3425 51.8806 71.0538 51.8058 70.7669 51.7256C70.6181 51.681 70.4586 51.6623 70.3124 51.6124C70.2429 51.591 70.1877 51.5483 70.12 51.526C69.5158 51.3184 68.9357 51.0813 68.4144 50.7757C68.3788 50.757 68.3476 50.7374 68.3101 50.7151C68.1506 50.6171 68.0348 50.5084 67.8913 50.405C67.6766 50.2544 67.452 50.1074 67.2729 49.9496C67.2578 49.9336 67.2337 49.9194 67.2159 49.9033C67.0172 49.718 66.8381 49.5264 66.6812 49.3259C66.6456 49.2849 66.6224 49.2359 66.5885 49.1913C66.5538 49.145 66.5244 49.0969 66.4914 49.047C66.4397 48.9712 66.3783 48.8919 66.3328 48.8126C66.2428 48.6513 66.1653 48.4847 66.1011 48.3225C66.094 48.2976 66.0913 48.2699 66.0806 48.2477C66.0717 48.2129 66.0637 48.1826 66.0539 48.1496C66.0192 48.0436 65.9826 47.9376 65.9639 47.836C65.9292 47.6693 65.9078 47.5036 65.9078 47.337C65.906 47.312 65.906 47.288 65.906 47.2577L65.8828 39.2735C65.8828 39.5729 65.9398 39.8661 66.0298 40.1575Z" fill="#298BED"/>
<path d="M68.4331 35.7126C65.0417 37.6712 65.0363 40.839 68.3957 42.7905C71.7622 44.7456 77.2246 44.7456 80.6117 42.7905L106.085 28.0831C109.476 26.1253 109.492 22.9629 106.125 21.0096C102.77 19.0581 97.2947 19.0501 93.9032 21.0096L68.4331 35.7126Z" fill="#0359BA"/>
<path opacity="0.5" d="M146.395 136.591C146.395 136.591 146.311 138.295 143.484 139.941C138.016 143.121 135.963 144.258 135.963 144.258L105.494 124.562C101.62 122.293 95.304 122.293 91.4028 124.562L36.6167 156.866C36.6167 156.866 32.4046 154.292 30.9833 153.561C29.0852 152.58 27.7379 150.494 27.7379 150.494L29.5843 163.786L29.6511 163.756C29.9113 164.994 30.8086 166.194 32.4295 167.144L68.5989 188.357C72.4796 190.635 78.7912 190.633 82.6977 188.352L141.622 154.022C143.284 153.052 144.198 151.827 144.452 150.559L144.532 150.592L146.395 136.591Z" fill="#7DD4F2"/>
<path d="M19.7012 159.195L8.38879 152.619L17.7435 98.9014L29.0523 105.475L19.7012 159.195Z" fill="#298BED"/>
<path d="M29.0522 105.475L17.7434 98.9013L39.5876 86.2051L50.9018 92.7769L29.0522 105.475Z" fill="#298BED"/>
<path d="M50.9018 92.7764L50.9401 106.545L35.9894 115.174L28.5337 157.984L19.7012 159.195L29.0523 105.474L50.9018 92.7764Z" fill="#0467D8"/>
<path d="M120.196 9.26376C120.196 9.26376 141.985 5.6183 146.523 9.26376C149.579 11.7169 150.167 26.4395 150.167 26.4395L120.196 9.26376Z" fill="#298BED"/>
<path d="M128.769 11.5643C128.769 11.5643 141.258 8.50432 143.709 11.444C146.158 14.3837 145.176 21.2389 145.176 21.2389L128.769 11.5643Z" fill="#0467D8"/>
<path d="M3.65164 209.597L5.60848 209.661L4.56234 212.534L2.60461 212.474L3.65164 209.597Z" fill="#A2C4C5"/>
<path d="M2.60461 212.474L4.56234 212.533L5.88116 213.294L3.92075 213.23L2.60461 212.474Z" fill="#9FC0C1"/>
<path d="M3.92075 213.23L5.88116 213.295L4.59531 216.828L2.63135 216.763L3.92075 213.23Z" fill="#147F91"/>
<path d="M3.65161 209.597L5.60845 209.661L6.92548 210.422L4.96865 210.36L3.65161 209.597Z" fill="#9FC0C1"/>
<path d="M9.41433 193.768L11.3721 193.832L10.3241 196.715L8.36462 196.655L9.41433 193.768Z" fill="#A2C4C5"/>
<path d="M8.36462 196.655L10.3241 196.716L11.6412 197.48L9.68166 197.416L8.36462 196.655Z" fill="#9FC0C1"/>
<path d="M9.68173 197.415L11.6412 197.479L6.92558 210.421L4.96875 210.359L9.68173 197.415Z" fill="#147F91"/>
<path d="M9.41431 193.768L11.372 193.832L12.6953 194.594L10.734 194.531L9.41431 193.768Z" fill="#9FC0C1"/>
<path d="M16.2222 175.078L18.1862 175.144L17.1338 178.017L15.1743 177.953L16.2222 175.078Z" fill="#A2C4C5"/>
<path d="M16.4924 178.714L18.4528 178.78L12.6954 194.594L10.7341 194.532L16.4924 178.714Z" fill="#147F91"/>
<path d="M15.1743 177.952L17.1338 178.016L18.4526 178.779L16.4922 178.713L15.1743 177.952Z" fill="#9FC0C1"/>
<path d="M16.2222 175.078L18.1861 175.144L19.4996 175.906L17.5383 175.844L16.2222 175.078Z" fill="#9FC0C1"/>
<path d="M25.1287 150.633L27.0838 150.693L26.0421 153.568L24.0781 153.503L25.1287 150.633Z" fill="#A2C4C5"/>
<path d="M25.3952 154.267L27.3592 154.33L19.4997 175.906L17.5385 175.844L25.3952 154.267Z" fill="#147F91"/>
<path d="M24.0781 153.504L26.0421 153.569L27.3591 154.33L25.3952 154.267L24.0781 153.504Z" fill="#9FC0C1"/>
<path d="M4.96875 210.359L6.92558 210.421L25.5422 221.165L23.5818 221.104L4.96875 210.359Z" fill="#147F91"/>
<path d="M22.533 223.976L24.4951 224.039L25.8122 224.804L23.8544 224.738L22.533 223.976Z" fill="#9FC0C1"/>
<path d="M25.1287 150.633L27.0837 150.693L28.4061 151.456L26.4439 151.393L25.1287 150.633Z" fill="#9FC0C1"/>
<path d="M24.9015 221.865L23.8544 224.74L22.533 223.977L3.92075 213.231L2.60461 212.474L3.65164 209.597L4.96868 210.36L23.5818 221.105L24.9015 221.865Z" fill="#29B2DC"/>
<path d="M24.9015 221.865L26.861 221.926L25.8122 224.806L23.8545 224.74L24.9015 221.865Z" fill="#A2C4C5"/>
<path d="M23.5818 221.104L25.5422 221.165L26.861 221.925L24.9015 221.865L23.5818 221.104Z" fill="#9FC0C1"/>
<path d="M10.7341 194.53L12.6954 194.593L31.3067 205.339L29.3481 205.275L10.7341 194.53Z" fill="#147F91"/>
<path d="M31.9357 131.947L33.8908 132.004L32.8482 134.877L30.8905 134.817L31.9357 131.947Z" fill="#A2C4C5"/>
<path d="M28.2957 208.163L30.2552 208.225L31.5722 208.986L29.6162 208.921L28.2957 208.163Z" fill="#9FC0C1"/>
<path d="M30.8905 134.816L32.8482 134.876L34.167 135.639L32.2075 135.581L30.8905 134.816Z" fill="#9FC0C1"/>
<path d="M32.2075 135.582L34.1671 135.64L28.4061 151.458L26.444 151.394L32.2075 135.582Z" fill="#147F91"/>
<path d="M30.6659 206.04L32.6263 206.102L31.5722 208.986L29.6162 208.921L30.6659 206.04Z" fill="#A2C4C5"/>
<path d="M30.666 206.04L29.6162 208.921L28.2956 208.163L9.68166 197.416L8.36462 196.655L9.41433 193.768L10.734 194.531L29.348 205.276L30.666 206.04Z" fill="#29B2DC"/>
<path d="M29.3481 205.276L31.3068 205.341L32.6265 206.102L30.6661 206.04L29.3481 205.276Z" fill="#9FC0C1"/>
<path d="M31.9357 131.947L33.8907 132.004L35.2086 132.769L33.2536 132.704L31.9357 131.947Z" fill="#9FC0C1"/>
<path d="M17.5383 175.845L19.4996 175.906L38.1127 186.649L36.1532 186.589L17.5383 175.845Z" fill="#147F91"/>
<path d="M35.108 189.461L37.0666 189.522L38.3837 190.283L36.4259 190.222L35.108 189.461Z" fill="#9FC0C1"/>
<path d="M39.2703 111.805L41.2298 111.87L40.1819 114.741L38.2224 114.678L39.2703 111.805Z" fill="#A2C4C5"/>
<path d="M38.2224 114.678L40.1819 114.74L41.4998 115.505L39.5421 115.44L38.2224 114.678Z" fill="#9FC0C1"/>
<path d="M39.5421 115.44L41.4998 115.505L35.2087 132.769L33.2537 132.704L39.5421 115.44Z" fill="#147F91"/>
<path d="M37.474 187.348L39.4326 187.409L38.3838 190.282L36.426 190.221L37.474 187.348Z" fill="#A2C4C5"/>
<path d="M36.1533 186.589L38.1128 186.649L39.4325 187.41L37.4739 187.348L36.1533 186.589Z" fill="#9FC0C1"/>
<path d="M37.4739 187.348L36.4259 190.222L35.108 189.461L16.4922 178.714L15.1743 177.953L16.2222 175.078L17.5384 175.844L36.1533 186.589L37.4739 187.348Z" fill="#29B2DC"/>
<path d="M39.2703 111.805L41.2298 111.87L42.5441 112.628L40.5864 112.567L39.2703 111.805Z" fill="#9FC0C1"/>
<path d="M46.0756 93.1172L48.0351 93.1787L46.9899 96.0515L45.0304 95.9865L46.0756 93.1172Z" fill="#A2C4C5"/>
<path d="M46.3491 96.751L48.3068 96.8142L42.5441 112.628L40.5864 112.566L46.3491 96.751Z" fill="#147F91"/>
<path d="M45.0304 95.9863L46.9899 96.0514L48.3069 96.8142L46.3492 96.7509L45.0304 95.9863Z" fill="#9FC0C1"/>
<path d="M26.444 151.395L28.4061 151.458L47.0184 162.204L45.0588 162.138L26.444 151.395Z" fill="#147F91"/>
<path d="M46.0756 93.1172L48.0351 93.1787L49.353 93.9388L47.3944 93.8737L46.0756 93.1172Z" fill="#9FC0C1"/>
<path d="M44.011 165.011L45.9705 165.078L47.2884 165.838L45.3289 165.774L44.011 165.011Z" fill="#9FC0C1"/>
<path d="M45.0588 162.138L47.0184 162.204L48.3354 162.965L46.3768 162.901L45.0588 162.138Z" fill="#9FC0C1"/>
<path d="M46.3768 162.9L45.3288 165.773L44.0109 165.011L25.3952 154.266L24.0781 153.503L25.1287 150.633L26.444 151.393L45.0588 162.137L46.3768 162.9Z" fill="#29B2DC"/>
<path d="M46.3768 162.901L48.3354 162.965L47.2884 165.838L45.3289 165.774L46.3768 162.901Z" fill="#A2C4C5"/>
<path d="M49.1837 88.957L51.1459 89.0221L49.353 93.9382L47.3944 93.8732L49.1837 88.957Z" fill="#147F91"/>
<path d="M46.546 87.4365L48.5055 87.4998L51.1458 89.0227L49.1836 88.9576L46.546 87.4365Z" fill="#29B2DC"/>
<path d="M49.1837 88.9576L47.3944 93.8738L46.0756 93.1172L45.0304 95.9865L46.3492 96.7511L40.5865 112.566L39.2704 111.804L38.2224 114.678L39.5421 115.44L33.2537 132.703L31.9358 131.946L30.8905 134.817L32.2076 135.581L26.444 151.394L25.1288 150.634L24.0782 153.504L25.3952 154.267L17.5384 175.844L16.2223 175.078L15.1744 177.953L16.4923 178.714L10.7341 194.531L9.41437 193.768L8.36467 196.655L9.6817 197.416L4.96872 210.36L3.65169 209.596L2.60466 212.473L3.9208 213.23L2.63139 216.762L0 215.243L46.5461 87.4365L49.1837 88.9576Z" fill="#29B2DC"/>
<path d="M33.2537 132.702L35.2087 132.767L53.8227 143.511L51.8668 143.45L33.2537 132.702Z" fill="#147F91"/>
<path d="M50.817 146.323L52.7783 146.387L54.0953 147.147L52.1376 147.085L50.817 146.323Z" fill="#9FC0C1"/>
<path d="M53.1829 144.208L52.1377 147.086L50.8171 146.324L32.2075 135.582L30.8905 134.817L31.9357 131.947L33.2537 132.704L51.8668 143.452L53.1829 144.208Z" fill="#29B2DC"/>
<path d="M53.1829 144.207L55.1442 144.274L54.0954 147.147L52.1377 147.085L53.1829 144.207Z" fill="#A2C4C5"/>
<path d="M51.8668 143.452L53.8228 143.513L55.1442 144.275L53.183 144.208L51.8668 143.452Z" fill="#9FC0C1"/>
<path d="M40.5864 112.566L42.5441 112.628L61.1572 123.375L59.2004 123.31L40.5864 112.566Z" fill="#147F91"/>
<path d="M58.1517 126.186L60.1157 126.251L61.4345 127.01L59.4706 126.946L58.1517 126.186Z" fill="#9FC0C1"/>
<path d="M59.2006 123.311L61.1574 123.376L62.4762 124.137L60.5176 124.075L59.2006 123.311Z" fill="#9FC0C1"/>
<path d="M60.5175 124.075L59.4705 126.945L58.1516 126.185L39.5421 115.44L38.2224 114.678L39.2703 111.805L40.5865 112.567L59.2005 123.31L60.5175 124.075Z" fill="#29B2DC"/>
<path d="M60.5175 124.074L62.4761 124.136L61.4344 127.009L59.4705 126.944L60.5175 124.074Z" fill="#A2C4C5"/>
<path d="M47.3944 93.874L49.353 93.9391L67.967 104.685L66.003 104.623L47.3944 93.874Z" fill="#147F91"/>
<path d="M64.9578 107.495L66.9208 107.562L68.2397 108.321L66.2819 108.256L64.9578 107.495Z" fill="#9FC0C1"/>
<path d="M67.3263 105.388L69.2867 105.449L68.2397 108.322L66.282 108.257L67.3263 105.388Z" fill="#A2C4C5"/>
<path d="M66.0029 104.623L67.9669 104.685L69.2866 105.449L67.3262 105.388L66.0029 104.623Z" fill="#9FC0C1"/>
<path d="M67.3264 105.388L66.282 108.257L64.9578 107.496L46.3492 96.7511L45.0304 95.9865L46.0756 93.1172L47.3945 93.8737L66.0031 104.623L67.3264 105.388Z" fill="#29B2DC"/>
<path d="M70.4336 101.227L23.883 229.034L21.2472 227.514L22.533 223.976L23.8545 224.738L24.9016 221.864L23.5818 221.104L28.2957 208.162L29.6163 208.92L30.666 206.039L29.3481 205.275L35.1081 189.46L36.426 190.221L37.474 187.347L36.1534 186.588L44.011 165.01L45.3289 165.773L46.3768 162.9L45.0589 162.137L50.8171 146.322L52.1377 147.084L53.183 144.206L51.8668 143.45L58.1517 126.184L59.4705 126.944L60.5176 124.074L59.2005 123.309L64.9578 107.495L66.282 108.256L67.3264 105.387L66.0031 104.622L67.7995 99.7041L70.4336 101.227Z" fill="#29B2DC"/>
<path d="M70.4335 101.228L72.3948 101.293L25.8469 229.094L23.8829 229.035L70.4335 101.228Z" fill="#147F91"/>
<path d="M67.7996 99.7041L69.7573 99.7656L72.3949 101.292L70.4336 101.227L67.7996 99.7041Z" fill="#29B2DC"/>
<path d="M44.4619 100.924C44.4619 100.924 46.3635 93.9216 49.1776 93.559C51.9898 93.1981 53.0467 95.4187 52.5174 95.9507C51.9898 96.4764 48.0076 99.0249 46.9276 101.926C46.9276 101.926 45.1882 102.301 44.4619 100.924Z" fill="#EFB185"/>
<path d="M22.1811 104.913C20.4577 105.692 18.9892 109.17 24.1219 111.541C29.2555 113.907 39.994 119.397 41.9357 118.332C43.504 117.463 45.3183 115.013 39.0976 111.526C32.8769 108.039 26.4298 102.996 22.1811 104.913Z" fill="#F9F9F9"/>
<path d="M38.0719 116.987C38.0719 116.987 41.3894 119.588 43.5343 116.726C45.6809 113.863 48.0699 100.331 48.0699 100.331C48.0699 100.331 44.8059 100.103 44.5136 98.4004C44.5136 98.4004 36.5303 113.598 38.0719 116.987Z" fill="#F9F9F9"/>
<path d="M23.2201 189.17C23.2201 189.17 25.5414 189.734 24.849 191.041C24.1602 192.349 21.2704 194.171 20.8391 194.999C20.406 195.826 17.9261 198.694 17.2364 198.347C16.5467 198 14.6594 198.265 15.1842 194.786C15.702 191.31 20.0959 188.75 23.2201 189.17Z" fill="#111114"/>
<path d="M20.1458 196.621C20.1458 196.621 18.3761 199.701 21.0253 201.025C23.6843 202.35 23.1924 200.421 28.9952 203.173C34.8078 205.922 36.1266 202.906 36.1248 202.172C36.1266 201.436 32.2958 199.368 31.0313 198.76C29.7588 198.15 27.3654 197.017 27.3654 197.017L20.1154 195.591L20.1458 196.621Z" fill="#111114"/>
<path d="M20.0433 142.515C20.0433 142.515 18.2192 162.758 18.0187 165.037C17.8191 167.317 13.6943 185.06 14.5265 193.04C14.5265 193.04 18.5534 197.856 22.8466 193.774C22.8466 193.774 26.0759 171.39 27.655 166.417C29.2251 161.439 30.2177 145.887 30.2177 145.887L20.0433 142.515Z" fill="#632BEE"/>
<path d="M27.0758 140.71C27.0758 140.71 25.5297 153.781 24.0434 166.75C24.0434 166.75 19.694 192.217 19.5781 195.995C19.5781 195.995 27.3511 199.617 28.9274 195.936C28.9274 195.936 33.1102 173.587 34.2312 168.969C35.3558 164.345 39.3443 149.959 38.9754 142.09C38.6136 134.232 27.0758 140.71 27.0758 140.71Z" fill="#632BEE"/>
<path d="M19.5781 195.995C19.694 192.218 24.0434 166.75 24.0434 166.75C25.0441 158.019 26.247 147.796 26.8049 142.99L32.1372 145.154C32.1372 145.154 33.2029 156.946 29.8301 171.16C27.2228 182.167 24.8917 193.046 23.9721 197.404C21.7132 196.984 19.5781 195.995 19.5781 195.995Z" fill="#471BCE"/>
<path d="M14.5265 193.04C13.6943 185.059 17.8191 167.317 18.0187 165.036C18.213 162.865 19.874 144.413 20.0246 142.659L24.1851 146.478C24.1851 146.478 24.3196 161.079 22.1828 169.199C20.2313 176.587 19.7751 191.265 18.7815 195.391C16.3185 195.175 14.5265 193.04 14.5265 193.04Z" fill="#471BCE"/>
<path d="M22.533 104.989C22.533 104.989 18.0259 106.647 19.6263 114.173C21.2231 121.699 21.7007 130.294 20.3302 132.642C11.1511 148.333 12.9814 165.05 12.9814 165.05C12.9814 165.05 12.5172 171.712 24.1851 173.3C28.0827 173.833 39.9868 172.65 38.9719 165.05C37.9533 157.436 40.296 128.89 40.9002 126.08C41.5079 123.263 43.8577 117.766 37.1727 113.126C30.494 108.48 27.1159 105.221 22.533 104.989Z" fill="#E5EEFF"/>
<path d="M27.9856 101.973C27.9856 101.973 28.0141 105.815 26.4449 108.038C25.0219 110.062 33.7314 113.033 34.1662 111.062C34.2117 110.851 32.8635 107.394 35.4619 103.766C36.8181 101.869 27.9856 101.973 27.9856 101.973Z" fill="#EFB185"/>
<path d="M26.4733 108.181C27.6424 106.526 27.9285 103.983 27.9971 102.782L34.151 106.75C34.151 106.762 34.1474 106.762 34.1465 106.768C33.905 106.797 29.3729 107.42 28.0621 110.479C26.7843 109.776 25.9574 108.916 26.4733 108.181Z" fill="#DD9569"/>
<path d="M38.5298 92.9651C38.5298 92.9651 39.5332 96.5598 38.9183 99.4959C38.2634 102.653 38.668 103.35 38.3062 104.747C38.1529 105.343 38.0041 106.254 37.342 106.758C36.2549 107.594 34.1876 107.718 31.5455 106.403C28.3572 104.809 25.372 99.8399 27.2575 95.8906C29.144 91.9395 33.9024 89.0479 38.5298 92.9651Z" fill="#EFB185"/>
<path d="M26.9056 100.354C28.6584 96.8022 32.4634 92.7406 32.4571 92.5018C32.4571 92.353 33.636 91.7907 34.9673 91.1973C36.1257 91.4004 37.3314 91.9511 38.529 92.9652C38.529 92.9652 38.7964 93.9294 38.9719 95.2615C38.0781 96.0546 36.3512 96.886 36.0224 97.6104C35.2507 99.3124 35.2694 102.038 35.6651 103.282C36.0571 104.53 33.726 106.026 34.0584 107.127C34.0762 107.178 34.0664 107.224 34.0558 107.272C33.2974 107.127 32.4554 106.856 31.5455 106.403C29.5112 105.383 27.5561 102.986 26.9056 100.354Z" fill="#E6A376"/>
<path d="M39.6723 91.6643C39.6723 91.6643 39.8229 94.6619 36.7513 95.7669C34.9076 96.4218 34.749 99.2555 34.7748 99.7839C34.7998 100.321 35.0457 102.749 34.7918 103.029C34.3204 103.572 33.1646 101.585 32.5034 101.641C30.8086 101.774 31.2791 103.39 32.5997 105.177C34.004 107.071 29.717 107.307 27.9348 105.666C26.9858 104.8 26.6561 104.304 25.6019 101.452C24.0719 97.2951 24.4997 92.5581 29.4408 90.5567C34.3756 88.5615 36.655 92.4797 39.6723 91.6643Z" fill="#221101"/>
<path d="M27.9348 105.667C26.9858 104.8 26.6561 104.305 25.6019 101.453C24.0719 97.2957 24.4997 92.5586 29.4408 90.5572C34.3765 88.5612 36.6559 92.4784 39.6723 91.664C39.6723 91.664 39.699 92.1737 39.5119 92.8447C38.0131 92.9177 33.8909 93.2581 32.6585 94.8737C31.1365 96.867 29.7936 96.0152 29.6021 98.6866C29.4105 101.256 28.3715 104.53 32.5026 106.455C30.7783 107.427 28.6263 106.304 27.9348 105.667Z" fill="#341C09"/>
<path d="M33.7981 109.823L36.4322 112.599C36.4322 112.599 27.0838 114.175 24.9282 109.435C24.6297 108.769 25.3185 106.714 26.9465 106.499C26.9465 106.499 26.8414 110.144 33.7981 109.823Z" fill="#17A89F"/>
<path d="M35.2275 113.972C33.3366 113.877 30.4441 116.301 33.9336 120.749C37.4222 125.204 44.4699 134.988 46.6824 134.923C48.4762 134.866 51.2065 133.517 47.2643 127.575C43.3186 121.635 39.8843 114.203 35.2275 113.972Z" fill="#F9F9F9"/>
<path d="M59.335 121.602C59.335 121.602 62.2043 120.203 62.9715 120.105C63.7441 120.001 65.103 118.374 65.3855 117.424C65.6724 116.477 66.1527 113.864 64.7804 114.343C63.4046 114.824 62.8637 115.351 61.9592 115.524C61.0628 115.703 59.5257 116.692 59.1559 117.232C58.7869 117.776 57.6143 119.526 57.6143 119.526L59.335 121.602Z" fill="#EFB185"/>
<path d="M43.8585 131.966C43.8585 131.966 45.6238 135.791 48.8388 134.228C52.053 132.657 60.3544 121.707 60.3544 121.707C60.3544 121.707 57.5537 120.015 58.0696 118.365C58.0696 118.365 44.0305 128.248 43.8585 131.966Z" fill="#F9F9F9"/>
</svg>
