<svg width="384" height="93" viewBox="0 0 384 93" fill="none" xmlns="http://www.w3.org/2000/svg">
<path d="M195.661 82.7978C299.6 82.7978 383.859 77.6427 383.859 71.2837C383.859 64.9246 299.6 59.7695 195.661 59.7695C91.7217 59.7695 7.46252 64.9246 7.46252 71.2837C7.46252 77.6427 91.7217 82.7978 195.661 82.7978Z" fill="#B56A94"/>
<path d="M2.31172 53.5023C0.719327 54.1942 0.619975 54.8176 0.327382 56.3326C0.0657805 57.6825 -0.271477 80.2012 0.362018 89.4192C0.461371 90.8594 1.52054 92.0607 2.94157 92.316C6.52561 92.9586 10.2655 92.7589 13.8359 91.9295C15.2979 91.5895 16.3297 90.2833 16.3006 88.783L16.0891 77.813C15.966 71.4079 15.843 65.0028 15.575 58.6022C15.5304 57.5339 15.4757 56.4374 15.0491 55.4575C14.6225 54.4767 13.7365 53.6226 12.6691 53.5497C12.8341 53.3793 12.7904 52.9655 12.7758 52.7294C12.753 52.3593 12.7293 51.9883 12.7056 51.6183C12.6928 51.4195 12.6764 51.2081 12.557 51.0476C12.3884 50.8198 12.0739 50.7687 11.7923 50.7395C8.90828 50.4397 5.98599 50.5108 3.12114 50.951C2.93337 50.9802 2.74013 51.0121 2.57788 51.1124C2.14856 51.3776 2.11393 51.9774 2.12669 52.4824C2.13307 52.7285 2.10299 53.1095 2.31172 53.5023Z" fill="#63D0DF"/>
<path d="M12.8485 54.4743C12.8485 54.4743 12.8923 54.4943 12.9743 54.5308C13.0618 54.5736 13.1812 54.6411 13.3189 54.7477C13.5914 54.961 13.9296 55.3384 14.1492 55.8889C14.3771 56.4313 14.4555 57.1122 14.5412 57.8186C14.6168 58.5286 14.698 59.2852 14.7791 60.0426C14.924 61.5594 15.0234 63.0816 15.0133 64.2255C15.0133 65.3686 14.9258 66.1306 14.9258 66.1306C14.9204 66.1835 14.873 66.2217 14.8201 66.2163C14.7745 66.2117 14.7399 66.1753 14.7344 66.1315C14.7344 66.1315 14.6496 65.3722 14.594 64.2365C14.5512 63.0998 14.4938 61.5831 14.4364 60.0673C14.3926 59.3089 14.3498 58.5514 14.3097 57.8405C14.2714 57.1304 14.1775 56.4768 13.9733 55.9564C13.7728 55.4423 13.4647 55.0759 13.2076 54.8917C12.9542 54.7021 12.7729 54.6493 12.7729 54.6493C12.7218 54.6347 12.6926 54.5809 12.7081 54.5308C12.7227 54.4797 12.7765 54.4506 12.8266 54.4661C12.8303 54.467 12.8348 54.4688 12.8385 54.4706L12.8485 54.4743Z" fill="white"/>
<path d="M12.7768 55.4437C12.7768 55.4437 12.8369 55.4874 12.9281 55.5959C13.0138 55.7026 13.125 55.8639 13.2106 56.0745C13.3683 56.4974 13.5442 57.0571 13.6554 57.6432C13.7676 58.2256 13.8259 58.8172 13.7986 59.2565C13.7794 59.6968 13.6946 59.9875 13.6946 59.9875C13.6801 60.0404 13.6254 60.0714 13.5725 60.0568C13.5388 60.0477 13.5142 60.0204 13.5041 59.9894C13.5041 59.9894 13.4175 59.6986 13.3802 59.2656C13.3346 58.8327 13.351 58.2593 13.3155 57.6869C13.2836 57.1181 13.1924 56.5375 13.0365 56.1456C12.8916 55.7372 12.6546 55.5914 12.6546 55.5914C12.61 55.564 12.5963 55.5048 12.6236 55.4601C12.651 55.4155 12.7102 55.4018 12.7549 55.4291C12.7567 55.43 12.7585 55.4318 12.7604 55.4327L12.7768 55.4437Z" fill="white"/>
<path d="M14.9114 73.611C14.9114 73.611 15.4018 77.8394 15.5394 82.0989C15.5714 83.1635 15.5741 84.2291 15.5641 85.2271C15.5495 86.2271 15.5458 87.1523 15.42 87.9708C15.3006 88.7884 14.9652 89.4429 14.6343 89.8029C14.3016 90.1684 14.0428 90.2906 14.0428 90.2906L14.0291 90.2969C13.9817 90.3188 13.9252 90.2988 13.9033 90.2514C13.8832 90.2076 13.8987 90.1566 13.9379 90.131C13.9379 90.131 14.1585 89.9898 14.4119 89.627C14.6681 89.266 14.9169 88.6781 15.0062 87.9106C15.0928 87.1477 15.0965 86.2079 15.1466 85.2181C15.1812 84.2245 15.1967 83.1644 15.1976 82.1034C15.2077 79.9824 15.1293 77.8586 14.988 76.2726C14.8668 74.6847 14.7227 73.6319 14.7227 73.6319C14.7155 73.58 14.7519 73.5317 14.8039 73.5244C14.8558 73.5171 14.9041 73.5535 14.9114 73.6064V73.611Z" fill="white"/>
<path d="M2.50499 54.6527C2.50499 54.6527 2.46761 54.6719 2.39834 54.7093C2.34092 54.7475 2.24885 54.8022 2.15132 54.9016C1.94897 55.0912 1.74662 55.4558 1.63085 55.9343C1.38201 56.8978 1.44491 58.2514 1.53788 59.5858C1.62265 60.9275 1.70651 62.2693 1.7056 63.2783C1.71289 64.2864 1.65091 64.9618 1.65091 64.9618C1.64635 65.0147 1.59895 65.0539 1.54608 65.0484C1.50142 65.0439 1.46678 65.0102 1.4604 64.9682C1.4604 64.9682 1.35102 64.2992 1.28813 63.2929C1.21612 62.2866 1.20609 60.9421 1.19698 59.5976C1.17966 58.2532 1.20153 56.8905 1.45038 55.8878C1.57707 55.3865 1.80495 54.9982 2.02371 54.7749C2.24703 54.5479 2.4266 54.4859 2.41566 54.485C2.46215 54.4604 2.51957 54.4768 2.54509 54.5233C2.56879 54.5707 2.55147 54.6281 2.50499 54.6527Z" fill="white"/>
<path d="M2.40841 56.7267C2.40841 56.7267 2.36922 56.9728 2.35828 57.3429C2.33003 57.712 2.35737 58.2079 2.40203 58.6992C2.44579 59.1905 2.51141 59.6763 2.50868 60.0455C2.51323 60.4137 2.45946 60.6689 2.45946 60.6689C2.44761 60.7236 2.39474 60.7583 2.34005 60.7473C2.30906 60.741 2.28354 60.7191 2.26987 60.6926C2.26987 60.6926 2.15319 60.4556 2.09121 60.0828C2.02103 59.7109 2.02831 59.2051 2.05931 58.7037C2.09941 58.2051 2.14043 57.7056 2.17051 57.3319C2.20606 56.9582 2.21791 56.7112 2.21791 56.7112C2.21882 56.6583 2.26257 56.6164 2.31544 56.6182C2.36831 56.6191 2.41024 56.6629 2.40841 56.7157C2.40933 56.7176 2.40933 56.7231 2.40841 56.7267Z" fill="white"/>
<path d="M1.03012 76.2384C1.03012 76.2384 1.04926 77.1746 1.07751 78.5774C1.10304 79.9811 1.18599 81.8515 1.26346 83.7219C1.3373 85.5886 1.31177 87.49 1.83862 88.7269C2.09476 89.3468 2.44933 89.787 2.73828 90.0468C3.02722 90.3111 3.23687 90.4059 3.23687 90.4059C3.28427 90.4278 3.30614 90.4834 3.28427 90.5317C3.26512 90.5755 3.21681 90.5964 3.17215 90.5837L3.15939 90.58C3.15939 90.58 2.92149 90.5126 2.56327 90.2692C2.20778 90.0295 1.76205 89.5683 1.45579 88.8956C1.13676 88.2247 0.993657 87.3725 0.961755 86.4865C0.918914 85.6014 0.931676 84.6635 0.92165 83.7292C0.919827 81.857 0.924384 79.9847 0.890658 78.581C0.860579 77.1773 0.839614 76.2421 0.839614 76.2421C0.838703 76.1892 0.880629 76.1464 0.932585 76.1445C0.985452 76.1436 1.0283 76.1856 1.03012 76.2384Z" fill="white"/>
<path d="M12.3318 90.6582C12.3318 90.6582 11.9107 90.7365 11.28 90.855C10.6474 90.9644 9.80697 91.1422 8.94742 91.2443C8.08969 91.3463 7.20736 91.36 6.56201 91.2315C6.23843 91.1786 5.975 91.0957 5.79544 91.0291C5.61587 90.9617 5.51652 90.9143 5.51652 90.9143C5.46821 90.8915 5.44724 90.8341 5.47003 90.7858C5.48735 90.7484 5.52654 90.7274 5.56483 90.7302C5.56483 90.7302 5.99323 90.763 6.6167 90.8168C7.24108 90.8696 8.07511 90.9289 8.92281 90.9034C9.76868 90.8787 10.6191 90.7885 11.2471 90.6709C11.8788 90.5697 12.2954 90.4722 12.2954 90.4722C12.3464 90.4603 12.3984 90.4923 12.4102 90.5433C12.4221 90.5943 12.3902 90.6463 12.3391 90.6582C12.3382 90.6563 12.3337 90.6572 12.3318 90.6582Z" fill="white"/>
<path d="M3.29529 88.5605C3.29529 88.5605 3.8905 88.3818 4.80747 88.1704C5.72262 87.9698 6.95862 87.7502 8.21467 87.6727C9.46799 87.5961 10.7359 87.6581 11.6629 87.8431C12.1278 87.9243 12.5088 88.03 12.7704 88.113C13.0311 88.2023 13.1805 88.2533 13.1805 88.2533C13.2307 88.2706 13.2571 88.3244 13.2398 88.3745C13.2252 88.4183 13.1796 88.4438 13.1359 88.4384C13.1359 88.4384 12.5151 88.3682 11.6 88.257C10.6839 88.1476 9.46069 88.0145 8.22469 88.0145C6.99052 88.0154 5.7527 88.1458 4.84667 88.3527C3.93881 88.5377 3.34724 88.7428 3.34724 88.7428C3.29711 88.7601 3.24333 88.7337 3.22601 88.6835C3.20869 88.6334 3.23513 88.5796 3.28526 88.5623L3.28891 88.5614L3.29529 88.5605Z" fill="white"/>
<path d="M11.9217 51.8587C11.9217 51.8587 11.3483 51.8669 10.4906 51.9116C9.63198 51.9398 8.48805 52.0264 7.34502 52.1075C6.20108 52.1878 5.05806 52.268 4.1976 52.2643C3.33805 52.2689 2.76198 52.2041 2.76198 52.2041C2.70911 52.1978 2.67083 52.1504 2.67721 52.0975C2.68177 52.0547 2.71458 52.0209 2.75469 52.0137C2.75469 52.0137 3.32438 51.907 4.18119 51.8459C5.03892 51.7776 6.18467 51.7712 7.33135 51.7648C8.47802 51.7593 9.62469 51.7603 10.4824 51.7238C11.342 51.7038 11.9135 51.6682 11.9135 51.6682C11.9663 51.6646 12.011 51.7047 12.0147 51.7575C12.0183 51.8104 11.9782 51.855 11.9253 51.8587C11.9253 51.8587 11.9235 51.8587 11.9217 51.8587Z" fill="white"/>
<path d="M11.9627 52.8213C11.9627 52.8213 11.7585 52.8186 11.4532 52.8468C11.1478 52.8587 10.7422 52.9234 10.3375 52.9826C9.93186 53.041 9.52716 53.0993 9.21998 53.0793C8.9128 53.0674 8.70498 52.9927 8.70498 52.9927C8.6512 52.9735 8.62295 52.9143 8.643 52.8605C8.65211 52.8341 8.67217 52.814 8.69495 52.8022C8.69495 52.8022 8.89457 52.7065 9.1981 52.6618C9.50163 52.6098 9.9109 52.6253 10.3202 52.6408C10.7294 52.6572 11.1387 52.68 11.4441 52.659C11.7503 52.6554 11.9527 52.6308 11.9527 52.6308C12.0046 52.6244 12.0529 52.6618 12.0584 52.7147C12.0648 52.7666 12.0274 52.8149 11.9745 52.8204C11.9709 52.8213 11.9663 52.8213 11.9627 52.8213Z" fill="white"/>
<path d="M7.09159 52.9102C7.09159 52.9102 6.82999 52.9075 6.43804 52.9348C6.0461 52.9458 5.52563 53.0105 5.00425 53.0688C4.48287 53.1272 3.9624 53.1846 3.56863 53.1636C3.17577 53.1508 2.91052 53.0761 2.91052 53.0761C2.85766 53.0606 2.82667 53.0059 2.84125 52.9521C2.85037 52.9202 2.87407 52.8965 2.90323 52.8856C2.90323 52.8856 3.16119 52.7899 3.55131 52.7462C3.94143 52.6942 4.46555 52.7106 4.98966 52.727C5.51378 52.7443 6.03789 52.7671 6.42984 52.747C6.8227 52.7434 7.08339 52.7197 7.08339 52.7197C7.13625 52.7151 7.18274 52.7534 7.1873 52.8063C7.19186 52.8592 7.15357 52.9057 7.10071 52.9102C7.09797 52.9102 7.09524 52.9102 7.09159 52.9102Z" fill="white"/>
<path d="M11.9153 51.1671L3.03814 51.3002C2.38915 51.3102 1.85045 50.787 1.84043 50.1389L1.81582 48.5976C1.80579 47.9477 2.32899 47.408 2.97798 47.3989L11.8551 47.2667C12.5041 47.2567 13.0428 47.7799 13.0528 48.428L13.0774 49.9694C13.0884 50.6175 12.5652 51.1571 11.9153 51.1671Z" fill="#007297"/>
<path d="M14.9041 69.8306C14.9041 69.8306 14.8558 69.8024 14.7665 69.7486C14.6771 69.6893 14.5431 69.6191 14.37 69.5435C14.0208 69.3894 13.4794 69.2372 12.8149 69.2354C12.1523 69.2254 11.3757 69.3502 10.5845 69.6118C9.78965 69.8652 8.98752 70.2581 8.16261 70.6118C7.33952 70.9663 6.48635 71.2863 5.63957 71.4285C5.21754 71.4986 4.79916 71.5306 4.40357 71.5041C3.9943 71.4795 3.63061 71.3464 3.31614 71.2143C2.6863 70.9372 2.21778 70.6154 1.89876 70.3848C1.74198 70.2645 1.61893 70.1697 1.53507 70.1059C1.49405 70.0722 1.46306 70.0466 1.44118 70.0293L1.42751 70.0175L1.42204 70.0129L1.42022 70.0111L1.42113 70.012L1.4266 70.0156C1.4266 70.0156 1.43024 70.0193 1.44756 70.022C1.46944 70.0503 1.54509 69.9527 1.5141 69.94C1.47399 69.8844 1.50681 69.9281 1.49678 69.9144C1.52322 69.9354 1.52777 69.9746 1.50681 70.001C1.48584 70.0275 1.44665 70.033 1.42022 70.0111C1.41475 70.0011 1.42933 70.0311 1.39561 69.9801C1.36371 69.9673 1.44027 69.8698 1.46215 69.8981C1.47946 69.9008 1.48402 69.9054 1.48402 69.9054L1.49132 69.909L1.49496 69.9117L1.4977 69.9136L1.50317 69.9172L1.51775 69.9272C1.54054 69.9418 1.57335 69.9637 1.6171 69.9928C1.70552 70.0475 1.83495 70.1287 2.00084 70.2317C2.33445 70.4286 2.81391 70.7147 3.42097 70.9636C3.7245 71.0839 4.06084 71.1979 4.4218 71.2124C4.79369 71.2434 5.19019 71.2206 5.59673 71.1605C6.4107 71.0402 7.2511 70.7394 8.07784 70.4067C8.90639 70.0785 9.72675 69.7039 10.5407 69.4687C11.351 69.2345 12.1359 69.0895 12.8177 69.1069C13.4995 69.1105 14.0573 69.2673 14.4219 69.4295C14.6069 69.5116 14.7446 69.5854 14.8312 69.6428C14.9214 69.6966 14.9688 69.7258 14.9688 69.7258C14.998 69.7431 15.008 69.7814 14.9898 69.8106C14.9706 69.8388 14.9333 69.8479 14.9041 69.8306Z" fill="white"/>
<path d="M14.1566 71.0741C14.1566 71.0741 13.8813 70.8271 13.349 70.7323C12.8222 70.6138 12.0993 70.7451 11.4358 71.0158C10.7631 71.2692 10.1022 71.59 9.58449 71.7596C9.07131 71.9437 8.71127 72.0239 8.71127 72.0239C8.67754 72.0312 8.64382 72.0103 8.63653 71.9765C8.63015 71.9492 8.64291 71.9227 8.66569 71.9091C8.66569 71.9091 8.9829 71.7222 9.48422 71.5071C9.98464 71.2856 10.6674 71.0477 11.3619 70.8062C12.0601 70.5746 12.8222 70.4944 13.3709 70.6129C13.6452 70.6676 13.8613 70.7642 14.0062 70.839C14.1548 70.9183 14.225 70.973 14.225 70.973L14.2341 70.9803C14.2614 71.0012 14.266 71.0395 14.245 71.0669C14.224 71.0942 14.1858 71.0988 14.1584 71.0778C14.1593 71.076 14.1584 71.0751 14.1566 71.0741Z" fill="white"/>
<path d="M34.01 64.68C48.7836 66.6343 63.7159 66.6279 78.6053 66.2459C81.3152 66.1767 85.0706 66.0126 85.8445 63.3337C87.7851 56.6113 87.6265 49.4606 87.4505 42.4493C87.3275 37.5245 87.2044 32.6005 87.0805 27.6757C87.0057 24.7023 86.92 21.6634 85.9046 18.8787C84.8892 16.0941 82.7554 13.5619 79.9334 12.9412C77.1123 12.3205 73.7716 14.2328 73.448 17.1888C72.2148 28.4723 74.0031 40.3483 76.0677 51.5024C63.6785 52.4905 48.7372 54.792 36.6452 57.7462C34.7438 56.9285 32.6564 54.6689 31.6237 52.8304C31.2454 52.1578 30.7897 51.3319 30.0349 51.3337C29.4178 51.3346 28.9366 51.9572 28.8518 52.588C28.767 53.2187 28.9749 53.8477 29.1799 54.4484C28.1372 52.8323 25.6497 52.6709 24.1977 53.906C22.7456 55.1411 22.3391 57.3816 22.9216 59.2274C23.504 61.0731 24.9223 62.5398 26.5375 63.536C26.5393 63.537 27.7343 63.8505 34.01 64.68Z" fill="#E2A799"/>
<path d="M342.904 44.9781C344.19 45.5296 344.729 46.8476 345.052 48.0544C346.486 53.3904 346.049 59.09 343.814 64.2172C343.604 64.6994 343.376 65.2281 343.571 65.7157C343.926 66.6026 345.314 66.6974 346.399 66.6309C347.71 66.5507 349.023 66.4704 350.334 66.3911C351.653 66.3109 353.16 66.1405 353.896 65.1934C354.281 64.6967 354.371 64.0768 354.448 63.4834C355.401 56.2087 356.263 48.9258 357.035 41.6347C357.192 40.1553 357.228 38.4198 355.896 37.4773C354.385 36.4081 352.154 37.0444 350.312 37.6058C348.47 38.1673 346.506 38.3196 345.442 36.9058C336.963 33.381 328.087 30.5763 318.985 28.5127V45.2515C327.508 45.2561 334.497 44.9343 342.167 44.9389L342.904 44.9781Z" fill="#E2A799"/>
<path d="M321.262 28.9437C301.969 23.8721 281.655 22.6625 261.914 25.5575C258.403 26.0725 243.065 26.9147 239.942 26.6567C191.99 22.7026 209.38 21.3144 175.856 22.7026L175.946 45.74C202.109 51.6119 213.887 48.2858 240.702 48.3031C264.812 48.3186 294.473 48.3341 321.263 48.3487L321.262 28.9437Z" fill="#006281"/>
<path d="M78.9254 49.1239C78.0421 45.5034 76.3102 42.0935 73.9075 39.2459C73.3141 38.5422 72.677 37.8668 72.08 37.1641C71.3207 34.0531 70.3846 31.1254 69.4339 28.5221C69.5852 26.3919 70.0373 24.2107 70.329 22.1088C70.9224 17.8265 70.2077 12.5097 66.2536 10.7624C64.2219 9.86362 61.6651 10.1207 60.0016 8.64767C58.855 7.63225 58.4411 6.04806 57.7165 4.69903C56.2399 1.95176 53.2337 0.0950279 50.1164 0.00387752C45.0566 -0.142875 39.9531 3.937 35.3254 1.8843L34.9644 2.55699C33.8989 5.07092 32.9537 7.63498 32.1278 10.2382C27.5776 15.1676 24.9087 23.249 29.6558 36.0283C30.7825 39.0609 31.8325 41.6678 32.7905 43.7788C32.909 45.4697 32.8707 47.1942 32.9309 48.8878C33.1469 54.9475 34.8295 61.0373 38.3142 65.9995C41.7989 70.9617 47.174 74.7043 53.1663 75.6341C56.8177 76.201 60.8648 75.6076 63.5656 73.0864C64.3778 72.329 65.0468 71.4211 65.7158 70.5205C66.3821 69.8415 66.9819 69.094 67.5434 68.3147C67.9636 67.8972 68.413 67.5153 68.928 67.2072C70.123 66.4908 71.523 66.2091 72.7991 65.6504C78.651 63.0863 80.4384 55.3294 78.9254 49.1239Z" fill="#3C3C3B"/>
<path d="M72.4408 14.9883C78.5852 27.722 75.9355 35.7842 75.9355 35.7842C67.9744 29.1622 63.0869 29.5851 58.2815 27.9225L56.896 19.7573C60.9084 19.029 68.906 17.0218 72.4408 14.9883Z" fill="#F7C5B4"/>
<path d="M31.7831 11.3489C37.8592 10.2032 42.9727 11.3407 43.7083 11.3489C66.1067 11.6124 62.1289 31.9881 60.2357 34.3899C58.194 36.9823 54.8825 37.6531 51.808 37.943C43.4859 38.7287 35.0117 37.8026 26.9157 35.2221C25.6761 34.8275 24.2869 34.235 23.8093 32.8723C23.8093 32.8723 17.8809 23.7955 22.618 17.642C27.355 11.4902 31.7831 11.3489 31.7831 11.3489Z" fill="#F7C5B4"/>
<path d="M43.7531 32.5589C43.7531 32.5589 43.8789 32.5917 44.0694 32.6127C44.269 32.6391 44.5744 32.671 44.9353 32.7011C45.6618 32.7613 46.6289 32.8415 47.5969 32.9226C48.08 32.9609 48.564 32.9992 49.017 33.0347C49.2449 33.0484 49.4591 33.0675 49.646 33.0593C49.8292 33.0584 49.9987 33.0338 50.0808 32.9964C50.212 32.9299 50.2694 32.8807 50.3478 32.7859C50.418 32.6984 50.4618 32.5954 50.5083 32.5106C50.593 32.3365 50.6313 32.2189 50.6313 32.2189C50.6659 32.1141 50.779 32.0576 50.8838 32.0922C50.9695 32.1205 51.0233 32.2025 51.0205 32.2882L51.0196 32.3037C51.0196 32.3037 51.016 32.4267 50.9759 32.6601C50.9558 32.7777 50.9139 32.9208 50.8255 33.0858C50.7507 33.2434 50.5684 33.4467 50.3697 33.5415C49.8784 33.7794 49.4208 33.6791 48.9696 33.6545C48.513 33.6108 48.0262 33.5643 47.5395 33.5169C46.5697 33.4039 45.6007 33.2844 44.8761 33.1623C44.5124 33.1021 44.2143 33.0475 43.9947 33.0001C43.764 32.9527 43.6565 32.9135 43.6565 32.9135L43.6437 32.9089C43.5489 32.8743 43.5006 32.7695 43.5353 32.6756C43.5681 32.5835 43.6629 32.5352 43.7531 32.5589Z" fill="#DA806C"/>
<path d="M52.3387 29.5452C52.3387 29.5452 52.5155 29.6691 52.7543 29.938C52.9886 30.1969 53.2301 30.6025 53.3887 31.0428C53.5355 31.4867 53.5947 31.9561 53.5683 32.3052C53.5464 32.6543 53.4789 32.8767 53.4789 32.8767L53.4771 32.884C53.448 32.9797 53.3477 33.0335 53.252 33.0043C53.1745 32.9806 53.1253 32.9104 53.1235 32.8339C53.1235 32.8339 53.1125 31.9935 52.8455 31.2269C52.7233 30.8404 52.5392 30.4749 52.3806 30.2106C52.2329 29.9508 52.0962 29.7694 52.0962 29.7694C52.0415 29.6965 52.0561 29.5935 52.129 29.5388C52.1873 29.495 52.2648 29.496 52.3223 29.5352L52.3387 29.5452Z" fill="#DA806C"/>
<path d="M45.1749 41.7677C45.1749 41.7677 45.0054 41.3575 44.8304 40.693C44.6535 40.0358 44.5204 39.1316 44.5031 38.2219C44.4977 37.3113 44.6089 36.4044 44.7729 35.7426C44.9306 35.08 45.0956 34.657 45.0956 34.657L45.0974 34.6516C45.1293 34.5714 45.2196 34.5312 45.3007 34.5622C45.3745 34.5914 45.4146 34.6707 45.3955 34.7455C45.3955 34.7455 44.9716 36.4654 45.0035 38.2155C44.9962 39.9693 45.4493 41.6847 45.4493 41.6847C45.4693 41.7613 45.4237 41.8397 45.3472 41.8597C45.277 41.878 45.205 41.8415 45.1785 41.7759L45.1749 41.7677Z" fill="#3C3C3B"/>
<path d="M45.0146 36.7263C45.3227 36.5877 45.7091 36.5886 46.0282 36.6998C46.3472 36.811 46.5997 37.0234 46.7619 37.2704C47.0764 37.7481 47.0481 38.3706 46.6653 38.8264C46.2825 39.2821 45.5533 39.5428 44.8906 39.438C44.7758 38.5465 44.5789 37.6624 44.9453 36.8083C44.9599 36.7737 44.9945 36.7317 45.0374 36.7436" fill="#3C3C3B"/>
<path d="M42.6265 34.7984C41.7268 34.9387 40.9156 35.6069 40.6959 36.4901C40.7898 36.5093 40.8828 36.5284 40.9758 36.5476C40.9129 36.7845 40.85 37.0206 40.7862 37.2576C40.8755 37.3014 40.9648 37.3451 41.0541 37.388C40.8463 38.9904 41.1526 40.6557 41.9173 42.0785C42.2455 42.6893 42.7113 43.2963 43.3821 43.4704C43.445 43.2827 43.4168 43.0712 43.3475 42.8852C42.3849 40.3093 42.0759 38.5747 42.7969 34.9652C42.7969 34.9652 42.7933 34.7719 42.6265 34.7984Z" fill="#3C3C3B"/>
<path d="M44.6701 21.6128C44.6701 21.6128 44.3556 23.3583 44.5033 25.1057C44.6117 26.853 45.1714 28.533 45.1714 28.533C45.1987 28.615 45.1541 28.7034 45.072 28.7308C44.9964 28.7563 44.9153 28.7207 44.8815 28.6505L44.8788 28.646C44.8788 28.646 44.6801 28.2385 44.4704 27.5905C44.2544 26.9442 44.0712 26.0482 44.0037 25.1412C43.9472 24.2325 44.0083 23.321 44.1323 22.6519C44.2535 21.9756 44.3902 21.5536 44.3902 21.5536L44.393 21.5435C44.4176 21.4679 44.4978 21.4269 44.5734 21.4515C44.6418 21.4734 44.6828 21.5435 44.6701 21.6128Z" fill="#3C3C3B"/>
<path d="M44.6336 26.5894C44.9517 26.7025 45.3364 26.6706 45.6454 26.5348C45.9544 26.398 46.1886 26.1665 46.3308 25.9076C46.6061 25.4063 46.5277 24.7883 46.1102 24.3645C45.6928 23.9406 44.9444 23.7401 44.2927 23.8969C44.2499 24.7947 44.1241 25.6916 44.5579 26.5138C44.5753 26.5466 44.6136 26.5867 44.6546 26.5712" fill="#3C3C3B"/>
<path d="M42.4077 28.702C41.4999 28.6336 40.6376 28.033 40.3486 27.1698C40.4398 27.1433 40.5318 27.1169 40.623 27.0905C40.541 26.8599 40.4598 26.6292 40.3778 26.3986C40.4635 26.3476 40.5492 26.2975 40.6339 26.2464C40.2985 24.6659 40.4708 22.9823 41.1189 21.502C41.3969 20.8667 41.8125 20.225 42.4679 19.998C42.5454 20.1803 42.5344 20.3936 42.4797 20.5841C41.7268 23.2284 41.5573 24.9822 42.5645 28.5215C42.5645 28.5215 42.5754 28.7148 42.4077 28.702Z" fill="#3C3C3B"/>
<path d="M39.2684 11.1178C38.9521 10.467 39.1472 9.63929 39.6394 9.10789C40.1316 8.57648 40.8699 8.31944 41.5927 8.29574C42.2508 8.27387 42.9454 8.44979 43.4066 8.92012C44.1067 9.63292 44.0775 10.7641 44.0018 11.7604" fill="#F7C5B4"/>
<path d="M60.3745 16.5797C59.3527 14.011 56.7904 12.3703 54.1844 11.4461C51.6058 10.5318 48.8403 10.1499 46.1103 10.3322C43.3786 10.5145 40.5073 11.2328 37.9916 10.1526C37.0372 9.74338 36.2032 9.09621 35.2625 8.65504C34.9763 8.52105 34.6701 8.4208 34.3592 8.34332C35.2397 7.79733 36.2014 7.38075 37.2077 7.13373C39.6168 6.54399 42.2611 6.84753 44.4824 5.74461C45.2772 5.34993 45.9864 4.78388 46.5469 4.0966L46.5506 3.46858C43.5308 3.86144 40.4262 3.5816 37.5258 2.6546C35.6481 2.05483 33.7987 1.17798 31.828 1.19074C31.7988 1.19074 31.7696 1.19712 31.7396 1.19803L31.6849 1.16431C31.1316 1.04035 30.5892 1.06405 30.0651 1.1953C27.512 1.41133 25.0364 2.55161 23.2653 4.40743C21.1215 6.65246 20.0495 9.87827 20.4214 12.9601C20.5253 13.8178 20.7341 14.6682 20.7195 15.5323C20.6958 16.875 20.1361 18.1411 19.7506 19.4272C18.6741 23.0185 18.974 27.0045 20.5755 30.3944C21.8516 33.0943 23.9508 35.3831 26.4975 36.9408C27.7025 37.9809 29.0953 38.7529 30.6813 39.0947C31.5126 39.2743 32.405 39.3244 33.1943 39.0072C34.2617 38.577 34.9654 37.5543 35.4858 36.5279C35.6034 36.2964 35.6909 36.0521 35.7958 35.8142C36.7747 35.0677 37.3991 33.6412 37.6835 32.3623C38.7208 27.6872 38.2823 22.6968 36.4466 18.2751C35.8176 16.7592 35.0219 15.2079 34.4631 13.6428C35.6153 14.4796 37.1165 14.7885 38.554 14.7411C40.1819 14.6883 41.7652 14.2298 43.343 13.8269C46.3637 13.0549 49.5823 12.4788 52.5647 13.3857C55.1205 14.1633 57.2361 15.9544 59.1202 17.8485C59.3089 18.0381 59.5186 18.2404 59.7847 18.2659C60.1429 18.3006 60.4601 17.9806 60.5376 17.6288C60.6133 17.2779 60.5075 16.9133 60.3745 16.5797Z" fill="#3C3C3B"/>
<path d="M251.329 30.0887C254.851 30.519 258.403 29.8763 261.914 29.3613C281.655 26.4664 301.969 27.676 321.262 32.7476V52.1535C294.472 52.138 264.812 52.1225 240.701 52.1079C213.886 52.0906 184.002 56.8359 156.318 48.3507L142.654 12.3682C151.606 6.54003 160.818 4.79816 172.065 6.91284C178.485 8.11967 190.199 12.5569 196.262 14.9897C212.01 21.3073 222.704 25.4437 239.393 28.5127L251.329 30.0887Z" fill="#007297"/>
<path d="M345.181 51.8358C346.467 52.4747 347.006 54.0033 347.329 55.4025C348.763 61.5889 348.327 68.1963 346.091 74.1403C345.881 74.699 345.653 75.3125 345.848 75.8776C346.203 76.9058 347.591 77.0161 348.676 76.9395C349.987 76.8465 351.3 76.7536 352.611 76.6606C353.93 76.5676 355.437 76.3707 356.173 75.2724C356.558 74.6963 356.648 73.978 356.725 73.2898C357.678 64.8566 358.54 56.4124 359.311 47.961C359.468 46.2455 359.504 44.2329 358.173 43.1409C356.661 41.9013 354.43 42.6387 352.588 43.2895C350.746 43.9403 348.782 44.1172 347.719 42.4774C339.239 38.392 330.364 35.1398 321.261 32.7471V52.153C329.784 52.1575 336.773 51.7856 344.444 51.7902L345.181 51.8358Z" fill="#F7C5B4"/>
<path d="M73.6677 35.8725C78.4905 40.3999 83.3132 42.748 89.2353 45.694C96.2219 49.1704 102.478 46.4286 108.384 43.4498C125.729 34.7049 142.246 45.0504 157.749 50.3928C155.019 36.9399 149.998 23.9546 142.966 12.1652C135.276 14.3519 127.992 13.9645 120.623 12.5353C109.05 10.2902 97.5035 10.5582 85.7415 11.3521C66.4732 12.6529 65.4687 23.3102 68.7246 29.162C70.1219 31.6723 71.0982 33.4607 73.6677 35.8725Z" fill="#00A98F"/>
<path d="M34.7255 74.8711C50.4307 76.8855 66.3045 76.8791 82.1337 76.4862C85.014 76.4142 89.0073 76.2456 89.8286 73.4838C91.8913 66.5527 91.7227 59.1814 91.5359 51.9531C91.4046 46.8761 91.2733 41.7999 91.143 36.7228C91.0637 33.6565 90.9725 30.5246 89.8933 27.6534C88.8141 24.783 86.5454 22.1716 83.5456 21.5317C80.5458 20.8918 76.9946 22.8634 76.651 25.9106C75.3402 37.5432 77.2407 49.7874 79.4356 61.286C66.2653 62.3051 50.3815 64.6777 37.5274 67.7221C35.5057 66.879 33.2871 64.5501 32.1897 62.6551C31.7877 61.9605 31.3028 61.111 30.5006 61.1119C29.8444 61.1128 29.333 61.7554 29.2428 62.4053C29.1525 63.0552 29.3731 63.7042 29.591 64.3231C28.4826 62.6569 25.8374 62.4901 24.2942 63.7644C22.7501 65.0378 22.319 67.3475 22.9379 69.2507C23.5568 71.154 25.0653 72.6661 26.7826 73.6934C26.7835 73.6916 28.0533 74.0152 34.7255 74.8711Z" fill="#F7C5B4"/>
<path opacity="0.52" d="M59.8867 19.1367C59.8867 19.1367 62.1655 24.0379 61.7015 28.8616L62.7698 29.1159C62.7698 29.1159 63.2301 23.4882 59.8867 19.1367Z" fill="#F7C5B4"/>
</svg>
