<svg width="39" height="39" viewBox="0 0 39 39" fill="none" xmlns="http://www.w3.org/2000/svg">
<path fill-rule="evenodd" clip-rule="evenodd" d="M38.22 19.9432C38.22 18.5605 38.0959 17.231 37.8655 15.9546H19.5V23.4975H29.9945C29.5425 25.935 28.1686 28.0003 26.1034 29.383V34.2757H32.4055C36.0927 30.881 38.22 25.8819 38.22 19.9432Z" fill="#4285F4"/>
<path fill-rule="evenodd" clip-rule="evenodd" d="M19.5 38.9998C24.765 38.9998 29.1791 37.2537 32.4054 34.2755L26.1034 29.3828C24.3573 30.5528 22.1236 31.2442 19.5 31.2442C14.4211 31.2442 10.1222 27.8139 8.58884 23.2048H2.07407V28.2571C5.2827 34.6301 11.8772 38.9998 19.5 38.9998Z" fill="#34A853"/>
<path fill-rule="evenodd" clip-rule="evenodd" d="M8.58886 23.2049C8.19886 22.0349 7.97727 20.7852 7.97727 19.4999C7.97727 18.2147 8.19886 16.9649 8.58886 15.7949V10.7427H2.07409C0.753409 13.3752 0 16.3534 0 19.4999C0 22.6465 0.753409 25.6247 2.07409 28.2572L8.58886 23.2049Z" fill="#FBBC05"/>
<path fill-rule="evenodd" clip-rule="evenodd" d="M19.5 7.75568C22.3629 7.75568 24.9334 8.73955 26.9543 10.6718L32.5472 5.07886C29.1702 1.93227 24.7561 0 19.5 0C11.8772 0 5.2827 4.36977 2.07407 10.7427L8.58884 15.795C10.1222 11.1859 14.4211 7.75568 19.5 7.75568Z" fill="#EA4335"/>
</svg>
