<svg width="219" height="194" viewBox="0 0 219 194" fill="none" xmlns="http://www.w3.org/2000/svg">
<g opacity="0.45">
<path d="M170.221 193.46C192.992 193.46 211.451 175.001 211.451 152.23C211.451 129.459 192.992 111 170.221 111C147.45 111 128.991 129.459 128.991 152.23C128.991 175.001 147.45 193.46 170.221 193.46Z" fill="#DED7FF"/>
<path d="M79.2649 140.486C118.044 140.486 149.481 109.049 149.481 70.2699C149.481 31.4906 118.044 0.0537109 79.2649 0.0537109C40.4856 0.0537109 9.04871 31.4906 9.04871 70.2699C9.04871 109.049 40.4856 140.486 79.2649 140.486Z" fill="#DED7FF"/>
</g>
<path d="M207.41 63.2353L205.314 65.1544C205.244 65.2183 205.183 65.2878 205.127 65.3603C203.795 64.4322 202.332 63.7655 200.808 63.3632C200.828 63.2718 200.843 63.1783 200.847 63.0824L200.958 60.2427C200.993 59.3591 200.302 58.612 199.419 58.5775L196.579 58.4661C195.696 58.4316 194.948 59.1223 194.914 60.0058L194.802 62.8455C194.799 62.9409 194.806 63.0349 194.819 63.1273C193.31 63.4012 191.838 63.9299 190.468 64.7156C190.419 64.6386 190.364 64.5641 190.3 64.4942L188.381 62.3982C187.784 61.746 186.768 61.701 186.115 62.2982L184.019 64.2173C183.367 64.8145 183.322 65.831 183.92 66.4832L185.839 68.5792C185.903 68.6487 185.972 68.7101 186.045 68.7661C185.117 70.0975 184.45 71.5613 184.048 73.0845C183.956 73.0645 183.863 73.0496 183.768 73.0461L180.928 72.9346C180.503 72.9176 180.096 73.0665 179.782 73.3539C179.78 73.3554 179.778 73.3574 179.776 73.3594C179.462 73.6503 179.279 74.0461 179.263 74.4744L179.151 77.314C179.117 78.1976 179.807 78.9447 180.691 78.9792L183.531 79.0906C183.627 79.0946 183.72 79.0861 183.813 79.0731C184.086 80.5819 184.615 82.0547 185.401 83.424C185.324 83.473 185.249 83.528 185.179 83.592L183.083 85.511C182.431 86.1083 182.386 87.1248 182.984 87.777L184.903 89.8729C185.5 90.5251 186.517 90.5701 187.169 89.9724L189.265 88.0533C189.335 87.9893 189.396 87.9199 189.452 87.8474C190.784 88.776 192.247 89.4427 193.771 89.845C193.751 89.9359 193.736 90.0289 193.732 90.1253L193.62 92.9649C193.603 93.3932 193.754 93.8021 194.045 94.1164C194.336 94.4313 194.732 94.6137 195.16 94.6301L197.999 94.7416C198.438 94.7586 198.843 94.5967 199.145 94.3213C199.449 94.0424 199.647 93.6466 199.665 93.2018L199.776 90.3622C199.78 90.2663 199.772 90.1723 199.759 90.0803C201.268 89.8065 202.74 89.2777 204.11 88.4921C204.159 88.5691 204.214 88.644 204.278 88.7135L206.197 90.8095C206.794 91.4617 207.811 91.5067 208.463 90.9094L210.559 88.9904C211.211 88.3932 211.256 87.3766 210.659 86.7245L208.74 84.6285C208.676 84.5585 208.606 84.4975 208.534 84.4416C209.462 83.1102 210.129 81.6459 210.531 80.1221C210.622 80.1421 210.715 80.1576 210.812 80.1616L213.651 80.2731C214.09 80.2901 214.496 80.1281 214.797 79.8528C215.101 79.5739 215.299 79.1781 215.316 78.7333L215.428 75.8937C215.463 75.0101 214.772 74.263 213.889 74.2285L211.049 74.117C210.953 74.113 210.859 74.1205 210.767 74.133C210.493 72.6248 209.964 71.1525 209.178 69.7831C209.255 69.7341 209.33 69.6792 209.4 69.6152L211.496 67.6961C212.148 67.0989 212.193 66.0824 211.595 65.4302L209.676 63.3342C209.078 62.6825 208.062 62.6381 207.41 63.2353ZM202.375 82.1592C199.312 84.9638 194.538 84.7539 191.733 81.6909C188.929 78.6279 189.138 73.8542 192.201 71.049C195.265 68.2444 200.038 68.4543 202.843 71.5173C205.648 74.5808 205.438 79.3545 202.375 82.1592Z" stroke="#0F1B63" stroke-miterlimit="10"/>
<path d="M41.7266 173.35H40.6221C40.4182 173.35 40.2528 173.184 40.2528 172.98C40.2528 172.777 40.4182 172.611 40.6221 172.611H41.7266C41.9305 172.611 42.0959 172.777 42.0959 172.98C42.0959 173.184 41.9305 173.35 41.7266 173.35ZM38.1613 173.35H35.7C35.4961 173.35 35.3306 173.184 35.3306 172.98C35.3306 172.777 35.4961 172.611 35.7 172.611H38.1613C38.3652 172.611 38.5306 172.777 38.5306 172.98C38.5306 173.184 38.3652 173.35 38.1613 173.35ZM33.2387 173.35H30.7773C30.5734 173.35 30.408 173.184 30.408 172.98C30.408 172.777 30.5734 172.611 30.7773 172.611H33.2387C33.4426 172.611 33.608 172.777 33.608 172.98C33.608 173.184 33.4426 173.35 33.2387 173.35ZM28.316 173.35H25.8547C25.6508 173.35 25.4854 173.184 25.4854 172.98C25.4854 172.777 25.6508 172.611 25.8547 172.611H28.316C28.5199 172.611 28.6853 172.777 28.6853 172.98C28.6853 173.184 28.5199 173.35 28.316 173.35ZM23.3934 173.35H20.9321C20.7282 173.35 20.5628 173.184 20.5628 172.98C20.5628 172.777 20.7282 172.611 20.9321 172.611H23.3934C23.5973 172.611 23.7627 172.777 23.7627 172.98C23.7627 173.184 23.5973 173.35 23.3934 173.35ZM18.4708 173.35H16.0095C15.8056 173.35 15.6401 173.184 15.6401 172.98C15.6401 172.777 15.8056 172.611 16.0095 172.611H18.4708C18.6747 172.611 18.8401 172.777 18.8401 172.98C18.8401 173.184 18.6747 173.35 18.4708 173.35ZM13.5481 173.346C13.5446 173.346 13.5416 173.346 13.5381 173.346C12.6801 173.322 11.8325 173.182 11.0189 172.929C10.824 172.869 10.7155 172.662 10.776 172.467C10.8364 172.272 11.0413 172.163 11.2378 172.224C11.9874 172.457 12.768 172.586 13.5586 172.608C13.762 172.614 13.923 172.784 13.9175 172.987C13.912 173.187 13.748 173.346 13.5481 173.346ZM8.90738 171.903C8.83841 171.903 8.76894 171.884 8.70697 171.844C7.99132 171.38 7.34013 170.819 6.77291 170.177C6.63847 170.024 6.65296 169.79 6.80539 169.656C6.95732 169.521 7.1907 169.535 7.32664 169.688C7.84939 170.279 8.4486 170.796 9.10878 171.224C9.2797 171.335 9.32867 171.564 9.21723 171.735C9.14676 171.844 9.02882 171.903 8.90738 171.903ZM5.69043 168.259C5.55299 168.259 5.42106 168.183 5.35709 168.051C4.98527 167.279 4.7204 166.462 4.57047 165.621C4.53498 165.42 4.66842 165.229 4.86932 165.193C5.06873 165.159 5.26163 165.291 5.29712 165.492C5.43505 166.266 5.67893 167.019 6.02227 167.729C6.11072 167.913 6.03376 168.134 5.85035 168.222C5.79887 168.248 5.7444 168.259 5.69043 168.259ZM4.79486 163.473C4.59096 163.473 4.42554 163.308 4.42554 163.104V160.642C4.42554 160.439 4.59096 160.273 4.79486 160.273C4.99876 160.273 5.16418 160.439 5.16418 160.642V163.104C5.16418 163.308 4.99876 163.473 4.79486 163.473ZM4.79486 158.55C4.59096 158.55 4.42554 158.385 4.42554 158.181V155.72C4.42554 155.516 4.59096 155.35 4.79486 155.35C4.99876 155.35 5.16418 155.516 5.16418 155.72V158.181C5.16418 158.385 4.99876 158.55 4.79486 158.55ZM4.79486 153.628C4.59096 153.628 4.42554 153.462 4.42554 153.258V150.797C4.42554 150.593 4.59096 150.428 4.79486 150.428C4.99876 150.428 5.16418 150.593 5.16418 150.797V153.258C5.16418 153.462 4.99876 153.628 4.79486 153.628ZM4.79486 148.705C4.59096 148.705 4.42554 148.54 4.42554 148.336V145.875C4.42554 145.671 4.59096 145.505 4.79486 145.505C4.99876 145.505 5.16418 145.671 5.16418 145.875V148.336C5.16418 148.54 4.99876 148.705 4.79486 148.705ZM4.79486 143.783C4.59096 143.783 4.42554 143.617 4.42554 143.413V140.952C4.42554 140.748 4.59096 140.583 4.79486 140.583C4.99876 140.583 5.16418 140.748 5.16418 140.952V143.413C5.16418 143.617 4.99876 143.783 4.79486 143.783ZM4.79486 138.86C4.59096 138.86 4.42554 138.694 4.42554 138.491V136.029C4.42554 135.825 4.59096 135.66 4.79486 135.66C4.99876 135.66 5.16418 135.825 5.16418 136.029V138.491C5.16418 138.695 4.99876 138.86 4.79486 138.86ZM4.79486 133.937C4.59096 133.937 4.42554 133.772 4.42554 133.568V131.107C4.42554 130.903 4.59096 130.737 4.79486 130.737C4.99876 130.737 5.16418 130.903 5.16418 131.107V133.568C5.16418 133.772 4.99876 133.937 4.79486 133.937ZM4.79486 129.015C4.59096 129.015 4.42554 128.85 4.42554 128.646V126.185C4.42554 125.981 4.59096 125.815 4.79486 125.815C4.99876 125.815 5.16418 125.981 5.16418 126.185V128.646C5.16418 128.85 4.99876 129.015 4.79486 129.015ZM4.79486 124.093C4.59096 124.093 4.42554 123.927 4.42554 123.723V121.262C4.42554 121.058 4.59096 120.893 4.79486 120.893C4.99876 120.893 5.16418 121.058 5.16418 121.262V123.723C5.16418 123.927 4.99876 124.093 4.79486 124.093ZM4.79486 119.17C4.59096 119.17 4.42554 119.004 4.42554 118.801V116.339C4.42554 116.135 4.59096 115.97 4.79486 115.97C4.99876 115.97 5.16418 116.135 5.16418 116.339V118.801C5.16418 119.004 4.99876 119.17 4.79486 119.17ZM4.79486 114.247C4.59096 114.247 4.42554 114.082 4.42554 113.878V111.417C4.42554 111.213 4.59096 111.047 4.79486 111.047C4.99876 111.047 5.16418 111.213 5.16418 111.417V113.878C5.16418 114.082 4.99876 114.247 4.79486 114.247ZM4.79486 109.325C4.59096 109.325 4.42554 109.159 4.42554 108.955V106.494C4.42554 106.29 4.59096 106.125 4.79486 106.125C4.99876 106.125 5.16418 106.29 5.16418 106.494V108.955C5.16418 109.159 4.99876 109.325 4.79486 109.325ZM4.79486 104.402C4.59096 104.402 4.42554 104.237 4.42554 104.033V103.784C4.42554 103.013 4.51949 102.246 4.7044 101.505C4.75388 101.307 4.95828 101.187 5.15219 101.236C5.35009 101.286 5.47053 101.486 5.42106 101.683C5.25114 102.365 5.16418 103.072 5.16418 103.783V104.032C5.16418 104.237 4.99876 104.402 4.79486 104.402ZM5.97729 99.6878C5.91532 99.6878 5.85235 99.6723 5.79438 99.6393C5.61746 99.5384 5.55599 99.3125 5.65694 99.1356C6.08024 98.3944 6.60399 97.7132 7.21319 97.111C7.35862 96.9681 7.59201 96.9691 7.73544 97.114C7.87887 97.2589 7.87787 97.4928 7.73244 97.6363C7.17121 98.191 6.68845 98.8187 6.29864 99.5014C6.23017 99.6208 6.10573 99.6878 5.97729 99.6878ZM9.43512 96.2709C9.30518 96.2709 9.17925 96.2025 9.11228 96.081C9.01333 95.9026 9.0773 95.6782 9.25571 95.5788C10.0043 95.163 10.8055 94.8526 11.6376 94.6552C11.838 94.6092 12.0344 94.7307 12.0818 94.9296C12.1288 95.128 12.0064 95.3269 11.808 95.3739C11.0418 95.5553 10.3037 95.8411 9.61454 96.2244C9.55756 96.2559 9.49609 96.2709 9.43512 96.2709ZM70.7741 95.142H68.3128C68.1089 95.142 67.9434 94.9766 67.9434 94.7726C67.9434 94.5687 68.1089 94.4033 68.3128 94.4033H70.7741C70.978 94.4033 71.1434 94.5687 71.1434 94.7726C71.1434 94.9766 70.978 95.142 70.7741 95.142ZM65.8519 95.142H63.3906C63.1867 95.142 63.0213 94.9766 63.0213 94.7726C63.0213 94.5687 63.1867 94.4033 63.3906 94.4033H65.8519C66.0558 94.4033 66.2213 94.5687 66.2213 94.7726C66.2208 94.9766 66.0553 95.142 65.8519 95.142ZM60.9293 95.142H58.468C58.2641 95.142 58.0987 94.9766 58.0987 94.7726C58.0987 94.5687 58.2641 94.4033 58.468 94.4033H60.9293C61.1332 94.4033 61.2986 94.5687 61.2986 94.7726C61.2981 94.9766 61.1332 95.142 60.9293 95.142ZM56.0067 95.142H53.5454C53.3415 95.142 53.176 94.9766 53.176 94.7726C53.176 94.5687 53.3415 94.4033 53.5454 94.4033H56.0067C56.2106 94.4033 56.376 94.5687 56.376 94.7726C56.376 94.9766 56.2106 95.142 56.0067 95.142ZM51.084 95.142H48.6227C48.4188 95.142 48.2534 94.9766 48.2534 94.7726C48.2534 94.5687 48.4188 94.4033 48.6227 94.4033H51.084C51.2879 94.4033 51.4534 94.5687 51.4534 94.7726C51.4534 94.9766 51.2879 95.142 51.084 95.142ZM46.1614 95.142H43.7001C43.4962 95.142 43.3308 94.9766 43.3308 94.7726C43.3308 94.5687 43.4962 94.4033 43.7001 94.4033H46.1614C46.3653 94.4033 46.5307 94.5687 46.5307 94.7726C46.5307 94.9766 46.3653 95.142 46.1614 95.142ZM41.2388 95.142H38.7775C38.5736 95.142 38.4082 94.9766 38.4082 94.7726C38.4082 94.5687 38.5736 94.4033 38.7775 94.4033H41.2388C41.4427 94.4033 41.6081 94.5687 41.6081 94.7726C41.6081 94.9766 41.4427 95.142 41.2388 95.142ZM36.3162 95.142H33.8549C33.651 95.142 33.4855 94.9766 33.4855 94.7726C33.4855 94.5687 33.651 94.4033 33.8549 94.4033H36.3162C36.5201 94.4033 36.6855 94.5687 36.6855 94.7726C36.6855 94.9766 36.5201 95.142 36.3162 95.142ZM31.3935 95.142H28.9322C28.7283 95.142 28.5629 94.9766 28.5629 94.7726C28.5629 94.5687 28.7283 94.4033 28.9322 94.4033H31.3935C31.5974 94.4033 31.7629 94.5687 31.7629 94.7726C31.7629 94.9766 31.5974 95.142 31.3935 95.142ZM26.4709 95.142H24.0096C23.8057 95.142 23.6403 94.9766 23.6403 94.7726C23.6403 94.5687 23.8057 94.4033 24.0096 94.4033H26.4709C26.6748 94.4033 26.8402 94.5687 26.8402 94.7726C26.8402 94.9766 26.6748 95.142 26.4709 95.142ZM21.5483 95.142H19.087C18.8831 95.142 18.7176 94.9766 18.7176 94.7726C18.7176 94.5687 18.8831 94.4033 19.087 94.4033H21.5483C21.7522 94.4033 21.9176 94.5687 21.9176 94.7726C21.9176 94.9766 21.7522 95.142 21.5483 95.142ZM16.6257 95.142H14.1643C13.9604 95.142 13.795 94.9766 13.795 94.7726C13.795 94.5687 13.9604 94.4033 14.1643 94.4033H16.6257C16.8296 94.4033 16.995 94.5687 16.995 94.7726C16.995 94.9766 16.8296 95.142 16.6257 95.142Z" fill="#B19CFE"/>
<path d="M4.79476 135.594C5.68323 135.594 6.40348 134.874 6.40348 133.986C6.40348 133.097 5.68323 132.377 4.79476 132.377C3.90628 132.377 3.18604 133.097 3.18604 133.986C3.18604 134.874 3.90628 135.594 4.79476 135.594Z" fill="#B19CFE"/>
<path d="M4.79483 137C3.13263 137 1.77979 135.647 1.77979 133.985C1.77979 132.322 3.13263 130.97 4.79483 130.97C6.45703 130.97 7.80988 132.322 7.80988 133.985C7.80988 135.647 6.45703 137 4.79483 137ZM4.79483 131.339C3.33603 131.339 2.14911 132.525 2.14911 133.984C2.14911 135.443 3.33603 136.63 4.79483 136.63C6.25363 136.63 7.44056 135.443 7.44056 133.984C7.44056 132.525 6.25413 131.339 4.79483 131.339Z" fill="#B19CFE"/>
<path d="M87.6588 83.8902C87.4109 83.8902 87.2095 83.6888 87.2095 83.4409V80.4464C87.2095 80.1985 87.4109 79.9971 87.6588 79.9971C87.9066 79.9971 88.108 80.1985 88.108 80.4464V83.4409C88.108 83.6888 87.9066 83.8902 87.6588 83.8902ZM87.6588 77.9011C87.4109 77.9011 87.2095 77.6997 87.2095 77.4518V74.4572C87.2095 74.2094 87.4109 74.008 87.6588 74.008C87.9066 74.008 88.108 74.2094 88.108 74.4572V77.4518C88.108 77.6997 87.9066 77.9011 87.6588 77.9011ZM87.6588 71.9115C87.4109 71.9115 87.2095 71.7101 87.2095 71.4622V68.4676C87.2095 68.2198 87.4109 68.0183 87.6588 68.0183C87.9066 68.0183 88.108 68.2198 88.108 68.4676V71.4622C88.108 71.7106 87.9066 71.9115 87.6588 71.9115ZM87.6588 65.9224C87.4109 65.9224 87.2095 65.721 87.2095 65.4731V62.4785C87.2095 62.2306 87.4109 62.0292 87.6588 62.0292C87.9066 62.0292 88.108 62.2306 88.108 62.4785V65.4731C88.108 65.7215 87.9066 65.9224 87.6588 65.9224ZM87.6588 59.9332C87.4109 59.9332 87.2095 59.7318 87.2095 59.484V56.4894C87.2095 56.2415 87.4109 56.0401 87.6588 56.0401C87.9066 56.0401 88.108 56.2415 88.108 56.4894V59.484C88.108 59.7318 87.9066 59.9332 87.6588 59.9332ZM87.6588 53.9441C87.4109 53.9441 87.2095 53.7427 87.2095 53.4948V50.5003C87.2095 50.2524 87.4109 50.051 87.6588 50.051C87.9066 50.051 88.108 50.2524 88.108 50.5003V53.4948C88.108 53.7427 87.9066 53.9441 87.6588 53.9441ZM135.217 48.5492C134.969 48.5492 134.768 48.3478 134.768 48.0999V46.4377C134.768 46.1899 134.969 45.9885 135.217 45.9885C135.465 45.9885 135.666 46.1899 135.666 46.4377V48.0999C135.666 48.3478 135.465 48.5492 135.217 48.5492ZM87.6588 47.955C87.4109 47.955 87.2095 47.7541 87.2095 47.5057V44.5112C87.2095 44.2633 87.4109 44.0619 87.6588 44.0619C87.9066 44.0619 88.108 44.2633 88.108 44.5112V47.5057C88.108 47.7536 87.9066 47.955 87.6588 47.955ZM135.217 43.8925C134.969 43.8925 134.768 43.6916 134.768 43.4432V40.4486C134.768 40.2008 134.969 39.9994 135.217 39.9994C135.465 39.9994 135.666 40.2008 135.666 40.4486V43.4432C135.666 43.6911 135.465 43.8925 135.217 43.8925ZM87.6588 41.9659C87.4109 41.9659 87.2095 41.7645 87.2095 41.5166V38.5221C87.2095 38.2742 87.4109 38.0728 87.6588 38.0728C87.9066 38.0728 88.108 38.2742 88.108 38.5221V41.5166C88.108 41.7645 87.9066 41.9659 87.6588 41.9659ZM135.217 37.9029C134.969 37.9029 134.768 37.7015 134.768 37.4536V34.459C134.768 34.2111 134.969 34.0097 135.217 34.0097C135.465 34.0097 135.666 34.2111 135.666 34.459V37.4536C135.666 37.702 135.465 37.9029 135.217 37.9029ZM87.6588 35.9763C87.4109 35.9763 87.2095 35.7749 87.2095 35.527V32.5325C87.2095 32.2846 87.4109 32.0832 87.6588 32.0832C87.9066 32.0832 88.108 32.2846 88.108 32.5325V35.527C88.108 35.7754 87.9066 35.9763 87.6588 35.9763ZM135.217 31.9137C134.969 31.9137 134.768 31.7123 134.768 31.4645V28.4699C134.768 28.222 134.969 28.0206 135.217 28.0206C135.465 28.0206 135.666 28.222 135.666 28.4699V31.4645C135.666 31.7128 135.465 31.9137 135.217 31.9137ZM87.6588 29.9872C87.4109 29.9872 87.2095 29.7858 87.2095 29.5379V26.5433C87.2095 26.2955 87.4109 26.0941 87.6588 26.0941C87.9066 26.0941 88.108 26.2955 88.108 26.5433V29.5379C88.108 29.7863 87.9066 29.9872 87.6588 29.9872ZM135.217 25.9246C134.969 25.9246 134.768 25.7232 134.768 25.4754V22.4808C134.768 22.2329 134.969 22.0315 135.217 22.0315C135.465 22.0315 135.666 22.2329 135.666 22.4808V25.4754C135.666 25.7237 135.465 25.9246 135.217 25.9246ZM87.6588 23.9981C87.4109 23.9981 87.2095 23.7967 87.2095 23.5488V20.5542C87.2095 20.3063 87.4109 20.1049 87.6588 20.1049C87.9066 20.1049 88.108 20.3063 88.108 20.5542V23.5488C88.108 23.7967 87.9066 23.9981 87.6588 23.9981ZM135.217 19.9355C134.969 19.9355 134.768 19.7341 134.768 19.4862V16.4917C134.768 16.2438 134.969 16.0424 135.217 16.0424C135.465 16.0424 135.666 16.2438 135.666 16.4917V19.4862C135.666 19.7341 135.465 19.9355 135.217 19.9355ZM87.6588 18.009C87.4109 18.009 87.2095 17.8075 87.2095 17.5597V14.5651C87.2095 14.3172 87.4109 14.1158 87.6588 14.1158C87.9066 14.1158 88.108 14.3172 88.108 14.5651V17.5597C88.108 17.8075 87.9066 18.009 87.6588 18.009ZM135.197 13.9469C134.961 13.9469 134.763 13.762 134.75 13.5231C134.695 12.5631 134.51 11.6185 134.2 10.7145C134.12 10.4801 134.245 10.2242 134.48 10.1437C134.712 10.0638 134.97 10.1882 135.05 10.4231C135.387 11.4046 135.588 12.4306 135.647 13.4721C135.661 13.72 135.471 13.9319 135.224 13.9464C135.215 13.9464 135.206 13.9469 135.197 13.9469ZM87.9541 12.0433C87.9196 12.0433 87.8851 12.0393 87.8502 12.0313C87.6088 11.9739 87.4593 11.732 87.5168 11.4906C87.7567 10.4771 88.135 9.50205 88.6408 8.59249C88.7607 8.37559 89.0351 8.29763 89.2515 8.41857C89.4684 8.53902 89.5463 8.81288 89.4259 9.02978C88.9596 9.86688 88.6118 10.7649 88.3909 11.698C88.3419 11.9044 88.1575 12.0433 87.9541 12.0433ZM133.282 8.3551C133.139 8.3551 132.999 8.28764 132.911 8.1617C132.366 7.37208 131.716 6.66092 130.979 6.04771C130.789 5.88879 130.763 5.60543 130.922 5.41502C131.081 5.22361 131.364 5.19913 131.555 5.35755C132.353 6.02273 133.058 6.79435 133.65 7.65044C133.791 7.85484 133.74 8.13421 133.536 8.27564C133.459 8.32961 133.37 8.3551 133.282 8.3551ZM90.8237 6.87232C90.7098 6.87232 90.5958 6.82884 90.5079 6.74238C90.3315 6.56797 90.33 6.2836 90.5044 6.10719C91.237 5.36604 92.0656 4.72885 92.9667 4.2136C93.1811 4.09066 93.4565 4.16562 93.5799 4.38102C93.7028 4.59641 93.6279 4.87078 93.4125 4.99423C92.5819 5.4685 91.8188 6.05571 91.1431 6.73938C91.0551 6.82784 90.9392 6.87232 90.8237 6.87232ZM128.737 4.56943C128.675 4.56943 128.613 4.55694 128.554 4.53045C127.678 4.13814 126.754 3.86827 125.806 3.72783C125.56 3.69185 125.391 3.46296 125.427 3.21758C125.464 2.9722 125.689 2.79728 125.937 2.83926C126.967 2.99119 127.971 3.28455 128.921 3.71034C129.148 3.81179 129.249 4.07766 129.148 4.30406C129.072 4.47048 128.908 4.56943 128.737 4.56943ZM95.9578 3.94023C95.7563 3.94023 95.5734 3.8038 95.5225 3.5999C95.4625 3.35901 95.6084 3.11513 95.8493 3.05516C96.7504 2.83027 97.6834 2.71582 98.622 2.71582H98.9248C99.1727 2.71582 99.3741 2.91722 99.3741 3.1651C99.3741 3.41299 99.1727 3.61439 98.9248 3.61439H98.622C97.7569 3.61439 96.8973 3.71934 96.0667 3.92674C96.0307 3.93573 95.9937 3.94023 95.9578 3.94023ZM122.882 3.61439H119.888C119.64 3.61439 119.438 3.41299 119.438 3.1651C119.438 2.91722 119.64 2.71582 119.888 2.71582H122.882C123.13 2.71582 123.332 2.91722 123.332 3.1651C123.332 3.41299 123.13 3.61439 122.882 3.61439ZM116.893 3.61439H113.899C113.651 3.61439 113.449 3.41299 113.449 3.1651C113.449 2.91722 113.651 2.71582 113.899 2.71582H116.893C117.141 2.71582 117.342 2.91722 117.342 3.1651C117.342 3.41299 117.141 3.61439 116.893 3.61439ZM110.904 3.61439H107.909C107.661 3.61439 107.46 3.41299 107.46 3.1651C107.46 2.91722 107.661 2.71582 107.909 2.71582H110.904C111.151 2.71582 111.353 2.91722 111.353 3.1651C111.353 3.41299 111.152 3.61439 110.904 3.61439ZM104.914 3.61439H101.92C101.672 3.61439 101.471 3.41299 101.471 3.1651C101.471 2.91722 101.672 2.71582 101.92 2.71582H104.914C105.162 2.71582 105.364 2.91722 105.364 3.1651C105.364 3.41299 105.163 3.61439 104.914 3.61439Z" fill="#B19CFE"/>
<path d="M111.438 4.85389C112.37 4.85389 113.125 4.09829 113.125 3.1662C113.125 2.23412 112.37 1.47852 111.438 1.47852C110.506 1.47852 109.75 2.23412 109.75 3.1662C109.75 4.09829 110.506 4.85389 111.438 4.85389Z" fill="#B19CFE"/>
<path d="M111.438 6.32595C109.694 6.32595 108.275 4.90713 108.275 3.16297C108.275 1.41881 109.694 0 111.438 0C113.182 0 114.601 1.41881 114.601 3.16297C114.601 4.90713 113.182 6.32595 111.438 6.32595ZM111.438 0.38731C109.907 0.38731 108.662 1.63271 108.662 3.16297C108.662 4.69374 109.907 5.93864 111.438 5.93864C112.969 5.93864 114.213 4.69324 114.213 3.16297C114.213 1.63271 112.969 0.38731 111.438 0.38731Z" fill="#B19CFE"/>
<path d="M113.454 27.4971H84.4912V32.4487H113.454V27.4971Z" fill="#C1C1C1"/>
<path d="M136.854 25.6338H116.15C114.643 25.6338 113.214 26.1395 112.245 27.0156L106.621 31.2241H84.4643C83.5382 31.2241 82.7871 31.9752 82.7871 32.9013V63.568C82.7871 64.4941 83.5382 65.2452 84.4643 65.2452H138.451C139.377 65.2452 140.128 64.4946 140.128 63.568V33.9393V32.9013V29.361C140.128 27.3909 138.662 25.6338 136.854 25.6338Z" fill="#FFC655"/>
<path d="M51.2862 118.306L48.2157 121.282C48.1137 121.381 48.0243 121.489 47.9433 121.6C45.9008 120.261 43.6703 119.321 41.362 118.781C41.3879 118.642 41.4064 118.501 41.4079 118.357L41.4539 114.081C41.4679 112.75 40.3974 111.656 39.0666 111.642L34.7901 111.596C33.4603 111.582 32.3653 112.652 32.3513 113.983L32.3053 118.26C32.3038 118.404 32.3193 118.544 32.3418 118.683C30.0844 119.16 27.8925 120.018 25.8664 121.259C25.789 121.145 25.703 121.035 25.6041 120.933L22.6275 117.862C21.7009 116.907 20.1702 116.883 19.2146 117.809L16.1441 120.786C15.1886 121.712 15.1651 123.243 16.0911 124.199L19.0677 127.269C19.1667 127.371 19.2741 127.461 19.3851 127.542C18.0457 129.584 17.1057 131.815 16.5659 134.123C16.4275 134.097 16.2865 134.079 16.1421 134.077L11.8657 134.031C11.225 134.024 10.6198 134.265 10.16 134.711C10.157 134.714 10.1545 134.717 10.152 134.72C9.69122 135.17 9.43385 135.774 9.42685 136.418L9.38087 140.695C9.36688 142.025 10.4374 143.12 11.7682 143.134L16.0447 143.18C16.1896 143.181 16.3295 143.165 16.468 143.142C16.9447 145.4 17.8028 147.592 19.0437 149.618C18.9298 149.695 18.8198 149.781 18.7179 149.88L15.6474 152.857C14.6918 153.784 14.6683 155.314 15.5944 156.269L18.5709 159.34C19.4975 160.295 21.0283 160.319 21.9838 159.393L25.0543 156.416C25.1563 156.317 25.2457 156.21 25.3267 156.099C27.3697 157.438 29.6006 158.378 31.9095 158.918C31.8835 159.056 31.8635 159.196 31.862 159.341L31.8161 163.618C31.8091 164.262 32.0534 164.871 32.5047 165.332C32.9555 165.793 33.5592 166.05 34.2034 166.057L38.4798 166.103C39.141 166.11 39.7437 165.849 40.1845 165.422C40.6308 164.989 40.9117 164.385 40.9187 163.716L40.9647 159.44C40.9662 159.295 40.9497 159.155 40.9267 159.016C43.1846 158.54 45.377 157.682 47.4036 156.441C47.481 156.555 47.567 156.665 47.6659 156.767L50.6425 159.837C51.569 160.793 53.0998 160.816 54.0553 159.89L57.1259 156.913C58.0814 155.987 58.1049 154.456 57.1788 153.501L54.2023 150.43C54.1033 150.328 53.9959 150.239 53.8844 150.158C55.2238 148.115 56.1638 145.884 56.7036 143.575C56.8415 143.601 56.9819 143.621 57.1269 143.622L61.4033 143.668C62.0645 143.675 62.6672 143.414 63.1085 142.987C63.5548 142.554 63.8356 141.951 63.8426 141.282L63.8891 137.005C63.9031 135.674 62.8321 134.58 61.5018 134.566L57.2253 134.52C57.0814 134.518 56.9405 134.533 56.8015 134.556C56.3248 132.299 55.4667 130.107 54.2263 128.081C54.3402 128.003 54.4502 127.917 54.5521 127.819L57.6226 124.842C58.5782 123.915 58.6017 122.385 57.6756 121.43L54.699 118.359C53.772 117.403 52.2412 117.379 51.2862 118.306ZM44.5244 146.987C40.0371 151.337 32.8476 151.226 28.4972 146.739C24.1468 142.252 24.2582 135.062 28.7455 130.712C33.2329 126.361 40.4224 126.473 44.7728 130.96C49.1227 135.447 49.0113 142.636 44.5244 146.987Z" stroke="#0F1B63" stroke-miterlimit="10"/>
<path d="M132.73 153.358H86.7671V175.392H132.73V153.358Z" fill="#C60C88"/>
<path d="M186.102 49.3329V149.706C186.102 152.929 183.489 155.543 180.261 155.543H39.2366C36.0126 155.543 33.3949 152.929 33.3949 149.706V49.3329C33.3949 46.109 36.0126 43.4912 39.2366 43.4912H180.261C183.489 43.4912 186.102 46.109 186.102 49.3329Z" fill="#D42190"/>
<path opacity="0.5" d="M112.499 148.484C112.499 150.14 111.156 151.482 109.5 151.482C107.844 151.482 106.502 150.14 106.502 148.484C106.502 146.828 107.844 145.485 109.5 145.485C111.156 145.485 112.499 146.828 112.499 148.484Z" fill="white"/>
<path d="M184.268 141.868V50.457C184.268 47.6864 182.099 45.4404 179.424 45.4404H40.0737C37.3984 45.4404 35.2295 47.6864 35.2295 50.457V141.868H184.268Z" fill="#DED7FF"/>
<path d="M141.774 177.766H77.7235V177.612C77.7235 175.075 79.781 173.018 82.3183 173.018H137.179C139.717 173.018 141.774 175.075 141.774 177.612V177.766H141.774Z" fill="#D42190"/>
<path d="M47.2462 44.5023C47.2462 40.078 43.9108 36.4372 39.6184 35.9455C39.6514 35.6561 39.6724 35.3632 39.6724 35.0654C39.6724 30.8234 36.2335 27.3851 31.9921 27.3851C30.8556 27.3851 29.7807 27.6385 28.8101 28.0812C26.7651 24.8933 23.1928 22.7793 19.1238 22.7793C12.7709 22.7793 7.62083 27.9293 7.62083 34.2823C7.62083 34.8415 7.66281 35.3912 7.74027 35.929C3.39287 36.3687 0 40.0395 0 44.5028C0 49.2625 3.85864 53.1212 8.61835 53.1212H39.0552V53.0997C43.615 52.8748 47.2462 49.1176 47.2462 44.5023Z" fill="#B19CFE"/>
<path d="M29.143 59.6972V46.3066H18.1033V59.6972H14.6525L23.6231 68.1016L32.5943 59.6972H29.143Z" fill="#FFC655"/>
<path d="M151.098 50.8335H123.992C121.486 50.8335 119.454 48.8015 119.454 46.2952V37.2805C119.454 34.7742 121.486 32.7422 123.992 32.7422H151.098C153.604 32.7422 155.636 34.7742 155.636 37.2805V46.2947C155.636 48.8014 153.604 50.8335 151.098 50.8335Z" fill="#542FD0"/>
<path d="M49.9169 181.019H22.812C20.3057 181.019 18.2737 178.987 18.2737 176.481V167.467C18.2737 164.961 20.3057 162.929 22.812 162.929H49.9174C52.4237 162.929 54.4557 164.961 54.4557 167.467V176.481C54.4557 178.987 52.4237 181.019 49.9169 181.019Z" fill="#542FD0"/>
<path d="M62.9512 104.486H35.8458C33.3395 104.486 31.3075 102.454 31.3075 99.948V90.9338C31.3075 88.4275 33.3395 86.3955 35.8458 86.3955H62.9512C65.4575 86.3955 67.4896 88.4275 67.4896 90.9338V99.948C67.4896 102.454 65.4575 104.486 62.9512 104.486Z" fill="#542FD0"/>
<path d="M158.46 162.41H157.169C156.955 162.41 156.782 162.237 156.782 162.023C156.782 161.809 156.955 161.636 157.169 161.636H158.46C158.674 161.636 158.847 161.809 158.847 162.023C158.847 162.237 158.674 162.41 158.46 162.41Z" fill="#B19CFE"/>
<path d="M189.452 162.41H186.869C186.655 162.41 186.482 162.236 186.482 162.022C186.482 161.808 186.655 161.635 186.869 161.635H189.452C189.666 161.635 189.839 161.808 189.839 162.022C189.839 162.236 189.666 162.41 189.452 162.41ZM184.286 162.41H181.704C181.49 162.41 181.317 162.236 181.317 162.022C181.317 161.808 181.49 161.635 181.704 161.635H184.286C184.5 161.635 184.674 161.808 184.674 162.022C184.674 162.236 184.5 162.41 184.286 162.41ZM179.121 162.41H176.538C176.325 162.41 176.151 162.236 176.151 162.022C176.151 161.808 176.325 161.635 176.538 161.635H179.121C179.335 161.635 179.509 161.808 179.509 162.022C179.509 162.236 179.335 162.41 179.121 162.41ZM173.956 162.41H171.373C171.159 162.41 170.986 162.236 170.986 162.022C170.986 161.808 171.159 161.635 171.373 161.635H173.956C174.17 161.635 174.343 161.808 174.343 162.022C174.344 162.236 174.17 162.41 173.956 162.41ZM168.791 162.41H166.208C165.995 162.41 165.821 162.236 165.821 162.022C165.821 161.808 165.995 161.635 166.208 161.635H168.791C169.005 161.635 169.178 161.808 169.178 162.022C169.178 162.236 169.005 162.41 168.791 162.41ZM163.626 162.41H161.043C160.829 162.41 160.656 162.236 160.656 162.022C160.656 161.808 160.829 161.635 161.043 161.635H163.626C163.84 161.635 164.013 161.808 164.013 162.022C164.013 162.236 163.84 162.41 163.626 162.41ZM192.009 162.109C191.835 162.109 191.676 161.99 191.633 161.813C191.583 161.605 191.71 161.396 191.918 161.345C192.725 161.15 193.507 160.856 194.242 160.472C194.432 160.374 194.666 160.447 194.764 160.637C194.863 160.826 194.79 161.06 194.6 161.159C193.809 161.572 192.968 161.888 192.1 162.098C192.07 162.106 192.04 162.109 192.009 162.109ZM196.546 159.747C196.438 159.747 196.331 159.703 196.255 159.616C196.114 159.455 196.13 159.211 196.29 159.069C196.914 158.521 197.471 157.898 197.947 157.219C198.069 157.043 198.31 157 198.486 157.123C198.661 157.246 198.704 157.487 198.581 157.662C198.071 158.392 197.472 159.062 196.802 159.651C196.728 159.715 196.637 159.747 196.546 159.747ZM199.474 155.555C199.427 155.555 199.38 155.547 199.335 155.529C199.135 155.452 199.036 155.228 199.113 155.029C199.412 154.255 199.616 153.445 199.719 152.622C199.746 152.41 199.933 152.259 200.152 152.286C200.365 152.313 200.515 152.507 200.488 152.719C200.376 153.605 200.157 154.475 199.835 155.308C199.776 155.461 199.629 155.555 199.474 155.555ZM200.189 150.48C199.975 150.48 199.801 150.306 199.801 150.092V147.51C199.801 147.296 199.975 147.122 200.189 147.122C200.402 147.122 200.576 147.296 200.576 147.51V150.092C200.576 150.306 200.402 150.48 200.189 150.48ZM200.189 145.314C199.975 145.314 199.801 145.141 199.801 144.927V142.345C199.801 142.131 199.975 141.957 200.189 141.957C200.402 141.957 200.576 142.131 200.576 142.345V144.927C200.576 145.141 200.402 145.314 200.189 145.314ZM200.189 140.149C199.975 140.149 199.801 139.976 199.801 139.762V137.18C199.801 136.966 199.975 136.792 200.189 136.792C200.402 136.792 200.576 136.966 200.576 137.18V139.762C200.576 139.976 200.402 140.149 200.189 140.149ZM200.189 134.984C199.975 134.984 199.801 134.811 199.801 134.597V132.014C199.801 131.8 199.975 131.627 200.189 131.627C200.402 131.627 200.576 131.8 200.576 132.014V134.597C200.576 134.81 200.402 134.984 200.189 134.984ZM200.189 129.819C199.975 129.819 199.801 129.646 199.801 129.432V126.849C199.801 126.635 199.975 126.462 200.189 126.462C200.402 126.462 200.576 126.635 200.576 126.849V129.432C200.576 129.645 200.402 129.819 200.189 129.819ZM200.189 124.654C199.975 124.654 199.801 124.48 199.801 124.266V121.684C199.801 121.47 199.975 121.297 200.189 121.297C200.402 121.297 200.576 121.47 200.576 121.684V124.266C200.576 124.48 200.402 124.654 200.189 124.654ZM200.189 119.488C199.975 119.488 199.801 119.315 199.801 119.101V116.518C199.801 116.304 199.975 116.131 200.189 116.131C200.402 116.131 200.576 116.304 200.576 116.518V119.101C200.576 119.315 200.402 119.488 200.189 119.488Z" fill="#B19CFE"/>
<path d="M200.188 114.312C199.975 114.312 199.801 114.138 199.801 113.924V113.021H199.476C199.262 113.021 199.089 112.847 199.089 112.633C199.089 112.42 199.262 112.246 199.476 112.246H200.188C200.402 112.246 200.576 112.42 200.576 112.633V113.924C200.576 114.138 200.402 114.312 200.188 114.312Z" fill="#B19CFE"/>
<path d="M188.168 73.5166H154.281C152.244 73.5166 150.593 75.1678 150.593 77.2048V147.625C150.593 149.662 152.244 151.314 154.281 151.314H188.168C190.205 151.314 191.856 149.662 191.856 147.625V77.2048C191.856 75.1678 190.205 73.5166 188.168 73.5166Z" fill="#B19CFE"/>
<path d="M178.802 77.5731H160.162C159.839 77.5731 159.576 77.3107 159.576 76.9874V76.9119C159.576 76.5886 159.839 76.3262 160.162 76.3262H178.802C179.125 76.3262 179.387 76.5886 179.387 76.9119V76.9874C179.387 77.3107 179.125 77.5731 178.802 77.5731Z" fill="#0F1B63"/>
<path d="M182.873 76.9499C182.873 77.2942 182.593 77.5736 182.249 77.5736C181.905 77.5736 181.625 77.2942 181.625 76.9499C181.625 76.6055 181.905 76.3262 182.249 76.3262C182.593 76.3262 182.873 76.6055 182.873 76.9499Z" fill="#0F1B63"/>
<path d="M189.584 80.5811H152.865V103.145H189.584V80.5811Z" fill="white"/>
<path d="M178.191 90.0095L175.499 93.23L168.533 84.8965L156.885 98.8293H170.818H180.179H185.564L178.191 90.0095Z" fill="#FFC655"/>
<path d="M170.201 133.031H152.865V143.199H170.201V133.031Z" fill="white"/>
<path d="M164.822 136.983L163.55 138.503L160.261 134.568L154.763 141.147H161.34H165.76H168.303L164.822 136.983Z" fill="#FFC655"/>
<path d="M170.201 108.947H152.864V109.921H170.201V108.947Z" fill="#B19CFE"/>
<path d="M170.201 106.904H152.864V107.878H170.201V106.904Z" fill="#B19CFE"/>
<path d="M163.826 110.941H152.865V111.915H163.826V110.941Z" fill="#B19CFE"/>
<path d="M170.2 110.941H164.605V111.915H170.2V110.941Z" fill="#B19CFE"/>
<path d="M168.202 112.932H152.864V113.906H168.202V112.932Z" fill="#B19CFE"/>
<path d="M158.191 114.978H152.864V115.952H158.191V114.978Z" fill="#B19CFE"/>
<path d="M162.947 114.978H159.111V115.952H162.947V114.978Z" fill="#B19CFE"/>
<path d="M189.584 122.589H172.248V123.563H189.584V122.589Z" fill="#B19CFE"/>
<path d="M189.584 120.549H172.248V121.523H189.584V120.549Z" fill="#B19CFE"/>
<path d="M183.21 124.585H172.248V125.559H183.21V124.585Z" fill="#B19CFE"/>
<path d="M189.584 124.585H183.989V125.559H189.584V124.585Z" fill="#B19CFE"/>
<path d="M187.586 126.575H172.248V127.549H187.586V126.575Z" fill="#B19CFE"/>
<path d="M177.575 128.622H172.248V129.596H177.575V128.622Z" fill="#B19CFE"/>
<path d="M182.331 128.622H178.494V129.596H182.331V128.622Z" fill="#B19CFE"/>
<path d="M189.584 108.947H172.248V109.921H189.584V108.947Z" fill="#B19CFE"/>
<path d="M189.584 106.904H172.248V107.878H189.584V106.904Z" fill="#B19CFE"/>
<path d="M183.21 110.941H172.248V111.915H183.21V110.941Z" fill="#B19CFE"/>
<path d="M189.584 110.941H183.989V111.915H189.584V110.941Z" fill="#B19CFE"/>
<path d="M189.584 112.932H172.248V113.906H189.584V112.932Z" fill="#B19CFE"/>
<path d="M177.575 114.978H172.248V115.952H177.575V114.978Z" fill="#B19CFE"/>
<path d="M189.584 114.978H178.494V115.952H189.584V114.978Z" fill="#B19CFE"/>
<path d="M170.201 122.589H152.865V123.563H170.201V122.589Z" fill="#B19CFE"/>
<path d="M170.201 120.549H152.864V121.523H170.201V120.549Z" fill="#B19CFE"/>
<path d="M170.201 124.585H152.865V125.559H170.201V124.585Z" fill="#B19CFE"/>
<path d="M170.201 126.575H152.865V127.549H170.201V126.575Z" fill="#B19CFE"/>
<path d="M170.201 128.622H152.864V129.596H170.201V128.622Z" fill="#B19CFE"/>
<path d="M189.584 135.405H172.248V136.379H189.584V135.405Z" fill="#B19CFE"/>
<path d="M189.585 133.365H172.248V134.339H189.585V133.365Z" fill="#B19CFE"/>
<path d="M189.584 137.399H178.622V138.373H189.584V137.399Z" fill="#B19CFE"/>
<path d="M177.843 137.399H172.248V138.373H177.843V137.399Z" fill="#B19CFE"/>
<path d="M185.56 139.392H172.248V140.366H185.56V139.392Z" fill="#B19CFE"/>
<path d="M189.584 139.392H186.484V140.366H189.584V139.392Z" fill="#B19CFE"/>
<path d="M189.585 141.438H176.797V142.413H189.585V141.438Z" fill="#B19CFE"/>
<path d="M176.085 141.438H172.248V142.413H176.085V141.438Z" fill="#B19CFE"/>
<path d="M158.803 169.404H131.698C129.191 169.404 127.159 167.372 127.159 164.866V155.852C127.159 153.345 129.191 151.313 131.698 151.313H158.803C161.309 151.313 163.341 153.345 163.341 155.852V164.866C163.341 167.372 161.309 169.404 158.803 169.404Z" fill="#542FD0"/>
<path d="M201.585 139.4C201.585 140.332 200.829 141.087 199.897 141.087C198.965 141.087 198.209 140.332 198.209 139.4C198.209 138.468 198.965 137.712 199.897 137.712C200.829 137.712 201.585 138.468 201.585 139.4Z" fill="#B19CFE"/>
<path d="M199.897 142.561C198.152 142.561 196.734 141.142 196.734 139.398C196.734 137.654 198.153 136.235 199.897 136.235C201.641 136.235 203.059 137.654 203.059 139.398C203.06 141.142 201.641 142.561 199.897 142.561ZM199.897 136.622C198.366 136.622 197.121 137.868 197.121 139.398C197.121 140.928 198.366 142.173 199.897 142.173C201.427 142.173 202.672 140.928 202.672 139.398C202.672 137.868 201.427 136.622 199.897 136.622Z" fill="#B19CFE"/>
<path d="M214.462 114.636H187.356C184.85 114.636 182.818 112.604 182.818 110.097V101.083C182.818 98.5769 184.85 96.5449 187.356 96.5449H214.462C216.968 96.5449 219 98.5769 219 101.083V110.097C219 112.604 216.968 114.636 214.462 114.636Z" fill="#542FD0"/>
<path d="M117.15 117.947H105.765V118.98H117.15V117.947Z" fill="#0F1B63"/>
<path d="M146.436 117.947H120.071V118.98H146.436V117.947Z" fill="#0F1B63"/>
<path d="M132.923 126.837C128.398 126.837 123.862 126.831 119.347 126.82L119.349 125.787C128.378 125.809 137.49 125.809 146.435 125.787L146.437 126.82C141.965 126.831 137.449 126.837 132.923 126.837Z" fill="#0F1B63"/>
<path d="M146.436 121.867H115.199V122.9H146.436V121.867Z" fill="#0F1B63"/>
<path d="M146.437 129.723H113.5V130.756H146.437V129.723Z" fill="#0F1B63"/>
<path d="M146.437 133.643H108.932V134.676H146.437V133.643Z" fill="#0F1B63"/>
<path d="M61.8672 58.8828H44.2332V59.9158H61.8672V58.8828Z" fill="#B19CFE"/>
<path d="M102.852 58.8828H84.6548V59.9158H102.852V58.8828Z" fill="#B19CFE"/>
<path d="M102.852 62.8027H90.2289V63.8357H102.852V62.8027Z" fill="#FFC655"/>
<path d="M102.852 70.6582H85.0364V71.6912H102.852V70.6582Z" fill="#FFC655"/>
<path d="M102.852 74.5781H81.5471V75.6111H102.852V74.5781Z" fill="#FFC655"/>
<path d="M102.852 79.1611H75.4475V80.1941H102.852V79.1611Z" fill="#FFC655"/>
<path d="M82.3592 58.8828H64.7252V59.9158H82.3592V58.8828Z" fill="#FFC655"/>
<path d="M88.6162 67.7712C85.9225 67.7712 83.2193 67.7672 77.8129 67.7597L74.2981 67.7547L74.2991 66.7217L77.8144 66.7267C88.6252 66.7417 88.6262 66.7417 99.3605 66.7267L102.852 66.7217V67.7547L99.362 67.7597C93.9941 67.7677 91.3099 67.7712 88.6162 67.7712Z" fill="#FFC655"/>
<path d="M57.7463 67.7717C53.2205 67.7717 48.7051 67.7662 44.2323 67.7557L44.2343 66.7227C53.179 66.7441 62.2926 66.7441 71.3212 66.7227L71.3232 67.7557C66.8079 67.7667 62.2716 67.7717 57.7463 67.7717Z" fill="#B19CFE"/>
<path d="M87.7247 62.8027H44.2332V63.8357H87.7247V62.8027Z" fill="#B19CFE"/>
<path d="M73.0334 79.1611H44.2333V80.1941H73.0334V79.1611Z" fill="#B19CFE"/>
<path d="M82.7874 70.6582H44.233V71.6912H82.7874V70.6582Z" fill="#B19CFE"/>
<path d="M79.1749 74.5781H44.2333V75.6111H79.1749V74.5781Z" fill="#B19CFE"/>
<path d="M40.542 60.1128C40.9353 60.1128 41.2541 59.7939 41.2541 59.4006C41.2541 59.0073 40.9353 58.6885 40.542 58.6885C40.1487 58.6885 39.8298 59.0073 39.8298 59.4006C39.8298 59.7939 40.1487 60.1128 40.542 60.1128Z" fill="#D42190"/>
<path d="M41.2541 63.3205C41.2541 63.7139 40.9353 64.0327 40.542 64.0327C40.1487 64.0327 39.8298 63.7139 39.8298 63.3205C39.8298 62.9272 40.1487 62.6084 40.542 62.6084C40.9353 62.6079 41.2541 62.9267 41.2541 63.3205Z" fill="#D42190"/>
<path d="M40.5419 67.9497C40.9352 67.9497 41.254 67.6309 41.254 67.2375C41.254 66.8442 40.9352 66.5254 40.5419 66.5254C40.1486 66.5254 39.8297 66.8442 39.8297 67.2375C39.8297 67.6309 40.1486 67.9497 40.5419 67.9497Z" fill="#D42190"/>
<path d="M41.254 71.1584C41.254 71.5518 40.9352 71.8706 40.5419 71.8706C40.1486 71.8706 39.8297 71.5518 39.8297 71.1584C39.8297 70.7651 40.1486 70.4463 40.5419 70.4463C40.9352 70.4463 41.254 70.7651 41.254 71.1584Z" fill="#D42190"/>
<path d="M40.542 75.8062C40.9353 75.8062 41.2541 75.4873 41.2541 75.094C41.2541 74.7007 40.9353 74.3818 40.542 74.3818C40.1487 74.3818 39.8298 74.7007 39.8298 75.094C39.8298 75.4873 40.1487 75.8062 40.542 75.8062Z" fill="#D42190"/>
<path d="M41.2541 79.677C41.2541 80.0703 40.9353 80.3892 40.542 80.3892C40.1487 80.3892 39.8298 80.0703 39.8298 79.677C39.8298 79.2837 40.1487 78.9648 40.542 78.9648C40.9353 78.9648 41.2541 79.2837 41.2541 79.677Z" fill="#D42190"/>
<path d="M107.553 82.0122C107.41 82.0122 107.294 81.8968 107.294 81.7538V58.8199C107.294 58.677 107.41 58.5615 107.553 58.5615C107.696 58.5615 107.811 58.677 107.811 58.8199V81.7543C107.811 81.8968 107.695 82.0122 107.553 82.0122Z" fill="#D42190"/>
<path d="M63.5908 131.483H62.0031C61.8566 131.483 61.7387 131.365 61.7387 131.219C61.7387 131.072 61.8571 130.954 62.0031 130.954H63.5908C63.7372 130.954 63.8552 131.073 63.8552 131.219C63.8557 131.365 63.7372 131.483 63.5908 131.483ZM60.4158 131.483H58.8286C58.6822 131.483 58.5642 131.365 58.5642 131.219C58.5642 131.072 58.6827 130.954 58.8286 130.954H60.4158C60.5622 130.954 60.6802 131.073 60.6802 131.219C60.6807 131.365 60.5622 131.483 60.4158 131.483ZM57.2409 131.483H56.5982C56.2368 131.483 55.8795 131.39 55.5652 131.216C55.4367 131.145 55.3912 130.984 55.4617 130.856C55.5332 130.728 55.6956 130.683 55.8215 130.753C56.0579 130.884 56.3263 130.954 56.5982 130.954H57.2409C57.3873 130.954 57.5052 131.072 57.5052 131.218C57.5057 131.364 57.3873 131.483 57.2409 131.483ZM54.773 130.015C54.6516 130.015 54.5422 129.93 54.5152 129.806C54.4827 129.657 54.4662 129.503 54.4662 129.351V128.166C54.4662 128.02 54.5846 127.902 54.7306 127.902C54.8765 127.902 54.9949 128.02 54.9949 128.166V129.351C54.9949 129.465 55.0074 129.581 55.0319 129.694C55.0629 129.837 54.9724 129.978 54.83 130.009C54.8105 130.013 54.7915 130.015 54.773 130.015ZM54.7306 126.843C54.5841 126.843 54.4662 126.725 54.4662 126.579V124.991C54.4662 124.845 54.5846 124.727 54.7306 124.727C54.8765 124.727 54.9949 124.845 54.9949 124.991V126.579C54.9949 126.725 54.877 126.843 54.7306 126.843ZM54.7306 123.668C54.5841 123.668 54.4662 123.55 54.4662 123.403V121.816C54.4662 121.669 54.5846 121.551 54.7306 121.551C54.8765 121.551 54.9949 121.67 54.9949 121.816V123.403C54.9949 123.55 54.877 123.668 54.7306 123.668ZM54.7306 120.493C54.5841 120.493 54.4662 120.374 54.4662 120.228V118.641C54.4662 118.494 54.5846 118.376 54.7306 118.376C54.8765 118.376 54.9949 118.495 54.9949 118.641V120.228C54.9949 120.375 54.877 120.493 54.7306 120.493ZM54.7306 117.318C54.5841 117.318 54.4662 117.199 54.4662 117.053V116.86C54.4662 116.322 54.6671 115.807 55.0324 115.413C55.1319 115.306 55.2988 115.299 55.4067 115.398C55.5137 115.497 55.5207 115.665 55.4212 115.772C55.1469 116.069 54.9954 116.455 54.9954 116.86V117.054C54.9949 117.2 54.877 117.318 54.7306 117.318ZM64.5823 115.257H62.9951C62.8487 115.257 62.7307 115.139 62.7307 114.993C62.7307 114.847 62.8492 114.729 62.9951 114.729H64.5823C64.7287 114.729 64.8472 114.847 64.8472 114.993C64.8472 115.139 64.7287 115.257 64.5823 115.257ZM61.4073 115.257H59.8201C59.6737 115.257 59.5557 115.139 59.5557 114.993C59.5557 114.847 59.6742 114.729 59.8201 114.729H61.4073C61.5538 114.729 61.6717 114.847 61.6717 114.993C61.6717 115.139 61.5538 115.257 61.4073 115.257ZM58.2324 115.257H56.6451C56.4987 115.257 56.3808 115.139 56.3808 114.993C56.3808 114.847 56.4992 114.729 56.6451 114.729H58.2324C58.3788 114.729 58.4967 114.847 58.4967 114.993C58.4967 115.139 58.3788 115.257 58.2324 115.257Z" fill="#0F1B63"/>
<path d="M69.3496 124.613H60.8512V125.672H69.3496V124.613Z" fill="#0F1B63"/>
<path d="M85.3034 124.613H71.574V125.672H85.3034V124.613Z" fill="#0F1B63"/>
<path d="M85.3028 133.615H76.8049V134.674H85.3028V133.615Z" fill="#0F1B63"/>
<path d="M74.581 133.615H60.8511V134.674H74.581V133.615Z" fill="#0F1B63"/>
<path d="M75.7985 127.679H60.8512V128.737H75.7985V127.679Z" fill="#0F1B63"/>
<path d="M85.3028 127.679H78.0223V128.737H85.3028V127.679Z" fill="#0F1B63"/>
<path d="M73.1518 130.69H60.8512V131.749H73.1518V130.69Z" fill="#0F1B63"/>
<path d="M85.3028 130.69H76.9563V131.749H85.3028V130.69Z" fill="#0F1B63"/>
<path d="M65.2999 111.828H60.8511V120.112H65.2999V111.828Z" fill="#FFC655"/>
<path d="M72.2795 108.682H67.8307V120.11H72.2795V108.682Z" fill="#D42190"/>
<path d="M79.0294 102.162H74.5806V120.11H79.0294V102.162Z" fill="#542FD0"/>
<path d="M75.9238 130.69H74.327V131.749H75.9238V130.69Z" fill="#0F1B63"/>
<path d="M146.036 74.0439H112.733V111.201H146.036V74.0439Z" fill="#B19CFE"/>
<path d="M138.643 80.6465H115.421V81.4211H138.643V80.6465Z" fill="white"/>
<path d="M127.008 87.0601C123.02 87.0601 119.039 87.0561 115.421 87.0471L115.423 86.2725C122.658 86.2905 131.34 86.2905 138.643 86.2725L138.645 87.0471C134.992 87.0561 130.996 87.0601 127.008 87.0601Z" fill="white"/>
<path d="M138.643 83.4609H115.421V84.2356H138.643V83.4609Z" fill="white"/>
<path d="M132.35 89.0986H115.421V89.8733H132.35V89.0986Z" fill="white"/>
<path d="M138.643 108.031H115.421V108.806H138.643V108.031Z" fill="white"/>
<path d="M138.643 103.182C131.339 103.164 122.658 103.164 115.423 103.182L115.421 102.407C122.658 102.39 131.34 102.39 138.645 102.407L138.643 103.182Z" fill="white"/>
<path d="M138.643 105.219H115.421V105.993H138.643V105.219Z" fill="white"/>
<path d="M132.35 99.5811H115.421V100.356H132.35V99.5811Z" fill="white"/>
<path d="M146.552 111.718H112.216V73.5166H146.552V111.718ZM112.733 111.202H146.036V74.0329H112.733V111.202Z" fill="#542FD0"/>
<path d="M146.295 73.7734H112.474V78.2243H146.295V73.7734Z" fill="#542FD0"/>
<path d="M136.636 97.6013C136.545 97.6013 136.454 97.5693 136.379 97.5043L133.777 95.2049C133.694 95.1315 133.647 95.0255 133.647 94.9146C133.647 94.8036 133.694 94.6977 133.777 94.6242L136.379 92.3248C136.54 92.1834 136.784 92.1974 136.927 92.3588C137.068 92.5192 137.053 92.7636 136.893 92.9056L134.619 94.9146L136.893 96.9236C137.053 97.0655 137.068 97.3099 136.927 97.4703C136.85 97.5573 136.743 97.6013 136.636 97.6013Z" fill="white"/>
<path d="M140.651 97.6027C140.544 97.6027 140.437 97.5587 140.36 97.4718C140.219 97.3113 140.235 97.067 140.394 96.925L142.668 94.916L140.394 92.907C140.235 92.765 140.22 92.5206 140.36 92.3602C140.502 92.1998 140.747 92.1853 140.908 92.3262L143.51 94.6256C143.593 94.6991 143.64 94.805 143.64 94.916C143.64 95.0269 143.593 95.1324 143.51 95.2064L140.908 97.5057C140.834 97.5707 140.742 97.6027 140.651 97.6027Z" fill="white"/>
<path d="M115.677 75.9996L116.579 75.0976C116.665 75.0121 116.665 74.8742 116.579 74.7887C116.494 74.7032 116.356 74.7032 116.27 74.7887L115.368 75.6908L114.466 74.7887C114.381 74.7032 114.243 74.7032 114.157 74.7887C114.072 74.8742 114.072 75.0121 114.157 75.0976L115.06 75.9996L114.157 76.9017C114.072 76.9871 114.072 77.1251 114.157 77.2105C114.2 77.253 114.256 77.2745 114.312 77.2745C114.368 77.2745 114.424 77.253 114.466 77.2105L115.368 76.3085L116.27 77.2105C116.313 77.253 116.369 77.2745 116.425 77.2745C116.481 77.2745 116.537 77.253 116.579 77.2105C116.665 77.1251 116.665 76.9871 116.579 76.9017L115.677 75.9996Z" fill="white"/>
<path d="M119.547 77.2744C118.844 77.2744 118.271 76.7022 118.271 75.9995C118.271 75.2963 118.844 74.7246 119.547 74.7246C120.25 74.7246 120.822 75.2968 120.822 75.9995C120.822 76.7027 120.25 77.2744 119.547 77.2744ZM119.547 75.1324C119.069 75.1324 118.68 75.5212 118.68 75.999C118.68 76.4768 119.069 76.8656 119.547 76.8656C120.025 76.8656 120.413 76.4768 120.413 75.999C120.413 75.5212 120.025 75.1324 119.547 75.1324Z" fill="white"/>
<path d="M124.48 77.2737H122.402C122.281 77.2737 122.184 77.1757 122.184 77.0553C122.184 76.9349 122.281 76.8369 122.402 76.8369H124.48C124.601 76.8369 124.698 76.9349 124.698 77.0553C124.698 77.1757 124.6 77.2737 124.48 77.2737Z" fill="white"/>
<path d="M102.09 24.0211L99.0823 24.9727C98.9824 25.0042 98.8879 25.0456 98.798 25.0926C97.8919 23.5354 96.7305 22.1795 95.3856 21.0621C95.4486 20.9791 95.507 20.8921 95.5555 20.7977L96.9963 17.9915C97.4446 17.1185 97.0988 16.0435 96.2257 15.5947L93.4196 14.1539C92.5465 13.7061 91.471 14.0514 91.0227 14.9245L89.5819 17.7307C89.5334 17.8251 89.4969 17.9231 89.4665 18.022C87.8197 17.5917 86.0906 17.4353 84.3444 17.5857C84.3309 17.4853 84.3104 17.3843 84.279 17.2844L83.3274 14.2768C83.0316 13.3408 82.029 12.82 81.093 13.1164L78.0854 14.0679C77.1494 14.3638 76.6291 15.3663 76.925 16.3024L77.8765 19.3099C77.908 19.4099 77.9495 19.5043 77.9965 19.5943C76.4392 20.5003 75.0834 21.6618 73.9659 23.0066C73.883 22.9437 73.796 22.8852 73.7016 22.8367L70.8954 21.3959C70.4751 21.18 69.9958 21.1395 69.5456 21.282C69.5431 21.283 69.5401 21.2835 69.5376 21.285C69.0848 21.4304 68.716 21.7437 68.4986 22.1665L67.0578 24.9727C66.6095 25.8458 66.9553 26.9207 67.8284 27.3695L70.6345 28.8103C70.7295 28.8593 70.8274 28.8943 70.9264 28.9248C70.4961 30.5715 70.3392 32.3011 70.4896 34.0473C70.3891 34.0608 70.2882 34.0813 70.1882 34.1128L67.1807 35.0643C66.2447 35.3602 65.7244 36.3627 66.0203 37.2987L66.9718 40.3063C67.2677 41.2423 68.2702 41.7626 69.2062 41.4667L72.2138 40.5152C72.3137 40.4837 72.4082 40.4422 72.4981 40.3952C73.4042 41.953 74.5661 43.3088 75.9115 44.4268C75.849 44.5093 75.7895 44.5952 75.7406 44.6902L74.2998 47.4963C74.0824 47.9191 74.0429 48.4019 74.1883 48.8542C74.3337 49.3069 74.6471 49.6758 75.0699 49.8927L77.876 51.3335C78.3098 51.5564 78.7936 51.5829 79.2254 51.4459C79.6627 51.3075 80.047 51.0016 80.2724 50.5623L81.7132 47.7562C81.7622 47.6612 81.7972 47.5633 81.8276 47.4643C83.4743 47.8946 85.204 48.0511 86.9507 47.9011C86.9642 48.0016 86.9846 48.1025 87.0161 48.203L87.9677 51.2105C88.2635 52.1466 89.2661 52.6668 90.2021 52.371L93.2097 51.4194C94.1457 51.1236 94.666 50.1211 94.3701 49.185L93.4186 46.1775C93.3871 46.0775 93.3456 45.9831 93.2986 45.8931C94.8564 44.987 96.2122 43.8251 97.3302 42.4797C97.4126 42.5427 97.4986 42.6017 97.594 42.6507L100.4 44.0915C100.834 44.3144 101.318 44.3408 101.75 44.2044C102.187 44.066 102.572 43.7601 102.797 43.3208L104.238 40.5147C104.687 39.6416 104.341 38.5661 103.468 38.1178L100.662 36.677C100.567 36.6286 100.469 36.5921 100.37 36.5611C100.799 34.9144 100.956 33.1852 100.806 31.4396C100.906 31.4261 101.007 31.4056 101.108 31.3741L104.115 30.4226C105.051 30.1267 105.572 29.1242 105.276 28.1886L104.324 25.1811C104.028 24.246 103.026 23.7253 102.09 24.0211ZM88.1691 40.7146C83.7737 42.1049 79.0665 39.6601 77.6761 35.2647C76.2858 30.8693 78.7306 26.1621 83.126 24.7718C87.5214 23.3814 92.2281 25.8263 93.6185 30.2217C95.0088 34.6175 92.564 39.3243 88.1691 40.7146Z" fill="#0F1B63"/>
<path d="M98.2923 93.8456L97.5612 95.6357C97.5367 95.6952 97.5192 95.7557 97.5062 95.8166C96.4172 95.6327 95.3228 95.6487 94.2688 95.8441C94.2543 95.7822 94.2363 95.7202 94.2108 95.6602L93.4532 93.8811C93.2173 93.3273 92.5756 93.069 92.0219 93.3043L90.2427 94.0615C89.6895 94.2969 89.4306 94.9396 89.666 95.4928L90.4236 97.2719C90.4491 97.3319 90.4811 97.3874 90.5156 97.4408C89.6675 98.0481 88.9154 98.8017 88.3016 99.6833C88.2492 99.6503 88.1937 99.6203 88.1337 99.5958L86.3436 98.8647C85.7864 98.6373 85.1482 98.9051 84.9208 99.4624L84.1896 101.253C83.9622 101.81 84.2301 102.448 84.7873 102.675L86.5775 103.406C86.637 103.431 86.6974 103.448 86.7584 103.461C86.5745 104.55 86.5905 105.645 86.7859 106.699C86.7239 106.713 86.6619 106.731 86.602 106.757L84.8228 107.514C84.556 107.628 84.3496 107.838 84.2401 108.106C84.2396 108.107 84.2386 108.109 84.2381 108.111C84.1292 108.381 84.1322 108.678 84.2461 108.946L85.0037 110.725C85.2396 111.278 85.8818 111.537 86.435 111.302L88.2142 110.544C88.2742 110.519 88.3296 110.486 88.3826 110.452C88.9898 111.3 89.7435 112.052 90.6255 112.666C90.5925 112.718 90.5626 112.774 90.5381 112.834L89.8069 114.624C89.5795 115.181 89.8474 115.819 90.4046 116.047L92.1948 116.778C92.752 117.005 93.3902 116.738 93.6176 116.18L94.3487 114.39C94.3732 114.331 94.3907 114.27 94.4037 114.209C95.4927 114.393 96.5877 114.377 97.6416 114.181C97.6561 114.243 97.6731 114.305 97.6991 114.365L98.4568 116.144C98.5707 116.413 98.7826 116.62 99.053 116.729C99.3233 116.838 99.6202 116.835 99.8881 116.721L101.667 115.963C101.942 115.846 102.144 115.629 102.249 115.372C102.356 115.111 102.362 114.81 102.244 114.532L101.487 112.753C101.461 112.692 101.429 112.638 101.394 112.585C102.242 111.977 102.995 111.224 103.608 110.342C103.661 110.375 103.717 110.405 103.776 110.429L105.566 111.16C106.124 111.388 106.762 111.12 106.989 110.563L107.72 108.772C107.948 108.215 107.68 107.577 107.123 107.35L105.332 106.618C105.273 106.594 105.213 106.576 105.152 106.563C105.335 105.474 105.319 104.38 105.124 103.326C105.186 103.311 105.247 103.294 105.307 103.268L107.087 102.51C107.361 102.393 107.564 102.176 107.669 101.919C107.775 101.658 107.782 101.357 107.663 101.079L106.906 99.2995C106.67 98.7457 106.028 98.4873 105.474 98.7227L103.695 99.4804C103.635 99.5059 103.58 99.5378 103.526 99.5723C102.919 98.7242 102.165 97.9721 101.284 97.3584C101.317 97.3059 101.347 97.2499 101.371 97.1905L102.103 95.4003C102.33 94.8431 102.062 94.2049 101.505 93.9775L99.7147 93.2464C99.1579 93.02 98.5197 93.2883 98.2923 93.8456ZM100.7 106.951C99.6317 109.567 96.6341 110.826 94.0179 109.758C91.4017 108.69 90.1423 105.692 91.2102 103.076C92.2787 100.46 95.2763 99.2005 97.8925 100.269C100.509 101.337 101.768 104.335 100.7 106.951Z" fill="#B19CFE"/>
<path d="M86.4355 84.757L85.4839 85.721C85.4524 85.753 85.425 85.7875 85.4 85.8235C84.7438 85.4137 84.0311 85.1313 83.296 84.9769C83.3035 84.9329 83.308 84.8879 83.3075 84.8425L83.2925 83.4881C83.2875 83.0668 82.9407 82.7275 82.5194 82.7325L81.1645 82.748C80.7432 82.753 80.4039 83.0993 80.4089 83.5211L80.4244 84.8754C80.4249 84.9209 80.4309 84.9654 80.4389 85.0094C79.7272 85.1763 79.039 85.4632 78.4063 85.8705C78.3809 85.835 78.3534 85.801 78.3209 85.769L77.3569 84.8175C77.057 84.5216 76.5717 84.5246 76.2759 84.8245L75.3243 85.7885C75.0285 86.0884 75.0315 86.5736 75.3313 86.8695L76.2954 87.821C76.3273 87.8525 76.3618 87.88 76.3978 87.905C75.988 88.5612 75.7056 89.2743 75.5512 90.009C75.5072 90.0015 75.4623 89.997 75.4168 89.9975L74.0624 90.013C73.8595 90.0155 73.6696 90.0959 73.5272 90.2404C73.5262 90.2414 73.5252 90.2419 73.5247 90.2429C73.3818 90.3888 73.3048 90.5817 73.3068 90.7861L73.3223 92.1404C73.3273 92.5617 73.6741 92.9011 74.0954 92.8961L75.4503 92.8806C75.4962 92.8801 75.5402 92.8741 75.5842 92.8656C75.7511 93.5772 76.038 94.2654 76.4453 94.8986C76.4098 94.9241 76.3758 94.9521 76.3438 94.9841L75.3923 95.9481C75.0964 96.248 75.0994 96.7332 75.3993 97.0291L76.3633 97.9806C76.6632 98.2765 77.1484 98.2735 77.4443 97.9736L78.3958 97.0096C78.4273 96.9776 78.4548 96.9431 78.4798 96.9071C79.136 97.3169 79.8491 97.5993 80.5843 97.7537C80.5768 97.7977 80.5718 97.8422 80.5723 97.8882L80.5878 99.2425C80.5903 99.4469 80.6717 99.6378 80.8177 99.7808C80.9636 99.9237 81.1565 100.001 81.3609 99.9987L82.7158 99.9837C82.9252 99.9812 83.1141 99.8942 83.251 99.7558C83.3894 99.6158 83.4739 99.4224 83.4714 99.2105L83.4559 97.8562C83.4554 97.8102 83.4489 97.7662 83.4409 97.7223C84.1526 97.5553 84.8407 97.2685 85.4739 96.8612C85.4994 96.8967 85.5274 96.9311 85.5594 96.9626L86.5234 97.9142C86.8233 98.2105 87.3085 98.207 87.6044 97.9072L88.556 96.9431C88.8518 96.6433 88.8488 96.158 88.549 95.8621L87.5849 94.9106C87.5529 94.8791 87.5184 94.8516 87.4825 94.8266C87.8923 94.1705 88.1746 93.4573 88.3296 92.7222C88.3735 92.7297 88.418 92.7347 88.464 92.7342L89.8183 92.7187C90.0277 92.7162 90.2172 92.6297 90.3536 92.4908C90.492 92.3503 90.5765 92.1574 90.574 91.9455L90.559 90.5907C90.554 90.1694 90.2072 89.8301 89.7859 89.835L88.4315 89.8505C88.386 89.851 88.3416 89.857 88.2976 89.865C88.1307 89.1534 87.8438 88.4652 87.4365 87.8325C87.472 87.807 87.5065 87.779 87.5379 87.7471L88.4895 86.783C88.7853 86.4832 88.7823 85.9979 88.4825 85.702L87.5184 84.7505C87.2166 84.4541 86.7318 84.4571 86.4355 84.757ZM84.4949 93.8871C83.1041 95.2964 80.8267 95.3114 79.4174 93.9206C78.008 92.5298 77.993 90.2523 79.3839 88.843C80.7742 87.4342 83.0521 87.4192 84.4614 88.8095C85.8702 90.2009 85.8852 92.4783 84.4949 93.8871Z" stroke="#B19CFE" stroke-width="0.5" stroke-miterlimit="10"/>
<path d="M10.3501 72.1631H4.17554V73.1961H10.3501V72.1631Z" fill="#0F1B63"/>
<path d="M28.6513 72.1631H12.9019V73.1961H28.6513V72.1631Z" fill="#0F1B63"/>
<path d="M28.6511 83.2539H18.9023V84.2869H28.6511V83.2539Z" fill="#0F1B63"/>
<path d="M16.3512 83.2539H4.17554V84.2869H16.3512V83.2539Z" fill="#0F1B63"/>
<path d="M17.748 75.9404H4.17554V76.9734H17.748V75.9404Z" fill="#0F1B63"/>
<path d="M28.6512 75.9404H20.2992V76.9734H28.6512V75.9404Z" fill="#0F1B63"/>
<path d="M14.7115 79.6484H4.17554V80.6814H14.7115V79.6484Z" fill="#0F1B63"/>
<path d="M28.6512 79.6484H19.0763V80.6814H28.6512V79.6484Z" fill="#0F1B63"/>
<path d="M17.8914 79.6484H16.0598V80.6814H17.8914V79.6484Z" fill="#0F1B63"/>
<path d="M173.086 168.896H166.911V169.929H173.086V168.896Z" fill="#0F1B63"/>
<path d="M191.386 168.896H175.637V169.929H191.386V168.896Z" fill="#0F1B63"/>
<path d="M191.386 179.985H181.638V181.018H191.386V179.985Z" fill="#0F1B63"/>
<path d="M179.086 179.985H166.911V181.018H179.086V179.985Z" fill="#0F1B63"/>
<path d="M180.483 172.673H166.911V173.706H180.483V172.673Z" fill="#0F1B63"/>
<path d="M191.386 172.673H183.034V173.706H191.386V172.673Z" fill="#0F1B63"/>
<path d="M177.447 176.381H166.911V177.414H177.447V176.381Z" fill="#0F1B63"/>
<path d="M191.386 176.381H181.812V177.414H191.386V176.381Z" fill="#0F1B63"/>
<path d="M180.627 176.381H178.795V177.414H180.627V176.381Z" fill="#0F1B63"/>
<path d="M187.433 41.4288L185.008 41.948C184.927 41.9655 184.85 41.9905 184.776 42.0205C184.184 40.7341 183.377 39.5862 182.408 38.6106C182.463 38.5507 182.515 38.4867 182.56 38.4162L183.898 36.3282C184.315 35.6786 184.125 34.8115 183.475 34.3952L181.387 33.0573C180.737 32.6415 179.87 32.8309 179.454 33.4811L178.116 35.5691C178.071 35.6391 178.035 35.713 178.004 35.7885C176.747 35.3287 175.406 35.0763 174.028 35.0634C174.025 34.9834 174.017 34.9034 174 34.8225L173.48 32.3976C173.319 31.643 172.574 31.1607 171.819 31.3222L169.394 31.8414C168.64 32.0028 168.157 32.7485 168.319 33.5031L168.838 35.9279C168.856 36.0084 168.881 36.0854 168.911 36.1593C167.624 36.7515 166.476 37.5591 165.501 38.5277C165.441 38.4722 165.377 38.4197 165.307 38.3748L163.219 37.0369C162.906 36.8365 162.534 36.769 162.171 36.8465C162.169 36.847 162.167 36.8475 162.165 36.848C161.799 36.928 161.488 37.1454 161.286 37.4602L159.948 39.5482C159.532 40.1979 159.721 41.065 160.372 41.4813L162.46 42.8191C162.531 42.8646 162.605 42.8996 162.68 42.9306C162.22 44.187 161.967 45.5288 161.954 46.9066C161.874 46.9096 161.794 46.9181 161.713 46.9351L159.288 47.4544C158.534 47.6158 158.051 48.3609 158.213 49.1161L158.732 51.5409C158.893 52.2955 159.638 52.7778 160.393 52.6164L162.818 52.0971C162.898 52.0797 162.975 52.0547 163.049 52.0247C163.642 53.3116 164.449 54.4595 165.419 55.435C165.363 55.495 165.311 55.5575 165.265 55.6284L163.927 57.7164C163.726 58.0313 163.659 58.4056 163.738 58.7709C163.818 59.1363 164.036 59.4481 164.351 59.6495L166.439 60.9874C166.762 61.1943 167.138 61.2512 167.486 61.1768C167.839 61.1013 168.162 60.8909 168.372 60.5641L169.71 58.4761C169.755 58.4056 169.79 58.3311 169.821 58.2562C171.077 58.716 172.419 58.9683 173.797 58.9818C173.8 59.0618 173.809 59.1422 173.826 59.2227L174.345 61.6475C174.507 62.4022 175.252 62.8844 176.007 62.723L178.431 62.2038C179.186 62.0423 179.668 61.2972 179.507 60.5426L178.988 58.1177C178.97 58.0373 178.945 57.9603 178.915 57.8864C180.202 57.2941 181.35 56.4865 182.326 55.517C182.386 55.5725 182.448 55.6249 182.519 55.6704L184.607 57.0083C184.93 57.2152 185.307 57.2721 185.655 57.1977C186.007 57.1222 186.331 56.9118 186.541 56.585L187.878 54.497C188.295 53.8473 188.104 52.9802 187.455 52.5639L185.367 51.2261C185.297 51.1811 185.223 51.1451 185.148 51.1136C185.607 49.8572 185.86 48.5159 185.873 47.1385C185.953 47.1355 186.033 47.127 186.114 47.11L188.539 46.5908C189.293 46.4294 189.775 45.6842 189.614 44.9296L189.095 42.5048C188.932 41.7496 188.187 41.2674 187.433 41.4288ZM175.289 53.4495C171.745 54.2081 168.245 51.9427 167.486 48.3989C166.728 44.8551 168.993 41.3548 172.537 40.5962C176.081 39.8376 179.581 42.103 180.34 45.6468C181.098 49.1905 178.832 52.6909 175.289 53.4495Z" fill="#0F1B63"/>
</svg>
