<svg width="279" height="142" viewBox="0 0 279 142" fill="none" xmlns="http://www.w3.org/2000/svg">
<path d="M139.066 141.377C215.871 141.377 278.133 139.392 278.133 136.943C278.133 134.494 215.871 132.509 139.066 132.509C62.2622 132.509 0 134.494 0 136.943C0 139.392 62.2622 141.377 139.066 141.377Z" fill="#EEEFF3"/>
<path d="M32.4206 48.2982C32.5761 48.3411 32.6923 48.4782 32.7037 48.6331L32.858 50.7447C32.8694 50.9009 32.7734 51.0368 32.6238 51.0797L30.9252 51.5666L32.2698 52.8343C32.3896 52.9464 32.4224 53.1168 32.3526 53.2509L31.405 55.08C31.3484 55.1891 31.2339 55.2535 31.1082 55.2535C31.0796 55.2535 31.0504 55.2499 31.0212 55.2433L29.2385 54.819L29.7988 56.5277C29.8482 56.6797 29.7916 56.8365 29.6587 56.9139L27.863 57.97C27.8093 58.001 27.7491 58.0165 27.6877 58.0165C27.5971 58.0165 27.5054 57.9832 27.432 57.9188L26.044 56.697L25.6691 58.389C25.6363 58.5386 25.5034 58.6411 25.3431 58.6411H23.1808C23.0211 58.6411 22.8738 58.5386 22.8178 58.389L22.1956 56.697L20.9863 57.9188C20.9225 57.9832 20.8355 58.0165 20.7449 58.0165C20.6835 58.0165 20.621 58.001 20.5631 57.97L18.613 56.9139C18.4688 56.8365 18.3889 56.6791 18.4164 56.5277L18.7269 54.819L17.0062 55.2433C16.9776 55.2505 16.949 55.2535 16.9204 55.2535C16.7952 55.2535 16.6719 55.1891 16.5986 55.08L15.3839 53.2509C15.2945 53.1168 15.304 52.9464 15.406 52.8343L16.5652 51.5666L14.7962 51.0797C14.6395 51.0368 14.5233 50.9009 14.512 50.7447L14.3576 48.6331C14.3463 48.4782 14.4422 48.3411 14.593 48.2982L16.2904 47.8112L14.9458 46.5435C14.8272 46.4315 14.7933 46.2616 14.863 46.1269L15.8106 44.299C15.8679 44.1887 15.9823 44.1244 16.1075 44.1244C16.1361 44.1244 16.1653 44.1279 16.1945 44.1351L17.9771 44.5589L17.4169 42.8501C17.3674 42.6993 17.424 42.5414 17.5569 42.4639L19.3527 41.4084C19.4063 41.3768 19.4671 41.3613 19.5285 41.3613C19.6185 41.3613 19.7103 41.3947 19.783 41.4591L21.1711 42.6821L21.546 40.9894C21.5787 40.8398 21.7122 40.7373 21.872 40.7373H24.0343C24.194 40.7373 24.3424 40.8398 24.3972 40.9894L25.0194 42.6821L26.2287 41.4591C26.2925 41.3947 26.3789 41.3613 26.4689 41.3613C26.5303 41.3613 26.5935 41.3768 26.6519 41.4084L28.6014 42.4639C28.7456 42.5414 28.8255 42.6993 28.7981 42.8501L28.4876 44.5589L30.2082 44.1351C30.2362 44.1279 30.2654 44.1244 30.294 44.1244C30.4198 44.1244 30.5438 44.1893 30.6165 44.299L31.8311 46.1269C31.9205 46.2622 31.9122 46.4315 31.8091 46.5435L30.6499 47.8112L32.4206 48.2982ZM23.887 53.5078C26.0481 53.5078 27.6746 51.7985 27.5209 49.6898C27.3665 47.5806 25.4903 45.8706 23.3292 45.8706C21.1693 45.8706 19.5428 47.58 19.6966 49.6898C19.8503 51.7979 21.7271 53.5078 23.887 53.5078Z" fill="#EEEFF3"/>
<path d="M39.9457 22.7655C40.1763 22.8292 40.3492 23.0331 40.3659 23.2631L40.5953 26.4005C40.612 26.6323 40.469 26.8344 40.2479 26.8981L37.7244 27.6217L39.7216 29.505C39.8998 29.6713 39.9481 29.9252 39.845 30.1243L38.4372 32.8414C38.3532 33.0036 38.1827 33.0995 37.9968 33.0995C37.9544 33.0995 37.9103 33.0947 37.8674 33.084L35.2194 32.454L36.052 34.9924C36.1259 35.2177 36.0407 35.4513 35.844 35.5664L33.1763 37.1356C33.097 37.1821 33.0071 37.2048 32.9165 37.2048C32.7824 37.2048 32.6453 37.1553 32.5368 37.0593L30.4747 35.2439L29.9174 37.7572C29.8685 37.9796 29.6706 38.1321 29.4334 38.1321H26.221C25.9838 38.1321 25.7651 37.9796 25.6822 37.7572L24.7572 35.2439L22.9603 37.0593C22.8655 37.1547 22.7362 37.2048 22.6015 37.2048C22.5109 37.2048 22.4173 37.1821 22.3315 37.1356L19.4343 35.5664C19.2204 35.4513 19.1012 35.2177 19.1423 34.9924L19.6036 32.454L17.0474 33.084C17.0056 33.0947 16.9627 33.0995 16.9198 33.0995C16.7339 33.0995 16.5503 33.0036 16.4412 32.8414L14.6365 30.1243C14.5042 29.9252 14.5173 29.6719 14.6693 29.505L16.3912 27.6217L13.7634 26.8981C13.531 26.8344 13.3581 26.6323 13.3414 26.4005L13.112 23.2631C13.0953 23.0331 13.2383 22.8292 13.4612 22.7655L15.9835 22.0419L13.9863 20.1586C13.8099 19.9923 13.7598 19.7402 13.8629 19.5393L15.2707 16.8239C15.3559 16.6606 15.5252 16.5641 15.7117 16.5641C15.754 16.5641 15.7976 16.5689 15.8411 16.5796L18.4891 17.2096L17.6565 14.6712C17.5826 14.4471 17.6678 14.2123 17.8645 14.0972L20.5322 12.5292C20.612 12.4821 20.702 12.4588 20.7932 12.4588C20.9273 12.4588 21.0632 12.5083 21.1717 12.6037L23.2338 14.4203L23.7911 11.9052C23.84 11.6828 24.0378 11.5303 24.2751 11.5303H27.4875C27.7247 11.5303 27.9446 11.6828 28.0263 11.9052L28.9513 14.4203L30.7482 12.6037C30.843 12.5083 30.9717 12.4588 31.1052 12.4588C31.1964 12.4588 31.29 12.4821 31.377 12.5292L34.2736 14.0972C34.4875 14.2123 34.6067 14.4471 34.5656 14.6712L34.1043 17.2096L36.6605 16.5796C36.7023 16.5689 36.7452 16.5641 36.7875 16.5641C36.974 16.5641 37.1582 16.6606 37.2661 16.8239L39.0708 19.5393C39.2037 19.7402 39.1917 19.9917 39.038 20.1586L37.3161 22.0419L39.9457 22.7655ZM27.2682 30.5045C30.4788 30.5045 32.8956 27.965 32.6667 24.8324C32.4379 21.6986 29.6498 19.1585 26.4391 19.1585C23.2297 19.1585 20.8135 21.6986 21.0424 24.8324C21.2706 27.965 24.0587 30.5045 27.2682 30.5045Z" fill="#EEEFF3"/>
<path d="M74.8498 46.2711C75.1919 46.3653 75.4476 46.6675 75.4727 47.0084L75.8124 51.6542C75.8374 51.9975 75.6258 52.2967 75.2974 52.3914L71.5599 53.4625L74.5179 56.2517C74.7813 56.4985 74.8534 56.874 74.7008 57.1684L72.616 61.1926C72.4915 61.4322 72.2393 61.5746 71.9634 61.5746C71.9002 61.5746 71.8359 61.5675 71.7715 61.552L67.8498 60.6192L69.0829 64.3782C69.1926 64.712 69.0668 65.0576 68.7748 65.2281L64.8245 67.5525C64.7071 67.621 64.5736 67.655 64.4395 67.655C64.2404 67.655 64.0384 67.5817 63.8769 67.4399L60.8224 64.7519L59.9969 68.4739C59.9242 68.8035 59.6316 69.0288 59.2799 69.0288H54.5227C54.171 69.0288 53.848 68.8029 53.7246 68.4739L52.355 64.7519L49.6939 67.4399C49.5532 67.5817 49.3619 67.655 49.1628 67.655C49.0281 67.655 48.8905 67.6216 48.7629 67.5525L44.4729 65.2281C44.1558 65.0576 43.98 64.712 44.0402 64.3782L44.7238 60.6192L40.938 61.552C40.876 61.5675 40.8129 61.5746 40.7497 61.5746C40.4743 61.5746 40.2026 61.4322 40.041 61.1926L37.368 57.1684C37.1719 56.8734 37.1916 56.4979 37.4169 56.2517L39.9671 53.4625L36.0753 52.3914C35.7308 52.2973 35.4751 51.9975 35.4501 51.6542L35.1103 47.0084C35.0853 46.6675 35.2969 46.3659 35.6277 46.2711L39.3628 45.2001L36.4049 42.4108C36.1438 42.1641 36.0693 41.791 36.2225 41.4942L38.3073 37.4724C38.4336 37.2304 38.6846 37.088 38.9599 37.088C39.0231 37.088 39.0874 37.0957 39.1512 37.1106L43.0729 38.0433L41.8398 34.2844C41.7307 33.9524 41.8565 33.6049 42.1479 33.4345L46.0988 31.1125C46.2168 31.0427 46.3509 31.0082 46.4856 31.0082C46.6841 31.0082 46.8855 31.0815 47.0458 31.2227L50.1003 33.9131L50.9252 30.1887C50.9979 29.8591 51.2906 29.6338 51.6422 29.6338H56.3995C56.7511 29.6338 57.0765 29.8597 57.1975 30.1887L58.5671 33.9131L61.2283 31.2227C61.3683 31.0815 61.559 31.0082 61.7575 31.0082C61.8928 31.0082 62.0311 31.0421 62.1598 31.1125L66.4498 33.4345C66.7669 33.6049 66.9433 33.9524 66.8825 34.2844L66.1995 38.0433L69.9853 37.1106C70.0473 37.0951 70.1104 37.088 70.1736 37.088C70.4496 37.088 70.7225 37.2304 70.8823 37.4724L73.5547 41.4942C73.7508 41.7916 73.7335 42.1647 73.5058 42.4108L70.9556 45.2001L74.8498 46.2711ZM56.0746 57.7328C60.8295 57.7328 64.4085 53.9714 64.0694 49.3322C63.7303 44.6911 59.6018 40.9292 54.8463 40.9292C50.0932 40.9292 46.5148 44.6905 46.8539 49.3322C47.1936 53.9714 51.3221 57.7328 56.0746 57.7328Z" fill="#EEEFF3"/>
<path d="M65.5058 11.9079C65.7167 11.9663 65.8741 12.1522 65.8896 12.3626L66.0994 15.2282C66.1149 15.4398 65.9844 15.6245 65.7817 15.6829L63.4764 16.3433L65.3007 18.064C65.4635 18.2159 65.5076 18.4478 65.4134 18.6296L64.1272 21.1119C64.0503 21.2597 63.8948 21.3479 63.7249 21.3479C63.6862 21.3479 63.6462 21.3431 63.6063 21.3336L61.1872 20.7585L61.9476 23.0775C62.015 23.2837 61.9375 23.4965 61.7575 23.602L59.3205 25.0354C59.2478 25.0777 59.1661 25.0985 59.0833 25.0985C58.9605 25.0985 58.8359 25.0532 58.7364 24.9656L56.8524 23.3076L56.3435 25.6034C56.2988 25.8066 56.1182 25.946 55.9012 25.946H52.9665C52.7496 25.946 52.5499 25.8066 52.4742 25.6034L51.6297 23.3076L49.9883 24.9656C49.9019 25.0532 49.7839 25.0985 49.6611 25.0985C49.5783 25.0985 49.493 25.0777 49.4144 25.0354L46.7681 23.602C46.5726 23.4971 46.4642 23.2837 46.5011 23.0775L46.9225 20.7585L44.5874 21.3336C44.5492 21.3431 44.5099 21.3479 44.4711 21.3479C44.3013 21.3479 44.1338 21.2603 44.0343 21.1119L42.3857 18.6296C42.2647 18.4478 42.2767 18.2159 42.4155 18.064L43.9884 16.3433L41.5877 15.6829C41.3755 15.6245 41.2176 15.4398 41.2021 15.2282L40.9929 12.3626C40.9774 12.1522 41.1079 11.9663 41.3117 11.9079L43.6159 11.2469L41.7915 9.52625C41.6306 9.37427 41.5847 9.14422 41.6789 8.96065L42.965 6.4801C43.0431 6.3311 43.1975 6.24289 43.3679 6.24289C43.4067 6.24289 43.4466 6.24766 43.4859 6.2572L45.9051 6.83234L45.1446 4.5133C45.0773 4.30887 45.1548 4.09431 45.3347 3.98882L47.7718 2.55663C47.8445 2.51372 47.9273 2.49227 48.0102 2.49227C48.1324 2.49227 48.2569 2.53756 48.3559 2.62458L50.2398 4.28384L50.7488 1.98626C50.7935 1.78303 50.9741 1.64355 51.191 1.64355H54.1257C54.3427 1.64355 54.5435 1.78303 54.618 1.98626L55.4626 4.28384L57.104 2.62458C57.1904 2.53756 57.3078 2.49227 57.4306 2.49227C57.514 2.49227 57.5992 2.51313 57.6785 2.55663L60.3247 3.98882C60.5202 4.09372 60.6287 4.30827 60.5917 4.5133L60.1704 6.83234L62.5055 6.2572C62.5436 6.24766 62.583 6.24289 62.6217 6.24289C62.7922 6.24289 62.9603 6.3311 63.0586 6.4801L64.7071 8.96065C64.8281 9.14422 64.8174 9.37427 64.6773 9.52625L63.1045 11.2469L65.5058 11.9079ZM53.9249 18.9776C56.8578 18.9776 59.0654 16.6574 58.8562 13.796C58.647 10.9334 56.1003 8.61318 53.1674 8.61318C50.2357 8.61318 48.0281 10.9334 48.2373 13.796C48.4465 16.6574 50.9932 18.9776 53.9249 18.9776Z" fill="#EEEFF3"/>
<path d="M234.716 58.1469L233.262 59.4754C233.134 59.594 232.939 59.6029 232.784 59.501L230.689 58.1081C230.563 58.0247 230.489 57.8828 230.489 57.7386C230.489 57.7058 230.493 57.6731 230.501 57.6403L230.986 55.6681L229.028 56.0239C228.855 56.0555 228.674 55.9637 228.585 55.7986L227.375 53.5636C227.339 53.4969 227.321 53.4242 227.321 53.3538C227.321 53.2507 227.359 53.1512 227.433 53.0785L228.835 51.6916L226.894 50.9782C226.723 50.915 226.605 50.7457 226.605 50.5622V48.0834C226.605 47.9004 226.723 47.7479 226.894 47.7097L228.835 47.28L227.433 45.6887C227.36 45.6052 227.321 45.5003 227.321 45.3966C227.321 45.3263 227.339 45.2566 227.375 45.1952L228.585 43.1366C228.674 42.9846 228.855 42.9191 229.028 42.9757L230.986 43.6182L230.501 41.5745C230.493 41.5411 230.489 41.5077 230.489 41.475C230.489 41.3313 230.563 41.2008 230.689 41.1346L232.784 40.0481C232.939 39.9683 233.134 40.007 233.262 40.1435L234.716 41.6848L235.274 39.7382C235.323 39.566 235.48 39.4557 235.658 39.4688L238.079 39.6458C238.257 39.659 238.414 39.7919 238.463 39.9713L239.02 41.9988L240.474 40.6704C240.603 40.553 240.798 40.5428 240.952 40.6453L243.049 42.0382C243.174 42.1222 243.248 42.2641 243.248 42.4071C243.248 42.4399 243.244 42.4727 243.236 42.5054L242.75 44.4776L244.708 44.1218C244.882 44.0902 245.062 44.182 245.151 44.3471L246.362 46.5827C246.398 46.6494 246.415 46.721 246.415 46.7913C246.415 46.895 246.377 46.9945 246.303 47.0678L244.902 48.4547L246.842 49.1681C247.013 49.2325 247.131 49.4006 247.131 49.5841V52.0629C247.131 52.2459 247.013 52.3984 246.842 52.4366L244.902 52.8663L246.303 54.4576C246.377 54.5417 246.415 54.6472 246.415 54.7509C246.415 54.8212 246.398 54.8903 246.362 54.9517L245.151 57.0103C245.062 57.1623 244.882 57.2278 244.708 57.1712L242.75 56.5287L243.236 58.5724C243.244 58.6058 243.248 58.6398 243.248 58.6726C243.248 58.8162 243.174 58.9479 243.049 59.0129L240.952 60.0988C240.798 60.1786 240.603 60.1411 240.474 60.0034L239.02 58.4622L238.463 60.4099C238.413 60.5809 238.257 60.6912 238.079 60.6781L235.658 60.5011C235.48 60.488 235.323 60.355 235.274 60.1768L234.716 58.1469ZM241.246 50.3929C241.246 47.9165 239.287 45.7656 236.869 45.5886C234.451 45.4115 232.491 47.2764 232.491 49.7528C232.491 52.2304 234.451 54.3819 236.869 54.5584C239.287 54.7354 241.246 52.8705 241.246 50.3929Z" fill="#EEEFF3"/>
<path d="M205.173 65.7884L203.014 67.7623C202.823 67.9387 202.534 67.9519 202.304 67.7999L199.19 65.7312C199.003 65.6072 198.893 65.3962 198.893 65.1822C198.893 65.1334 198.899 65.0845 198.911 65.0362L199.633 62.1057L196.723 62.6349C196.466 62.682 196.197 62.5455 196.065 62.3L194.267 58.9791C194.213 58.8795 194.187 58.7723 194.187 58.668C194.187 58.5142 194.244 58.367 194.353 58.2585L196.436 56.1987L193.552 55.1385C193.297 55.0449 193.122 54.7928 193.122 54.5204V50.8377C193.122 50.5653 193.297 50.3389 193.552 50.2828L196.436 49.6439L194.353 47.2796C194.244 47.1556 194.187 46.9995 194.187 46.8457C194.187 46.7408 194.213 46.6377 194.267 46.5459L196.065 43.4878C196.197 43.262 196.466 43.1648 196.723 43.2494L199.633 44.2036L198.911 41.1676C198.899 41.1175 198.893 41.0681 198.893 41.0192C198.893 40.8058 199.003 40.6115 199.19 40.5138L202.304 38.8998C202.534 38.7812 202.823 38.839 203.014 39.0411L205.173 41.3309L206.002 38.4391C206.075 38.1834 206.309 38.0195 206.572 38.0386L210.169 38.3015C210.434 38.3211 210.666 38.519 210.739 38.7854L211.568 41.7982L213.727 39.8242C213.918 39.6502 214.209 39.6347 214.437 39.7867L217.552 41.856C217.738 41.9812 217.848 42.1915 217.848 42.4043C217.848 42.4532 217.842 42.5021 217.83 42.5503L217.108 45.4809L220.018 44.9516C220.277 44.9045 220.544 45.041 220.676 45.2866L222.475 48.6075C222.528 48.7064 222.555 48.8131 222.555 48.9174C222.555 49.0718 222.498 49.2196 222.388 49.3286L220.308 51.389L223.189 52.4493C223.445 52.5447 223.619 52.795 223.619 53.0674V56.75C223.619 57.0224 223.445 57.2489 223.189 57.3049L220.308 57.9438L222.388 60.3082C222.498 60.4327 222.555 60.5895 222.555 60.7432C222.555 60.8475 222.528 60.95 222.475 61.0412L220.676 64.0993C220.544 64.3252 220.277 64.4229 220.018 64.3383L217.108 63.3841L217.83 66.4201C217.842 66.4702 217.848 66.5197 217.848 66.5686C217.848 66.7819 217.738 66.9774 217.552 67.074L214.437 68.6879C214.209 68.8065 213.918 68.7505 213.727 68.5467L211.568 66.2568L210.739 69.1504C210.666 69.4043 210.434 69.5682 210.169 69.5491L206.572 69.2863C206.308 69.2672 206.075 69.0694 206.002 68.8041L205.173 65.7884ZM214.875 54.2683C214.875 50.5892 211.963 47.3928 208.372 47.1306C204.779 46.8678 201.867 49.6386 201.867 53.3177C201.867 56.9986 204.779 60.1949 208.372 60.4572C211.963 60.72 214.875 57.9498 214.875 54.2683Z" fill="#EEEFF3"/>
<path d="M231.722 104.354L228.524 107.277C228.241 107.539 227.813 107.558 227.473 107.333L222.862 104.269C222.585 104.086 222.421 103.774 222.421 103.457C222.421 103.385 222.43 103.312 222.447 103.241L223.517 98.9019L219.207 99.685C218.827 99.7548 218.428 99.5521 218.232 99.1892L215.571 94.271C215.49 94.1237 215.452 93.9646 215.452 93.8103C215.452 93.5826 215.536 93.3638 215.698 93.2035L218.782 90.1526L214.512 88.5827C214.134 88.4445 213.876 88.0708 213.876 87.6679V82.2139C213.876 81.811 214.134 81.4754 214.512 81.392L218.782 80.4461L215.698 76.9446C215.536 76.7605 215.452 76.5292 215.452 76.3022C215.452 76.1472 215.49 75.994 215.571 75.8587L218.232 71.3297C218.428 70.9948 218.827 70.8511 219.207 70.9763L223.517 72.39L222.447 67.8938C222.43 67.8199 222.421 67.7466 222.421 67.6745C222.421 67.3586 222.584 67.0707 222.862 66.9259L227.473 64.5359C227.814 64.3607 228.241 64.4459 228.524 64.7451L231.722 68.1363L232.95 63.8541C233.058 63.475 233.404 63.2325 233.795 63.2611L239.121 63.6503C239.514 63.6789 239.858 63.9721 239.966 64.3667L241.194 68.8283L244.392 65.9049C244.675 65.6469 245.105 65.6242 245.443 65.8495L250.056 68.9135C250.331 69.0989 250.494 69.41 250.494 69.7259C250.494 69.798 250.486 69.8707 250.468 69.9416L249.399 74.2811L253.708 73.498C254.091 73.4288 254.487 73.6309 254.683 73.9938L257.347 78.912C257.426 79.0587 257.465 79.2166 257.465 79.3704C257.465 79.5986 257.381 79.818 257.218 79.9789L254.136 83.0298L258.403 84.5997C258.781 84.7409 259.04 85.1116 259.04 85.5145V90.9685C259.04 91.3714 258.781 91.707 258.403 91.7904L254.136 92.7363L257.218 96.2378C257.38 96.4225 257.465 96.6544 257.465 96.8826C257.465 97.037 257.427 97.189 257.347 97.3243L254.683 101.853C254.487 102.188 254.091 102.332 253.708 102.207L249.399 100.794L250.468 105.29C250.486 105.364 250.494 105.438 250.494 105.51C250.494 105.826 250.331 106.115 250.056 106.258L245.443 108.648C245.105 108.823 244.675 108.741 244.392 108.438L241.194 105.047L239.966 109.332C239.858 109.709 239.514 109.951 239.121 109.923L233.795 109.533C233.404 109.505 233.058 109.211 232.95 108.819L231.722 104.354ZM246.09 87.2942C246.09 81.8455 241.777 77.1121 236.459 76.7235C231.138 76.3343 226.826 80.4372 226.826 85.8858C226.826 91.3374 231.138 96.0703 236.459 96.4595C241.777 96.8481 246.09 92.7452 246.09 87.2942Z" fill="#EEEFF3"/>
<path d="M192.797 95.3524L190.824 97.1559C190.65 97.3168 190.386 97.3293 190.176 97.1904L187.332 95.3005C187.161 95.1873 187.06 94.9942 187.06 94.7993C187.06 94.7546 187.065 94.7099 187.076 94.6658L187.736 91.9891L185.078 92.4725C184.843 92.5154 184.597 92.3908 184.476 92.1667L182.834 89.1331C182.785 89.0425 182.761 88.9442 182.761 88.8488C182.761 88.7088 182.813 88.5735 182.913 88.4745L184.815 86.5924L182.182 85.6239C181.949 85.5386 181.789 85.308 181.789 85.0595V81.695C181.789 81.4465 181.949 81.2397 182.182 81.1878L184.815 80.6044L182.913 78.4445C182.813 78.3312 182.761 78.1882 182.761 78.0481C182.761 77.9527 182.785 77.858 182.834 77.7745L184.476 74.9811C184.597 74.7749 184.843 74.6861 185.078 74.763L187.736 75.6349L187.076 72.8617C187.065 72.8164 187.06 72.7705 187.06 72.7264C187.06 72.5315 187.161 72.3539 187.332 72.2645L190.176 70.79C190.386 70.6821 190.65 70.7346 190.824 70.9194L192.797 73.0107L193.555 70.3692C193.621 70.1356 193.835 69.986 194.076 70.0033L197.361 70.2435C197.604 70.2614 197.816 70.442 197.883 70.6851L198.64 73.4375L200.613 71.634C200.788 71.4748 201.053 71.4611 201.261 71.5994L204.107 73.4893C204.277 73.6037 204.377 73.7956 204.377 73.9905C204.377 74.0352 204.372 74.0799 204.361 74.124L203.701 76.8007L206.36 76.3173C206.596 76.2744 206.84 76.399 206.96 76.6231L208.604 79.6567C208.652 79.7473 208.676 79.8445 208.676 79.9398C208.676 80.0805 208.624 80.2163 208.524 80.3153L206.624 82.1975L209.256 83.166C209.489 83.253 209.649 83.4818 209.649 83.7304V87.0948C209.649 87.3433 209.489 87.5501 209.256 87.602L206.624 88.1855L208.524 90.3454C208.624 90.4592 208.676 90.6022 208.676 90.7429C208.676 90.8383 208.652 90.9318 208.604 91.0153L206.96 93.8087C206.84 94.0149 206.596 94.1043 206.36 94.0269L203.701 93.1549L204.361 95.9281C204.372 95.9734 204.377 96.0193 204.377 96.064C204.377 96.2589 204.277 96.4377 204.107 96.5253L201.261 97.9992C201.053 98.1077 200.788 98.0564 200.613 97.8699L198.64 95.7785L197.883 98.4218C197.816 98.6536 197.604 98.8038 197.361 98.7859L194.076 98.5457C193.835 98.5279 193.621 98.3473 193.555 98.1053L192.797 95.3524ZM201.66 84.8288C201.66 81.468 199 78.5482 195.719 78.3086C192.437 78.069 189.777 80.5996 189.777 83.9604C189.777 87.3231 192.437 90.2423 195.719 90.4825C199 90.7221 201.66 88.1914 201.66 84.8288Z" fill="#EEEFF3"/>
<path d="M117.251 96.964V122.942L119.733 131.05L123.705 132.374L165.513 133.091L160.217 128.21L158.811 120.019V96.2744L117.251 96.964Z" fill="#E68C6E"/>
<path d="M160.383 123.439V79.7549H155.75V128.071C155.75 131.727 158.713 134.69 162.368 134.69H197.448V130.057H167.002C163.346 130.057 160.383 127.094 160.383 123.439Z" fill="#E68C6E"/>
<path d="M160.383 103.582H120.561V109.76H160.383V103.582Z" fill="#D2785A"/>
<path d="M197.448 130.058H157.625V134.691H197.448V130.058Z" fill="#EFA181"/>
<path d="M120.561 123.439V79.7549H115.927V128.071C115.927 131.727 118.891 134.69 122.546 134.69H157.625V130.057H127.179C123.524 130.057 120.561 127.094 120.561 123.439Z" fill="#D2785A"/>
<path d="M223.949 0C227.259 0 230.111 2.72133 230.325 6.07026L236.004 95.3195C236.217 98.669 233.711 101.39 230.402 101.39H70.486C67.1764 101.39 64.3239 98.669 64.1105 95.3195L58.4313 6.07026C58.2179 2.72074 60.7241 0 64.0337 0H223.949Z" fill="#EFA181"/>
<path d="M230.401 101.39H70.486C67.1764 101.39 64.3239 98.6691 64.1105 95.3195L58.4313 6.07034C58.3234 4.37353 58.9128 2.83823 59.9511 1.73622C60.0995 1.57888 60.2568 1.42988 60.4231 1.29102L57.4109 3.81388C56.0836 4.92542 55.2957 6.65442 55.4191 8.59321L61.0984 97.843C61.3117 101.193 64.1636 103.913 67.4738 103.913H227.389C228.783 103.913 230.034 103.431 230.999 102.622L234.012 100.099C233.046 100.908 231.795 101.39 230.401 101.39Z" fill="#E68C6E"/>
<path d="M224.829 10.583L229.923 90.6199H69.4954L64.4026 10.583H224.829Z" fill="white"/>
<path d="M172.935 33.0756L172.696 29.5306C172.594 28.0233 171.317 26.8057 169.837 26.8057H82.7415C81.2623 26.8057 80.1442 28.0233 80.2461 29.5306L80.4857 33.0756L83.4192 76.5377C83.5211 78.045 84.8031 79.2674 86.283 79.2674H173.378C174.858 79.2674 175.97 78.045 175.868 76.5377L172.935 33.0756Z" fill="#B4BEC8"/>
<path d="M173.829 32.1807H81.379L84.3125 75.6428C84.4145 77.1501 85.6965 78.3725 87.1763 78.3725H174.272C175.751 78.3725 176.864 77.1501 176.762 75.6428L173.829 32.1807Z" fill="#353638"/>
<path d="M170.731 25.9111H83.6355C82.1562 25.9111 81.0387 27.1288 81.14 28.636L81.3796 32.181H173.829L173.59 28.636C173.488 27.1288 172.211 25.9111 170.731 25.9111Z" fill="#2B79EE"/>
<path d="M86.2293 27.8701C85.579 27.8701 85.0849 28.4077 85.1296 29.0734C85.1743 29.7386 85.7411 30.2768 86.3914 30.2768C87.044 30.2768 87.5357 29.7392 87.491 29.0734C87.4463 28.4077 86.8819 27.8701 86.2293 27.8701Z" fill="white"/>
<path d="M90.4805 27.8701C89.8279 27.8701 89.3362 28.4077 89.3809 29.0734C89.4256 29.7386 89.99 30.2768 90.6426 30.2768C91.2952 30.2768 91.7869 29.7392 91.7422 29.0734C91.6975 28.4077 91.1331 27.8701 90.4805 27.8701Z" fill="white"/>
<path d="M94.7318 27.8701C94.0792 27.8701 93.5875 28.4077 93.6322 29.0734C93.6769 29.7386 94.2413 30.2768 94.8945 30.2768C95.5448 30.2768 96.0389 29.7392 95.9942 29.0734C95.9489 28.4077 95.3821 27.8701 94.7318 27.8701Z" fill="white"/>
<path d="M117.818 36.9111H88.6294C87.9595 36.9111 87.4493 37.4469 87.497 38.1014C87.5453 38.7605 88.1335 39.2969 88.8034 39.2969H117.992C118.662 39.2969 119.172 38.7611 119.124 38.1014C119.076 37.4475 118.488 36.9111 117.818 36.9111Z" fill="#EEEFF3"/>
<path d="M151.224 36.9111H122.041C121.365 36.9111 120.855 37.4469 120.903 38.1014C120.951 38.7605 121.539 39.2969 122.215 39.2969H151.398C152.068 39.2969 152.578 38.7611 152.529 38.1014C152.482 37.4475 151.894 36.9111 151.224 36.9111Z" fill="#E66E62"/>
<path d="M132.363 41.082H88.9339C88.264 41.082 87.7539 41.6178 87.8016 42.2722C87.8492 42.9261 88.4375 43.4625 89.108 43.4625H132.537C133.207 43.4625 133.717 42.9266 133.669 42.2722C133.621 41.6178 133.033 41.082 132.363 41.082Z" fill="#51B175"/>
<path d="M150.565 45.252H89.2391C88.5692 45.252 88.059 45.7878 88.1067 46.4422C88.1544 47.096 88.7427 47.6324 89.4126 47.6324H150.739C151.408 47.6324 151.919 47.0966 151.871 46.4422C151.823 45.7878 151.235 45.252 150.565 45.252Z" fill="#E66E62"/>
<path d="M134.191 49.417H89.5437C88.8738 49.417 88.3636 49.9528 88.4119 50.6126C88.4595 51.2664 89.0478 51.8028 89.7177 51.8028H134.365C135.035 51.8028 135.545 51.267 135.498 50.6126C135.449 49.9528 134.861 49.417 134.191 49.417Z" fill="#EEEFF3"/>
<path d="M160.329 53.5869H89.8483C89.1784 53.5869 88.6682 54.1227 88.7159 54.7771C88.7641 55.4363 89.3524 55.9727 90.0223 55.9727H160.503C161.173 55.9727 161.683 55.4369 161.635 54.7771C161.587 54.1233 160.999 53.5869 160.329 53.5869Z" fill="#E66E62"/>
<path d="M152.088 57.7578H90.1527C89.4828 57.7578 88.9726 58.2936 89.0203 58.948C89.068 59.6018 89.6562 60.1382 90.3261 60.1382H152.262C152.932 60.1382 153.442 59.6024 153.394 58.948C153.347 58.2936 152.758 57.7578 152.088 57.7578Z" fill="#E66E62"/>
<path d="M139.378 61.9287H90.4579C89.788 61.9287 89.2778 62.4645 89.3255 63.1189C89.3732 63.7727 89.9614 64.3091 90.6319 64.3091H139.552C140.222 64.3091 140.732 63.7733 140.685 63.1189C140.636 62.4645 140.048 61.9287 139.378 61.9287Z" fill="#51B175"/>
<path d="M145.784 66.0986H90.7624C90.0925 66.0986 89.5824 66.6344 89.63 67.2888C89.6777 67.9426 90.266 68.479 90.9359 68.479H145.957C146.627 68.479 147.137 67.9432 147.09 67.2888C147.043 66.6344 146.454 66.0986 145.784 66.0986Z" fill="#51B175"/>
<path d="M161.548 70.2637H91.067C90.3971 70.2637 89.8869 70.7995 89.9352 71.4593C89.9828 72.1131 90.5717 72.6495 91.2416 72.6495H161.722C162.392 72.6495 162.902 72.1137 162.855 71.4593C162.806 70.7995 162.217 70.2637 161.548 70.2637Z" fill="#EEEFF3"/>
<path d="M214.447 11.4721L214.208 7.92706C214.106 6.41977 212.829 5.20215 211.349 5.20215H124.254C122.774 5.20215 121.657 6.41977 121.758 7.92706L121.998 11.4721L124.931 54.9342C125.033 56.4415 126.315 57.6639 127.795 57.6639H214.891C216.37 57.6639 217.483 56.4415 217.381 54.9342L214.447 11.4721Z" fill="#B4BEC8"/>
<path d="M215.341 10.5781H122.892L125.825 54.0402C125.927 55.5475 127.209 56.7699 128.689 56.7699H215.785C217.264 56.7699 218.377 55.5475 218.275 54.0402L215.341 10.5781Z" fill="#353638"/>
<path d="M212.243 4.30859H125.148C123.668 4.30859 122.55 5.52622 122.652 7.0335L122.892 10.5785H215.341L215.102 7.0335C215 5.52622 213.723 4.30859 212.243 4.30859Z" fill="#2B79EE"/>
<path d="M158.358 14.874H129.169C128.499 14.874 127.989 15.4098 128.037 16.0636C128.085 16.7228 128.673 17.2592 129.343 17.2592H158.532C159.202 17.2592 159.712 16.7234 159.664 16.0636C159.616 15.4104 159.028 14.874 158.358 14.874Z" fill="#EEEFF3"/>
<path d="M191.764 14.874H162.58C161.905 14.874 161.395 15.4098 161.443 16.0636C161.491 16.7228 162.079 17.2592 162.755 17.2592H191.938C192.608 17.2592 193.118 16.7234 193.07 16.0636C193.022 15.4104 192.434 14.874 191.764 14.874Z" fill="#E66E62"/>
<path d="M172.903 19.0439H129.474C128.804 19.0439 128.294 19.5798 128.341 20.2342C128.389 20.888 128.977 21.4244 129.647 21.4244H173.076C173.746 21.4244 174.256 20.8886 174.208 20.2342C174.161 19.5804 173.572 19.0439 172.903 19.0439Z" fill="#51B175"/>
<path d="M191.105 23.2148H129.779C129.109 23.2148 128.599 23.7507 128.647 24.4051C128.694 25.0595 129.283 25.5953 129.952 25.5953H191.278C191.948 25.5953 192.459 25.0595 192.411 24.4051C192.363 23.7507 191.775 23.2148 191.105 23.2148Z" fill="#E66E62"/>
<path d="M174.731 27.3799H130.084C129.414 27.3799 128.903 27.9157 128.952 28.5755C128.999 29.2293 129.588 29.7657 130.258 29.7657H174.905C175.575 29.7657 176.085 29.2299 176.038 28.5755C175.989 27.9157 175.401 27.3799 174.731 27.3799Z" fill="#EEEFF3"/>
<path d="M200.869 31.5498H130.388C129.718 31.5498 129.208 32.0856 129.256 32.74C129.304 33.3992 129.892 33.9356 130.562 33.9356H201.043C201.713 33.9356 202.223 33.3998 202.175 32.74C202.127 32.0856 201.539 31.5498 200.869 31.5498Z" fill="#E66E62"/>
<path d="M192.628 35.7207H130.693C130.023 35.7207 129.513 36.2565 129.56 36.9109C129.608 37.5647 130.196 38.1011 130.866 38.1011H192.802C193.472 38.1011 193.982 37.5653 193.934 36.9109C193.887 36.2571 193.298 35.7207 192.628 35.7207Z" fill="#E66E62"/>
<path d="M179.918 39.8906H130.998C130.328 39.8906 129.818 40.4264 129.865 41.0808C129.913 41.7347 130.501 42.2711 131.171 42.2711H180.092C180.761 42.2711 181.272 41.7353 181.224 41.0808C181.176 40.427 180.588 39.8906 179.918 39.8906Z" fill="#51B175"/>
<path d="M186.324 44.0615H131.302C130.632 44.0615 130.122 44.5973 130.17 45.2517C130.218 45.9055 130.806 46.4419 131.476 46.4419H186.497C187.167 46.4419 187.677 45.9061 187.63 45.2517C187.583 44.5973 186.994 44.0615 186.324 44.0615Z" fill="#51B175"/>
<path d="M202.087 48.2266H131.607C130.937 48.2266 130.427 48.7624 130.475 49.4221C130.523 50.0759 131.111 50.6123 131.782 50.6123H202.262C202.932 50.6123 203.442 50.0765 203.395 49.4221C203.346 48.7624 202.758 48.2266 202.087 48.2266Z" fill="#EEEFF3"/>
<path d="M127.391 6.24023C126.741 6.24023 126.247 6.77782 126.292 7.44356C126.337 8.10869 126.903 8.64688 127.554 8.64688C128.206 8.64688 128.698 8.10869 128.653 7.44356C128.609 6.77782 128.045 6.24023 127.391 6.24023Z" fill="white"/>
<path d="M131.643 6.24023C130.99 6.24023 130.499 6.77782 130.544 7.44356C130.588 8.10869 131.153 8.64688 131.805 8.64688C132.458 8.64688 132.95 8.10869 132.905 7.44356C132.86 6.77782 132.296 6.24023 131.643 6.24023Z" fill="white"/>
<path d="M135.895 6.24023C135.241 6.24023 134.75 6.77782 134.795 7.44356C134.84 8.10869 135.404 8.64688 136.057 8.64688C136.708 8.64688 137.202 8.10869 137.157 7.44356C137.112 6.77782 136.545 6.24023 135.895 6.24023Z" fill="white"/>
<path d="M240.909 10.4683C240.823 9.20416 239.752 8.18262 238.511 8.18262H200.641C199.4 8.18262 198.463 9.20416 198.548 10.4683L199.248 20.8417C199.333 22.1058 200.409 23.1273 201.649 23.1273H239.52C240.761 23.1273 241.694 22.1058 241.609 20.8417L240.909 10.4683Z" fill="#B4BEC8"/>
<path d="M224.643 25.0879H186.772C185.531 25.0879 184.594 26.1094 184.679 27.3735L185.379 37.7469C185.464 39.011 186.54 40.0326 187.781 40.0326H225.651C226.892 40.0326 227.825 39.011 227.74 37.7469L227.04 27.3735C226.954 26.1088 225.883 25.0879 224.643 25.0879Z" fill="#B4BEC8"/>
<path d="M239.405 7.28906H201.534C200.294 7.28906 199.356 8.3106 199.441 9.57472L200.142 19.9481C200.227 21.2122 201.302 22.2338 202.543 22.2338H240.413C241.654 22.2338 242.588 21.2122 242.502 19.9481L241.802 9.57472C241.717 8.31001 240.646 7.28906 239.405 7.28906Z" fill="#E66E62"/>
<path d="M212.174 10.9307L206.812 13.3707L206.922 14.9972L212.613 17.4366L212.482 15.5085L208.955 14.1836L212.304 12.8593L212.174 10.9307Z" fill="white"/>
<path d="M214.749 16.3584C214.109 16.3584 213.62 16.8972 213.664 17.5492C213.708 18.1977 214.27 18.7364 214.91 18.7364C215.546 18.7364 216.039 18.1977 215.995 17.5492C215.951 16.8972 215.386 16.3584 214.749 16.3584Z" fill="white"/>
<path d="M218.188 16.3584C217.548 16.3584 217.055 16.8972 217.1 17.5492C217.143 18.1977 217.708 18.7364 218.348 18.7364C218.985 18.7364 219.477 18.1977 219.433 17.5492C219.389 16.8972 218.824 16.3584 218.188 16.3584Z" fill="white"/>
<path d="M221.623 16.3584C220.986 16.3584 220.494 16.8972 220.538 17.5492C220.581 18.1977 221.146 18.7364 221.783 18.7364C222.423 18.7364 222.915 18.1977 222.871 17.5492C222.828 16.8972 222.263 16.3584 221.623 16.3584Z" fill="white"/>
<path d="M228.831 8.55664H228.094L223.943 19.8109H224.681L228.831 8.55664Z" fill="white"/>
<path d="M229.85 10.9307L229.981 12.8593L233.509 14.1836L230.16 15.5085L230.29 17.4366L235.648 14.9972L235.538 13.3707L229.85 10.9307Z" fill="white"/>
<path d="M225.537 24.1943H187.666C186.425 24.1943 185.488 25.2159 185.573 26.48L186.273 36.8534C186.359 38.1175 187.434 39.139 188.675 39.139H226.545C227.786 39.139 228.719 38.1181 228.634 36.8534L227.934 26.48C227.848 25.2153 226.777 24.1943 225.537 24.1943Z" fill="#2B79EE"/>
<path d="M201.116 27.7529H199.513L199.698 30.4892H197.494L197.309 27.7529H195.704L196.187 34.9002H197.792L197.6 32.0602H199.804L199.996 34.9002H201.599L201.116 27.7529Z" fill="white"/>
<path d="M207.029 27.7529H201.817L201.923 29.324H203.727L204.103 34.9002H205.705L205.329 29.324H207.135L207.029 27.7529Z" fill="white"/>
<path d="M214.742 27.7529H213.139L211.452 30.929L209.333 27.7529H207.73L208.212 34.9002H209.815L209.534 30.7437L211.553 33.7773H211.732L213.341 30.7437L213.622 34.9002H215.225L214.742 27.7529Z" fill="white"/>
<path d="M217.548 27.7529H215.946L216.429 34.9002H220.535L220.429 33.3261H217.925L217.548 27.7529Z" fill="white"/>
<path d="M111.713 71.437C111.636 70.3028 110.675 69.3867 109.562 69.3867H75.5871C74.4738 69.3867 73.6328 70.3028 73.7097 71.437L74.3379 80.7435C74.4142 81.8777 75.3791 82.7938 76.4924 82.7938H110.467C111.581 82.7938 112.418 81.8777 112.341 80.7435L111.713 71.437Z" fill="#B4BEC8"/>
<path d="M110.456 68.4922H76.4812C75.3678 68.4922 74.5269 69.4082 74.6038 70.5424L75.2319 79.849C75.3082 80.9832 76.2731 81.8992 77.3865 81.8992H111.361C112.475 81.8992 113.312 80.9832 113.235 79.849L112.607 70.5424C112.53 69.4082 111.569 68.4922 110.456 68.4922Z" fill="#E66E62"/>
<path d="M86.5053 71.4414H84.9795L85.3032 75.8661C85.3324 76.2666 85.1565 76.6415 84.4878 76.6415C83.9741 76.6415 83.7387 76.4466 83.505 76.0825L82.2332 76.8287C82.7296 77.6547 83.5265 78.0946 84.5868 78.0946C85.9611 78.0946 86.9338 77.3013 86.8289 75.8661L86.5053 71.4414Z" fill="white"/>
<path d="M89.6015 75.5413L90.21 73.1466L91.1684 75.5413H89.6015ZM91.0605 71.4414H89.1134L87.3182 77.9646H88.9882L89.2457 76.9407H91.728L92.1393 77.9646H93.8093L91.0605 71.4414Z" fill="white"/>
<path d="M99.2514 71.4414H97.5814L96.4544 76.241L94.6223 71.4414H92.9523L95.6051 77.9646H97.5522L99.2514 71.4414Z" fill="white"/>
<path d="M101.635 75.5413L102.243 73.1466L103.201 75.5413H101.635ZM103.09 71.4414H101.142L99.3473 77.9646H101.021L101.278 76.9407H103.761L104.168 77.9646H105.838L103.09 71.4414Z" fill="white"/>
<path d="M72.3431 47.3076H34.4732C33.2324 47.3076 32.2948 48.3292 32.3801 49.5933L33.0804 59.9667C33.1656 61.2308 34.2408 62.2523 35.4817 62.2523H73.3515C74.5924 62.2523 75.5257 61.2308 75.4405 59.9667L74.7402 49.5933C74.655 48.3292 73.5839 47.3076 72.3431 47.3076Z" fill="#2B79EE"/>
<path d="M47.4952 49.7451C44.8067 49.7451 43.0008 51.7107 43.1879 54.2723C43.3751 56.8339 45.4682 58.7996 48.1568 58.7996C49.7898 58.7996 51.157 58.0164 51.8341 56.7857L50.0032 55.7909C49.6688 56.4632 48.9202 56.859 48.0149 56.859C46.4349 56.859 45.3401 55.8291 45.2262 54.2729C45.113 52.7198 46.0565 51.6869 47.6371 51.6869C48.5424 51.6869 49.3351 52.0856 49.7815 52.7549L51.467 51.7602C50.5992 50.5289 49.1139 49.7451 47.4952 49.7451Z" fill="white"/>
<path d="M56.2182 51.4121H54.435L54.5804 53.4022H52.5421L52.6691 55.1425H54.7074L54.8528 57.1319H56.636L56.4906 55.1425H58.5289L58.402 53.4022H56.3637L56.2182 51.4121Z" fill="white"/>
<path d="M63.353 51.4121H61.5698L61.7152 53.4022H59.6769L59.8038 55.1425H61.8421L61.9882 57.1319H63.7708L63.6254 55.1425H65.6637L65.5368 53.4022H63.4984L63.353 51.4121Z" fill="white"/>
<path d="M27.6288 117.416H24.8223V130.497H27.6288V117.416Z" fill="#B4BEC8"/>
<path d="M14.8434 133.274L25.8938 132.051V129.706L13.494 131.922C12.9272 132.023 12.5142 132.517 12.5142 133.093V134.2H14.8434V133.274Z" fill="#B4BEC8"/>
<path d="M36.9443 133.274L25.8939 132.051V129.706L38.2936 131.922C38.861 132.023 39.2735 132.517 39.2735 133.093V134.2H36.9443V133.274Z" fill="#B4BEC8"/>
<path d="M13.6043 137.074C14.5895 137.074 15.3882 136.276 15.3882 135.291C15.3882 134.305 14.5895 133.507 13.6043 133.507C12.6191 133.507 11.8205 134.305 11.8205 135.291C11.8205 136.276 12.6191 137.074 13.6043 137.074Z" fill="#353638"/>
<path d="M38.1834 137.074C39.1685 137.074 39.9672 136.276 39.9672 135.291C39.9672 134.305 39.1685 133.507 38.1834 133.507C37.1982 133.507 36.3995 134.305 36.3995 135.291C36.3995 136.276 37.1982 137.074 38.1834 137.074Z" fill="#353638"/>
<path d="M48.6658 136.828L60.0613 98.0557H58.0731L47.3981 136.828H48.6658Z" fill="#B4BEC8"/>
<path d="M27.7563 117.878H24.6941C24.2274 117.878 23.8489 117.5 23.8489 117.033V110.467C23.8489 110.001 24.2274 109.622 24.6941 109.622H27.7563C28.223 109.622 28.6014 110.001 28.6014 110.467V117.033C28.6014 117.5 28.223 117.878 27.7563 117.878Z" fill="#353638"/>
<path d="M22.9913 82.9248C20.475 90.6787 20.475 98.8213 22.9913 107.14H18.1506C15.7618 98.8642 15.5395 90.758 18.1506 82.8682H22.9913V82.9248Z" fill="#CFD3E6"/>
<path d="M18.6697 107.139C16.1481 98.8012 16.154 90.6396 18.6882 82.8672H18.1506C15.6498 90.6474 15.645 98.8066 18.1357 107.139H18.6697Z" fill="#B4BEC8"/>
<path d="M22.9913 82.9248C20.475 90.6787 20.475 98.8213 22.9913 107.14H22.4573C19.9666 98.8082 19.9714 90.6478 22.4698 82.8682H23.0092C23.0044 82.8866 22.9967 82.9069 22.9913 82.9248Z" fill="#CFD3E6"/>
<path d="M17.2459 86.0967C17.1476 86.5175 17.0534 86.9382 16.9706 87.3602H21.8351C21.9186 86.9376 22.0133 86.5169 22.1117 86.0967H17.2459Z" fill="#CFD3E6"/>
<path d="M28.9138 86.0961H14.9179C13.7169 86.0961 12.7347 85.1139 12.7347 83.9129V76.9546C12.7347 75.7537 13.7169 74.7715 14.9179 74.7715H28.9138C30.1147 74.7715 31.0969 75.7537 31.0969 76.9546V83.9129C31.0969 85.1133 30.1147 86.0961 28.9138 86.0961Z" fill="#353638"/>
<path d="M40.9584 110.96H17.8353C17.3049 110.96 16.8752 110.53 16.8752 110V108.581H40.9584V110.96Z" fill="#B4BEC8"/>
<path d="M16.0324 108.582H43.4854C44.0057 108.582 44.4271 108.16 44.4271 107.64C44.4271 107.12 44.0057 106.698 43.4854 106.698H16.0324C15.5127 106.698 15.0908 107.12 15.0908 107.64C15.0914 108.16 15.5127 108.582 16.0324 108.582Z" fill="#353638"/>
<path d="M56.7124 129.438L58.4217 131.315C58.4217 131.315 63.6129 133.818 63.8334 134.261C64.0539 134.704 63.8537 135.375 63.086 135.61C62.3661 135.831 54.8219 135.365 52.9952 135.17C52.8128 135.151 52.6423 135.071 52.5088 134.945C52.3074 134.754 52.2126 134.477 52.2561 134.203L52.9105 130.059L56.7124 129.438Z" fill="#353638"/>
<path d="M34.3183 99.29C34.3183 99.29 44.3531 103.155 49.2588 106.5C52.3085 108.58 56.5807 127.871 56.5807 127.871L52.2322 128.763C52.2322 128.763 45.4682 116.015 44.7989 111.183L27.6282 105.088L34.3183 99.29Z" fill="#3C66B7"/>
<path d="M20.407 103.046C20.407 103.046 20.7909 107.223 28.0937 109.61C34.7814 111.796 40.1424 112.934 40.1424 112.934C40.1424 112.934 40.0005 113.119 39.8867 117.837C39.7729 122.554 40.6967 127.64 40.6967 127.64L44.7888 127.584C44.7888 127.584 47.0763 119.101 47.3033 114.384C47.5304 109.667 47.4595 109.909 45.6411 108.544C43.8227 107.18 33.1996 101.502 33.1996 101.502L20.407 103.046Z" fill="#2B79EE"/>
<path d="M26.7014 107.999C30.29 107.999 33.199 105.09 33.199 101.502C33.199 97.913 30.29 95.0039 26.7014 95.0039C23.1129 95.0039 20.2039 97.913 20.2039 101.502C20.2039 105.09 23.1129 107.999 26.7014 107.999Z" fill="#2B79EE"/>
<path d="M38.7311 89.3359L39.3676 92.5228L35.3583 93.3011L34.27 90.2836L38.7311 89.3359Z" fill="#EF8C78"/>
<path d="M32.4671 80.0632C32.4671 80.0632 33.6371 77.8491 35.788 79.3498C38.2018 81.0329 39.0774 89.7167 39.0774 89.7167L33.4088 90.74C33.4088 90.74 32.0517 85.854 31.8217 84.0779C31.5916 82.3018 31.8848 81.1396 32.4671 80.0632Z" fill="#3CA078"/>
<path d="M38.9957 92.0467L49.679 91.1992L49.7935 93.5099C49.7935 93.5099 39.4433 95.7527 37.8151 96.0012C36.1868 96.2497 35.3583 93.3013 35.3583 93.3013L38.9957 92.0467Z" fill="#EF8C78"/>
<path d="M49.679 91.1992L53.9106 91.8089L53.8188 94.0696C53.8188 94.0696 51.8723 94.4659 49.7934 93.5105L49.679 91.1992Z" fill="#EF8C78"/>
<path d="M53.6615 94.0296L54.8368 94.1923C54.8368 94.1923 55.4447 94.7436 55.9108 94.7853C56.3775 94.8271 56.4174 94.4164 56.2011 94.2752C55.9847 94.1333 55.2081 93.5766 55.2081 93.5766L53.5602 93.1553L53.6615 94.0296Z" fill="#EFA181"/>
<path d="M53.4338 92.5186L54.7098 92.6318L55.9781 92.9721C55.9781 92.9721 56.7309 93.5639 56.9925 93.7368C57.2542 93.9096 57.0432 94.3221 56.5539 94.1415C56.0651 93.9609 55.6998 93.6897 55.6998 93.6897L54.5912 93.3655L53.1125 93.2481L53.4338 92.5186Z" fill="#EFA181"/>
<path d="M53.677 91.8057L54.9566 91.8742L56.2362 92.1698C56.2362 92.1698 57.1058 92.8683 57.3734 93.0316C57.641 93.1949 57.427 93.5811 56.9323 93.4178C56.4377 93.2545 56.0693 92.9243 56.0693 92.9243L54.8964 92.6174L53.3826 92.5459L53.677 91.8057Z" fill="#EFA181"/>
<path d="M30.8991 78.5023C30.8991 78.5023 28.8923 78.2669 26.2532 79.6049C23.4461 81.0281 20.7158 94.7933 20.4184 97.8163C20.4184 97.8163 21.1282 100.817 27.4429 101.681C32.8688 102.425 35.8792 99.4141 35.8792 99.4141C35.8792 99.4141 37.6917 92.2723 37.9855 88.4132C38.3324 83.8544 37.1851 78.9445 35.1026 78.8331L30.8991 78.5023Z" fill="#51B175"/>
<path d="M31.206 78.461C31.206 78.461 30.6922 78.4032 29.8555 78.5248C29.7714 78.8001 29.7255 79.0933 29.7255 79.3973C29.7255 80.9952 30.9747 82.2909 32.5166 82.2909C34.0578 82.2909 35.3077 80.9958 35.3077 79.3973C35.3077 79.1917 35.2862 78.9914 35.2469 78.7983C35.1926 78.7882 35.1402 78.7685 35.0842 78.7656L31.206 78.461Z" fill="#EFA181"/>
<path d="M39.5113 70.7793C39.5113 70.7793 39.5113 73.0858 39.5113 75.3017C39.5113 77.5177 38.1095 78.4224 35.803 78.4224C33.4964 78.4224 31.2805 78.4224 31.2805 78.4224V70.7793H39.5113Z" fill="#EFA181"/>
<path d="M30.0575 80.7845H34.5704L35.7934 77.0195H31.2805L30.0575 80.7845Z" fill="#EFA181"/>
<path d="M39.4886 71.7627C39.4886 71.7627 40.2801 71.0052 40.2801 69.5128C40.2801 68.0204 37.8383 67.1157 35.7124 67.0257C33.587 66.9351 32.1846 68.0657 32.1846 68.0657C32.1846 68.0657 31.0087 67.7492 30.2399 68.8345C29.4711 69.9199 29.2905 74.1711 31.2799 77.02L32.9416 75.4257C32.9416 75.4257 31.653 75.1545 31.6864 74.2045C31.7204 73.2545 32.2967 72.9493 32.9755 73.2211L33.4506 74.5776C33.4506 74.5776 33.807 73.4243 33.5692 72.4409C33.3319 71.4575 33.0262 70.8639 33.0262 70.8639C33.0262 70.8639 33.2807 71.3049 33.6031 71.4402C33.9262 71.5767 36.6278 72.4242 39.4886 71.7627Z" fill="#353638"/>
<path d="M34.9316 79.6723L35.3249 78.4273C34.7098 78.3087 33.6323 77.907 32.9487 77.0195C32.9487 77.0195 33.2926 79.0209 34.9316 79.6723Z" fill="#E66E62"/>
<path d="M31.9647 90.5449L32.6692 93.7174L28.6777 94.5816L27.5251 91.5873L31.9647 90.5449Z" fill="#EFA181"/>
<path d="M25.504 81.4073C25.504 81.4073 26.6263 79.1687 28.8089 80.6229C31.2578 82.2542 32.3187 90.9171 32.3187 90.9171L26.6734 92.0608C26.6734 92.0608 25.2126 87.2052 24.9444 85.4345C24.6768 83.6637 24.945 82.4956 25.504 81.4073Z" fill="#3CA078"/>
<path d="M32.2877 93.249L42.9507 92.1738L43.114 94.4815C43.114 94.4815 32.814 96.9448 31.1917 97.2279C29.5688 97.511 28.6777 94.5811 28.6777 94.5811L32.2877 93.249Z" fill="#EFA181"/>
<path d="M42.9501 92.1738L47.1937 92.6929L47.1501 94.9548C47.1501 94.9548 45.2125 95.3928 43.114 94.4815L42.9501 92.1738Z" fill="#EFA181"/>
<path d="M46.9922 94.9188L48.1711 95.0565C48.1711 95.0565 48.7903 95.5947 49.2576 95.6263C49.7248 95.6579 49.7558 95.2466 49.5365 95.1101C49.3172 94.9731 48.5293 94.4331 48.5293 94.4331L46.873 94.0469L46.9922 94.9188Z" fill="#EFA181"/>
<path d="M46.7323 93.4131L48.0108 93.4989L49.2862 93.8124C49.2862 93.8124 50.0515 94.3882 50.3167 94.555C50.5819 94.7225 50.3793 95.1391 49.887 94.9693C49.3947 94.7988 49.0234 94.5354 49.0234 94.5354L47.9082 94.235L46.4272 94.1492L46.7323 93.4131Z" fill="#EFA181"/>
<path d="M46.9606 92.6943L48.2415 92.7355L49.527 93.0037C49.527 93.0037 50.4115 93.6831 50.6827 93.841C50.9538 93.999 50.7482 94.3894 50.25 94.2368C49.7517 94.0842 49.3768 93.7618 49.3768 93.7618L48.1973 93.4799L46.6823 93.4411L46.9606 92.6943Z" fill="#EFA181"/>
<path d="M43.9431 96.8296H71.0903C71.3823 96.8296 71.6184 96.5929 71.6184 96.3015C71.6184 96.0095 71.3817 95.7734 71.0903 95.7734H43.9431C43.6511 95.7734 43.415 96.0101 43.415 96.3015C43.4144 96.5929 43.6511 96.8296 43.9431 96.8296Z" fill="#2B79EE"/>
<path d="M70.8745 95.9713L51.0235 95.7842C50.6808 95.7812 50.4538 95.5238 50.5164 95.2097L52.7776 83.8308C52.8402 83.5167 53.1685 83.2646 53.5112 83.2676L73.3622 83.4548C73.7049 83.4577 73.932 83.7152 73.8694 84.0293L71.6082 95.4081C71.5456 95.7228 71.2172 95.9743 70.8745 95.9713Z" fill="#CFD3E6"/>
<path d="M71.2709 95.9713L51.4199 95.7842C51.0772 95.7812 50.8501 95.5238 50.9127 95.2097L53.1739 83.8308C53.2365 83.5167 53.5649 83.2646 53.907 83.2676L73.758 83.4548C74.1007 83.4577 74.3278 83.7152 74.2652 84.0293L72.004 95.4081C71.942 95.7228 71.6136 95.9743 71.2709 95.9713Z" fill="#2B79EE"/>
<path d="M65.0629 89.9446C64.8841 90.9047 63.9615 91.6831 63.0014 91.6831C62.0412 91.6831 61.4077 90.9047 61.5865 89.9446C61.7653 88.9844 62.6879 88.2061 63.648 88.2061C64.6082 88.2061 65.2417 88.9844 65.0629 89.9446Z" fill="white"/>
<path d="M44.3162 128.322L45.926 133.078L47.2062 135.968V136.773C47.2062 136.773 46.5441 137.229 44.2429 137.358C41.6456 137.504 40.6943 136.48 40.6943 136.48L40.7307 133.187L41.316 128.358L44.3162 128.322Z" fill="#353638"/>
<path d="M44.9801 128.748H40.6538L40.3689 126.83H45.237L44.9801 128.748Z" fill="#3C66B7"/>
<path d="M57.2411 129.4L52.4236 130.402L51.7156 128.591L57.1374 127.463L57.2411 129.4Z" fill="#3C66B7"/>
<path d="M30.7089 136.828L42.1044 98.0557H40.1162L29.4412 136.828H30.7089Z" fill="#B4BEC8"/>
<path d="M97.725 136.828L86.3295 98.0557H88.3177L98.9927 136.828H97.725Z" fill="#B4BEC8"/>
<path d="M82.0847 136.828L70.6892 98.0557H72.6781L83.353 136.828H82.0847Z" fill="#B4BEC8"/>
<path d="M92.1428 97.5781C92.1428 97.9911 91.8079 98.326 91.3948 98.326H38.9903C38.5773 98.326 38.2424 97.9911 38.2424 97.5781C38.2424 97.165 38.5773 96.8301 38.9903 96.8301H91.3954C91.8079 96.8301 92.1428 97.165 92.1428 97.5781Z" fill="#353638"/>
<path d="M232.248 139.374H182.979C181.369 139.374 180.063 138.068 180.063 136.458V46.083C180.063 44.4732 181.369 43.168 182.979 43.168H232.248C233.858 43.168 235.163 44.4732 235.163 46.083V136.459C235.163 138.068 233.858 139.374 232.248 139.374Z" fill="#2B79EE"/>
<path d="M233.242 49.7227H181.984V129.024H233.242V49.7227Z" fill="#353638"/>
<path d="M226.769 57.2144H188.457C187.656 57.2144 187.007 56.5653 187.007 55.7649C187.007 54.9645 187.656 54.3154 188.457 54.3154H226.769C227.569 54.3154 228.218 54.9645 228.218 55.7649C228.219 56.5653 227.57 57.2144 226.769 57.2144Z" fill="white"/>
<path d="M216.442 61.6763H188.457C187.656 61.6763 187.007 61.0272 187.007 60.2268C187.007 59.4264 187.656 58.7773 188.457 58.7773H216.442C217.243 58.7773 217.892 59.4264 217.892 60.2268C217.892 61.0272 217.243 61.6763 216.442 61.6763Z" fill="#51B175"/>
<path d="M206.163 66.1382H188.457C187.656 66.1382 187.007 65.4892 187.007 64.6887C187.007 63.8883 187.656 63.2393 188.457 63.2393H206.163C206.964 63.2393 207.613 63.8883 207.613 64.6887C207.613 65.4892 206.964 66.1382 206.163 66.1382Z" fill="#E66E62"/>
<path d="M226.769 70.6001H188.457C187.656 70.6001 187.007 69.9511 187.007 69.1506C187.007 68.3502 187.656 67.7012 188.457 67.7012H226.769C227.569 67.7012 228.218 68.3502 228.218 69.1506C228.219 69.9511 227.57 70.6001 226.769 70.6001Z" fill="white"/>
<path d="M212.261 75.062H188.457C187.656 75.062 187.007 74.413 187.007 73.6126C187.007 72.8121 187.656 72.1631 188.457 72.1631H212.26C213.06 72.1631 213.709 72.8121 213.709 73.6126C213.71 74.413 213.061 75.062 212.261 75.062Z" fill="white"/>
<path d="M219.304 79.524H188.457C187.656 79.524 187.007 78.8749 187.007 78.0745C187.007 77.274 187.656 76.625 188.457 76.625H219.303C220.103 76.625 220.752 77.274 220.752 78.0745C220.753 78.8749 220.104 79.524 219.304 79.524Z" fill="#E66E62"/>
<path d="M219.304 83.9859H188.457C187.656 83.9859 187.007 83.3368 187.007 82.5364C187.007 81.736 187.656 81.0869 188.457 81.0869H219.303C220.103 81.0869 220.752 81.736 220.752 82.5364C220.753 83.3368 220.104 83.9859 219.304 83.9859Z" fill="white"/>
<path d="M219.304 88.4488H188.457C187.656 88.4488 187.007 87.7997 187.007 86.9993C187.007 86.1989 187.656 85.5498 188.457 85.5498H219.303C220.103 85.5498 220.752 86.1989 220.752 86.9993C220.753 87.7997 220.104 88.4488 219.304 88.4488Z" fill="#51B175"/>
<path d="M219.304 115.509H188.457C187.656 115.509 187.007 114.86 187.007 114.06C187.007 113.259 187.656 112.61 188.457 112.61H219.303C220.103 112.61 220.752 113.259 220.752 114.06C220.753 114.86 220.104 115.509 219.304 115.509Z" fill="#E66E62"/>
<path d="M219.304 119.972H188.457C187.656 119.972 187.007 119.323 187.007 118.523C187.007 117.722 187.656 117.073 188.457 117.073H219.303C220.103 117.073 220.752 117.722 220.752 118.523C220.753 119.323 220.104 119.972 219.304 119.972Z" fill="white"/>
<path d="M219.304 124.434H188.457C187.656 124.434 187.007 123.785 187.007 122.985C187.007 122.184 187.656 121.535 188.457 121.535H219.303C220.103 121.535 220.752 122.184 220.752 122.985C220.753 123.785 220.104 124.434 219.304 124.434Z" fill="#51B175"/>
<path d="M223.045 92.9097H188.457C187.656 92.9097 187.007 92.2606 187.007 91.4602C187.007 90.6598 187.656 90.0107 188.457 90.0107H223.045C223.845 90.0107 224.494 90.6598 224.494 91.4602C224.495 92.2606 223.846 92.9097 223.045 92.9097Z" fill="white"/>
<path d="M226.769 97.3726H188.457C187.656 97.3726 187.007 96.7235 187.007 95.9231C187.007 95.1227 187.656 94.4736 188.457 94.4736H226.769C227.569 94.4736 228.218 95.1227 228.218 95.9231C228.219 96.7235 227.57 97.3726 226.769 97.3726Z" fill="#E66E62"/>
<path d="M216.442 101.834H188.457C187.656 101.834 187.007 101.184 187.007 100.384C187.007 99.5836 187.656 98.9346 188.457 98.9346H216.442C217.243 98.9346 217.892 99.5836 217.892 100.384C217.892 101.184 217.243 101.834 216.442 101.834Z" fill="white"/>
<path d="M222.32 106.296H188.457C187.656 106.296 187.007 105.647 187.007 104.847C187.007 104.047 187.656 103.397 188.457 103.397H222.32C223.12 103.397 223.769 104.047 223.769 104.847C223.77 105.647 223.121 106.296 222.32 106.296Z" fill="#51B175"/>
<path d="M226.769 110.757H188.457C187.656 110.757 187.007 110.108 187.007 109.308C187.007 108.507 187.656 107.858 188.457 107.858H226.769C227.569 107.858 228.218 108.507 228.218 109.308C228.219 110.109 227.57 110.757 226.769 110.757Z" fill="#E66E62"/>
<path d="M217.008 45.6396H198.218C197.901 45.6396 197.643 45.8971 197.643 46.2148C197.643 46.5325 197.901 46.7899 198.218 46.7899H217.008C217.325 46.7899 217.583 46.5325 217.583 46.2148C217.583 45.8965 217.325 45.6396 217.008 45.6396Z" fill="#353638"/>
<path d="M211.252 133.938C211.252 131.928 209.623 130.299 207.613 130.299C205.603 130.299 203.974 131.928 203.974 133.938C203.974 135.948 205.603 137.577 207.613 137.577C209.623 137.577 211.252 135.948 211.252 133.938Z" fill="#353638"/>
<path d="M207.613 136.663C209.118 136.663 210.338 135.443 210.338 133.938C210.338 132.433 209.118 131.213 207.613 131.213C206.108 131.213 204.888 132.433 204.888 133.938C204.888 135.443 206.108 136.663 207.613 136.663Z" fill="white"/>
</svg>
