<svg width="231" height="232" viewBox="0 0 231 232" fill="none" xmlns="http://www.w3.org/2000/svg">
<path d="M114.071 0.0506745C57.4301 -1.66927 8.3674 40.5952 0.954799 96.0517C-7.14966 156.686 37.4566 211.242 92.3428 219.98C160.612 230.848 226.829 167.972 220.884 99.7613C216.404 48.3703 171.647 1.79909 114.071 0.0506745Z" fill="#F4F7FA"/>
<path d="M138.321 217.041C135.306 216.041 133.052 213.482 132.417 210.336L128.028 188.614L90.4841 189.947L85.8636 212.577C85.2165 215.746 87.8069 218.926 90.7902 220.093L106.498 226.239C109.419 227.382 112.559 227.837 115.681 227.57L148.876 224.73C149.847 224.647 150.625 223.884 150.738 222.906C150.851 221.927 151.531 220.828 150.605 220.521L138.321 217.041Z" fill="#97A6B7"/>
<path d="M138.693 215.72C135.681 214.732 133.429 212.205 132.794 209.099L128.41 187.65L91.7811 188.968L87.1652 211.313C86.5188 214.442 88.2292 217.581 91.2095 218.733L106.901 224.802C109.82 225.93 112.957 226.38 116.075 226.116L149.237 223.312C150.206 223.23 150.984 222.477 151.097 221.511C151.21 220.544 150.626 219.632 149.702 219.329L138.693 215.72Z" fill="url(#paint0_linear_145_46)"/>
<path d="M13.7688 203.051C9.69748 203.294 6.3667 200.653 6.3667 197.162V71.3575C6.3667 67.867 9.69748 65.1716 13.7688 65.348L202.869 78.4393C205.858 78.5688 207.462 76.1558 207.462 79.1244V186.12C207.462 189.089 205.041 191.648 202.052 191.827L13.7688 203.051Z" fill="#97A6B7"/>
<path d="M15.4608 203.051C11.3895 203.294 8.05872 200.653 8.05872 197.162V71.3575C8.05872 67.867 11.3895 65.1716 15.4608 65.348L203.744 73.5062C206.733 73.6357 209.154 76.1557 209.154 79.1244V186.12C209.154 189.089 206.733 191.648 203.744 191.827L15.4608 203.051Z" fill="white"/>
<path opacity="0.3" d="M203.745 76.024L15.461 68.2784C13.2844 68.1888 11.5148 69.627 11.5148 71.4908V169.334V196.972C11.5148 198.836 13.2844 200.245 15.461 200.12L203.745 189.308C205.347 189.216 206.642 187.851 206.642 186.258V161.799V79.0272C206.642 77.4345 205.347 76.09 203.745 76.024Z" fill="#D8DEE8"/>
<path d="M202.345 180.254L17.5016 189.379C15.5614 189.474 13.9846 188.192 13.9846 186.514V73.1383C13.9846 71.4602 15.5614 70.1584 17.5016 70.2304L202.345 77.0916C203.796 77.1454 204.969 78.3612 204.969 79.8072V177.506C204.969 178.952 203.796 180.183 202.345 180.254Z" fill="url(#paint1_linear_145_46)"/>
<path opacity="0.6" d="M63.6134 82.204L21.3993 80.9624V76.9375L63.6134 78.3029V82.204Z" fill="white"/>
<path opacity="0.36" d="M83.4935 81.6748L73.7417 81.3798V78.6299L83.4935 78.9454V81.6748Z" fill="white"/>
<path opacity="0.36" d="M83.4935 85.4669L73.7417 85.2V82.4502L83.4935 82.7374V85.4669Z" fill="white"/>
<path d="M132.091 86.7973L94.2582 85.7618V83.0547L132.091 84.1689V86.7973Z" fill="url(#paint2_linear_145_46)"/>
<path opacity="0.5" d="M138.295 90.6005L100.838 89.6836V86.9902L138.295 87.9851V90.6005Z" fill="url(#paint3_linear_145_46)"/>
<path opacity="0.5" d="M138.295 94.2354L100.838 93.4268V90.7334L138.295 91.6199V94.2354Z" fill="url(#paint4_linear_145_46)"/>
<path opacity="0.6" d="M138.295 97.8684L100.838 97.168V94.4746L138.295 95.2529V97.8684Z" fill="white"/>
<path opacity="0.36" d="M83.4935 89.26L73.7417 89.0213V86.2715L83.4935 86.5305V89.26Z" fill="white"/>
<path opacity="0.36" d="M83.4935 93.0521L73.7417 92.8416V90.0918L83.4935 90.3226V93.0521Z" fill="white"/>
<path opacity="0.36" d="M83.4935 96.8442L73.7417 96.662V93.9121L83.4935 94.1148V96.8442Z" fill="white"/>
<path opacity="0.36" d="M83.4935 100.636L73.7417 100.482V97.7324L83.4935 97.9069V100.636Z" fill="white"/>
<path opacity="0.6" d="M109.625 101.05L85.6216 100.67V97.9453L109.625 98.3747V101.05Z" fill="white"/>
<path opacity="0.36" d="M83.4935 104.429L73.7417 104.303V101.554L83.4935 101.7V104.429Z" fill="white"/>
<path opacity="0.36" d="M83.4935 108.222L73.7417 108.124V105.374L83.4935 105.492V108.222Z" fill="white"/>
<path opacity="0.36" d="M83.4935 112.014L73.7417 111.944V109.194L83.4935 109.284V112.014Z" fill="white"/>
<path opacity="0.5" d="M120.871 104.912L94.2582 104.568V101.861L120.871 102.26V104.912Z" fill="url(#paint5_linear_145_46)"/>
<path opacity="0.6" d="M134.697 108.735L100.838 108.396V105.702L134.697 106.112V108.735Z" fill="white"/>
<path d="M134.697 112.379L100.838 112.138V109.444L134.697 109.756V112.379Z" fill="url(#paint6_linear_145_46)"/>
<path opacity="0.36" d="M83.4935 115.807L73.7417 115.765V113.016L83.4935 113.077V115.807Z" fill="white"/>
<path opacity="0.36" d="M83.4935 119.599L73.7417 119.586V116.836L83.4935 116.869V119.599Z" fill="white"/>
<path opacity="0.36" d="M83.4935 123.39L73.7417 123.405V120.655L83.4935 120.661V123.39Z" fill="white"/>
<path opacity="0.36" d="M83.4935 127.184L73.7417 127.227V124.477L83.4935 124.454V127.184Z" fill="white"/>
<path opacity="0.36" d="M83.4935 130.976L73.7417 131.047V128.297L83.4935 128.246V130.976Z" fill="white"/>
<path opacity="0.36" d="M83.4935 134.768L73.7417 134.867V132.117L83.4935 132.038V134.768Z" fill="white"/>
<path opacity="0.36" d="M83.4935 138.561L73.7417 138.688V135.939L83.4935 135.831V138.561Z" fill="white"/>
<path opacity="0.36" d="M83.4935 142.353L73.7417 142.508V139.759L83.4935 139.623V142.353Z" fill="white"/>
<path opacity="0.36" d="M83.4935 146.145L73.7417 146.329V143.579L83.4935 143.415V146.145Z" fill="white"/>
<path opacity="0.36" d="M83.4935 149.937L73.7417 150.15V147.4L83.4935 147.208V149.937Z" fill="white"/>
<path opacity="0.36" d="M83.4935 153.73L73.7417 153.971V151.221L83.4935 151.001V153.73Z" fill="white"/>
<path opacity="0.36" d="M83.4935 157.522L73.7417 157.791V155.041L83.4935 154.793V157.522Z" fill="white"/>
<path opacity="0.36" d="M83.4935 161.314L73.7417 161.611V158.862L83.4935 158.585V161.314Z" fill="white"/>
<path opacity="0.36" d="M83.4935 165.107L73.7417 165.433V162.683L83.4935 162.378V165.107Z" fill="white"/>
<path opacity="0.36" d="M83.4935 168.899L73.7417 169.253V166.503L83.4935 166.17V168.899Z" fill="white"/>
<path opacity="0.36" d="M83.4935 172.691L73.7417 173.073V170.323L83.4935 169.962V172.691Z" fill="white"/>
<path opacity="0.36" d="M83.4935 176.484L73.7417 176.894V174.144L83.4935 173.755V176.484Z" fill="white"/>
<path opacity="0.36" d="M83.4935 180.276L73.7417 180.714V177.965L83.4935 177.547V180.276Z" fill="white"/>
<path opacity="0.5" d="M112.151 82.5418L85.5553 81.7369V79.0117L112.151 79.8719V82.5418Z" fill="url(#paint7_linear_145_46)"/>
<path opacity="0.6" d="M132.091 159.834L94.2582 160.986V158.279L132.091 157.206V159.834Z" fill="white"/>
<path opacity="0.5" d="M138.295 163.28L100.838 164.528V161.835L138.295 160.664V163.28Z" fill="url(#paint8_linear_145_46)"/>
<path opacity="0.5" d="M138.295 166.913L100.838 168.271V165.577L138.295 164.298V166.913Z" fill="url(#paint9_linear_145_46)"/>
<path opacity="0.5" d="M154.436 169.917L117.949 171.344V168.687L154.436 167.335V169.917Z" fill="url(#paint10_linear_145_46)"/>
<path d="M154.436 173.504L117.949 175.037V172.379L154.436 170.922V173.504Z" fill="url(#paint11_linear_145_46)"/>
<path opacity="0.6" d="M154.436 177.091L117.949 178.729V176.071L154.436 174.509V177.091Z" fill="white"/>
<path opacity="0.5" d="M112.151 156.732L85.5553 157.465V154.74L112.151 154.062V156.732Z" fill="url(#paint12_linear_145_46)"/>
<path opacity="0.5" d="M132.091 119.664L94.2582 119.613V116.906L132.091 117.036V119.664Z" fill="url(#paint13_linear_145_46)"/>
<path opacity="0.6" d="M138.295 123.307L100.838 123.364V120.671L138.295 120.691V123.307Z" fill="white"/>
<path opacity="0.5" d="M138.295 126.941L100.838 127.107V124.413L138.295 124.325V126.941Z" fill="url(#paint14_linear_145_46)"/>
<path opacity="0.5" d="M138.295 130.574L100.838 130.849V128.155L138.295 127.959V130.574Z" fill="url(#paint15_linear_145_46)"/>
<path opacity="0.5" d="M109.625 134.501L85.6216 134.746V132.021L109.625 131.826V134.501Z" fill="url(#paint16_linear_145_46)"/>
<path opacity="0.6" d="M120.871 138.07L94.2582 138.418V135.711L120.871 135.418V138.07Z" fill="white"/>
<path d="M134.697 141.534L100.838 142.076V139.382L134.697 138.911V141.534Z" fill="url(#paint17_linear_145_46)"/>
<path opacity="0.5" d="M134.697 145.178L100.838 145.817V143.124L134.697 142.555V145.178Z" fill="url(#paint18_linear_145_46)"/>
<path opacity="0.5" d="M142.204 148.659L108.752 149.388V146.711L142.204 146.052V148.659Z" fill="url(#paint19_linear_145_46)"/>
<path opacity="0.5" d="M142.204 152.281L108.752 153.106V150.429L142.204 149.674V152.281Z" fill="url(#paint20_linear_145_46)"/>
<path d="M112.151 115.928L85.5553 115.815V113.09L112.151 113.258V115.928Z" fill="url(#paint21_linear_145_46)"/>
<path d="M63.6135 88.2995L39.451 87.6995V83.7275L63.6135 84.3984V88.2995Z" fill="white"/>
<path opacity="0.6" d="M33.2015 87.544L37.7524 87.657V83.6801L33.2015 83.5537V87.544Z" fill="white"/>
<path opacity="0.6" d="M63.6135 93.9078L39.451 93.4095V89.4375L63.6135 90.0067V93.9078Z" fill="white"/>
<path opacity="0.6" d="M33.2015 93.2803L37.7524 93.3742V89.3972L33.2015 89.29V93.2803Z" fill="white"/>
<path opacity="0.6" d="M63.6135 99.516L39.451 99.1195V95.1475L63.6135 95.6148V99.516Z" fill="white"/>
<path opacity="0.6" d="M33.2015 99.0166L37.7524 99.0913V95.1143L33.2015 95.0264V99.0166Z" fill="white"/>
<path d="M63.6134 139.321L21.3993 139.89V135.865L63.6134 135.42V139.321Z" fill="white"/>
<path opacity="0.6" d="M63.6135 145.418L39.451 145.854V141.882L63.6135 141.517V145.418Z" fill="white"/>
<path opacity="0.6" d="M33.2015 145.966L37.7524 145.884V141.907L33.2015 141.976V145.966Z" fill="white"/>
<path opacity="0.6" d="M63.6135 151.025L39.451 151.563V147.591L63.6135 147.124V151.025Z" fill="white"/>
<path opacity="0.6" d="M33.2015 151.702L37.7524 151.601V147.624L33.2015 147.712V151.702Z" fill="white"/>
<path opacity="0.6" d="M63.6135 156.633L39.451 157.272V153.301L63.6135 152.731V156.633Z" fill="white"/>
<path opacity="0.6" d="M33.2015 157.438L37.7524 157.318V153.341L33.2015 153.448V157.438Z" fill="white"/>
<path d="M63.6134 105.162L21.3993 104.648V100.623L63.6134 101.261V105.162Z" fill="white"/>
<path opacity="0.6" d="M63.6135 111.257L39.451 111.073V107.102L63.6135 107.356V111.257Z" fill="white"/>
<path opacity="0.6" d="M33.2015 111.025L37.7524 111.06V107.083L33.2015 107.035V111.025Z" fill="white"/>
<path opacity="0.6" d="M63.6135 116.865L39.451 116.784V112.812L63.6135 112.964V116.865Z" fill="white"/>
<path opacity="0.6" d="M33.2015 116.762L37.7524 116.777V112.8L33.2015 112.771V116.762Z" fill="white"/>
<path opacity="0.6" d="M63.6135 128.153L39.451 128.276V124.304L63.6135 124.252V128.153Z" fill="white"/>
<path opacity="0.6" d="M33.2015 128.308L37.7524 128.285V124.308L33.2015 124.317V128.308Z" fill="white"/>
<path opacity="0.6" d="M63.6135 133.761L39.451 133.986V130.014L63.6135 129.86V133.761Z" fill="white"/>
<path opacity="0.6" d="M33.2015 134.044L37.7524 134.001V130.024L33.2015 130.053V134.044Z" fill="white"/>
<path opacity="0.6" d="M63.6135 122.472L39.451 122.492V118.521L63.6135 118.571V122.472Z" fill="white"/>
<path opacity="0.6" d="M33.2015 122.498L37.7524 122.494V118.517L33.2015 118.508V122.498Z" fill="white"/>
<path d="M63.6134 162.239L21.3993 163.535V159.51L63.6134 158.338V162.239Z" fill="white"/>
<path opacity="0.6" d="M63.6135 168.334L39.451 169.186V165.214L63.6135 164.433V168.334Z" fill="white"/>
<path opacity="0.6" d="M33.2015 169.407L37.7524 169.246V165.27L33.2015 165.417V169.407Z" fill="white"/>
<path opacity="0.6" d="M63.6135 173.942L39.451 174.896V170.924L63.6135 170.041V173.942Z" fill="white"/>
<path opacity="0.6" d="M33.2015 175.143L37.7524 174.963V170.986L33.2015 171.153V175.143Z" fill="white"/>
<path opacity="0.6" d="M63.6135 179.551L39.451 180.606V176.634L63.6135 175.649V179.551Z" fill="white"/>
<path opacity="0.6" d="M33.2015 180.879L37.7524 180.68V176.703L33.2015 176.889V180.879Z" fill="white"/>
<path opacity="0.6" d="M68.7433 179.346L67.8136 179.386V78.4385L68.7433 78.4685V179.346Z" fill="white"/>
<path opacity="0.6" d="M184.088 184.039C143.102 184.896 133.885 190.749 122.238 183.736C106.235 174.101 113.523 156.961 97.931 147.97C78.3286 136.667 55.7278 157.368 45.497 147.276C35.3085 137.225 54.5551 113.57 43.4135 87.2024C38.9424 76.6209 31.3291 69.7481 26.0699 65.8077L15.4608 65.348C11.3894 65.1716 8.05872 67.8671 8.05872 71.3575V197.162C8.05872 200.653 11.3894 203.294 15.4608 203.051L203.744 191.827C206.733 191.648 209.154 189.089 209.154 186.12V184.218C203.511 184.018 194.77 183.816 184.088 184.039Z" fill="white"/>
<path d="M178.957 98.3714C189.034 107.511 201.866 109.924 208.328 104.116L208.333 104.119L208.357 104.09C208.621 103.852 208.879 103.605 209.119 103.339C209.423 103.002 209.705 102.65 209.961 102.286L217.776 93.4862L219.399 91.6569L207.701 81.3678C206.001 78.7228 203.835 76.15 201.249 73.8011C198.338 71.1624 195.198 69.0864 192.051 67.6025L180.342 57.3066L171.191 68.7251C171.157 68.7623 171.12 68.7964 171.086 68.8336C170.741 69.2112 170.43 69.6115 170.148 70.0289C169.699 70.6895 169.325 71.3943 169.022 72.1399C166.093 79.3529 169.969 90.216 178.957 98.3714Z" fill="url(#paint22_linear_145_46)"/>
<path opacity="0.3" d="M178.885 98.4474C181.608 101.036 184.694 103.223 188.042 104.703C191.478 106.222 196.331 107.605 200.132 107.287C206.453 106.758 209.435 102.751 213.298 98.4497C214.787 96.7922 216.386 95.2258 217.784 93.4892C214.114 93.022 209.351 94.2225 205.909 95.4334C202.935 96.4797 200.104 98.1828 196.951 98.6509C190.001 99.6831 182.576 95.3712 179.1 89.4583C176.977 85.8452 177.822 81.1576 175.094 77.8114C173.331 75.6484 170.604 74.4646 169.022 72.1396C169.306 72.5562 168.319 75.5121 168.248 76.1408C168.086 77.5868 168.096 79.0425 168.298 80.4842C168.771 83.8512 170.208 87.0285 171.982 89.9005C173.863 92.9451 176.197 95.8919 178.885 98.4474Z" fill="url(#paint23_linear_145_46)"/>
<path d="M171.301 49.3826L211.922 58.4711L229.396 96.25L230.517 97.1543L230.127 97.6385L187.894 88.1984L169.734 48.9177L170.125 48.4336L171.301 49.3826Z" fill="url(#paint24_linear_145_46)"/>
<path d="M212.459 57.8045L230.634 97.0981L188.385 87.6451L170.21 48.3516L212.459 57.8045Z" fill="url(#paint25_linear_145_46)"/>
<path d="M214.18 116.622C214.499 116.671 214.805 116.465 214.875 116.145L219.462 95.2516C219.498 95.0838 219.464 94.9083 219.365 94.7673L201.929 69.7627C201.734 69.4834 201.35 69.4154 201.071 69.6098C200.792 69.8043 200.724 70.1882 200.918 70.4672L218.201 95.2507L213.672 115.881C213.599 116.213 213.81 116.542 214.142 116.614C214.155 116.617 214.167 116.62 214.18 116.622Z" fill="url(#paint26_linear_145_46)"/>
<path d="M215.588 115.635L215.219 114.819C215.078 114.51 214.781 114.302 214.442 114.278C214.102 114.253 213.778 114.417 213.594 114.703L213.155 115.479C213.035 115.666 213.019 115.884 212.999 116.104L212.4 122.914C212.388 123.06 212.947 123.229 213.727 123.298C214.507 123.366 215.087 123.298 215.1 123.152L215.7 116.323C215.721 116.087 215.687 115.85 215.588 115.635Z" fill="url(#paint27_linear_145_46)"/>
<path d="M172.739 148.548C170.798 146.475 176.173 138.687 179.05 135.275C181.563 132.294 184.146 129.229 187.318 129.617C190.103 129.958 192.813 132.895 192.975 135.71C193.412 143.282 175.499 151.495 172.739 148.548Z" fill="url(#paint28_linear_145_46)"/>
<path d="M196.051 228.572C196.416 228.869 196.483 229.611 196.527 230.096C196.547 230.313 196.557 230.421 196.533 230.497C196.356 231.056 195.274 231.114 193.576 231.288C190.894 231.562 190.096 231.773 189.886 231.374C189.689 231 190.165 230.387 190.219 230.32C190.507 229.957 190.861 229.825 191.545 229.599C192.81 229.183 193.665 228.955 193.924 228.886C195.541 228.454 195.811 228.377 196.051 228.572Z" fill="url(#paint29_linear_145_46)"/>
<path d="M194.456 226.122L194.187 229.179C194.263 229.326 195.172 229.769 195.893 229.389L196.583 226.385L194.456 226.122Z" fill="#D8DEE8"/>
<path d="M174.778 228.18C175.216 228.663 175.316 229.554 174.935 229.993C174.561 230.424 173.998 230.101 172.401 230.149C170.691 230.2 170.244 230.604 169.082 230.283C168.613 230.153 167.783 229.838 167.799 229.503C167.81 229.267 168.232 229.146 169.642 228.673C171.644 228.003 171.635 227.966 172.06 227.896C173.128 227.719 174.2 227.541 174.778 228.18Z" fill="url(#paint30_linear_145_46)"/>
<path d="M173.683 225.391L172.825 228.244C172.89 228.397 173.762 228.908 174.51 228.584L175.784 225.815L173.683 225.391Z" fill="#D8DEE8"/>
<path d="M181.305 162.895C181.182 172.484 180.527 183.267 178.957 194.982C177.405 206.56 175.23 217.021 172.858 226.221C173.953 226.515 175.047 226.81 176.142 227.104C178.918 224.515 182.421 220.439 184.111 214.679C185.16 211.105 184.811 209.268 185.476 204.871C186.536 197.87 188.682 194.202 190.9 188.556C192.893 183.483 195.249 176.038 196.512 166.086C191.443 165.022 186.374 163.958 181.305 162.895Z" fill="url(#paint31_linear_145_46)"/>
<path d="M191.184 161.979C191.854 174.176 192.405 186.6 192.822 199.243C193.136 208.731 193.366 218.099 193.519 227.343C194.637 227.481 195.755 227.619 196.873 227.757C197.953 225.746 199.388 222.671 200.371 218.729C201.565 213.943 201.288 211.1 201.812 206.139C202.399 200.575 203.252 199.362 204.764 192.343C207.832 178.098 209.366 170.975 205.943 166.545C204.833 165.106 201.35 161.498 191.184 161.979Z" fill="url(#paint32_linear_145_46)"/>
<path d="M207.478 131.326C204.86 130.59 201.022 129.729 196.323 129.463C189.621 129.085 186.269 128.895 183.894 130.491C178.41 134.178 182.656 142.686 180.411 163.778C180.09 166.79 180.018 169.823 179.786 172.843C179.402 177.844 179.314 178.115 179.662 178.622C181.844 181.799 189.984 177.007 201.915 178.901C208.591 179.961 211.619 182.403 213.448 180.642C215.58 178.588 213.751 173.063 212.176 168.307C210.368 162.847 209.251 162.777 208.225 158.665C207.153 154.368 207.802 152.155 207.969 145.378C208.048 142.135 208.031 137.31 207.478 131.326Z" fill="url(#paint33_linear_145_46)"/>
<g opacity="0.3">
<path d="M191.253 170.923C194.372 170.679 196.395 172.442 199.086 171.068C202.778 169.184 203.964 163.322 203.728 159.173C203.371 152.869 199.772 151.207 200.392 147.133C200.728 144.929 202.301 142.004 207.949 139.015C208.025 141.53 208.01 143.674 207.968 145.378C207.801 152.155 207.153 154.368 208.225 158.665C209.251 162.777 210.368 162.847 212.176 168.306C213.751 173.063 215.58 178.588 213.447 180.642C211.618 182.403 208.591 179.961 201.915 178.901C191.634 177.269 184.173 180.597 180.908 179.518C184.853 172.998 188.431 171.144 191.253 170.923Z" fill="url(#paint34_linear_145_46)"/>
</g>
<path d="M203.224 131.76C205.451 129.93 209.93 132.001 211.127 132.555C217.802 135.643 223.796 143.964 222.311 152.757C222.088 154.076 221.055 160.245 215.832 163.233C211.119 165.93 204.755 165.237 199.656 161.417C198.959 160.799 198.262 160.18 197.566 159.562C196.88 158.821 196.194 158.08 195.509 157.339C196.586 156.443 198.417 155.15 200.989 154.32C204.379 153.226 206.848 155.189 208.421 153.696C209.506 152.666 209.509 150.847 209.241 149.745C208.7 147.522 206.742 146.897 205.107 145.32C201.265 141.615 200.558 133.951 203.224 131.76Z" fill="url(#paint35_linear_145_46)"/>
<path d="M171.218 160.466L201.07 160.021L193.132 163.852L171.141 162.412L171.218 160.466Z" fill="url(#paint36_linear_145_46)"/>
<path d="M202.124 160.813V160.813C202.124 161.372 201.774 161.871 201.249 162.062L191.71 165.801L191.667 163.209L201.07 160.02C201.598 159.868 202.124 160.264 202.124 160.813Z" fill="url(#paint37_linear_145_46)"/>
<path d="M197.527 159.048C197.71 159.007 196.634 156.863 195.79 157.111C194.946 157.358 190.815 159.752 190.44 160.738C190.064 161.723 190.064 161.723 190.064 161.723C190.064 161.723 191.866 161.864 192.983 161.489C194.101 161.113 196.037 159.38 197.527 159.048Z" fill="white"/>
<path d="M190.875 145.02L192.979 164.179C193.052 164.84 192.126 165.825 191.462 165.794L160.593 163.899C160.086 163.875 159.663 163.501 159.578 163.001L155.703 144.497C155.587 143.823 156.798 143.128 157.481 143.147L189.829 144.056C190.37 144.072 190.816 144.483 190.875 145.02Z" fill="url(#paint38_linear_145_46)"/>
<path d="M190.169 145.579L192.274 164.738C192.346 165.399 191.811 165.969 191.147 165.937L159.887 164.457C159.38 164.433 158.958 164.06 158.872 163.56L155.678 144.971C155.563 144.297 156.092 143.686 156.775 143.706L189.124 144.615C189.664 144.63 190.11 145.042 190.169 145.579Z" fill="url(#paint39_linear_145_46)"/>
<path opacity="0.3" d="M171.814 159.968C174.543 158.811 173.58 156.605 176.803 153.856C181.055 150.229 185.389 151.802 186.906 148.991C187.379 148.116 187.605 146.754 186.782 144.549L189.124 144.615C189.664 144.63 190.11 145.041 190.169 145.578L192.274 164.738C192.346 165.399 191.811 165.968 191.147 165.937L159.887 164.457C159.38 164.433 158.958 164.06 158.872 163.559L158.431 160.994C159.38 160.466 160.513 159.986 161.835 159.718C166.422 158.788 168.672 161.299 171.814 159.968Z" fill="url(#paint40_linear_145_46)"/>
<path d="M157.918 161.777C157.867 161.623 157.975 161.464 158.137 161.455C158.798 161.422 160.33 161.408 161.176 161.926C162.275 162.599 163.696 163.827 162.499 164.447L161.382 165.026C161.331 165.052 161.275 165.061 161.218 165.048C160.821 164.961 159.15 164.59 158.968 164.498C158.801 164.415 158.164 162.524 157.918 161.777Z" fill="white"/>
<path d="M195.823 122.141C195.806 124.128 196.028 125.704 196.237 126.783C196.478 128.019 196.651 128.339 196.872 128.598C197.204 128.988 197.708 129.315 200.555 130.021C202.105 130.406 202.304 130.395 202.338 130.549C202.505 131.299 198.28 133.855 193.915 133.239C191.244 132.862 188.813 131.338 188.962 130.538C189.112 129.732 191.781 130.164 192.576 128.707C193.129 127.693 192.509 126.254 191.776 125.062C192.486 123.732 195.113 123.471 195.823 122.141Z" fill="white"/>
<path d="M190.864 122.927C190.234 122.09 190.195 120.627 190.921 119.703C191.546 118.908 192.53 118.794 193.119 118.726C194.826 118.529 196.979 119.242 197.728 120.813C198.172 121.744 197.212 123.678 197.062 124.026C196.891 124.419 196.583 124.554 196.297 124.851C195.902 125.263 195.282 125.919 194.271 127.015C194.192 126.692 194.073 126.291 193.883 125.857C193.81 125.69 193.516 125.037 193.072 124.496C192.183 123.411 191.462 123.721 190.864 122.927Z" fill="url(#paint41_linear_145_46)"/>
<path d="M195.713 126.093C195.713 126.093 194.591 127.934 192.357 127.788C190.357 127.658 190.064 123.173 191.342 122.221C191.768 121.903 192.622 121.772 193.316 121.966C193.726 122.081 193.864 122.251 194.538 122.426C195.159 122.587 195.335 122.518 195.522 122.676C195.757 122.873 195.928 123.357 195.537 124.669C195.918 124.282 196.376 124.134 196.701 124.287C196.753 124.312 196.89 124.405 196.967 124.547C197.247 125.059 196.779 125.713 195.713 126.093Z" fill="white"/>
<path d="M195.612 122.407C195.516 122.479 195.811 122.839 195.833 123.348C195.876 124.337 194.875 125.524 193.854 125.624C193.25 125.684 193.084 125.32 192.087 125.215C191.469 125.149 190.955 125.228 190.631 125.299C190.318 126.383 190.613 127.464 191.337 127.966C192.118 128.506 193.114 128.178 193.531 128.041C193.81 127.949 194.703 127.658 195.17 126.838C195.657 125.985 195.179 125.47 195.737 124.893C196.019 124.601 196.389 124.475 196.749 123.911C196.846 123.758 196.912 123.623 196.951 123.532C196.436 122.985 195.752 122.303 195.612 122.407Z" fill="url(#paint42_linear_145_46)"/>
<path d="M191.357 125.702C191.357 125.702 191.789 125.927 192.536 125.885C192.572 125.883 192.612 125.894 192.617 125.913C192.634 125.983 192.155 126.301 191.714 126.177C191.401 126.089 191.157 125.792 191.199 125.717C191.217 125.685 191.288 125.689 191.357 125.702Z" fill="white"/>
<path d="M35.1772 133.576C34.6469 133.777 26.5578 136.994 24.8951 145.436C24.7608 146.118 23.4612 153.372 28.3803 158.496C33.8963 164.242 44.5177 164.1 48.7336 159.296C49.7168 158.176 50.2354 156.934 50.526 155.891L49.4152 152.94C48.0597 151.304 46.2142 150.916 45.2286 150.673C42.7988 150.074 40.9644 151.156 39.5728 149.985C38.8028 149.336 38.6498 148.403 38.5132 147.57C38.0478 144.731 39.6502 142.983 39.7668 141.233C39.8541 139.924 40.3121 137.056 38.6039 135.186C37.5222 134.002 36.0239 133.68 35.1772 133.576Z" fill="url(#paint43_linear_145_46)"/>
<path d="M32.0254 227.666C31.931 227.146 30.2526 226.676 29.4215 227.372C29.0088 227.718 28.7246 228.418 28.9634 228.735C29.0503 228.85 28.6945 229.052 29.0354 229.056C30.1661 229.069 32.1193 228.182 32.0254 227.666Z" fill="url(#paint44_linear_145_46)"/>
<path d="M30.2661 227.855L28.5399 227.611C29.3396 226.648 29.1915 223.582 29.1915 223.582L31.0274 223.992C31.0274 223.992 30.8182 224.833 30.4623 226.075C30.3405 226.5 30.2861 227.165 30.2661 227.855Z" fill="url(#paint45_linear_145_46)"/>
<path d="M30.4192 227.643C30.4192 227.643 28.3409 227.164 28.1161 227.577C27.8913 227.989 27.7168 229.093 29.0353 229.057C30.3539 229.021 30.5364 227.993 30.4192 227.643Z" fill="url(#paint46_linear_145_46)"/>
<path d="M55.711 229.615C55.5449 229.114 53.8171 228.883 53.0915 229.689C52.7313 230.089 52.548 230.822 52.8288 231.102C52.9309 231.204 52.607 231.454 52.945 231.411C54.0664 231.265 55.8762 230.114 55.711 229.615Z" fill="url(#paint47_linear_145_46)"/>
<path d="M53.9954 230.049H52.2521C52.9092 228.984 52.3333 225.969 52.3333 225.969L54.2085 226.118C54.2085 226.118 54.1191 226.98 53.9406 228.259C53.8795 228.697 53.9187 229.363 53.9954 230.049Z" fill="url(#paint48_linear_145_46)"/>
<path d="M58.5136 164.121C59.3211 166.788 60.4745 171.093 61.2168 176.493C63.3345 191.897 58.8336 192.388 59.6741 209.457C59.9424 214.906 54.9537 227.47 54.5141 227.747C54.3013 227.768 54.0704 227.782 53.8241 227.774C53.3902 227.761 52.7784 227.695 52.0671 227.481C51.2769 227.345 48.4277 219.628 49.0881 215.04C49.5554 211.793 49.42 208.307 49.149 201.337C49.1051 200.208 46.2156 179.364 46.2156 179.364C45.3366 187.079 44.3257 193.635 43.4494 198.717C40.6338 215.047 31.4791 224.93 31.0016 225.089C30.9073 225.127 30.0482 225.439 29.3459 224.976C29.0333 224.77 28.9269 224.504 28.9269 224.504C28.682 224.312 28.9991 208.201 31.7914 196.076C35.8444 178.476 34.0795 174.358 35.3636 166.497C36.4747 159.695 58.5136 164.121 58.5136 164.121Z" fill="url(#paint49_linear_145_46)"/>
<path d="M59.599 166.781C57.1651 168.03 50.8965 170.268 43.4255 169.156C40.1132 168.663 37.446 167.581 35.5344 166.588C35.4761 166.559 35.4176 166.53 35.3622 166.501C37.3029 160.632 35.7824 157.492 35.0645 154.597C34.0403 150.47 34.0255 150.783 33.1821 147.502C31.7931 142.092 31.5653 136.564 32.5197 135.435C35.0937 132.385 39.7339 132.275 42.1415 132.202C44.8322 132.123 51.0191 131.174 54.4247 134.239C54.4832 134.291 53.7857 134.665 54.13 135.067C54.4481 135.441 55.5425 136.751 56.5347 138.52C57.2525 139.801 57.9034 141.295 58.5571 143.519C59.7099 147.444 60.0426 150.788 60.1534 152.245C60.1885 152.726 60.2207 153.193 60.2497 153.643C60.7022 160.874 60.1273 164.364 59.599 166.781Z" fill="url(#paint50_linear_145_46)"/>
<path d="M54.1173 229.816C54.1173 229.816 51.9925 229.633 51.8277 230.073C51.6628 230.512 51.6445 231.63 52.9451 231.41C54.2456 231.19 54.2822 230.146 54.1173 229.816Z" fill="url(#paint51_linear_145_46)"/>
<path d="M49.8865 128.762C50.6197 127.298 50.137 125.718 50.0292 125.377C49.578 123.948 49.4325 123.737 49.1413 123.448L48.7318 123.072C48.7318 123.072 48.707 123.056 48.6806 123.04C48.4028 122.876 47.392 122.649 47.1775 122.653C46.4924 122.667 45.2741 125.212 44.7423 129.041C44.6871 129.18 44.6327 129.321 44.5789 129.462C44.2441 130.346 43.9644 131.211 43.7311 132.053C39.1444 132.765 38.5419 133.351 38.5432 133.665C38.5459 134.326 41.2281 134.903 43.2254 135.054C47.5814 135.384 51.9343 133.937 51.8578 133.135C51.8245 132.785 50.9356 132.389 47.2468 132.166C47.2901 131.555 47.3333 130.944 47.3764 130.333C47.669 130.247 49.3466 129.84 49.8865 128.762Z" fill="url(#paint52_linear_145_46)"/>
<path d="M50.3035 122.259C50.0729 123.432 49.2776 124.579 48.9569 124.726C48.9155 124.745 48.6794 124.868 48.4419 125.109C48.4095 125.141 48.3789 125.181 48.3482 125.235C47.9481 125.925 48.9565 127.023 48.6654 127.31C48.4543 127.519 47.7168 127.043 47.5817 127.232C47.4544 127.41 48.0408 127.943 47.8939 128.157C47.783 128.319 47.4052 128.078 47.0951 128.299C46.9406 128.409 46.9577 128.523 46.7419 128.909C46.6199 129.127 46.4629 129.361 46.3521 129.487C45.8131 130.098 44.6153 130.128 44.4474 129.809C44.4007 129.72 44.466 129.666 44.453 129.396C44.453 129.396 44.4409 129.145 44.3279 128.837C44.1664 128.396 43.6471 128.003 43.1485 127.474C42.2253 126.495 42.061 125.78 42.0164 125.541C42.0006 125.456 41.9928 125.392 41.9872 125.346C41.8755 124.427 42.1196 123.156 42.6597 122.449C43.5644 121.265 44.9146 122.171 46.3686 121.106C48.0462 119.877 47.6143 117.671 48.4114 117.59C49.29 117.501 50.73 120.089 50.3035 122.259Z" fill="#26264F"/>
<path d="M48.2966 126.953C48.0852 126.502 47.5078 126.776 47.406 127.287C47.3043 127.798 47.6973 128.425 48.1977 128.417C48.6982 128.409 48.5812 127.56 48.2966 126.953Z" fill="url(#paint53_linear_145_46)"/>
<path d="M36.2209 162.866C36.2154 162.866 36.2092 162.865 36.2038 162.865C36.1176 162.855 36.0558 162.778 36.0655 162.692C36.3817 159.844 35.791 157.773 35.2701 155.945C35.1423 155.498 35.0181 155.063 34.9124 154.635C34.3327 152.297 34.079 151.394 33.8099 150.437C33.6332 149.81 33.4529 149.167 33.171 148.085C33.1496 148.001 33.1997 147.916 33.2828 147.894C33.3672 147.871 33.4528 147.923 33.4743 148.006C33.7549 149.085 33.9353 149.727 34.1114 150.353C34.3811 151.312 34.6354 152.217 35.2157 154.559C35.3214 154.985 35.4444 155.416 35.5709 155.86C36.0998 157.715 36.6996 159.818 36.3762 162.727C36.3676 162.806 36.2997 162.866 36.2209 162.866Z" fill="url(#paint54_linear_145_46)"/>
<path opacity="0.3" d="M59.5991 166.78C57.1652 168.029 50.8966 170.268 43.4256 169.156C40.1133 168.662 37.446 167.58 35.5344 166.588C36.4012 165.913 37.4694 164.784 39.2349 162.864C41.3741 160.541 43.8809 161.407 45.3546 162.283C46.4169 162.91 47.7332 162.928 48.81 162.333C49.8897 161.734 50.5727 160.611 50.6048 159.379C50.6223 158.813 50.596 158.168 50.526 157.439C50.0211 152.153 57.3432 151.704 57.3432 151.704C58.3763 151.167 59.357 152.034 60.2499 153.642C60.7023 160.873 60.1273 164.364 59.5991 166.78Z" fill="url(#paint55_linear_145_46)"/>
<path d="M85.1959 143.236C84.9013 143.265 84.5448 143.563 84.2943 143.705C83.9381 143.907 83.5793 144.105 83.2161 144.295C82.515 144.66 81.7725 144.931 80.9707 144.916C80.993 144.802 81.0327 144.687 81.0777 144.578C81.2135 144.26 81.3926 143.986 81.2857 143.89C81.1326 143.752 80.4594 144.038 79.8383 144.633C79.5869 144.87 79.3471 145.162 79.1507 145.494C78.8337 146.034 78.8872 146.329 78.622 146.741C78.2277 147.095 77.9318 147.172 77.9318 147.172V147.285L77.9765 147.424C77.6239 147.692 77.2258 147.851 76.9139 147.955C77.4628 148.103 77.999 148.253 78.5451 148.403L78.9245 149.036C78.9245 149.036 80.9936 148.603 82.2418 147.846C82.8254 147.49 83.0264 147.051 83.0755 146.687C83.1101 146.444 83.0748 146.236 83.0431 146.103C83.0172 146.008 82.9937 145.95 82.9937 145.95C82.9937 145.95 84.6982 145.242 85.3713 143.711C85.473 143.48 85.4828 143.209 85.1959 143.236Z" fill="url(#paint56_linear_145_46)"/>
<path d="M77.9755 146.537C78.9486 147.218 79.4704 148.142 79.741 148.733C79.0255 150.412 77.4029 153.53 74.0444 155.828C68.5377 159.596 60.4633 159.723 54.8393 155.426C48.1201 150.292 46.9974 140.448 49.8196 136.233C50.1444 135.747 51.2126 134.152 52.8708 133.969C53.9179 133.853 55.3432 134.285 57.5952 136.922C62.2875 142.416 60.6302 145.846 63.4024 147.453C67.5593 149.864 73.7367 143.571 77.9755 146.537Z" fill="url(#paint57_linear_145_46)"/>
<path d="M147.782 41.1158C146.058 40.612 143.752 43.7791 141.836 46.412C138.969 50.3509 135.619 54.953 136.522 60.4791C137.409 65.9159 142.071 70.1502 143.399 69.5445C144.535 69.0265 142.351 65.3698 144.024 60.4791C145.374 56.5327 147.612 56.5313 149.112 52.6622C150.974 47.8604 149.904 41.7356 147.782 41.1158Z" fill="url(#paint58_linear_145_46)"/>
<path d="M146.929 66.1592C138.045 68.3159 132.194 71.778 128.776 74.227C126.924 75.5542 126.069 76.3821 125.607 77.5886C122.975 84.4646 136.495 94.861 137.936 95.9498C138.566 94.4823 139.195 93.0149 139.824 91.5473C138.427 83.8792 136.101 81.4735 134.155 80.7581C133.611 80.558 132.697 80.3434 132.714 80.0858C132.756 79.4766 137.892 80.3448 142.799 78.5492C147.693 76.7586 152.609 72.2281 151.731 69.2328C151.571 68.6859 150.9 67.1054 146.929 66.1592Z" fill="url(#paint59_linear_145_46)"/>
<path d="M138.315 116.417C138.315 116.417 139.142 116.712 139.145 117.366C139.148 118.02 138.307 120.9 137.394 121.924C136.48 122.948 136.399 121.421 136.455 120.437C136.512 119.453 136.751 117.251 136.977 116.825C137.203 116.4 138.315 116.417 138.315 116.417Z" fill="url(#paint60_linear_145_46)"/>
<path opacity="0.3" d="M135.659 76.2118C134.045 76.1801 130.263 75.8789 129.257 77.7484C128.416 79.3082 129.888 81.6727 130.793 83.127C133.254 87.0807 135.642 87.4851 137.324 89.9142C137.975 90.8545 138.565 92.1678 138.753 94.0442C139.11 93.2117 139.467 92.3794 139.824 91.5471C138.427 83.879 136.101 81.4733 134.155 80.758C133.61 80.5578 132.696 80.3432 132.714 80.0857C132.756 79.4764 137.891 80.3446 142.799 78.549C147.26 76.9168 151.725 73.011 151.817 70.0635C144.753 75.1298 139.437 76.2858 135.659 76.2118Z" fill="url(#paint61_linear_145_46)"/>
<path d="M138.792 113.639C138.744 114.646 138.658 115.489 138.581 116.115C138.41 117.499 138.253 118.047 138.039 118.546C137.851 118.98 137.383 119.929 137.159 119.863C136.932 119.796 137.166 118.746 137.343 115.824C137.368 115.4 137.446 114.049 137.446 114.049L138.792 113.639Z" fill="url(#paint62_linear_145_46)"/>
<path d="M152.051 66.7353C146.933 69.8213 143.61 73.3301 141.678 75.6996C139.398 78.4968 135.929 82.7516 134.673 89.0959C134.004 92.4776 134.333 95.5111 135.019 101.44C135.701 107.328 136.678 112.122 137.442 115.396C137.836 115.554 138.229 115.712 138.623 115.87C139.677 113.933 141.056 110.867 141.55 106.946C142.359 100.531 139.96 98.4929 141.111 93.9436C142.109 90.0026 145 87.5861 150.783 82.7531C155.534 78.7823 159.914 76.4265 161.54 71.4738C161.817 70.6327 162.051 69.601 161.601 68.6562C160.631 66.6203 156.919 65.9099 152.051 66.7353Z" fill="url(#paint63_linear_145_46)"/>
<path d="M156.137 41.4833C154.808 41.1976 152.624 41.2544 150.541 39.6141C149.914 39.1203 147.692 37.371 147.962 34.868C148.199 32.6645 150.288 31.4803 150.544 31.3392C152.022 30.5254 153.496 30.7064 155.131 30.9298C157.251 31.2196 157.955 31.7987 159.428 32.1959C163.072 33.1781 164.304 31.1279 167.973 31.3009C172.662 31.5219 173.068 34.985 177.013 35.0714C181.442 35.1684 182.291 30.8338 186.663 30.0994C192.733 29.08 201.916 35.6141 201.731 43.1466C201.625 47.497 198.385 52.4828 194.247 53.9796C191.836 54.8521 189.233 54.575 188.49 56.1433C187.962 57.2595 189.15 58.1194 189.038 60.0642C188.893 62.5713 186.735 64.3307 186.386 64.6149C183.15 67.2523 175.896 65.92 170.942 62.1881C162.009 55.4582 163.361 43.0375 156.137 41.4833Z" fill="url(#paint64_linear_145_46)"/>
<path d="M166.399 40.5885C163.39 40.2178 159.919 39.9356 156.063 39.8832C147.914 39.7725 146.747 40.8058 146.449 41.5708C145.892 42.9966 146.846 43.7113 146.304 46.1977C145.981 47.6842 146.286 48.3617 145.661 49.959C145.051 51.5157 145.529 52.3526 146.069 56.0026C146.758 60.6702 147.076 63.0423 145.77 64.9238C144.862 66.2312 143.847 66.3419 143.944 66.9629C144.15 68.286 148.725 67.5563 154.517 70.0963C156.193 70.8315 157.736 71.7377 159.031 72.4975C162.061 74.2766 162.622 74.9569 164.025 75.763C168.463 78.3123 175.13 78.5579 178.624 75.4748C179.927 74.3254 180.876 72.6357 180.449 72.0172C179.867 71.1751 177.266 73.0879 174.878 71.9211C173.297 71.1482 173.597 69.8977 171.769 68.4243C169.568 66.6511 168.038 67.5802 166.541 66.4264C164.204 64.6266 165.267 60.3174 165.923 53.0925C166.194 50.1015 166.467 45.8306 166.399 40.5885Z" fill="url(#paint65_linear_145_46)"/>
<path d="M157.58 38.9108C158.691 39.6002 160.488 40.5014 160.686 40.746C160.883 40.9903 155.243 41.9562 151.733 40.1851C151.733 40.1851 151.189 39.8828 153.305 39.4596C153.756 39.3695 153.667 38.4924 153.607 37.5857L154.03 36.7998C154.03 36.7998 156.468 38.2209 157.58 38.9108Z" fill="url(#paint66_linear_145_46)"/>
<path d="M154.776 36.2656C154.776 36.2656 155.212 38.1151 153.583 39.0293C152.125 39.8479 149.657 36.4924 150.118 35.2453C150.272 34.8294 150.821 34.2948 151.395 34.1151C151.798 33.9886 153.326 34.0374 153.98 35.3234C154.152 34.9474 154.458 34.7503 154.665 34.8121C154.926 34.8903 154.965 35.3665 154.974 35.4743C155.004 35.8483 154.853 36.1384 154.776 36.2656Z" fill="url(#paint67_linear_145_46)"/>
<path opacity="0.3" d="M152.25 65.9136C153.928 66.6092 154.155 68.1123 156.475 68.965C158.689 69.7783 159.431 68.7592 161.639 69.4344C164.955 70.4487 166.222 73.6481 166.724 73.3463C167.184 73.0698 166.743 70.0091 164.612 68.0261C162.164 65.7487 159.528 66.7917 157.962 64.4272C157.352 63.5072 156.882 62.0376 157.414 60.9065C158.134 59.3737 160.016 59.9053 161.013 58.6376C162.804 56.3599 158.612 52.252 159.761 48.7795C160.22 47.3937 161.68 45.6568 166.388 44.4941C166.324 47.9748 166.123 50.8837 165.923 53.0926C165.267 60.3175 164.204 64.6269 166.54 66.4266C168.038 67.5805 169.568 66.6513 171.769 68.4245C173.597 69.8979 173.297 71.1484 174.878 71.9214C177.265 73.0881 179.867 71.1753 180.449 72.0174C180.876 72.636 179.927 74.3256 178.624 75.4751C175.13 78.558 168.463 78.3125 164.025 75.7633C162.622 74.9572 162.061 74.2768 159.03 72.4978C157.736 71.7379 156.193 70.8318 154.516 70.0965C150.452 68.314 146.989 68.1415 145.213 67.74C148.74 65.3878 150.888 65.3491 152.25 65.9136Z" fill="url(#paint68_linear_145_46)"/>
<path d="M136.054 68.2734L157.343 69.3094C157.636 69.3238 157.904 69.4807 158.059 69.7297L158.648 70.6752C158.941 71.1458 158.589 71.7529 158.034 71.7318L135.484 70.8728L136.054 68.2734Z" fill="url(#paint69_linear_145_46)"/>
<path d="M116.51 56.5128L138.504 56.939C139.155 56.9517 139.751 57.3061 140.072 57.872L147.689 71.2723L124.46 70.3468C123.823 70.3214 123.241 69.9762 122.913 69.4287L115.857 57.6397C115.556 57.1379 115.925 56.5015 116.51 56.5128Z" fill="url(#paint70_linear_145_46)"/>
<path opacity="0.3" d="M140.073 57.8711C139.751 57.3051 139.155 56.9507 138.504 56.938L138.022 56.9287C137.95 57.6387 137.732 58.2882 137.298 58.8125C135.942 60.4495 133.688 59.4398 132.009 61.1722C130.164 63.0752 131.868 65.3407 130.219 67.1119C128.483 68.9761 125.675 67.4582 122.448 68.6512L122.913 69.4275C123.241 69.9751 123.822 70.3203 124.46 70.3457L147.689 71.2712L140.073 57.8711Z" fill="url(#paint71_linear_145_46)"/>
<path d="M153.856 68.286C153.616 67.6525 153.376 67.0191 153.136 66.3854C155.787 65.6585 159.454 64.5844 163.215 63.2405C164.145 62.9084 164.485 62.4791 164.733 62.1494C166.662 59.592 161.754 55.0802 161.842 49.2259C161.903 45.1678 164.363 40.5258 166.531 40.4731C170.938 40.366 180.654 59.0639 172.471 67.0443C168.409 71.0051 160.821 71.4648 153.856 68.286Z" fill="url(#paint72_linear_145_46)"/>
<path d="M153.136 66.3852C151.471 65.501 149.479 66.4073 149.351 66.4681C148.985 66.6407 148.452 66.9483 147.915 67.4976C147.854 67.5806 147.132 68.581 147.395 68.9016C147.606 69.1585 148.422 68.9455 149.404 68.3352C149.815 68.2776 150.427 68.2245 151.161 68.2921C152.508 68.4164 153.125 68.842 153.614 68.4747C153.972 68.2058 154.094 67.6371 153.966 67.2144C153.827 66.7603 153.418 66.5351 153.136 66.3852Z" fill="url(#paint73_linear_145_46)"/>
<path d="M84.9824 226.255C83.6782 219.81 84.2399 214.63 84.8322 211.503C85.5508 207.709 87.0118 199.995 93.1437 195.696C93.6269 195.357 98.4239 192.057 100.578 193.696C101.689 194.541 101.943 196.582 101.457 198.193C100.203 202.352 94.5473 201.891 92.6683 206.624C92.0426 208.2 91.9266 210.124 92.363 210.305C92.9003 210.528 94.4325 208.176 94.5786 207.952C95.9446 205.855 95.9574 204.668 96.999 204.346C97.6386 204.149 98.4815 204.334 98.8586 204.839C99.7173 205.989 98.0211 208.61 97.5469 209.343C96.3064 211.26 95.2706 211.695 95.0187 213.327C94.9103 214.029 94.9296 215.068 95.3463 215.23C95.9099 215.449 96.9856 213.981 97.6757 213.039C99.5311 210.507 99.7289 209.036 100.651 208.93C101.512 208.832 102.482 209.982 102.731 210.683C103.411 212.596 100.678 216.668 84.9824 226.255Z" fill="url(#paint74_linear_145_46)"/>
<path opacity="0.28" d="M85.1787 225.149C84.9839 219.16 85.9533 214.412 86.8314 211.297C87.9602 207.292 90.0833 199.76 96.0397 196.501C96.463 196.269 99.5771 194.565 100.447 195.478C101.027 196.086 100.513 197.756 99.6601 198.862C98.2045 200.749 96.5279 200 94.1509 201.853C92.018 203.515 91.269 205.753 91.0814 206.339C90.3859 208.512 90.7473 210.374 90.8453 211.061C91.2178 213.668 90.455 217.938 85.1787 225.149Z" fill="white"/>
<path opacity="0.28" d="M87.3037 223.654C90.6437 220.662 91.4157 218.212 91.475 216.492C91.5212 215.152 91.1586 213.562 92.1833 212.084C92.8387 211.139 93.3329 211.292 94.4657 210.274C96.8321 208.149 97.126 205.284 97.6138 205.395C97.8853 205.456 98.0262 206.396 97.85 207.284C97.4864 209.115 96.054 209.307 94.6232 211.534C93.6458 213.055 93.3063 214.533 93.1278 215.311C92.6921 217.21 92.988 217.876 92.7343 218.932C92.4054 220.3 91.2153 222.065 87.3037 223.654Z" fill="white"/>
<path d="M86.9891 227.295C92.779 227.627 94.5 227.974 97.2285 227.044C99.7924 226.17 102.422 224.45 102.191 223.66C102.026 223.094 100.416 223.101 99.4546 223.106C96.8746 223.118 94.747 223.908 93.2542 224.672C94.5417 223.798 95.8293 222.924 97.1168 222.051C98.0158 221.729 99.5371 221.046 100.885 219.604C101.728 218.701 103.667 216.256 102.938 215.081C102.177 213.854 98.5612 214.101 96.4768 215.842C95.4766 216.677 95.4753 217.317 94.1348 218.775C92.9165 220.1 91.6587 220.941 90.775 221.449C91.603 220.414 92.7292 218.797 93.6047 216.618C94.935 213.307 95.9392 208.069 94.2472 207.117C93.1248 206.485 90.8995 207.787 89.7865 209.329C88.8841 210.58 88.9726 211.629 88.3516 215.647C88.0816 217.394 87.8168 218.801 87.6449 219.674C85.923 215.897 85.4234 212.719 85.3226 210.383C85.193 207.382 85.6896 205.031 84.5417 204.405C83.5186 203.848 81.6917 204.935 80.7651 205.956C77.0148 210.087 81.963 219.783 82.486 220.783C81.1099 219.741 79.2135 218.111 77.3768 215.754C75.4128 213.234 74.5833 211.358 73.5848 211.526C72.5917 211.693 71.9372 213.807 72.0117 215.443C72.2195 220.005 78.1766 222.683 78.8124 222.959C78.3113 223.04 77.4617 223.125 76.46 222.934C74.2389 222.51 73.5461 221.163 71.2927 220.706C70.4309 220.531 68.6686 220.35 68.4515 220.884C68.0617 221.842 72.5127 225.439 77.9132 226.81C79.8927 227.313 79.4193 226.861 86.9891 227.295Z" fill="url(#paint75_linear_145_46)"/>
<path opacity="0.28" d="M90.8105 223.995C93.4465 222.823 93.0883 221.23 95.972 219.257C97.8188 217.993 98.2478 218.453 100.227 217.245C101.315 216.581 102.205 215.819 102.927 215.065C102.931 215.071 102.935 215.076 102.938 215.081C103.667 216.256 101.728 218.701 100.885 219.604C99.537 221.046 98.0158 221.729 97.1168 222.051C95.8293 222.924 94.5417 223.798 93.2542 224.672C94.7471 223.908 96.8746 223.118 99.4546 223.106C100.293 223.102 101.623 223.096 102.06 223.469C101.286 223.95 100.589 224.181 100.021 224.297C98.7279 224.561 97.9165 224.265 96.7977 224.94C95.9001 225.481 95.9749 225.941 95.1846 226.234C94.4408 226.509 94.0609 226.218 92.2256 225.917C90.4403 225.624 89.5329 225.486 88.8115 225.94C88.2663 226.282 87.9768 226.847 87.817 227.344C87.632 227.333 87.4429 227.322 87.2487 227.31C87.3922 226.74 87.656 226.086 88.1579 225.501C88.9536 224.575 89.8244 224.434 90.8105 223.995Z" fill="white"/>
<path opacity="0.28" d="M83.299 226.022C82.8825 225.922 82.6834 226.22 82.105 226.295C81.0301 226.434 80.6272 225.548 79.3635 225.126C77.868 224.627 77.4888 225.555 75.9992 225.094C74.82 224.728 74.972 224.12 73.4315 223.233C71.7921 222.288 71.0979 222.676 69.8931 221.896C69.5058 221.645 69.064 221.272 68.6433 220.692C69.173 220.405 70.559 220.558 71.2928 220.707C73.5462 221.164 74.239 222.51 76.4601 222.934C77.4618 223.126 78.3114 223.041 78.8125 222.96C78.1767 222.684 72.2196 220.005 72.0119 215.444C71.9428 213.926 72.5012 211.998 73.375 211.594C73.2711 212.647 73.2566 213.548 73.2726 214.257C73.3099 215.905 73.3393 216.743 73.8606 217.431C74.7653 218.624 75.8679 218.002 77.3716 219.242C78.7404 220.371 78.2634 221.246 79.6913 222.377C80.9236 223.352 81.6538 222.997 82.8133 223.788C83.5407 224.284 84.4241 225.224 84.9549 227.191C84.7132 227.18 84.4818 227.17 84.2617 227.161C84.0521 226.603 83.748 226.129 83.299 226.022Z" fill="white"/>
<path opacity="0.28" d="M84.5996 219.805C83.8782 217.84 82.6258 218.042 82.1033 216.311C81.5838 214.591 82.7202 214.056 82.4305 211.565C82.2135 209.699 81.5088 209.424 81.462 208.148C81.4274 207.208 81.7589 205.927 83.2917 204.339C83.7566 204.217 84.1954 204.216 84.5419 204.405C85.6898 205.03 85.1932 207.382 85.3228 210.383C85.4236 212.719 85.9232 215.896 87.6451 219.674C87.8171 218.801 88.0818 217.394 88.3518 215.647C88.9727 211.628 88.8843 210.579 89.7867 209.329C90.8998 207.786 93.1251 206.485 94.2475 207.116C94.3116 207.153 94.3714 207.196 94.4279 207.244C93.868 207.625 93.3517 208.094 92.9175 208.673C91.4373 210.645 92.2793 212.059 90.9374 215.949C89.6468 219.692 88.3374 219.923 87.2986 223.156C86.9669 224.189 86.6543 225.556 86.5898 227.273C86.2107 227.252 85.8534 227.233 85.5153 227.216C85.1266 225.943 84.9433 224.803 84.8651 223.836C84.6928 221.707 85.0868 221.132 84.5996 219.805Z" fill="white"/>
<path d="M99.0597 9.63405C107.408 9.89028 114.421 14.9877 115.787 21.4403C115.789 21.4487 115.79 21.4571 115.792 21.4656C115.866 21.8188 115.923 22.176 115.963 22.5368C115.965 22.5605 115.968 22.5843 115.97 22.6082C115.988 22.7767 116.001 22.9461 116.011 23.1161C116.012 23.1469 116.014 23.1778 116.015 23.2087C116.023 23.3825 116.029 23.5567 116.029 23.7319C116.029 31.2303 108.376 36.9128 99.0597 36.4306C98.8119 36.4178 98.5657 36.3999 98.3206 36.3786C98.2967 36.3766 98.2725 36.3749 98.2486 36.3727C98.0167 36.3518 97.7862 36.3265 97.5571 36.2984C97.5214 36.294 97.4856 36.2898 97.45 36.2853C97.2281 36.2569 97.0078 36.2247 96.7887 36.1895C96.7473 36.1828 96.7061 36.1762 96.6649 36.1693C96.4499 36.1334 96.2362 36.0944 96.0241 36.0523C95.9811 36.0437 95.9383 36.0348 95.8954 36.026C95.6843 35.9825 95.4745 35.9366 95.2664 35.8871C95.2261 35.8775 95.1862 35.8673 95.146 35.8574C94.9393 35.8069 94.7338 35.7541 94.5303 35.6977C94.4938 35.6875 94.4576 35.6767 94.4212 35.6663C94.238 35.6144 94.0562 35.5599 93.8758 35.5032C93.8301 35.4888 93.784 35.4751 93.7384 35.4605C93.5553 35.4015 93.3743 35.3394 93.1942 35.2756C93.1553 35.262 93.1155 35.2497 93.0767 35.2357C93.0772 35.2352 93.0777 35.2348 93.0782 35.2344C86.8853 33.0005 82.5314 27.9731 82.5314 22.3508C82.5314 15.0473 89.878 9.35214 99.0597 9.63405Z" fill="url(#paint76_linear_145_46)"/>
<path d="M80.7638 22.351C80.7638 29.6546 88.1103 35.9555 97.2921 36.4307C106.608 36.913 114.261 31.2304 114.261 23.732C114.261 16.2336 106.608 9.92002 97.2921 9.63405C88.1103 9.35221 80.7638 15.0474 80.7638 22.351Z" fill="url(#paint77_linear_145_46)"/>
<g opacity="0.3">
<path d="M93.2392 32.8194C95.2496 28.9678 93.2172 25.1874 95.9369 22.7501C98.7119 20.2633 102.336 22.8292 106.259 20.8597C107.783 20.095 109.481 18.5809 110.746 15.373C112.949 17.732 114.261 20.6351 114.261 23.7324C114.261 31.2308 106.608 36.9133 97.2919 36.4311C95.1767 36.3216 93.16 35.9032 91.309 35.2363C92.2212 34.4439 92.8256 33.6117 93.2392 32.8194Z" fill="url(#paint78_linear_145_46)"/>
</g>
<path d="M88.8904 19.4001C88.1736 19.3976 87.62 19.6751 87.2286 20.2315C86.8378 20.7872 86.6427 21.5628 86.6427 22.5589C86.6427 24.6317 87.3896 25.6804 88.8904 25.7052C89.5229 25.7157 90.2912 25.564 91.1966 25.2491V26.918C90.4523 27.2243 89.6239 27.368 88.712 27.3499C87.4079 27.3239 86.4151 26.8942 85.73 26.0625C85.0468 25.2331 84.7059 24.0552 84.7059 22.5268C84.7059 21.5643 84.8733 20.722 85.2084 19.9992C85.5439 19.2756 86.0267 18.7203 86.6579 18.3337C87.2907 17.9461 88.0345 17.752 88.8905 17.752C89.7658 17.752 90.6485 17.9722 91.5386 18.4136L90.9172 20.0294C90.5782 19.8611 90.2377 19.7144 89.8955 19.5893C89.5538 19.4642 89.2188 19.4012 88.8904 19.4001Z" fill="white"/>
<path d="M99.2579 24.7801C99.2579 25.6415 98.953 26.3149 98.3447 26.7993C97.7378 27.2826 96.8958 27.513 95.8213 27.4916C94.8356 27.4719 93.9669 27.2653 93.214 26.8725V25.0162C93.8328 25.3094 94.3577 25.5178 94.7882 25.6411C95.2194 25.7645 95.6145 25.8293 95.9733 25.8353C96.4045 25.8424 96.7358 25.7634 96.9669 25.5984C97.1981 25.4331 97.3139 25.1836 97.3139 24.85C97.3139 24.6637 97.2629 24.4973 97.1609 24.3506C97.0591 24.2042 96.9096 24.0627 96.7125 23.9259C96.5156 23.7893 96.1149 23.5704 95.5113 23.2696C94.947 22.9915 94.5245 22.7263 94.2436 22.4737C93.9627 22.2214 93.7387 21.929 93.5714 21.5964C93.4041 21.2641 93.3205 20.8767 93.3205 20.4339C93.3205 19.6002 93.5955 18.9454 94.1461 18.4688C94.6978 17.9912 95.4628 17.752 96.4426 17.752C96.9255 17.752 97.387 17.8105 97.8272 17.9276C98.2681 18.045 98.7299 18.2105 99.2129 18.424L98.572 19.9936C98.073 19.783 97.6612 19.636 97.3361 19.5525C97.0114 19.4691 96.6925 19.4268 96.3791 19.4257C96.0071 19.4244 95.7221 19.512 95.524 19.6883C95.3258 19.8645 95.2269 20.0949 95.2269 20.3797C95.2269 20.5566 95.2669 20.7111 95.347 20.8432C95.427 20.9755 95.5545 21.1036 95.7296 21.2279C95.9047 21.3522 96.3199 21.577 96.9765 21.9026C97.8474 22.3352 98.4461 22.7674 98.7707 23.1988C99.0952 23.6308 99.2579 24.158 99.2579 24.7801Z" fill="white"/>
<path d="M107.287 24.8948C107.287 25.7703 106.972 26.4545 106.344 26.9467C105.717 27.4377 104.847 27.6715 103.738 27.6494C102.72 27.6291 101.823 27.4188 101.046 27.0195V25.1332C101.685 25.4313 102.227 25.6432 102.671 25.7686C103.116 25.8942 103.524 25.9601 103.895 25.9662C104.34 25.9736 104.682 25.8935 104.921 25.7258C105.16 25.5579 105.279 25.3044 105.279 24.9653C105.279 24.776 105.226 24.6069 105.121 24.4578C105.016 24.309 104.862 24.1651 104.658 24.0261C104.455 23.8873 104.041 23.6647 103.418 23.359C102.835 23.0762 102.399 22.8067 102.109 22.55C101.819 22.2936 101.587 21.9964 101.414 21.6584C101.242 21.3208 101.156 20.927 101.156 20.4772C101.156 19.63 101.439 18.9646 102.008 18.4804C102.578 17.9951 103.367 17.752 104.379 17.752C104.878 17.752 105.355 17.8114 105.809 17.9305C106.264 18.0498 106.741 18.218 107.24 18.435L106.578 20.0302C106.063 19.8161 105.638 19.6667 105.302 19.5817C104.967 19.4969 104.637 19.454 104.314 19.4529C103.929 19.4516 103.635 19.5405 103.431 19.7197C103.226 19.8988 103.124 20.1328 103.124 20.4222C103.124 20.602 103.165 20.759 103.248 20.8932C103.33 21.0276 103.462 21.1578 103.643 21.2842C103.824 21.4106 104.252 21.639 104.93 21.9699C105.83 22.4096 106.448 22.849 106.783 23.2875C107.119 23.7267 107.287 24.2626 107.287 24.8948Z" fill="white"/>
<path d="M62.5273 31.2651C71.817 31.5502 79.6191 37.2221 81.1395 44.4017C81.1415 44.4111 81.1434 44.4205 81.1453 44.43C81.2277 44.8229 81.291 45.2203 81.3349 45.6218C81.3377 45.6483 81.341 45.6747 81.3437 45.7013C81.3629 45.8888 81.3779 46.0773 81.3885 46.2665C81.3904 46.3008 81.3917 46.3352 81.3934 46.3695C81.4026 46.5629 81.4087 46.7567 81.4087 46.9517C81.4087 55.2951 72.8933 61.618 62.5273 61.0814C62.2516 61.0671 61.9777 61.0472 61.705 61.0236C61.6783 61.0213 61.6515 61.0194 61.6248 61.017C61.3668 60.9938 61.1104 60.9657 60.8553 60.9343C60.8157 60.9294 60.7759 60.9248 60.7363 60.9197C60.4895 60.888 60.2442 60.8522 60.0005 60.813C59.9545 60.8057 59.9086 60.7982 59.8627 60.7906C59.6235 60.7507 59.3857 60.7073 59.1497 60.6604C59.1018 60.6509 59.0542 60.6409 59.0065 60.6311C58.7716 60.5828 58.5382 60.5318 58.3067 60.4766C58.2618 60.4659 58.2174 60.4545 58.1726 60.4435C57.9426 60.3873 57.714 60.3286 57.4876 60.2657C57.4469 60.2545 57.4067 60.2424 57.3661 60.2309C57.1623 60.1731 56.9601 60.1125 56.7593 60.0494C56.7084 60.0334 56.657 60.0182 56.6064 60.0019C56.4027 59.9363 56.2013 59.8672 56.0009 59.7962C55.9576 59.781 55.9133 59.7674 55.8702 59.7519C55.8708 59.7513 55.8712 59.7509 55.8718 59.7503C48.9811 57.2648 44.1366 51.6709 44.1366 45.415C44.1366 37.2885 52.311 30.9514 62.5273 31.2651Z" fill="url(#paint79_linear_145_46)"/>
<path d="M42.1699 45.4149C42.1699 53.5415 50.3443 60.5525 60.5607 61.0813C70.9266 61.6179 79.4421 55.295 79.4421 46.9517C79.4421 38.6083 70.9266 31.5832 60.5607 31.2651C50.3443 30.9514 42.1699 37.2884 42.1699 45.4149Z" fill="url(#paint80_linear_145_46)"/>
<g opacity="0.3">
<path d="M56.051 57.0637C58.288 52.778 56.0265 48.5716 59.0527 45.8597C62.1404 43.0926 66.1729 45.9478 70.5385 43.7563C72.2336 42.9054 74.1229 41.2206 75.5304 37.6514C77.9817 40.2761 79.442 43.5063 79.442 46.9527C79.442 55.296 70.9265 61.6189 60.5606 61.0823C58.207 60.9605 55.963 60.495 53.9034 59.7528C54.9183 58.8712 55.5909 57.9452 56.051 57.0637Z" fill="url(#paint81_linear_145_46)"/>
</g>
<path d="M54.3862 50.427L46.9449 46.8074V45.6876L54.3862 41.8311V43.7465L49.2303 46.1995L54.3862 48.5194V50.427Z" fill="white"/>
<path d="M62.3848 40.378L58.0976 52.1566L55.9535 52.0931L60.1944 40.3779L62.3848 40.378Z" fill="white"/>
<path d="M63.9846 48.7175L69.542 46.5033L63.9846 43.8285V41.8662L72.1033 46.0329V47.2255L63.9846 50.6715V48.7175Z" fill="white"/>
<path d="M95.969 59.6594C104.318 59.9157 111.33 65.0131 112.696 71.4657C112.698 71.4741 112.7 71.4825 112.702 71.491C112.775 71.8442 112.832 72.2014 112.872 72.5621C112.875 72.5859 112.877 72.6097 112.88 72.6336C112.897 72.8021 112.911 72.9715 112.92 73.1415C112.922 73.1723 112.923 73.2032 112.925 73.2341C112.933 73.4079 112.938 73.5821 112.938 73.7573C112.938 81.2557 105.285 86.9382 95.9691 86.456C95.7213 86.4432 95.4751 86.4253 95.23 86.4041C95.206 86.402 95.1819 86.4004 95.158 86.3981C94.926 86.3772 94.6956 86.352 94.4664 86.3239C94.4307 86.3195 94.3949 86.3153 94.3594 86.3107C94.1375 86.2824 93.9172 86.2501 93.6981 86.2149C93.6567 86.2083 93.6155 86.2016 93.5743 86.1947C93.3593 86.1589 93.1456 86.1199 92.9334 86.0777C92.8904 86.0692 92.8476 86.0602 92.8047 86.0514C92.5936 86.008 92.3838 85.9621 92.1757 85.9126C92.1354 85.9029 92.0955 85.8927 92.0553 85.8829C91.8486 85.8324 91.6431 85.7796 91.4396 85.7231C91.4031 85.713 91.3669 85.7021 91.3305 85.6918C91.1473 85.6398 90.9655 85.5854 90.7851 85.5287C90.7394 85.5143 90.6933 85.5006 90.6477 85.4859C90.4646 85.427 90.2836 85.3649 90.1035 85.3011C90.0646 85.2874 90.0248 85.2752 89.986 85.2613C89.9865 85.2608 89.987 85.2604 89.9875 85.2599C83.7946 83.0261 79.4407 77.9987 79.4407 72.3764C79.4408 65.0728 86.7873 59.3776 95.969 59.6594Z" fill="url(#paint82_linear_145_46)"/>
<path d="M77.6732 72.3764C77.6732 79.6799 85.0197 85.9809 94.2015 86.4561C103.518 86.9383 111.171 81.2558 111.171 73.7574C111.171 66.259 103.518 59.9454 94.2015 59.6594C85.0197 59.3777 77.6732 65.0729 77.6732 72.3764Z" fill="url(#paint83_linear_145_46)"/>
<g opacity="0.3">
<path d="M90.1487 82.8448C92.1592 78.9931 90.1268 75.2127 92.8464 72.7754C95.6214 70.2886 99.2455 72.8545 103.169 70.885C104.692 70.1203 106.39 68.6062 107.655 65.3984C109.858 67.7574 111.171 70.6604 111.171 73.7578C111.171 81.2562 103.518 86.9387 94.2014 86.4565C92.0862 86.347 90.0695 85.9286 88.2185 85.2616C89.1306 84.4691 89.7352 83.637 90.1487 82.8448Z" fill="url(#paint84_linear_145_46)"/>
</g>
<path d="M86.2212 69.9077C85.5654 69.9137 85.0624 70.2019 84.7086 70.7698C84.3567 71.3345 84.1816 72.1188 84.1816 73.1251C84.1816 75.2192 84.8539 76.295 86.2212 76.3538C86.804 76.3789 87.5173 76.2402 88.3654 75.9344V77.6618C87.6676 77.9554 86.8973 78.077 86.0575 78.0295C84.8705 77.9624 83.9777 77.4983 83.3671 76.6427C82.7624 75.7957 82.4624 74.6113 82.4624 73.0829C82.4624 72.1203 82.6095 71.2774 82.9049 70.5512C83.2018 69.8215 83.6309 69.2566 84.1951 68.8565C84.7645 68.4527 85.4387 68.2405 86.2211 68.2228C87.0287 68.2045 87.8508 68.4131 88.6878 68.853L88.1027 70.5338C87.7851 70.3632 87.4672 70.2154 87.1491 70.0902C86.8325 69.9656 86.5233 69.905 86.2212 69.9077Z" fill="white"/>
<path d="M92.6239 74.0603L90.2493 74.0051V72.5283L92.6239 72.5562V69.8775L94.0072 69.8652V72.5724L96.5248 72.6019V74.1511L94.0072 74.0926V76.765L92.6239 76.7048V74.0603Z" fill="white"/>
<path d="M101.086 74.2565L98.3962 74.194V72.6232L101.086 72.6547V69.802L102.656 69.7881V72.6731L105.519 72.7065V74.3596L102.656 74.293V77.141L101.086 77.0726V74.2565Z" fill="white"/>
<path d="M56.7317 119.381C55.1059 117.344 54.1696 114.954 54.1696 112.397C54.1696 104.961 62.0865 98.9336 71.8525 98.9336C81.6186 98.9336 89.5355 104.961 89.5355 112.397C89.5355 119.832 81.6186 125.86 71.8525 125.86C68.1924 125.86 64.7919 125.013 61.9707 123.563C60.1059 123.881 57.2112 124.416 55.6837 124.7C55.2339 124.784 54.8654 124.344 55.0264 123.916L56.7317 119.381Z" fill="url(#paint85_linear_145_46)"/>
<g opacity="0.2">
<path d="M62.176 115.246C66.141 113.579 70.5013 117.097 73.2273 114.643C75.9751 112.169 73.0067 107.278 75.6384 103.792C76.8932 102.131 79.0015 101.344 81.4134 101.069C86.2995 103.465 89.5355 107.643 89.5355 112.396C89.5355 119.832 81.6186 125.86 71.8525 125.86C68.1924 125.86 64.7919 125.013 61.9707 123.563C60.4994 123.814 58.3873 124.199 56.811 124.491C57.9738 118.462 60.1125 116.113 62.176 115.246Z" fill="url(#paint86_linear_145_46)"/>
</g>
<path d="M83.3145 108.167C83.3145 108.53 83.0205 108.824 82.6579 108.824H60.7405C60.3779 108.824 60.0839 108.53 60.0839 108.167V108.064C60.0839 107.701 60.3779 107.407 60.7405 107.407H82.6579C83.0205 107.407 83.3145 107.701 83.3145 108.064V108.167Z" fill="white"/>
<path d="M83.3145 112.133C83.3145 112.496 83.0205 112.79 82.6579 112.79H60.7405C60.3779 112.79 60.0839 112.496 60.0839 112.133V112.03C60.0839 111.667 60.3779 111.373 60.7405 111.373H82.6579C83.0205 111.373 83.3145 111.667 83.3145 112.03V112.133Z" fill="white"/>
<path d="M72.2659 116.081C72.2659 116.454 71.9633 116.756 71.5901 116.756H60.7599C60.3867 116.756 60.0841 116.454 60.0841 116.081V116.016C60.0841 115.642 60.3867 115.34 60.7599 115.34H71.5901C71.9633 115.34 72.2659 115.642 72.2659 116.016V116.081Z" fill="white"/>
<defs>
<linearGradient id="paint0_linear_145_46" x1="118.605" y1="256.502" x2="119.145" y2="210.555" gradientUnits="userSpaceOnUse">
<stop offset="0.494" stop-color="#EBEFF2"/>
<stop offset="1" stop-color="white"/>
</linearGradient>
<linearGradient id="paint1_linear_145_46" x1="95.8849" y1="108.223" x2="184.874" y2="271.441" gradientUnits="userSpaceOnUse">
<stop stop-color="#444B8C"/>
<stop offset="0.9964" stop-color="#26264F"/>
</linearGradient>
<linearGradient id="paint2_linear_145_46" x1="109.148" y1="60.4234" x2="125.122" y2="157.79" gradientUnits="userSpaceOnUse">
<stop offset="0.0036" stop-color="#E38DDD"/>
<stop offset="1" stop-color="#9571F6"/>
</linearGradient>
<linearGradient id="paint3_linear_145_46" x1="100.838" y1="88.7954" x2="138.295" y2="88.7954" gradientUnits="userSpaceOnUse">
<stop stop-color="#FF9085"/>
<stop offset="1" stop-color="#FB6FBB"/>
</linearGradient>
<linearGradient id="paint4_linear_145_46" x1="100.838" y1="92.4844" x2="138.295" y2="92.4844" gradientUnits="userSpaceOnUse">
<stop stop-color="#FF9085"/>
<stop offset="1" stop-color="#FB6FBB"/>
</linearGradient>
<linearGradient id="paint5_linear_145_46" x1="94.2582" y1="103.387" x2="120.871" y2="103.387" gradientUnits="userSpaceOnUse">
<stop stop-color="#FF9085"/>
<stop offset="1" stop-color="#FB6FBB"/>
</linearGradient>
<linearGradient id="paint6_linear_145_46" x1="109.488" y1="60.4825" x2="124.104" y2="149.571" gradientUnits="userSpaceOnUse">
<stop offset="0.0036" stop-color="#E38DDD"/>
<stop offset="1" stop-color="#9571F6"/>
</linearGradient>
<linearGradient id="paint7_linear_145_46" x1="85.5553" y1="80.7767" x2="112.151" y2="80.7767" gradientUnits="userSpaceOnUse">
<stop stop-color="#FF9085"/>
<stop offset="1" stop-color="#FB6FBB"/>
</linearGradient>
<linearGradient id="paint8_linear_145_46" x1="100.838" y1="162.596" x2="138.295" y2="162.596" gradientUnits="userSpaceOnUse">
<stop stop-color="#FF9085"/>
<stop offset="1" stop-color="#FB6FBB"/>
</linearGradient>
<linearGradient id="paint9_linear_145_46" x1="100.838" y1="166.284" x2="138.295" y2="166.284" gradientUnits="userSpaceOnUse">
<stop stop-color="#FF9085"/>
<stop offset="1" stop-color="#FB6FBB"/>
</linearGradient>
<linearGradient id="paint10_linear_145_46" x1="117.949" y1="169.34" x2="154.436" y2="169.34" gradientUnits="userSpaceOnUse">
<stop stop-color="#FF9085"/>
<stop offset="1" stop-color="#FB6FBB"/>
</linearGradient>
<linearGradient id="paint11_linear_145_46" x1="120.846" y1="79.4408" x2="132.263" y2="149.028" gradientUnits="userSpaceOnUse">
<stop offset="0.0036" stop-color="#E38DDD"/>
<stop offset="1" stop-color="#9571F6"/>
</linearGradient>
<linearGradient id="paint12_linear_145_46" x1="85.5553" y1="155.764" x2="112.151" y2="155.764" gradientUnits="userSpaceOnUse">
<stop stop-color="#FF9085"/>
<stop offset="1" stop-color="#FB6FBB"/>
</linearGradient>
<linearGradient id="paint13_linear_145_46" x1="94.2582" y1="118.285" x2="132.091" y2="118.285" gradientUnits="userSpaceOnUse">
<stop stop-color="#FF9085"/>
<stop offset="1" stop-color="#FB6FBB"/>
</linearGradient>
<linearGradient id="paint14_linear_145_46" x1="100.838" y1="125.716" x2="138.295" y2="125.716" gradientUnits="userSpaceOnUse">
<stop stop-color="#FF9085"/>
<stop offset="1" stop-color="#FB6FBB"/>
</linearGradient>
<linearGradient id="paint15_linear_145_46" x1="100.838" y1="129.404" x2="138.295" y2="129.404" gradientUnits="userSpaceOnUse">
<stop stop-color="#FF9085"/>
<stop offset="1" stop-color="#FB6FBB"/>
</linearGradient>
<linearGradient id="paint16_linear_145_46" x1="85.6216" y1="133.286" x2="109.625" y2="133.286" gradientUnits="userSpaceOnUse">
<stop stop-color="#FF9085"/>
<stop offset="1" stop-color="#FB6FBB"/>
</linearGradient>
<linearGradient id="paint17_linear_145_46" x1="105.608" y1="66.3794" x2="118.876" y2="147.25" gradientUnits="userSpaceOnUse">
<stop offset="0.0036" stop-color="#E38DDD"/>
<stop offset="1" stop-color="#9571F6"/>
</linearGradient>
<linearGradient id="paint18_linear_145_46" x1="100.838" y1="144.186" x2="134.697" y2="144.186" gradientUnits="userSpaceOnUse">
<stop stop-color="#FF9085"/>
<stop offset="1" stop-color="#FB6FBB"/>
</linearGradient>
<linearGradient id="paint19_linear_145_46" x1="108.752" y1="147.72" x2="142.204" y2="147.72" gradientUnits="userSpaceOnUse">
<stop stop-color="#FF9085"/>
<stop offset="1" stop-color="#FB6FBB"/>
</linearGradient>
<linearGradient id="paint20_linear_145_46" x1="108.752" y1="151.39" x2="142.204" y2="151.39" gradientUnits="userSpaceOnUse">
<stop stop-color="#FF9085"/>
<stop offset="1" stop-color="#FB6FBB"/>
</linearGradient>
<linearGradient id="paint21_linear_145_46" x1="90.3811" y1="62.8973" x2="105.085" y2="152.518" gradientUnits="userSpaceOnUse">
<stop offset="0.0036" stop-color="#E38DDD"/>
<stop offset="1" stop-color="#9571F6"/>
</linearGradient>
<linearGradient id="paint22_linear_145_46" x1="227.712" y1="26.1662" x2="187.398" y2="93.0655" gradientUnits="userSpaceOnUse">
<stop stop-color="#AA80F9"/>
<stop offset="0.9964" stop-color="#6165D7"/>
</linearGradient>
<linearGradient id="paint23_linear_145_46" x1="190.447" y1="106.44" x2="194.167" y2="75.1267" gradientUnits="userSpaceOnUse">
<stop stop-color="#AA80F9"/>
<stop offset="0.9964" stop-color="#6165D7"/>
</linearGradient>
<linearGradient id="paint24_linear_145_46" x1="214.495" y1="49.3663" x2="194.353" y2="82.5448" gradientUnits="userSpaceOnUse">
<stop stop-color="#AA80F9"/>
<stop offset="0.9964" stop-color="#6165D7"/>
</linearGradient>
<linearGradient id="paint25_linear_145_46" x1="221.903" y1="41.3481" x2="173.421" y2="112.166" gradientUnits="userSpaceOnUse">
<stop stop-color="#AA80F9"/>
<stop offset="0.9964" stop-color="#6165D7"/>
</linearGradient>
<linearGradient id="paint26_linear_145_46" x1="208.533" y1="116.356" x2="210.746" y2="69.943" gradientUnits="userSpaceOnUse">
<stop stop-color="#FFC444"/>
<stop offset="0.9964" stop-color="#F36F56"/>
</linearGradient>
<linearGradient id="paint27_linear_145_46" x1="210.454" y1="137.843" x2="215.829" y2="110.525" gradientUnits="userSpaceOnUse">
<stop stop-color="#FFC444"/>
<stop offset="0.9964" stop-color="#F36F56"/>
</linearGradient>
<linearGradient id="paint28_linear_145_46" x1="177.721" y1="117.873" x2="200.037" y2="224.869" gradientUnits="userSpaceOnUse">
<stop stop-color="#FF9085"/>
<stop offset="1" stop-color="#FB6FBB"/>
</linearGradient>
<linearGradient id="paint29_linear_145_46" x1="189.874" y1="229.939" x2="196.554" y2="230.132" gradientUnits="userSpaceOnUse">
<stop stop-color="#311944"/>
<stop offset="1" stop-color="#893976"/>
</linearGradient>
<linearGradient id="paint30_linear_145_46" x1="168.18" y1="228.1" x2="175.026" y2="229.982" gradientUnits="userSpaceOnUse">
<stop stop-color="#311944"/>
<stop offset="1" stop-color="#893976"/>
</linearGradient>
<linearGradient id="paint31_linear_145_46" x1="170.512" y1="216.542" x2="189.451" y2="173.85" gradientUnits="userSpaceOnUse">
<stop stop-color="#311944"/>
<stop offset="1" stop-color="#893976"/>
</linearGradient>
<linearGradient id="paint32_linear_145_46" x1="179.813" y1="218.565" x2="203.839" y2="178.513" gradientUnits="userSpaceOnUse">
<stop stop-color="#311944"/>
<stop offset="1" stop-color="#893976"/>
</linearGradient>
<linearGradient id="paint33_linear_145_46" x1="185.448" y1="116.261" x2="207.764" y2="223.257" gradientUnits="userSpaceOnUse">
<stop stop-color="#FF9085"/>
<stop offset="1" stop-color="#FB6FBB"/>
</linearGradient>
<linearGradient id="paint34_linear_145_46" x1="204.64" y1="207.768" x2="196.17" y2="167.537" gradientUnits="userSpaceOnUse">
<stop stop-color="#FF9085"/>
<stop offset="1" stop-color="#FB6FBB"/>
</linearGradient>
<linearGradient id="paint35_linear_145_46" x1="200.735" y1="113.073" x2="223.052" y2="220.069" gradientUnits="userSpaceOnUse">
<stop stop-color="#FF9085"/>
<stop offset="1" stop-color="#FB6FBB"/>
</linearGradient>
<linearGradient id="paint36_linear_145_46" x1="181.709" y1="172.808" x2="185.321" y2="162.576" gradientUnits="userSpaceOnUse">
<stop offset="0.0036" stop-color="#E38DDD"/>
<stop offset="1" stop-color="#9571F6"/>
</linearGradient>
<linearGradient id="paint37_linear_145_46" x1="197.485" y1="157.983" x2="196.161" y2="167.131" gradientUnits="userSpaceOnUse">
<stop offset="0.0036" stop-color="#E38DDD"/>
<stop offset="1" stop-color="#9571F6"/>
</linearGradient>
<linearGradient id="paint38_linear_145_46" x1="171.249" y1="158.786" x2="178.289" y2="148.788" gradientUnits="userSpaceOnUse">
<stop offset="0.0036" stop-color="#E38DDD"/>
<stop offset="1" stop-color="#9571F6"/>
</linearGradient>
<linearGradient id="paint39_linear_145_46" x1="184.754" y1="175.331" x2="169.346" y2="144.034" gradientUnits="userSpaceOnUse">
<stop offset="0.0036" stop-color="#E38DDD"/>
<stop offset="1" stop-color="#9571F6"/>
</linearGradient>
<linearGradient id="paint40_linear_145_46" x1="192.28" y1="155.243" x2="158.431" y2="155.243" gradientUnits="userSpaceOnUse">
<stop offset="0.0036" stop-color="#E38DDD"/>
<stop offset="1" stop-color="#9571F6"/>
</linearGradient>
<linearGradient id="paint41_linear_145_46" x1="198.295" y1="132.242" x2="193.288" y2="119.387" gradientUnits="userSpaceOnUse">
<stop stop-color="#311944"/>
<stop offset="1" stop-color="#6B3976"/>
</linearGradient>
<linearGradient id="paint42_linear_145_46" x1="196.748" y1="132.85" x2="191.737" y2="119.982" gradientUnits="userSpaceOnUse">
<stop stop-color="#311944"/>
<stop offset="1" stop-color="#6B3976"/>
</linearGradient>
<linearGradient id="paint43_linear_145_46" x1="39.6307" y1="161.405" x2="32.6416" y2="133.448" gradientUnits="userSpaceOnUse">
<stop offset="0.0036" stop-color="#6165D7"/>
<stop offset="1" stop-color="#AA80F9"/>
</linearGradient>
<linearGradient id="paint44_linear_145_46" x1="32.9577" y1="226.166" x2="29.2619" y2="228.622" gradientUnits="userSpaceOnUse">
<stop stop-color="#444B8C"/>
<stop offset="0.9964" stop-color="#26264F"/>
</linearGradient>
<linearGradient id="paint45_linear_145_46" x1="29.3816" y1="228.645" x2="30.1902" y2="222.926" gradientUnits="userSpaceOnUse">
<stop stop-color="#FFC444"/>
<stop offset="0.9964" stop-color="#F36F56"/>
</linearGradient>
<linearGradient id="paint46_linear_145_46" x1="32.68" y1="225.749" x2="28.9843" y2="228.205" gradientUnits="userSpaceOnUse">
<stop stop-color="#444B8C"/>
<stop offset="0.9964" stop-color="#26264F"/>
</linearGradient>
<linearGradient id="paint47_linear_145_46" x1="56.424" y1="228" x2="53.1085" y2="230.949" gradientUnits="userSpaceOnUse">
<stop stop-color="#444B8C"/>
<stop offset="0.9964" stop-color="#26264F"/>
</linearGradient>
<linearGradient id="paint48_linear_145_46" x1="53.2303" y1="230.955" x2="53.2303" y2="225.179" gradientUnits="userSpaceOnUse">
<stop stop-color="#FFC444"/>
<stop offset="0.9964" stop-color="#F36F56"/>
</linearGradient>
<linearGradient id="paint49_linear_145_46" x1="53.5023" y1="233.603" x2="31.8826" y2="146.314" gradientUnits="userSpaceOnUse">
<stop stop-color="#444B8C"/>
<stop offset="0.9964" stop-color="#26264F"/>
</linearGradient>
<linearGradient id="paint50_linear_145_46" x1="71.0504" y1="168.529" x2="16.383" y2="130.51" gradientUnits="userSpaceOnUse">
<stop offset="0.0036" stop-color="#6165D7"/>
<stop offset="1" stop-color="#AA80F9"/>
</linearGradient>
<linearGradient id="paint51_linear_145_46" x1="56.0906" y1="227.624" x2="52.7752" y2="230.573" gradientUnits="userSpaceOnUse">
<stop stop-color="#444B8C"/>
<stop offset="0.9964" stop-color="#26264F"/>
</linearGradient>
<linearGradient id="paint52_linear_145_46" x1="52.8856" y1="122.224" x2="36.5486" y2="146.01" gradientUnits="userSpaceOnUse">
<stop stop-color="#FFC444"/>
<stop offset="0.9964" stop-color="#F36F56"/>
</linearGradient>
<linearGradient id="paint53_linear_145_46" x1="52.0881" y1="121.676" x2="35.7515" y2="145.462" gradientUnits="userSpaceOnUse">
<stop stop-color="#FFC444"/>
<stop offset="0.9964" stop-color="#F36F56"/>
</linearGradient>
<linearGradient id="paint54_linear_145_46" x1="33.1661" y1="155.377" x2="36.4674" y2="155.377" gradientUnits="userSpaceOnUse">
<stop offset="0.0036" stop-color="#6165D7"/>
<stop offset="1" stop-color="#AA80F9"/>
</linearGradient>
<linearGradient id="paint55_linear_145_46" x1="35.5344" y1="160.501" x2="60.4134" y2="160.501" gradientUnits="userSpaceOnUse">
<stop offset="0.0036" stop-color="#6165D7"/>
<stop offset="1" stop-color="#AA80F9"/>
</linearGradient>
<linearGradient id="paint56_linear_145_46" x1="79.6245" y1="143.703" x2="84.585" y2="149.944" gradientUnits="userSpaceOnUse">
<stop stop-color="#FFC444"/>
<stop offset="0.9964" stop-color="#F36F56"/>
</linearGradient>
<linearGradient id="paint57_linear_145_46" x1="24.8041" y1="171.555" x2="77.0492" y2="135.22" gradientUnits="userSpaceOnUse">
<stop offset="0.0036" stop-color="#6165D7"/>
<stop offset="1" stop-color="#AA80F9"/>
</linearGradient>
<linearGradient id="paint58_linear_145_46" x1="136.372" y1="55.3324" x2="150.071" y2="55.3324" gradientUnits="userSpaceOnUse">
<stop stop-color="#FFC444"/>
<stop offset="0.9964" stop-color="#F36F56"/>
</linearGradient>
<linearGradient id="paint59_linear_145_46" x1="112.78" y1="81.0545" x2="139.346" y2="81.0545" gradientUnits="userSpaceOnUse">
<stop stop-color="#AA80F9"/>
<stop offset="0.9964" stop-color="#6165D7"/>
</linearGradient>
<linearGradient id="paint60_linear_145_46" x1="135.604" y1="110.453" x2="140.537" y2="130.558" gradientUnits="userSpaceOnUse">
<stop offset="0.0036" stop-color="#E38DDD"/>
<stop offset="1" stop-color="#9571F6"/>
</linearGradient>
<linearGradient id="paint61_linear_145_46" x1="125.268" y1="82.0538" x2="151.834" y2="82.0538" gradientUnits="userSpaceOnUse">
<stop stop-color="#AA80F9"/>
<stop offset="0.9964" stop-color="#6165D7"/>
</linearGradient>
<linearGradient id="paint62_linear_145_46" x1="137.065" y1="116.753" x2="138.792" y2="116.753" gradientUnits="userSpaceOnUse">
<stop stop-color="#311944"/>
<stop offset="1" stop-color="#A03976"/>
</linearGradient>
<linearGradient id="paint63_linear_145_46" x1="126.966" y1="64.56" x2="150.785" y2="93.5018" gradientUnits="userSpaceOnUse">
<stop stop-color="#AA80F9"/>
<stop offset="0.9964" stop-color="#6165D7"/>
</linearGradient>
<linearGradient id="paint64_linear_145_46" x1="193.419" y1="24.7229" x2="163.3" y2="52.6728" gradientUnits="userSpaceOnUse">
<stop stop-color="#444B8C"/>
<stop offset="0.9964" stop-color="#26264F"/>
</linearGradient>
<linearGradient id="paint65_linear_145_46" x1="168.025" y1="65.4173" x2="142.441" y2="42.4152" gradientUnits="userSpaceOnUse">
<stop stop-color="#FFC444"/>
<stop offset="0.9964" stop-color="#F36F56"/>
</linearGradient>
<linearGradient id="paint66_linear_145_46" x1="151.67" y1="39.0142" x2="160.691" y2="39.0142" gradientUnits="userSpaceOnUse">
<stop stop-color="#311944"/>
<stop offset="1" stop-color="#A03976"/>
</linearGradient>
<linearGradient id="paint67_linear_145_46" x1="152.812" y1="62.3936" x2="152.618" y2="44.5918" gradientUnits="userSpaceOnUse">
<stop stop-color="#311944"/>
<stop offset="1" stop-color="#A03976"/>
</linearGradient>
<linearGradient id="paint68_linear_145_46" x1="167.184" y1="66.3521" x2="141.6" y2="43.3499" gradientUnits="userSpaceOnUse">
<stop stop-color="#FFC444"/>
<stop offset="0.9964" stop-color="#F36F56"/>
</linearGradient>
<linearGradient id="paint69_linear_145_46" x1="158.753" y1="70.0028" x2="135.484" y2="70.0028" gradientUnits="userSpaceOnUse">
<stop offset="0.0036" stop-color="#E38DDD"/>
<stop offset="1" stop-color="#9571F6"/>
</linearGradient>
<linearGradient id="paint70_linear_145_46" x1="147.689" y1="63.8925" x2="115.749" y2="63.8925" gradientUnits="userSpaceOnUse">
<stop offset="0.0036" stop-color="#E38DDD"/>
<stop offset="1" stop-color="#9571F6"/>
</linearGradient>
<linearGradient id="paint71_linear_145_46" x1="123.202" y1="55.4181" x2="138.458" y2="70.5523" gradientUnits="userSpaceOnUse">
<stop offset="0.0036" stop-color="#E38DDD"/>
<stop offset="1" stop-color="#9571F6"/>
</linearGradient>
<linearGradient id="paint72_linear_145_46" x1="157.423" y1="65.2459" x2="176.961" y2="46.0209" gradientUnits="userSpaceOnUse">
<stop stop-color="#FFC444"/>
<stop offset="0.9964" stop-color="#F36F56"/>
</linearGradient>
<linearGradient id="paint73_linear_145_46" x1="147.337" y1="67.5043" x2="154.015" y2="67.5043" gradientUnits="userSpaceOnUse">
<stop stop-color="#311944"/>
<stop offset="1" stop-color="#A03976"/>
</linearGradient>
<linearGradient id="paint74_linear_145_46" x1="83.3191" y1="198.686" x2="104.962" y2="224.422" gradientUnits="userSpaceOnUse">
<stop offset="0.0036" stop-color="#E38DDD"/>
<stop offset="1" stop-color="#9571F6"/>
</linearGradient>
<linearGradient id="paint75_linear_145_46" x1="85.199" y1="228.295" x2="86.0895" y2="212.643" gradientUnits="userSpaceOnUse">
<stop stop-color="#AA80F9"/>
<stop offset="0.9964" stop-color="#6165D7"/>
</linearGradient>
<linearGradient id="paint76_linear_145_46" x1="82.2663" y1="19.0215" x2="107.617" y2="25.0099" gradientUnits="userSpaceOnUse">
<stop stop-color="#311944"/>
<stop offset="1" stop-color="#893976"/>
</linearGradient>
<linearGradient id="paint77_linear_145_46" x1="103.395" y1="12.1387" x2="81.6616" y2="52.4479" gradientUnits="userSpaceOnUse">
<stop offset="0.0036" stop-color="#E38DDD"/>
<stop offset="1" stop-color="#9571F6"/>
</linearGradient>
<linearGradient id="paint78_linear_145_46" x1="109.765" y1="14.8023" x2="88.4675" y2="57.5417" gradientUnits="userSpaceOnUse">
<stop offset="0.0036" stop-color="#E38DDD"/>
<stop offset="1" stop-color="#9571F6"/>
</linearGradient>
<linearGradient id="paint79_linear_145_46" x1="99.3648" y1="24.3077" x2="56.0411" y2="50.2126" gradientUnits="userSpaceOnUse">
<stop stop-color="#311944"/>
<stop offset="1" stop-color="#893976"/>
</linearGradient>
<linearGradient id="paint80_linear_145_46" x1="67.3514" y1="34.0518" x2="43.1688" y2="78.9033" gradientUnits="userSpaceOnUse">
<stop stop-color="#FF9085"/>
<stop offset="1" stop-color="#FB6FBB"/>
</linearGradient>
<linearGradient id="paint81_linear_145_46" x1="74.4394" y1="37.0162" x2="50.7417" y2="84.5718" gradientUnits="userSpaceOnUse">
<stop stop-color="#FF9085"/>
<stop offset="1" stop-color="#FB6FBB"/>
</linearGradient>
<linearGradient id="paint82_linear_145_46" x1="79.1757" y1="69.047" x2="104.527" y2="75.0353" gradientUnits="userSpaceOnUse">
<stop stop-color="#FFC444"/>
<stop offset="0.9964" stop-color="#F36F56"/>
</linearGradient>
<linearGradient id="paint83_linear_145_46" x1="100.304" y1="62.1641" x2="78.571" y2="102.473" gradientUnits="userSpaceOnUse">
<stop stop-color="#FFC444"/>
<stop offset="0.9964" stop-color="#F36F56"/>
</linearGradient>
<linearGradient id="paint84_linear_145_46" x1="106.675" y1="64.8276" x2="85.377" y2="107.567" gradientUnits="userSpaceOnUse">
<stop stop-color="#FFC444"/>
<stop offset="0.9964" stop-color="#F36F56"/>
</linearGradient>
<linearGradient id="paint85_linear_145_46" x1="71.6131" y1="105.408" x2="73.9478" y2="173.551" gradientUnits="userSpaceOnUse">
<stop offset="0.0036" stop-color="#E38DDD"/>
<stop offset="1" stop-color="#9571F6"/>
</linearGradient>
<linearGradient id="paint86_linear_145_46" x1="84.8675" y1="103.093" x2="54.1775" y2="143.511" gradientUnits="userSpaceOnUse">
<stop offset="0.0036" stop-color="#E38DDD"/>
<stop offset="1" stop-color="#9571F6"/>
</linearGradient>
</defs>
</svg>
