<svg width="184" height="170" viewBox="0 0 184 170" fill="none" xmlns="http://www.w3.org/2000/svg">
<path d="M69.7189 3.47529C64.1676 0.409711 57.0495 0.394083 51.4844 3.43485C45.9193 6.47562 42.0892 12.4754 41.6711 18.8032C41.4818 21.6776 41.9486 24.564 41.7869 27.4403C41.4 34.2901 37.489 40.5912 37.2354 47.4474C36.9468 55.2281 41.4009 62.5888 41.184 70.3722C41.0692 74.4789 39.6559 78.4322 39.0824 82.4994C38.509 86.5675 38.9657 91.1595 41.9091 94.0247C44.8341 96.8725 49.3065 97.2153 53.3848 97.3963C66.4346 97.9743 79.4845 98.5532 92.5334 99.1312C96.7164 99.3169 100.979 99.4942 105.022 98.398C109.063 97.3017 112.923 94.7075 114.471 90.8167C115.348 88.614 115.428 86.1852 115.433 83.8144C115.453 76.0935 114.778 68.2384 111.929 61.0633C110.245 56.8206 107.814 52.848 106.742 48.4105C105.473 43.156 106.201 37.6561 106.072 32.2518C105.9 24.9987 104.148 17.7878 100.973 11.2642C99.283 7.79155 97.0794 4.3979 93.7859 2.38175C91.1862 0.790149 88.0922 0.179987 85.0468 0.0347946C79.8401 -0.211481 74.5755 0.840692 69.7189 3.47529Z" fill="#945238"/>
<path d="M48.9942 9.77441C43.9326 16.7207 38.6451 24.3423 38.7949 32.9362C38.9391 41.26 44.2534 49.2557 42.6158 57.4186C42.0902 60.0385 40.8698 62.4627 40.1034 65.0228C37.9063 72.3578 39.7634 80.7725 44.8433 86.5012" stroke="#945238" stroke-width="1.14097" stroke-miterlimit="10"/>
<path d="M97.4607 8.97266C99.8876 15.2931 103.013 21.3462 106.759 26.9848C108.314 29.3244 110.012 31.6769 110.601 34.4227C111.859 40.3029 107.736 46.1162 108.029 52.1214C108.266 56.9725 111.372 61.4523 111.038 66.297" stroke="#945238" stroke-width="1.14097" stroke-miterlimit="10"/>
<path d="M94.6075 31.4751C95.4815 30.24 96.5768 29.0987 97.9801 28.5326C99.3824 27.9666 101.137 28.0888 102.23 29.1336C102.706 29.5885 103.03 30.184 103.251 30.8033C104.122 33.2376 103.417 36.0863 101.733 38.0473C100.049 40.0083 97.4995 41.1156 94.9237 41.338C94.4137 37.9793 94.2675 34.5636 94.6075 31.4751Z" fill="#FFCFBA"/>
<path d="M99.7462 38.2922C99.7462 38.9272 99.2316 39.4418 98.5966 39.4418C97.9616 39.4418 97.447 38.9272 97.447 38.2922C97.447 37.6572 97.9616 37.1426 98.5966 37.1426C99.2316 37.1426 99.7462 37.6572 99.7462 38.2922Z" fill="#301C14"/>
<path d="M95.9639 35.6689C95.9639 35.6689 99.1057 35.0799 100.874 32.1338" stroke="#301C14" stroke-width="0.570485" stroke-miterlimit="10"/>
<path d="M48.8766 35.2934C48.0725 33.6513 46.7602 32.2609 45.1668 31.364C44.0457 30.7327 42.5239 30.39 41.5554 31.2363C40.732 31.9568 40.6852 33.2175 40.8542 34.2982C41.1906 36.4366 42.149 38.4959 43.6837 40.0232C45.2174 41.5505 47.3374 42.5135 49.5015 42.5135C49.189 39.9478 49.7891 37.157 48.8766 35.2934Z" fill="#FFCFBA"/>
<path d="M46.7117 41.0269C47.2943 41.0269 47.7666 40.5546 47.7666 39.9719C47.7666 39.3893 47.2943 38.917 46.7117 38.917C46.129 38.917 45.6567 39.3893 45.6567 39.9719C45.6567 40.5546 46.129 41.0269 46.7117 41.0269Z" fill="#301C14"/>
<path d="M44.0328 35.4834C44.0328 35.4834 46.0922 37.7385 48.6413 37.5418" stroke="#301C14" stroke-width="0.570485" stroke-miterlimit="10"/>
<path d="M98.3983 65.9259C98.5177 61.2256 97.6916 58.0506 97.3957 53.3576C97.1173 48.9577 97.3939 43.0398 96.7525 38.6776C95.3511 29.15 92.9315 19.4231 87.009 11.8299C84.4323 8.52631 80.6352 9.65844 76.5762 8.62463C73.961 7.9584 71.1959 8.10544 68.5466 8.61821C63.1965 9.65201 58.4493 9.95708 54.8213 14.0225C49.7469 19.7098 48.0956 25.9567 48.2178 33.5775C48.397 44.6884 52.047 56.3616 64.8166 61.2439L63.4373 69.9812C76.1186 76.4579 88.5555 72.9898 98.3983 65.9259Z" fill="#FFCFBA"/>
<path d="M64.822 61.1736C69.1374 61.5412 73.6245 59.7428 76.4043 56.4043" stroke="#301C14" stroke-width="0.570485" stroke-miterlimit="10"/>
<path d="M62.6094 31.5928C62.6094 31.5928 62.6884 33.9498 62.1472 36.0248C61.6059 38.1007 60.4462 39.8945 60.8276 40.4137C61.2733 41.0202 62.2814 41.3611 63.7112 40.908" fill="#FFB18F"/>
<path d="M62.6094 31.5928C62.6094 31.5928 62.6884 33.9498 62.1472 36.0248C61.6059 38.1007 60.4462 39.8945 60.8276 40.4137C61.2733 41.0202 62.2814 41.3611 63.7112 40.908" stroke="#301C14" stroke-width="0.570485" stroke-miterlimit="10"/>
<path d="M70.0969 43.5557C70.0969 43.5557 69.0796 47.2599 63.9951 46.5542" stroke="#301C14" stroke-width="0.570485" stroke-miterlimit="10"/>
<path d="M69.3783 34.4014C69.3783 35.0281 69.8672 35.5372 70.47 35.5372C71.0728 35.5372 71.5617 35.0291 71.5617 34.4014C71.5617 33.7738 71.0728 33.2656 70.47 33.2656C69.8672 33.2656 69.3783 33.7738 69.3783 34.4014Z" fill="#301C14"/>
<path d="M73.3526 32.1192C73.621 31.0836 69.2937 29.9992 68.8259 30.8575C68.3573 31.7158 73.0567 33.2615 73.3526 32.1192Z" fill="#945238"/>
<path d="M54.9436 35.0665C54.9436 35.6941 55.4325 36.2023 56.0353 36.2023C56.6381 36.2023 57.127 35.6941 57.127 35.0665C57.127 34.4388 56.6381 33.9307 56.0353 33.9307C55.4325 33.9307 54.9436 34.4388 54.9436 35.0665Z" fill="#301C14"/>
<path d="M57.2401 31.1877C56.7448 30.2402 52.8365 32.3942 53.0663 33.3481C53.296 34.301 57.7868 32.2334 57.2401 31.1877Z" fill="#945238"/>
<path d="M50.5555 35.8779C53.3748 35.8779 55.6602 37.7259 55.6602 40.0058C55.6602 42.2857 53.3748 44.1337 50.5555 44.1337C50.2826 44.1337 50.0207 44.1024 49.7597 44.0684C48.9161 41.6084 48.3335 39.0336 48.0082 36.4477C48.7599 36.0948 49.6228 35.8779 50.5555 35.8779Z" fill="#FFB18F"/>
<path d="M76.3877 38.8251C76.3877 41.105 78.6731 42.953 81.4924 42.953C84.3117 42.953 86.5971 41.105 86.5971 38.8251C86.5971 36.5453 84.3117 34.6973 81.4924 34.6973C78.6731 34.6973 76.3877 36.5453 76.3877 38.8251Z" fill="#FFB18F"/>
<path d="M45.0345 30.5124C45.8864 32.6297 47.4302 38.5513 48.6404 40.4857C48.9988 37.9034 50.8027 32.9495 50.346 30.3829C57.5982 28.9116 63.8975 23.4155 66.3382 16.4297C66.5588 19.5624 65.5838 22.7649 63.654 25.2432C66.1297 22.9422 68.0999 20.1009 69.3873 16.9756C71.8822 24.384 79.7015 29.6247 87.5023 29.1157C88.0491 33.5762 90.0919 37.8401 93.5783 40.9387C93.8733 40.1264 94.1692 39.314 94.5754 37.5056C94.7234 36.583 94.8704 35.6594 95.0909 33.9539C95.5155 31.7245 98.7988 27.7942 100.992 28.3787C101.215 24.9317 100.16 23.7968 99.3677 20.4344C98.9293 18.5754 98.2999 16.6843 96.9876 15.2957C95.6754 13.9081 93.5223 13.1592 91.7919 13.9679C90.2187 11.8001 87.5244 10.804 84.9706 9.9953C82.0824 9.08004 79.8209 6.50058 76.8821 5.76635C73.0768 4.81617 68.4371 5.77277 64.6042 6.60441C59.1678 7.78433 54.9471 12.0289 51.5608 16.4435C48.3703 20.5989 42.6186 24.5062 45.0345 30.5124Z" fill="#945238"/>
<path d="M36.2081 86.7463C33.2224 89.4424 30.2359 92.1395 27.2493 94.8357C25.0604 96.8123 22.855 98.8073 21.0915 101.211C17.153 106.58 15.7442 113.499 14.6378 120.189C13.5204 126.946 12.5978 133.74 12.0271 141.894C11.2469 149.552 11.1256 157.286 11.666 164.968C50.4948 166.25 89.3659 166.112 128.753 164.311C141.475 166.077 154.396 166.251 167.158 164.828C163.779 148.466 164.935 131.386 161.987 114.931C159.039 98.4765 150.393 81.4073 135.287 76.3145C134.028 75.89 132.694 75.5536 131.394 75.8008C130.1 76.0471 128.97 76.8438 127.876 77.613C105.941 93.0456 81.7635 104.917 56.4541 112.686C53.1956 113.686 49.3691 114.52 46.6656 112.355C45.2229 111.2 44.4041 109.393 43.6947 107.633C41.2108 101.48 39.3968 95.025 36.2081 86.7463Z" fill="#FFCFBA"/>
<path d="M60.2779 67.5594C51.4258 74.3642 42.5737 81.168 33.7206 87.9727C32.9046 88.5994 32.0509 89.2767 31.6888 90.2398C31.313 91.2368 31.5372 92.3469 31.7449 93.3926C36.0575 115.056 33.2446 162.236 33.2446 162.236C33.2446 162.236 104.918 164.558 140.414 159.602C134.694 145.024 130.822 129.721 128.92 114.177C127.332 101.199 127.169 87.7062 131.616 75.4108C123.565 71.3482 103.098 62.6982 103.098 62.6982C103.098 62.6982 89.0673 72.2414 81.6993 73.5362C74.3313 74.8301 66.353 73.5858 60.2779 67.5594Z" fill="#214180"/>
<path d="M40.9352 126.597C41.2081 130 43.5027 133.163 46.6528 134.478" stroke="#122345" stroke-width="0.570485" stroke-miterlimit="10"/>
<path d="M34.8453 91.03C42.9145 85.3978 50.6731 79.3218 58.0733 72.8359" stroke="#122345" stroke-width="0.570485" stroke-miterlimit="10"/>
<path d="M104.756 65.9482C110.863 70.0237 117.647 73.0783 124.746 74.9474" stroke="#122345" stroke-width="0.570485" stroke-miterlimit="10"/>
<path d="M81.559 87.8722C78.3601 87.5414 75.6851 84.8949 74.7836 81.8091C73.8821 78.7224 74.5557 75.3296 76.0619 72.4883C77.0286 70.6651 78.3555 68.9954 80.0868 67.8715C82.7921 66.1155 86.4422 65.8848 89.3083 67.3634C92.1745 68.8429 94.1126 72.0049 94.0436 75.2295C94.0005 77.2171 93.257 79.1276 92.3206 80.8819C91.2142 82.955 89.8 84.9022 87.9327 86.3284C86.0654 87.7537 83.8232 88.1066 81.559 87.8722Z" fill="#21805D"/>
<path d="M86.0618 81.8429C87.1976 79.9012 88.3491 77.9163 88.8205 75.7164C89.0346 74.7193 89.0952 73.6442 88.6863 72.7105C88.1873 71.5711 87.0212 70.801 85.7926 70.6052C84.564 70.4086 83.2921 70.7339 82.1995 71.3275C79.2902 72.9081 77.6434 76.5168 78.3547 79.7505C78.5431 80.6079 78.8877 81.4451 79.4574 82.114C80.3001 83.1028 81.628 83.656 82.9227 83.5577C84.2166 83.4603 85.5233 82.7628 86.0618 81.8429Z" fill="#E8EBD8"/>
<path d="M63.2988 110.683C68.2905 97.668 72.3053 84.2791 75.3002 70.665" stroke="white" stroke-width="1.14097" stroke-miterlimit="10"/>
<path d="M69.1635 110.931C76.7778 100.356 85.0023 90.2214 93.7818 80.5918" stroke="white" stroke-width="1.14097" stroke-miterlimit="10"/>
<path d="M71.9788 126.663C90.6709 139.289 110.047 150.903 129.993 161.436C134.933 164.045 139.962 166.608 145.374 167.99C153.126 169.969 161.703 169.33 168.62 165.311C175.537 161.293 180.49 153.675 180.404 145.676C180.369 142.392 179.53 139.166 178.464 136.059C176.904 131.516 174.845 127.145 172.336 123.048C169.363 118.194 163.939 109.615 160.364 105.187C157.374 101.482 156.222 101.913 153.23 98.2092C153.23 98.2092 153.588 98.1017 154.159 98.4803C151.635 109.187 147.441 119.498 141.776 128.928C124.359 119.297 104.998 113.88 86.2619 107.169C85.3448 106.841 84.4185 106.504 83.6144 105.953C82.7028 105.33 81.9916 104.463 81.2188 103.672C78.1201 100.5 74.0143 98.5428 69.9673 96.7279C68.5254 96.081 66.9761 95.4294 65.4167 95.6831C63.8572 95.9358 62.409 97.5026 62.8923 99.0069C61.8457 98.3158 60.3239 98.9242 59.6742 99.9956C59.0236 101.068 59.0521 102.418 59.2745 103.652C56.5884 104.462 54.9968 107.804 56.061 110.4C54.0807 109.795 52.2501 112.22 52.5938 114.262C52.9384 116.304 54.5989 117.834 56.1951 119.154C58.951 121.432 61.8099 123.585 64.7606 125.605C66.9697 127.116 69.698 128.611 71.9788 126.663Z" fill="#FFCFBA"/>
<path d="M162.746 150.029C158.806 155.587 156.453 162.229 155.882 169.016C160.357 168.75 164.748 167.561 168.62 165.312C175.537 161.294 180.49 153.677 180.404 145.677C180.373 142.749 179.7 139.867 178.8 137.075C172.416 139.849 166.774 144.347 162.746 150.029Z" fill="#FFAD8A"/>
<path d="M124.182 119.963C130.017 122.762 135.852 125.56 141.687 128.359C143.755 129.352 146.089 130.365 148.266 129.642" stroke="#010103" stroke-width="0.570485" stroke-miterlimit="10"/>
<path d="M67.068 126.619C68.9978 127.903 71.7849 127.704 73.5144 126.161" stroke="#010103" stroke-width="0.570485" stroke-miterlimit="10"/>
<path d="M183.488 161.729H0V170H183.488V161.729Z" fill="white"/>
<path d="M16.1429 133.27C14.3565 132.913 12.5214 132.8 10.7037 132.937C10.4464 132.957 10.1818 132.983 9.95573 133.108C9.71773 133.24 9.54864 133.465 9.39242 133.686C5.14968 139.679 4.51561 148.034 7.8045 154.598C7.92855 154.847 8.06822 155.103 8.30255 155.25C8.56261 155.414 8.88975 155.412 9.1976 155.404C10.4547 155.376 11.7118 155.347 12.9689 155.319C13.1288 155.315 13.2998 155.308 13.4302 155.216C13.6342 155.072 13.66 154.785 13.6673 154.535C13.8438 148.392 14.2453 142.255 14.8702 136.142C14.9621 135.243 15.077 134.297 16.1429 133.27Z" fill="#16543D"/>
<path d="M11.2284 152.212C11.505 153.526 12.1336 155.047 13.467 155.269C14.6193 155.461 15.6669 154.527 16.2339 153.512C16.947 152.236 17.2107 150.766 17.4065 149.321C18.0185 144.792 18.0589 140.187 17.5268 135.649C17.3945 134.519 16.8643 133.078 15.722 133.15C15.0815 133.19 14.6689 133.786 14.2315 134.253C12.118 136.506 10.2626 147.633 11.2284 152.212Z" fill="#21805D"/>
<path d="M12.6382 149.235C12.8027 150.059 13.1767 151.014 13.9706 151.154C14.6562 151.274 15.2801 150.688 15.6174 150.051C16.041 149.251 16.1991 148.328 16.3149 147.421C16.6788 144.58 16.7036 141.69 16.3865 138.842C16.3075 138.133 15.9923 137.229 15.3123 137.274C14.9309 137.299 14.6856 137.673 14.4255 137.966C13.1675 139.379 12.0639 146.361 12.6382 149.235Z" fill="#E8EBD8"/>
<path d="M34.5925 133.27C32.8061 132.913 30.971 132.8 29.1533 132.937C28.896 132.957 28.6314 132.983 28.4053 133.108C28.1673 133.24 27.9991 133.465 27.842 133.686C23.5993 139.679 22.9652 148.034 26.2541 154.598C26.3781 154.847 26.5178 155.103 26.7522 155.25C27.0122 155.414 27.3394 155.412 27.6472 155.404C28.9043 155.376 30.1614 155.347 31.4185 155.319C31.5784 155.315 31.7493 155.308 31.8798 155.216C32.0838 155.072 32.1096 154.785 32.1169 154.535C32.2933 148.392 32.6949 142.255 33.3198 136.142C33.4117 135.243 33.5266 134.297 34.5925 133.27Z" fill="#16543D"/>
<path d="M29.6779 152.212C29.9554 153.526 30.5831 155.047 31.9164 155.269C33.0688 155.461 34.1164 154.527 34.6833 153.512C35.3964 152.236 35.6602 150.766 35.8559 149.321C36.4679 144.792 36.5084 140.187 35.9763 135.649C35.844 134.519 35.3137 133.078 34.1715 133.15C33.531 133.19 33.1184 133.786 32.681 134.253C30.5674 136.506 28.7121 147.633 29.6779 152.212Z" fill="#21805D"/>
<path d="M31.0877 149.235C31.2531 150.059 31.6262 151.014 32.4201 151.154C33.1057 151.274 33.7296 150.688 34.0669 150.051C34.4914 149.251 34.6486 148.328 34.7643 147.421C35.1282 144.58 35.1531 141.69 34.836 138.842C34.757 138.133 34.4418 137.229 33.7618 137.274C33.3804 137.299 33.1351 137.673 32.8741 137.966C31.617 139.379 30.5133 146.361 31.0877 149.235Z" fill="#E8EBD8"/>
<path d="M53.042 133.27C51.2556 132.913 49.4205 132.8 47.6038 132.937C47.3465 132.957 47.0818 132.983 46.8558 133.108C46.6178 133.24 46.4487 133.465 46.2924 133.686C42.0497 139.679 41.4156 148.034 44.7045 154.598C44.8286 154.847 44.9682 155.103 45.2026 155.25C45.4626 155.414 45.7898 155.412 46.0976 155.404C47.3547 155.376 48.6118 155.347 49.8689 155.319C50.0288 155.315 50.1998 155.308 50.3303 155.216C50.5343 155.072 50.56 154.785 50.5673 154.535C50.7438 148.392 51.1454 142.255 51.7702 136.142C51.8612 135.243 51.9761 134.297 53.042 133.27Z" fill="#16543D"/>
<path d="M48.1277 152.212C48.4052 153.526 49.0329 155.047 50.3663 155.269C51.5186 155.461 52.5662 154.527 53.1332 153.512C53.8463 152.236 54.11 150.766 54.3057 149.321C54.9178 144.792 54.9582 140.187 54.4261 135.649C54.2938 134.519 53.7636 133.078 52.6213 133.15C51.9808 133.19 51.5682 133.786 51.1308 134.253C49.0173 136.506 47.1619 147.633 48.1277 152.212Z" fill="#21805D"/>
<path d="M49.5375 149.235C49.7029 150.059 50.076 151.014 50.87 151.154C51.5555 151.274 52.1794 150.688 52.5167 150.051C52.9412 149.251 53.0984 148.328 53.2142 147.421C53.5781 144.58 53.6029 141.69 53.2858 138.842C53.2068 138.133 52.8916 137.229 52.2116 137.274C51.8302 137.299 51.5849 137.673 51.3248 137.966C50.0668 139.379 48.9631 146.361 49.5375 149.235Z" fill="#E8EBD8"/>
<path d="M80.4116 162.378H9.01656L2.97913 154.047H86.45L80.4116 162.378Z" fill="#FFB35C"/>
</svg>
