<svg width="182" height="211" viewBox="0 0 182 211" fill="none" xmlns="http://www.w3.org/2000/svg">
<path d="M168.549 86.4092C168.549 86.4092 167.33 114.936 154.081 144.822L119.654 112.423L107.636 148.626C107.636 148.626 154.118 190.003 165.901 179.801C177.685 169.599 184.073 123.036 180.979 94.6196L168.549 86.4092Z" fill="#F2AD97"/>
<path d="M72.3644 71.3311C72.3644 71.3311 19.3004 80.507 9.45886 118.303C-0.38263 156.099 8.72702 210.77 8.72702 210.77H114.086C114.086 210.77 142.192 95.6668 72.3644 71.3311Z" fill="#B24A47"/>
<path d="M105.853 37.0298C109.018 35.6861 111.507 33.0867 113.391 30.211C116.169 25.9718 117.825 20.8155 117.066 15.8043C116.308 10.7926 112.817 6.06343 107.942 4.67955C105.059 3.8616 101.38 4.5891 100.122 7.30801C99.9401 4.7937 98.414 2.75827 96.2398 1.48225C94.0655 0.206232 91.4458 -0.160417 88.9344 0.0601533C85.338 0.37553 81.804 1.90549 79.3405 4.54508C76.877 7.18467 75.5831 10.96 76.2187 14.5138C73.7116 13.1667 70.9318 13.7945 68.1137 14.1955C65.5655 14.5583 62.924 14.9544 60.7725 16.3673C58.2234 18.0415 56.7272 20.9055 55.636 23.7531C56.6634 22.686 57.7353 21.6339 59.02 20.8968C60.3047 20.1596 61.8405 19.7591 63.2849 20.0866C60.98 22.1815 58.6606 24.6058 57.1374 27.3223C55.6138 30.0388 55.0275 33.4756 56.3949 36.2738C57.7193 38.9826 60.6941 40.8284 61.2891 43.7843C61.5619 45.1382 61.2823 46.5501 61.4898 47.9152C62.005 51.2963 65.3769 53.5605 68.7125 54.3156C73.9656 55.505 79.5572 53.9731 84.1524 51.1637C88.7477 48.3544 92.4872 44.3575 95.982 40.2595C98.3623 37.47 102.478 38.4631 105.853 37.0298Z" fill="#422038"/>
<path d="M106.472 54.9208C102.403 68.3992 92.6936 71.0983 82.6417 66.492C72.5898 61.8856 62.8054 55.8321 70.8228 38.0607C76.7187 24.9914 89.6119 14.4926 99.6638 19.0989C109.716 23.7052 110.616 41.1936 106.472 54.9208Z" fill="#F2AD97"/>
<path d="M98.0414 45.0177C98.0143 45.2615 97.9848 45.5048 97.9534 45.7476C97.8406 46.6236 97.6994 47.5093 97.3187 48.3006C96.9381 49.092 96.285 49.7885 95.4197 50.0439C93.9366 50.4817 92.1745 49.3745 91.7513 47.8909C91.4112 46.6996 91.804 45.469 92.2311 44.3381C93.0839 42.0802 94.0871 39.8812 95.2335 37.7587C96.2633 35.8515 97.9224 35.895 98.1536 38.3044C98.3693 40.5478 98.2905 42.797 98.0414 45.0177Z" fill="#ED8A85"/>
<path d="M88.9684 24.8361C90.748 24.11 92.6112 23.8348 93.7063 25.1829C94.3105 25.9263 94.2819 27.1932 93.4974 27.7398C93.1331 27.9932 92.678 28.0643 92.2388 28.1219C90.123 28.4 87.988 28.5253 85.8543 28.4958C85.5781 28.4919 85.2937 28.4842 85.0393 28.3749C84.7848 28.2655 84.5643 28.0305 84.5541 27.7519C84.5401 27.3721 84.8927 27.094 85.2124 26.8923C86.0884 26.3399 87.4999 25.4349 88.9684 24.8361Z" fill="#422038"/>
<path d="M105.699 29.7685C104.818 28.2241 103.623 26.9582 102.07 27.3089C101.213 27.5024 100.52 28.4369 100.781 29.2814C100.902 29.6737 101.192 29.9857 101.478 30.2788C102.854 31.6913 104.331 33.0036 105.894 34.2032C106.096 34.3584 106.307 34.5152 106.553 34.5819C106.798 34.6487 107.091 34.6042 107.255 34.4083C107.479 34.1408 107.38 33.7378 107.262 33.4089C106.939 32.5068 106.425 31.0431 105.699 29.7685Z" fill="#422038"/>
<path d="M87.8517 42.8099C87.4367 44.0472 85.1182 44.3752 82.6741 43.5422C80.2294 42.7093 78.5843 41.0308 78.9994 39.7935C79.4144 38.5562 81.7328 38.2282 84.177 39.0612C86.6211 39.8941 88.2667 41.5726 87.8517 42.8099Z" fill="#ED6F6D"/>
<path d="M109.449 49.0767C109.034 50.314 106.671 50.6265 104.171 49.7752C101.671 48.9234 99.9814 47.2299 100.396 45.9926C100.811 44.7553 103.174 44.4423 105.674 45.2941C108.174 46.1459 109.864 47.8394 109.449 49.0767Z" fill="#ED6F6D"/>
<path d="M76.6683 35.7541C74.8994 39.6755 71.3306 43.1267 67.7914 41.5049C64.2521 39.883 62.0822 33.8014 63.8511 29.8804C65.62 25.9595 69.9235 24.0953 73.4628 25.7172C77.0021 27.339 78.4372 31.8327 76.6683 35.7541Z" fill="#F2AD97"/>
<path d="M68.2672 29.3365C70.04 29.0037 71.3083 30.8703 71.3809 32.4351C71.4259 33.4021 71.1787 34.353 70.8454 35.2532C70.5315 36.1007 70.1822 37.0676 69.5147 37.7046C69.2516 37.9562 69.6511 38.3547 69.9138 38.1037C70.6896 37.3631 71.0921 36.2405 71.4452 35.2503C71.8278 34.1765 72.0634 33.0257 71.8897 31.8866C71.6193 30.1109 70.0144 28.4363 68.1173 28.7923C67.7603 28.8591 67.9112 29.4033 68.2672 29.3365Z" fill="#422038"/>
<path d="M71.4313 33.0274C69.6686 33.0173 67.9761 33.9977 67.0943 35.5219C66.912 35.8368 67.3996 36.1212 67.5819 35.8068C68.366 34.451 69.8636 33.5827 71.4313 33.5919C71.7945 33.5943 71.795 33.0298 71.4313 33.0274Z" fill="#422038"/>
<path d="M86.937 57.1467C87.3888 56.8487 87.6292 56.2978 87.5721 55.7619C87.5431 55.491 87.4575 55.2332 87.2897 55.016C87.0947 54.763 86.8171 54.5981 86.5157 54.5013C86.1699 54.3901 85.7974 54.3727 85.4371 54.3606C85.0738 54.348 85.0743 54.9125 85.4371 54.925C85.764 54.9362 86.0731 54.9483 86.3822 55.0508C86.5061 55.0919 86.6386 55.1587 86.7392 55.2472C86.8466 55.3415 86.8785 55.3884 86.9428 55.5263C86.9511 55.5442 86.9506 55.5427 86.9409 55.521C86.9477 55.5379 86.954 55.5548 86.9598 55.5718C86.9699 55.6017 86.9791 55.6322 86.9869 55.6627C86.9946 55.6937 87.0004 55.7246 87.0067 55.756C87.012 55.7899 87.0125 55.7918 87.0081 55.7623C87.0096 55.7759 87.011 55.7894 87.012 55.8035C87.0149 55.8678 87.0173 55.9312 87.013 55.9955C87.012 56.0071 86.9999 56.0985 87.0091 56.0434C87.0038 56.0748 86.998 56.1063 86.9902 56.1377C86.9564 56.2809 86.9409 56.3215 86.8625 56.4453C86.8567 56.454 86.805 56.5266 86.8359 56.4869C86.8166 56.5116 86.7953 56.5353 86.7735 56.5576C86.7518 56.5803 86.7286 56.6021 86.7049 56.6224C86.6792 56.6432 86.6773 56.6456 86.6981 56.6287C86.6831 56.6393 86.6681 56.6495 86.6526 56.6596C86.5254 56.7433 86.4712 56.9092 86.5515 57.0456C86.6246 57.1719 86.8093 57.2309 86.937 57.1467Z" fill="#422038"/>
<path d="M86.2063 32.1951C84.9226 33.7313 84.7692 36.1136 86.0873 37.6827C87.3856 39.2291 89.7485 39.5523 91.38 38.3604C92.4229 37.5986 93.1543 36.4643 93.577 35.2565C93.6975 34.913 93.1523 34.765 93.0329 35.1065C92.614 36.3032 91.8275 37.4868 90.7053 38.1268C89.7678 38.6613 88.6205 38.653 87.656 38.1872C85.547 37.1695 85.1451 34.3413 86.6054 32.5937C86.8371 32.3175 86.4395 31.916 86.2063 32.1951Z" fill="#422038"/>
<path d="M100.88 37.6978C100.15 39.1828 100.759 41.0992 102.207 41.9041C103.834 42.8091 105.894 42.235 106.992 40.7925C107.607 39.9862 107.916 38.9811 107.918 37.972C107.919 37.6088 107.355 37.6083 107.354 37.972C107.35 39.934 105.937 41.8161 103.856 41.7735C102.914 41.7546 102.024 41.3033 101.532 40.4868C101.081 39.7376 100.976 38.7789 101.367 37.9827C101.527 37.6576 101.041 37.3713 100.88 37.6978Z" fill="#422038"/>
<path d="M69.166 40.7764L63.2222 77.3663C63.2222 77.3663 70.8227 79.8874 77.4252 77.526L78.3897 55.1913L69.166 40.7764Z" fill="#F2AD97"/>
<path d="M78.4227 63.9591C73.0869 61.0583 69.6792 55.1672 69.7648 49.1015C69.7702 48.7383 69.2057 48.7383 69.2003 49.1015C69.1123 55.3573 72.6332 61.4535 78.1378 64.4462C78.457 64.6203 78.7424 64.1327 78.4227 63.9591Z" fill="#422038"/>
<path d="M86.6056 47.182C87.5967 46.1295 88.7073 48.1296 90.6648 49.9725C92.6224 51.8154 94.6859 52.8041 93.6948 53.8562C92.7037 54.9087 89.9596 54.6437 88.002 52.8007C86.0445 50.9578 85.6149 48.2346 86.6056 47.182Z" fill="white"/>
<path d="M109.453 27.024C111.206 23.8998 112.028 20.2831 111.745 16.707C111.502 13.6379 110.466 10.0232 107.494 8.53386C106.031 7.80153 104.311 7.67673 102.842 8.45115C102.532 8.61464 102.807 9.08432 103.117 8.92082C104.819 8.02355 106.934 8.52805 108.345 9.74941C109.802 11.0114 110.55 12.8979 110.927 14.7447C111.759 18.8141 111.009 23.1384 108.984 26.7488C108.811 27.055 109.282 27.3297 109.453 27.024Z" fill="#6D4F65"/>
<path d="M109.069 22.6478C109.287 19.0326 109.338 14.6241 105.951 12.3627C105.658 12.1678 105.386 12.6389 105.676 12.8324C108.876 14.9694 108.729 19.2604 108.524 22.6478C108.504 22.9975 109.048 22.9961 109.069 22.6478Z" fill="#6D4F65"/>
<path d="M83.1699 21.1661C81.0087 18.2784 80.2111 14.4557 81.1736 10.9614C82.0704 7.70555 84.4077 4.95761 87.4338 3.48231C87.7487 3.32897 87.473 2.85978 87.159 3.01263C84.012 4.54743 81.58 7.43467 80.6488 10.8172C79.6514 14.4392 80.4563 18.4429 82.7002 21.4409C82.9073 21.718 83.3798 21.4472 83.1699 21.1661Z" fill="#6D4F65"/>
<path d="M85.1499 16.0527C84.7585 13.7077 85.3985 11.2316 86.8806 9.37178C87.0968 9.10042 86.7142 8.71346 86.496 8.98723C84.8814 11.014 84.1984 13.641 84.6255 16.1978C84.6831 16.5418 85.2074 16.3957 85.1499 16.0527Z" fill="#6D4F65"/>
<path d="M77.34 23.5898C76.9211 21.5404 75.6392 19.7971 73.8341 18.7489C71.9805 17.6722 69.8116 17.3249 67.7239 17.0056C67.3814 16.9534 67.2339 17.4772 67.5792 17.5304C69.5237 17.8279 71.5447 18.1375 73.3015 19.0754C75.1207 20.0467 76.4011 21.7087 76.8151 23.7349C76.8853 24.0774 77.4096 23.9323 77.34 23.5898Z" fill="#6D4F65"/>
<path d="M72.7762 22.1431C68.3643 20.2185 62.7761 21.791 60.2623 25.9707C59.0182 28.0395 58.5843 30.5533 58.9678 32.9283C59.3785 35.4692 60.8509 37.331 62.4452 39.2562C63.3391 40.3363 64.2741 41.4894 64.6635 42.8627C65.1409 44.546 64.3133 46.0958 64.3331 47.7738C64.3375 48.1235 64.8812 48.1245 64.8773 47.7738C64.8608 46.4107 65.4771 45.1245 65.3721 43.7546C65.2923 42.7137 64.8821 41.7448 64.3312 40.8684C63.0905 38.8934 61.2258 37.3528 60.2279 35.2187C58.1049 30.6767 60.0315 24.9684 64.5735 22.8087C67.037 21.6372 69.991 21.5177 72.5015 22.6128C72.8193 22.7516 73.0964 22.2829 72.7762 22.1431Z" fill="#6D4F65"/>
<path d="M121.509 149.098L102.734 126.496L146.884 105.549L165.901 128.441L121.509 149.098Z" fill="#46B2A5"/>
<path d="M122.656 145.325L107.746 127.377L145.779 109.371L160.849 127.513L122.656 145.325ZM108.758 127.6L122.831 144.541L159.834 127.284L145.606 110.156L108.758 127.6Z" fill="#1F8979"/>
<path d="M156.203 122.416C156.203 122.416 150.3 125.242 153.754 130.471L160.105 127.509L156.203 122.416Z" fill="#1F8979"/>
<path d="M149.832 114.746C149.832 114.746 143.866 117.497 139.133 112.869L145.457 109.875L149.832 114.746Z" fill="#1F8979"/>
<path d="M118.649 140.005C118.649 140.005 124.624 137.267 129.331 141.862L122.98 144.824L118.649 140.005Z" fill="#1F8979"/>
<path d="M112.347 132.418C112.347 132.418 118.239 129.58 114.812 124.384L108.488 127.377L112.347 132.418Z" fill="#1F8979"/>
<path d="M139.28 133.443C134.682 135.592 128.711 134.634 125.944 131.303C123.176 127.971 124.65 123.516 129.235 121.35C133.82 119.184 139.791 120.143 142.571 123.49C145.352 126.837 143.878 131.294 139.28 133.443Z" fill="#1F8979"/>
<path d="M131.355 127.176C131.613 127.487 131.857 127.588 132.085 127.48C132.258 127.399 132.325 127.204 132.287 126.893C132.266 126.756 132.24 126.601 132.206 126.429C132.172 126.257 132.147 126.076 132.13 125.885C132.045 124.88 132.509 124.139 133.521 123.662C134.069 123.404 134.566 123.265 135.013 123.244C136.254 123.188 137.457 123.707 138.623 124.802L139.614 124.395L140.207 125.109L139.264 125.499C139.776 126.128 140.219 126.793 140.593 127.495C140.674 127.643 140.723 127.742 140.741 127.795L138.089 129.038C137.614 128.108 137.216 127.451 136.896 127.065C136.774 126.919 136.655 126.824 136.537 126.78C136.42 126.736 136.331 126.728 136.271 126.756C136.181 126.798 136.13 126.868 136.118 126.967C136.106 127.065 136.136 127.236 136.207 127.479C136.278 127.722 136.347 127.962 136.413 128.198C136.638 129.003 136.598 129.639 136.293 130.106C136.045 130.498 135.635 130.827 135.064 131.093C134.491 131.359 133.965 131.505 133.485 131.532C133.004 131.559 132.531 131.501 132.067 131.356C131.134 131.061 130.277 130.453 129.495 129.531L128.519 129.938L127.924 129.222L128.922 128.804C128.39 128.088 128.034 127.47 127.853 126.952C127.775 126.725 127.741 126.543 127.75 126.404L130.41 125.152C130.416 125.166 130.431 125.211 130.452 125.288C130.591 125.706 130.734 126.076 130.881 126.397C131.028 126.72 131.187 126.979 131.355 127.176Z" fill="#46B2A5"/>
<path d="M124.667 132.201L96.4175 124.119L121.072 81.9268L149.685 90.1125L124.667 132.201Z" fill="#46B2A5"/>
<path d="M123.486 128.439L101.052 122.02L122.314 85.7061L144.989 92.193L123.486 128.439ZM102.015 121.635L123.19 127.692L144.022 92.5771L122.613 86.4524L102.015 121.635Z" fill="#1F8979"/>
<path d="M138.277 90.6035C138.277 90.6035 134.995 96.2658 140.796 98.6364L144.371 92.6099L138.277 90.6035Z" fill="#1F8979"/>
<path d="M128.691 87.8613C128.691 87.8613 125.315 93.4964 118.796 92.3428L122.332 86.3047L128.691 87.8613Z" fill="#1F8979"/>
<path d="M117.177 126.302C117.177 126.302 120.569 120.671 127.047 121.813L123.471 127.839L117.177 126.302Z" fill="#1F8979"/>
<path d="M107.694 123.589C107.694 123.589 110.961 117.923 105.201 115.563L101.666 121.602L107.694 123.589Z" fill="#1F8979"/>
<path d="M130.517 109.251C127.931 113.619 122.46 116.194 118.296 115.003C114.132 113.812 112.837 109.301 115.403 104.927C117.969 100.553 123.441 97.978 127.624 99.1752C131.808 100.372 133.103 104.883 130.517 109.251Z" fill="#1F8979"/>
<path d="M120.439 108.543C120.827 108.653 121.085 108.6 121.213 108.383C121.31 108.219 121.255 108.019 121.048 107.785C120.955 107.683 120.845 107.57 120.72 107.447C120.596 107.323 120.473 107.188 120.351 107.04C119.714 106.257 119.68 105.384 120.246 104.419C120.553 103.898 120.885 103.502 121.243 103.233C122.236 102.487 123.522 102.238 125.102 102.485L125.691 101.59L126.583 101.845L126.025 102.699C126.802 102.93 127.543 103.23 128.248 103.598C128.398 103.675 128.495 103.73 128.539 103.763L127.05 106.285C126.133 105.785 125.434 105.466 124.952 105.328C124.77 105.276 124.617 105.265 124.495 105.295C124.373 105.324 124.296 105.368 124.262 105.425C124.212 105.51 124.209 105.597 124.255 105.685C124.3 105.773 124.421 105.898 124.617 106.058C124.813 106.218 125.005 106.378 125.193 106.536C125.833 107.074 126.158 107.622 126.169 108.179C126.186 108.643 126.033 109.146 125.711 109.688C125.388 110.23 125.036 110.648 124.654 110.941C124.273 111.234 123.85 111.452 123.385 111.595C122.447 111.877 121.396 111.858 120.231 111.537L119.654 112.424L118.759 112.168L119.348 111.26C118.505 110.969 117.862 110.66 117.42 110.333C117.228 110.191 117.097 110.059 117.027 109.939L118.517 107.405C118.531 107.413 118.567 107.442 118.628 107.493C118.979 107.76 119.306 107.985 119.608 108.168C119.912 108.351 120.189 108.475 120.439 108.543Z" fill="#46B2A5"/>
<path d="M115.265 132.228L86.9718 140.155L85.8491 91.3L114.506 83.2715L115.265 132.228Z" fill="#46B2A5"/>
<path d="M89.8193 135.937L88.8887 93.8671L111.599 87.5049L112.287 129.642L89.8193 135.937ZM89.5349 94.3464L90.4365 135.104L111.644 129.163L110.977 88.3398L89.5349 94.3464Z" fill="#1F8979"/>
<path d="M105.05 89.6715C105.05 89.6715 105.223 96.2136 111.406 95.192L111.292 88.1855L105.05 89.6715Z" fill="#1F8979"/>
<path d="M95.4491 92.3613C95.4491 92.3613 95.5284 98.9301 89.3723 101.365L89.2175 94.3702L95.4491 92.3613Z" fill="#1F8979"/>
<path d="M105.796 131.133C105.796 131.133 105.732 124.56 111.847 122.137L111.961 129.143L105.796 131.133Z" fill="#1F8979"/>
<path d="M96.298 133.794C96.298 133.794 96.1089 127.256 89.9673 128.266L90.1221 135.261L96.298 133.794Z" fill="#1F8979"/>
<path d="M108.217 109.617C108.305 114.692 104.995 119.754 100.825 120.922C96.6545 122.09 93.1863 118.928 93.079 113.858C92.9716 108.788 96.2811 103.727 100.471 102.553C104.662 101.379 108.129 104.542 108.217 109.617Z" fill="#1F8979"/>
<path d="M99.2629 114.297C99.6514 114.189 99.8434 114.008 99.8386 113.755C99.8347 113.565 99.6838 113.424 99.3848 113.332C99.2513 113.295 99.099 113.256 98.9282 113.217C98.7575 113.177 98.5814 113.126 98.4005 113.064C97.4476 112.732 96.96 112.006 96.9378 110.887C96.9257 110.283 97.0011 109.772 97.1651 109.355C97.6193 108.199 98.5838 107.312 100.059 106.695L100.091 105.624L100.985 105.373L100.957 106.393C101.74 106.182 102.528 106.049 103.321 105.993C103.489 105.98 103.6 105.976 103.655 105.981L103.709 108.909C102.666 108.964 101.904 109.059 101.421 109.194C101.238 109.245 101.103 109.315 101.014 109.405C100.926 109.494 100.883 109.572 100.884 109.638C100.886 109.738 100.929 109.813 101.014 109.864C101.1 109.915 101.267 109.957 101.518 109.991C101.769 110.025 102.016 110.06 102.26 110.096C103.087 110.218 103.651 110.514 103.952 110.984C104.21 111.37 104.343 111.878 104.353 112.509C104.362 113.139 104.281 113.68 104.11 114.13C103.938 114.58 103.692 114.987 103.371 115.352C102.721 116.084 101.816 116.619 100.656 116.956L100.629 118.014L99.7321 118.265L99.7578 117.183C98.8871 117.377 98.178 117.45 97.6304 117.404C97.392 117.383 97.2116 117.34 97.0892 117.274L97.0297 114.335C97.0452 114.335 97.0921 114.34 97.1709 114.352C97.6096 114.396 98.0053 114.416 98.3589 114.413C98.7135 114.41 99.0143 114.371 99.2629 114.297Z" fill="#46B2A5"/>
<path d="M111.405 130.092L93.7087 153.548L63.1985 115.375L81.1222 91.6172L111.405 130.092Z" fill="#46B2A5"/>
<path d="M93.4166 148.467L93.1612 148.148L67.1721 115.574L81.3762 96.7461L107.469 129.84L93.4166 148.467ZM67.977 115.562L93.4026 147.431L106.667 129.849L81.3873 97.787L67.977 115.562Z" fill="#1F8979"/>
<path d="M77.4805 102.437C77.4805 102.437 81.5842 107.536 85.882 102.974L81.5436 97.4717L77.4805 102.437Z" fill="#1F8979"/>
<path d="M71.4756 110.396C71.4756 110.396 75.5209 115.573 72.1011 121.241L67.7375 115.772L71.4756 110.396Z" fill="#1F8979"/>
<path d="M103.209 134.96C103.209 134.96 99.1736 129.771 102.567 124.137L106.906 129.639L103.209 134.96Z" fill="#1F8979"/>
<path d="M97.2688 142.834C97.2688 142.834 93.1549 137.749 88.8828 142.276L93.2463 147.746L97.2688 142.834Z" fill="#1F8979"/>
<path d="M92.0925 116.383C95.239 120.367 95.6748 126.398 93.0667 129.856C90.4585 133.313 85.7835 132.9 82.6244 128.934C79.4653 124.967 79.0295 118.935 81.6503 115.461C84.271 111.987 88.946 112.4 92.0925 116.383Z" fill="#1F8979"/>
<path d="M87.809 125.532C88.0519 125.21 88.0949 124.95 87.9377 124.752C87.8192 124.603 87.6136 124.583 87.3205 124.691C87.1914 124.742 87.0467 124.804 86.8871 124.876C86.727 124.948 86.5567 125.014 86.3753 125.075C85.4157 125.388 84.588 125.106 83.892 124.23C83.5157 123.757 83.2661 123.304 83.1437 122.874C82.8041 121.679 83.0334 120.389 83.8325 119.003L83.2085 118.132L83.7677 117.391L84.3641 118.218C84.8584 117.576 85.4045 116.993 86.0014 116.467C86.1267 116.355 86.2128 116.284 86.2597 116.255L88.0775 118.551C87.2813 119.227 86.7323 119.765 86.4305 120.165C86.3163 120.316 86.251 120.454 86.2351 120.579C86.2191 120.703 86.2317 120.792 86.2728 120.843C86.3347 120.921 86.415 120.955 86.5137 120.944C86.6124 120.933 86.7715 120.865 86.9916 120.74C87.2117 120.615 87.4293 120.493 87.6446 120.374C88.3764 119.97 89.0048 119.863 89.5291 120.053C89.9678 120.205 90.3824 120.528 90.7718 121.024C91.1616 121.52 91.4248 121.998 91.5612 122.46C91.6981 122.922 91.7488 123.395 91.715 123.88C91.6419 124.856 91.2463 125.83 90.528 126.802L91.1481 127.659L90.5875 128.403L89.9519 127.527C89.3772 128.209 88.8577 128.697 88.3943 128.992C88.1921 129.121 88.0224 129.195 87.885 129.217L86.0561 126.916C86.0682 126.906 86.1088 126.882 86.1785 126.844C86.5538 126.613 86.8808 126.389 87.1599 126.172C87.44 125.955 87.6557 125.742 87.809 125.532Z" fill="#46B2A5"/>
<path d="M88.3328 180.759C89.589 179.608 95.4887 172.774 96.8591 171.761C103.293 167.005 108.847 161.063 113.16 154.324C114.733 151.867 115.692 149.199 116.456 146.384C118.412 139.177 120.367 131.97 122.323 124.763C122.581 123.814 122.825 122.747 122.335 121.895C121.724 120.829 120.175 120.634 119.066 121.162C117.957 121.69 117.197 122.737 116.526 123.766C114.191 127.343 113.289 131.46 111.961 135.521C113.205 130.541 113.021 125.211 113.314 120.087C113.422 118.201 113.087 115.772 111.257 115.304C110.602 115.137 109.897 115.295 109.295 115.604C106.915 116.822 106.272 119.878 106.012 122.539C105.536 127.421 105.437 132.339 105.718 137.236C105.084 133.161 104.449 129.084 103.815 125.009C103.594 123.585 102.982 121.796 101.542 121.767C100.314 121.742 99.5465 123.085 99.2225 124.27C97.5237 130.485 100.294 136.962 100.717 143.391C99.815 140.3 98.4955 137.331 96.8059 134.589C96.2985 133.767 95.689 132.911 94.7675 132.618C93.1268 132.098 91.4599 133.78 91.3129 135.495C91.1659 137.21 92.036 138.83 92.8787 140.331C94.4381 143.107 96.372 145.173 97.9315 147.95C94.2645 153.736 87.4118 159.589 82.9912 164.823C84.6426 168.638 85.3851 177.828 88.3328 180.759Z" fill="#F2AD97"/>
<path d="M91.9432 134.021C92.3316 134.827 93.0316 135.608 93.9574 135.754C94.8068 135.888 95.7229 135.479 96.0233 134.641C96.1461 134.298 95.6005 134.151 95.4791 134.491C95.2706 135.073 94.533 135.317 93.9699 135.184C93.2434 135.012 92.7404 134.379 92.4308 133.736C92.2726 133.409 91.786 133.695 91.9432 134.021Z" fill="#422038"/>
<path d="M100.422 122.088C100.441 122.609 100.494 123.128 100.579 123.643C100.651 124.076 100.735 124.524 100.958 124.908C101.176 125.285 101.533 125.551 101.959 125.643C102.405 125.74 102.859 125.681 103.305 125.614C103.455 125.591 103.539 125.401 103.502 125.267C103.457 125.105 103.306 125.046 103.155 125.07C102.807 125.122 102.432 125.174 102.085 125.094C101.75 125.016 101.522 124.805 101.379 124.497C101.226 124.168 101.17 123.787 101.114 123.432C101.043 122.987 101.004 122.538 100.987 122.088C100.973 121.725 100.409 121.724 100.422 122.088Z" fill="#422038"/>
<path d="M109.647 115.891C109.287 116.963 108.928 118.227 109.62 119.249C109.884 119.64 110.274 119.964 110.746 120.055C111.31 120.163 111.9 119.845 112.444 120.04C112.787 120.163 112.934 119.617 112.594 119.496C112.09 119.315 111.597 119.517 111.087 119.522C110.68 119.526 110.331 119.297 110.107 118.964C109.506 118.073 109.88 116.968 110.19 116.041C110.306 115.696 109.762 115.548 109.647 115.891Z" fill="#422038"/>
<path d="M120.404 121.594C120.066 122.249 119.727 122.903 119.39 123.558C119.111 124.097 118.766 124.649 118.683 125.262C118.606 125.83 118.843 126.338 119.359 126.604C119.929 126.897 120.608 127.012 121.236 127.094C121.595 127.142 121.592 126.577 121.236 126.53C120.721 126.462 120.154 126.357 119.68 126.134C119.171 125.894 119.173 125.427 119.339 124.951C119.518 124.441 119.815 123.964 120.062 123.486C120.338 122.95 120.615 122.415 120.891 121.879C121.058 121.557 120.571 121.271 120.404 121.594Z" fill="#422038"/>
<path d="M100.967 146.788C100.82 146.35 101.002 145.9 101.389 145.648C101.881 145.329 102.538 145.467 103.037 145.683C103.19 145.749 103.414 145.712 103.452 145.514C103.61 144.695 103.825 143.797 104.453 143.201C105.039 142.644 106.03 142.469 106.625 143.103C106.773 143.262 107.038 143.176 107.096 142.979C107.338 142.157 107.904 141.335 108.778 141.107C109.576 140.899 110.511 141.262 110.816 142.06C110.89 142.255 111.125 142.343 111.288 142.185C112.649 140.86 114.774 142.013 114.528 143.851C114.48 144.21 115.045 144.206 115.093 143.851C115.408 141.49 112.566 140.154 110.888 141.786C111.046 141.827 111.203 141.869 111.36 141.91C110.985 140.928 109.969 140.367 108.93 140.504C107.718 140.663 106.879 141.717 106.552 142.828C106.709 142.787 106.866 142.745 107.024 142.704C106.364 142 105.296 141.989 104.493 142.463C103.484 143.057 103.115 144.286 102.908 145.364C103.046 145.308 103.184 145.252 103.322 145.195C102.577 144.874 101.672 144.723 100.977 145.251C100.458 145.646 100.212 146.312 100.422 146.937C100.538 147.28 101.083 147.133 100.967 146.788Z" fill="#422038"/>
<path d="M99.3552 140.728C99.8863 141.718 100.323 142.753 100.662 143.824C100.771 144.169 101.317 144.022 101.206 143.674C100.853 142.558 100.396 141.475 99.8423 140.443C99.6706 140.123 99.1835 140.408 99.3552 140.728Z" fill="#422038"/>
<path d="M104.529 131.18C105.085 134.005 105.58 136.842 106.015 139.688C106.069 140.046 106.613 139.894 106.559 139.538C106.124 136.692 105.629 133.855 105.073 131.03C105.004 130.674 104.459 130.824 104.529 131.18Z" fill="#422038"/>
<path d="M112.856 129.522C112.582 132.488 112.052 135.422 111.278 138.299C111.184 138.65 111.728 138.8 111.822 138.449C112.609 135.524 113.141 132.539 113.42 129.522C113.454 129.161 112.889 129.163 112.856 129.522Z" fill="#422038"/>
<path d="M89.9675 157.399C89.9675 157.399 84.3879 147.135 83.1995 140.398C83.1995 140.398 92.5708 151.658 94.7697 153.547C96.9691 155.436 89.9675 157.399 89.9675 157.399Z" fill="#F2AD97"/>
<path d="M180.98 95.2978C180.24 72.416 161.126 64.0087 155.297 63.0863C149.468 62.1639 143.379 61.0277 137.776 62.8769C136.02 63.4563 134.122 64.804 133.948 66.4979C133.905 66.9226 134.319 67.2549 134.731 67.1436C138.46 66.1366 142.505 66.3262 146.12 67.6917C141.063 66.2875 135.229 68.3713 132.207 72.6618C131.632 73.4773 131.133 74.4389 131.413 75.4513C131.542 75.9166 131.87 76.3186 132.318 76.4985C133.06 76.797 133.598 76.3718 134.103 75.9877C137.255 73.5876 140.998 71.9686 144.905 71.3151C141.44 71.7688 137.983 73.1213 135.604 75.6811C133.12 78.3545 132.035 82.4829 133.634 85.7992C133.754 86.0469 133.933 86.2675 134.162 86.4179C135.226 87.1135 136.262 85.9632 136.808 84.96C137.857 83.0329 138.76 81.0071 140.104 79.2731C141.447 77.5385 143.334 76.0854 145.515 75.8484C145.939 75.8025 146.543 76.0037 146.435 76.4163C145.701 77.0282 144.98 77.8901 144.194 78.4353C140.981 80.6661 139.063 84.6412 139.316 88.5447C139.385 89.6084 139.634 90.7258 140.47 91.4383C140.899 91.804 141.466 91.9984 142.025 91.9191C142.954 91.787 143.314 91.0252 143.619 90.3088C144.961 87.158 146.081 83.8073 148.372 81.2621C150.663 78.7168 154.572 77.2115 157.581 78.8469C158.013 80.1055 157.279 81.3462 156.543 82.4549C155.119 84.5992 153.159 86.3845 150.892 87.603C150.081 88.0393 149.159 88.6995 148.527 89.3704C147.497 90.4641 146.694 92.3747 148.138 93.2517C148.507 93.4756 148.946 93.5627 149.376 93.5303C153.952 93.1864 158.334 90.8656 161.211 87.2958C161.892 86.4503 162.529 85.5066 163.494 85.0093C165.172 84.1454 167.322 84.9764 168.55 86.4102C169.777 87.8439 170.3 89.7332 170.788 91.5563C171.375 93.746 171.962 95.9363 172.548 98.126L180.98 95.2978Z" fill="#F2AD97"/>
<path d="M147.782 92.4941C148.308 92.1951 148.932 91.8498 149.561 91.9397C149.972 91.9988 150.458 92.2904 150.503 92.7432C150.518 92.8951 150.622 93.0252 150.785 93.0252C150.926 93.0252 151.082 92.8956 151.067 92.7432C150.999 92.0558 150.439 91.5489 149.779 91.4086C148.969 91.2369 148.183 91.6166 147.497 92.0065C147.182 92.1864 147.466 92.674 147.782 92.4941Z" fill="#422038"/>
<path d="M139.725 88.976C140.204 88.5359 140.987 88.8087 141.394 89.2445C141.961 89.8506 142.012 90.8054 142.069 91.5871C142.08 91.739 142.19 91.8691 142.351 91.8691C142.495 91.8691 142.644 91.7399 142.633 91.5871C142.575 90.7924 142.505 89.9565 142.094 89.2542C141.738 88.6476 141.099 88.2258 140.389 88.1939C139.995 88.1765 139.616 88.3105 139.326 88.577C139.058 88.8232 139.458 89.2218 139.725 88.976Z" fill="#422038"/>
<path d="M133.231 82.4126C133.502 82.2404 133.839 82.3077 134.088 82.492C134.388 82.7145 134.54 83.0951 134.641 83.4415C134.893 84.3097 134.957 85.2278 134.88 86.1261C134.849 86.4879 135.413 86.4859 135.444 86.1261C135.534 85.0798 135.461 83.9126 135.06 82.9307C134.889 82.5118 134.62 82.1089 134.203 81.9047C133.804 81.7098 133.331 81.6803 132.946 81.9251C132.641 82.1195 132.924 82.6081 133.231 82.4126Z" fill="#422038"/>
<path d="M132.509 75.5509C133.739 74.5452 134.222 72.742 133.665 71.2556C133.538 70.9184 132.992 71.0645 133.12 71.4055C133.615 72.7236 133.199 74.2603 132.11 75.1518C131.829 75.382 132.231 75.7792 132.509 75.5509Z" fill="#422038"/>
<path d="M135.038 65.6122C136.362 65.7302 137.6 64.6095 137.679 63.3001C137.689 63.1477 137.543 63.0176 137.397 63.0176C137.237 63.0176 137.125 63.1472 137.115 63.3001C137.054 64.3096 136.047 65.1377 135.038 65.0477C134.886 65.0342 134.756 65.187 134.756 65.3297C134.755 65.4942 134.885 65.5986 135.038 65.6122Z" fill="#422038"/>
<path d="M137.361 74.004C140.744 71.1066 145.323 69.7523 149.738 70.3593C150.093 70.4082 150.247 69.8645 149.888 69.8151C145.255 69.1781 140.515 70.562 136.962 73.605C136.685 73.8415 137.086 74.2391 137.361 74.004Z" fill="#422038"/>
<path d="M152.695 64.2459C151.24 64.7572 151.52 66.8081 153.062 66.9039C152.996 66.7433 152.929 66.5827 152.862 66.4221C151.535 67.6763 152.037 69.8042 153.745 70.3885C153.704 70.2313 153.662 70.0741 153.621 69.9169C152.64 70.701 152.615 72.3528 153.577 73.1674C153.681 73.2549 153.802 73.313 153.908 73.3942C154.182 73.6037 154.138 73.7111 154.168 74.0468C154.197 74.365 154.298 74.6465 154.489 74.9034C154.904 75.463 155.582 75.7073 156.256 75.5714C156.612 75.4998 156.461 74.9556 156.106 75.0272C155.416 75.1665 154.786 74.6504 154.731 73.964C154.69 73.447 154.627 73.2075 154.193 72.9067C153.317 72.2996 153.13 71.027 154.02 70.3159C154.198 70.1732 154.075 69.9057 153.896 69.8443C152.573 69.3916 152.26 67.7673 153.262 66.8211C153.45 66.6436 153.295 66.3539 153.062 66.3394C152.166 66.2837 151.989 65.0909 152.845 64.7901C153.185 64.6706 153.039 64.125 152.695 64.2459Z" fill="#422038"/>
<path d="M26.2474 114.139C35.462 135.58 44.3936 158.593 51.8669 180.702C64.9855 174.847 77.4622 167.554 89.0011 158.997C92.2303 162.585 94.9671 166.689 98.1963 170.277C91.5144 176.829 85.7404 184.036 79.0585 190.588C74.2001 195.351 69.2513 200.182 63.2388 203.367C57.2259 206.552 49.89 207.915 43.567 205.401C39.5566 203.807 36.2737 200.81 33.3173 197.665C22.2737 185.917 14.3956 162.301 6.18567 144.822C10.6087 130.793 13.1312 133.324 20.6959 120.709C22.7536 117.278 24.6163 117.793 26.2474 114.139Z" fill="#F2AD97"/>
<path d="M48.4814 188.034C49.9015 185.337 51.3217 182.64 52.7419 179.944C52.9112 179.622 52.4241 179.337 52.2543 179.659C50.8341 182.355 49.414 185.052 47.9938 187.749C47.825 188.07 48.3116 188.355 48.4814 188.034Z" fill="#422038"/>
<path d="M28.484 90.6025C28.484 90.6025 -3.66699 107.416 0.34681 166.604C0.34681 166.604 39.4511 160.175 50.3674 143.358L28.484 90.6025Z" fill="#B24A47"/>
<path d="M33.3453 95.2883C37.0442 102.249 40.3687 109.406 43.2884 116.728C46.1887 124.002 48.6957 131.433 50.7916 138.978C51.1036 140.102 51.6933 141.421 50.8768 142.452C50.186 143.323 49.2771 144.07 48.4839 144.849C46.7836 146.52 45.0829 148.191 43.3827 149.862C43.1234 150.116 43.5225 150.515 43.7817 150.261C45.3122 148.757 46.8426 147.253 48.3726 145.75C49.1378 144.998 49.904 144.247 50.6683 143.494C51.2357 142.935 51.7968 142.35 51.8654 141.515C51.9453 140.543 51.5322 139.532 51.2753 138.611C51.0035 137.636 50.7249 136.664 50.4395 135.693C49.8687 133.752 49.2704 131.819 48.6454 129.895C46.149 122.21 43.2216 114.665 39.886 107.306C37.9985 103.142 35.9781 99.0395 33.8329 95.0029C33.6621 94.6822 33.1745 94.9671 33.3453 95.2883Z" fill="white"/>
<path d="M88.3741 200.48C92.7004 193.338 97.7474 186.652 103.431 180.535C103.678 180.269 103.28 179.869 103.032 180.136C97.3164 186.287 92.237 193.014 87.887 200.195C87.6979 200.507 88.186 200.791 88.3741 200.48Z" fill="white"/>
<path d="M99.4181 194.519C101.765 190.582 104.369 186.805 107.222 183.218C107.446 182.937 107.049 182.535 106.823 182.819C103.94 186.444 101.302 190.256 98.931 194.234C98.7443 194.547 99.2323 194.831 99.4181 194.519Z" fill="white"/>
<path d="M64.0153 72.4874C64.0153 72.4874 47.5775 77.5126 40.3828 82.8097C40.3828 82.8097 79.3821 102.345 91.4646 81.9254C91.4646 81.9254 83.3606 74.2713 74.9678 72.1729C66.5755 70.0746 64.0153 72.4874 64.0153 72.4874Z" fill="#F2AD97"/>
<path d="M154.844 142.106C151.1 148.461 148.39 155.396 146.838 162.607C146.762 162.961 147.306 163.113 147.382 162.757C148.925 155.59 151.61 148.707 155.332 142.39C155.517 142.077 155.029 141.793 154.844 142.106Z" fill="#422038"/>
<path d="M77.6644 118.601C78.3905 115.488 79.3332 112.431 80.4869 109.449C80.6179 109.11 80.0723 108.964 79.9427 109.299C78.789 112.28 77.8463 115.338 77.1203 118.451C77.038 118.805 77.5817 118.955 77.6644 118.601Z" fill="white"/>
<path d="M81.2084 113.464C81.3269 113.098 81.4454 112.732 81.564 112.366C81.6094 112.226 81.5107 112.052 81.3666 112.019C81.2118 111.984 81.0681 112.065 81.0193 112.216C80.9008 112.582 80.7823 112.948 80.6638 113.314C80.6183 113.454 80.717 113.628 80.8606 113.661C81.0159 113.696 81.1596 113.614 81.2084 113.464Z" fill="white"/>
<path d="M128.637 93.1256C130.553 95.1199 132.075 97.4731 133.095 100.044C133.228 100.378 133.774 100.233 133.639 99.8945C132.582 97.2293 131.024 94.7948 129.036 92.7265C128.784 92.4638 128.385 92.8634 128.637 93.1256Z" fill="white"/>
<path d="M131.899 92.7825C132.916 93.8036 133.71 95.0337 134.213 96.3851C134.338 96.7228 134.884 96.5767 134.757 96.2352C134.22 94.7908 133.386 93.4766 132.299 92.3834C132.042 92.1251 131.643 92.5242 131.899 92.7825Z" fill="white"/>
<path d="M148.657 127.944C148.411 126.276 148.609 124.571 149.201 122.995C149.329 122.655 148.784 122.508 148.657 122.845C148.028 124.522 147.851 126.325 148.113 128.094C148.166 128.452 148.71 128.299 148.657 127.944Z" fill="white"/>
</svg>
