<svg width="266" height="238" viewBox="0 0 266 238" fill="none" xmlns="http://www.w3.org/2000/svg">
<path d="M135.886 81.9294C135.461 80.7349 134.199 79.7498 132.941 80.3091C130.219 81.5184 129.15 81.6902 126.077 81.9734C124.293 82.138 120.833 81.407 119.297 80.4986C114.76 77.8151 112.281 73.693 111.941 69.0365C111.764 66.6107 112.032 64.082 112.73 61.6987C119.281 65.1473 128.433 63.5404 133.299 57.8641C136.9 53.6625 136.04 48.4801 130.694 46.346C125.393 44.2303 117.595 45.0699 112.815 48.1863C112.311 48.5149 111.825 48.8768 111.356 49.2665C111.918 44.1217 113.933 38.9904 120.64 35.8548C121.42 35.49 122.11 34.5766 121.153 34.4602C115.266 33.7455 110.446 37.5121 107.942 42.5426C105.979 46.4872 105.026 51.0756 106.65 55.1487C105.342 57.5603 104.37 60.3524 103.833 63.2225C102.891 68.2558 103.8 75.0529 106.056 78.9485C109.14 84.275 113.762 88.566 122.703 89.8832C127.512 90.5915 138.451 89.1394 135.886 81.9294ZM125.296 51.6689C127.753 51.6292 129.986 52.6419 128.446 54.7271C127.555 55.9329 126.196 56.6377 124.423 57.341C121.681 58.429 117.873 57.786 115.233 56.4361C117.657 53.2033 121.219 51.7342 125.296 51.6689Z" fill="#FFA8A7"/>
<path d="M106.649 55.1484C105.644 57.0015 104.847 59.0824 104.284 61.2471C106.798 64.4721 110.438 65.5005 111.969 65.8C112.087 64.416 112.338 63.0342 112.73 61.6978C108.822 59.4756 107.757 57.5097 106.649 55.1484Z" fill="#F28F8F"/>
<path d="M115.233 56.4365C115.538 56.0305 115.86 55.6522 116.199 55.3016C115.61 54.9879 114.46 54.2591 113.241 52.8467C111.487 50.8119 111.355 49.2676 111.355 49.2676C111.237 51.7871 112.986 55.2278 115.233 56.4365Z" fill="#F28F8F"/>
<path d="M192.436 198.136C192.446 198.085 192.453 198.034 192.461 197.984L192.486 197.825H192.48C192.952 194.261 190.833 190.605 186.113 187.88C177.529 182.924 163.613 182.924 155.03 187.88C150.309 190.605 148.191 194.261 148.663 197.825H148.656L148.683 197.988C148.69 198.036 139.555 196.806 139.555 196.806L141.656 199.015C147.297 204.946 151.011 212.444 152.312 220.525L153.554 228.235C153.555 228.239 153.555 228.242 153.556 228.245L153.568 228.325H153.572C153.964 230.497 155.6 232.608 158.483 234.273C165.159 238.128 175.983 238.128 182.659 234.273C185.542 232.608 187.177 230.497 187.57 228.325H187.573L187.583 228.265C187.585 228.246 187.588 228.228 187.591 228.21L192.436 198.136Z" fill="#F28F8F"/>
<path d="M146.468 171.596C146.476 171.545 146.484 171.494 146.492 171.444L146.517 171.284H146.512C146.983 167.721 144.802 164.171 140.144 161.34C136.851 159.337 119.722 159.337 109.81 159.337C103.92 159.337 100.681 158.743 101.153 162.305H101.147L101.173 162.469C101.181 162.517 94.6217 154.406 94.6217 154.406C99.7495 164.558 103.292 175.435 105.128 186.66L107.586 201.694C107.586 201.698 107.587 201.701 107.587 201.704L107.6 201.785H107.603C107.996 203.956 109.631 206.068 112.515 207.733C119.19 211.587 130.014 211.587 136.69 207.733C139.573 206.068 141.209 203.956 141.601 201.784H141.604L141.614 201.724C141.617 201.706 141.62 201.687 141.622 201.669L146.468 171.596Z" fill="#F28F8F"/>
<path d="M197.54 180.964C197.532 180.913 197.524 180.862 197.516 180.812L197.49 180.653H197.496C197.025 177.089 199.206 173.539 203.863 170.707C207.156 168.705 224.285 168.705 234.197 168.705C240.087 168.705 243.326 168.11 242.854 171.673H242.861L242.835 171.837C242.827 171.885 242.82 171.933 242.811 171.981L236.422 211.062C236.422 211.066 236.421 211.069 236.421 211.072L236.408 211.152H236.404C236.012 213.325 234.377 215.436 231.493 217.101C224.818 220.955 213.994 220.955 207.318 217.101C204.434 215.436 202.799 213.324 202.407 211.152H202.404L202.394 211.092C202.391 211.074 202.388 211.055 202.385 211.037L197.54 180.964Z" fill="#F28F8F"/>
<path d="M193.101 69.8509C183.363 65.6344 172.265 62.7529 160.928 62.7529C122.243 62.7529 90.8828 94.1128 90.8828 132.798C90.8828 158.538 105.988 179.167 125.456 193.209C133.613 199.094 147.667 206.844 155.757 210.893C167.296 216.668 178.27 220.516 191.206 220.516C229.891 220.516 261.25 189.156 261.25 150.471C261.25 125.369 247.747 104.329 228.787 90.6472C217.971 82.8409 203.918 74.5343 193.101 69.8509Z" fill="#FFA8A7"/>
<path d="M134.148 182.754C107.109 160.899 90.8828 112.518 112.512 82.1807C99.1844 94.9323 90.8828 112.895 90.8828 132.797C90.8828 158.538 105.988 179.166 125.456 193.209C133.613 199.093 147.667 206.844 155.757 210.893C167.296 216.668 178.27 220.516 191.206 220.516C212.032 220.516 230.731 211.423 243.561 196.996C204.258 225.282 161.187 204.61 134.148 182.754Z" fill="#F49C9C"/>
<path d="M207.154 93.768L217.971 100.014C228.787 96.8915 241.72 98.7915 249.991 112.75C249.991 112.75 252.813 80.0434 248.641 71.0044C248.641 71.0044 246.399 69.7169 245.499 69.1889C244.133 68.3869 241.925 68.1463 239.286 68.6076C225.93 70.9412 213.878 82.0384 207.154 93.768Z" fill="#FFBBBA"/>
<path d="M217.971 100.014C231.979 96.4189 242.653 100.804 249.991 112.75C249.991 112.75 262.275 65.7404 242.307 70.3515C228.787 73.4736 217.971 100.014 217.971 100.014Z" fill="#F28F8F"/>
<path d="M238.252 95.3289C225.234 90.5517 217.971 100.012 217.971 100.012C231.979 96.4176 242.653 100.802 249.991 112.749C249.991 112.749 251.269 100.106 238.252 95.3289Z" fill="#D46A6A"/>
<path d="M196.339 112.502C184.486 123.286 173.845 136.97 166.05 157.461L155.69 151.522C151.804 147.583 141.705 114.064 161.187 101.575C174.202 93.2306 196.339 112.502 196.339 112.502Z" fill="#FFBBBA"/>
<path d="M196.339 112.502C182.331 125.083 172.533 140.253 166.05 157.461C166.05 157.461 144.287 119.8 163.891 103.135C175.339 93.4037 196.339 112.502 196.339 112.502Z" fill="#F28F8F"/>
<path d="M196.339 112.503C196.339 112.503 184.432 112.503 174.173 126.553C164.58 139.692 166.05 157.461 166.05 157.461C172.534 140.253 182.331 125.083 196.339 112.503Z" fill="#D46A6A"/>
<path d="M248.221 147.686C244.03 145.272 238.086 145.686 231.492 149.492C218.798 156.821 208.508 173.945 208.507 187.74C208.507 194.325 210.854 198.959 214.687 201.206C216.536 202.29 223.781 206.481 225.647 207.538C229.834 209.909 235.749 209.479 242.307 205.693C255.001 198.364 265.292 181.24 265.292 167.445C265.292 160.866 262.949 156.236 259.123 153.986C257.273 152.898 250.057 148.744 248.221 147.686Z" fill="#F28F8F"/>
<path d="M242.309 155.737C255.003 148.409 265.293 153.651 265.293 167.446C265.293 181.241 255.002 198.365 242.308 205.693C229.614 213.022 219.323 207.78 219.323 193.985C219.323 180.19 229.614 163.066 242.309 155.737Z" fill="#FFA8A7"/>
<path d="M223.937 203.879C218.127 195.884 221.868 179.14 228.309 168.992C222.847 176.712 219.323 185.916 219.323 193.984C219.323 207.779 229.613 213.021 242.307 205.693C246.461 203.295 250.353 199.844 253.717 195.808C245.72 205.392 230.14 212.415 223.937 203.879Z" fill="#FFBBBA"/>
<path d="M234.196 181.193C236.436 179.899 238.252 180.948 238.252 183.534C238.252 186.12 236.436 189.266 234.196 190.559C231.956 191.852 230.14 190.804 230.14 188.217C230.14 185.631 231.956 182.486 234.196 181.193Z" fill="#F28F8F"/>
<path d="M235.548 181.973C235.548 181.501 235.486 181.08 235.373 180.715C235.001 180.799 234.605 180.956 234.196 181.192C231.956 182.486 230.14 185.631 230.14 188.217C230.14 188.69 230.201 189.11 230.314 189.476C230.687 189.391 231.082 189.234 231.492 188.998C233.732 187.705 235.548 184.559 235.548 181.973Z" fill="#E37B7B"/>
<path d="M250.42 171.826C252.66 170.533 254.476 171.581 254.476 174.168C254.476 176.755 252.66 179.899 250.42 181.193C248.18 182.486 246.364 181.438 246.364 178.851C246.364 176.265 248.18 173.119 250.42 171.826Z" fill="#F28F8F"/>
<path d="M251.772 172.607C251.772 172.134 251.71 171.714 251.597 171.349C251.225 171.434 250.83 171.59 250.42 171.826C248.18 173.119 246.364 176.265 246.364 178.851C246.364 179.324 246.426 179.744 246.538 180.109C246.911 180.024 247.306 179.868 247.716 179.632C249.956 178.339 251.772 175.193 251.772 172.607Z" fill="#E37B7B"/>
<path d="M201.747 158.502C204.734 158.502 207.156 156.081 207.156 153.093C207.156 150.106 204.734 147.685 201.747 147.685C198.76 147.685 196.339 150.106 196.339 153.093C196.339 156.081 198.76 158.502 201.747 158.502Z" fill="#37474F"/>
<path d="M246.128 138.184C248.241 136.072 248.241 132.647 246.128 130.535C244.016 128.423 240.592 128.423 238.479 130.535C236.367 132.647 236.367 136.072 238.479 138.184C240.592 140.296 244.016 140.296 246.128 138.184Z" fill="#37474F"/>
<path d="M182.818 95.3301L158.483 81.279L163.892 78.1562L188.228 92.2074L182.818 95.3301Z" fill="#F28F8F"/>
<path d="M163.892 78.1562V81.279L185.523 93.768L188.228 92.2074L163.892 78.1562Z" fill="#E37B7B"/>
<path d="M163.892 78.1562V81.279L161.187 82.8404L158.483 81.279L163.892 78.1562Z" fill="#D46A6A"/>
<path d="M171.922 51.8457C170.859 51.8911 169.962 51.0664 169.916 50.0039L169.127 31.4049C169.081 30.3425 169.905 29.4447 170.969 29.3993C172.032 29.3538 172.929 30.1785 172.974 31.241L173.763 49.84C173.809 50.9024 172.985 51.8002 171.922 51.8457Z" fill="#E0E0E0"/>
<path d="M152.17 55.6423C151.505 55.621 150.87 55.2555 150.532 54.6266L141.747 38.2143C141.245 37.2768 141.598 36.11 142.536 35.6082C143.469 35.1064 144.639 35.4592 145.143 36.3974L153.928 52.8098C154.431 53.748 154.077 54.9141 153.139 55.4166C152.831 55.5805 152.497 55.6522 152.17 55.6423Z" fill="#E0E0E0"/>
<path d="M205.302 65.5444C204.642 65.6352 203.955 65.3819 203.516 64.819C202.863 63.9802 203.015 62.7701 203.855 62.1164L218.554 50.6934C219.388 50.0412 220.601 50.1917 221.256 51.0327C221.909 51.8716 221.757 53.0816 220.917 53.7346L206.219 65.1576C205.942 65.3726 205.625 65.5004 205.302 65.5444Z" fill="#E0E0E0"/>
<path d="M191.705 55.158C191.382 55.2034 191.042 55.1679 190.718 55.0366C189.732 54.6377 189.255 53.5157 189.654 52.5298L196.627 35.2687C197.026 34.2822 198.149 33.8059 199.133 34.2041C200.12 34.603 200.597 35.725 200.198 36.7108L193.224 53.972C192.957 54.6335 192.364 55.065 191.705 55.158Z" fill="#E0E0E0"/>
<path d="M57.7254 193.911C57.9319 193.536 58.0093 193.115 58.0086 192.654C58.0079 192.18 58.0362 191.707 58.0668 191.234C58.3031 187.637 61.1626 153.464 61.8759 145.614C63.0739 132.428 63.1342 97.1894 60.4827 85.8359L25.0178 88.6457C22.4813 95.0361 20.626 102.901 21.0547 115.232C21.3819 124.637 21.23 150.15 21.23 150.15C21.23 150.15 16.9504 153.91 13.9057 161.322C11.2158 167.871 9.49048 183.921 8.00006 190.274C7.71688 191.482 7.30169 193.124 7.13704 193.348C6.39964 194.353 5.87586 195.429 5.87941 196.65C5.89006 200.554 6.3166 204.457 7.14981 208.272C7.58061 210.247 8.81766 211.515 10.7907 212.294C11.2279 212.467 11.7013 212.555 12.1697 212.519C12.4089 212.5 12.6658 212.441 12.8361 212.269C13.1683 211.934 12.8624 211.143 12.7985 210.747C12.6949 210.108 12.6381 209.463 12.6168 208.817C12.5756 207.547 12.6111 205.996 12.6913 204.729C12.9021 201.414 13.3783 198.722 14.0348 196.303C14.0348 196.303 14.3045 195.656 14.714 194.673C14.714 194.673 29.8901 163.865 34.2038 156.354C37.6338 150.46 41.1193 127.584 43.5295 115.089L47.7346 144.927C47.7346 144.927 45.9397 150.324 45.4742 154.45C44.8496 159.99 48.79 181.522 49.9802 189.235C50.1541 190.36 50.2165 191.507 50.1619 192.644C50.1463 192.973 50.0419 193.372 50.137 193.69C50.2407 194.039 50.5614 194.354 50.8489 194.558C51.2179 194.821 51.6495 194.981 52.0866 195.098C53.049 195.356 54.0646 195.418 55.0519 195.285C55.4231 195.236 55.7751 195.109 56.142 195.036C56.5593 194.952 56.9539 194.761 57.2712 194.476C57.4656 194.301 57.6147 194.113 57.7254 193.911Z" fill="#FFA8A7"/>
<path d="M19.5302 219.691C19.4415 219.711 19.3528 219.73 19.2641 219.747C16.9206 220.219 14.472 220.263 12.1491 219.697C10.0973 219.197 8.11787 218.205 6.58629 216.737C5.95322 216.13 5.48551 215.091 5.12568 214.297C4.71546 213.391 4.48551 212.425 4.21582 211.471C3.34641 208.393 4.11433 207.437 2.91561 204.442C2.48481 203.365 1.8347 202.343 1.57068 201.236C1.75663 200.354 1.98445 199.993 2.24492 199.585C3.69133 201.283 5.13704 202.982 6.58346 204.681C7.54371 205.809 8.50325 206.936 9.46351 208.063C9.97096 208.659 10.4777 209.255 10.9852 209.85C11.3287 210.254 11.6069 210.786 11.9802 211.15C12.4507 211.609 13.2449 211.899 13.8248 212.196C14.4912 212.537 15.1683 212.858 15.8546 213.158C17.2002 213.746 18.5806 214.251 19.988 214.672C20.5756 214.847 21.1761 215.012 21.6984 215.332C22.2208 215.654 22.6644 216.163 22.7467 216.771C22.817 217.293 22.6118 217.823 22.2875 218.238C21.6338 219.074 20.5756 219.458 19.5302 219.691Z" fill="#37474F"/>
<path d="M13.6445 197.311L14.1846 195.946C14.7517 196.345 14.2392 199.121 14.3854 201.96C14.4507 203.229 14.6488 204.493 14.9504 205.728C15.2456 206.935 15.7368 207.811 16.4983 208.792C17.6104 210.226 18.9625 211.473 20.4813 212.464C21.2094 212.94 21.7659 213.239 22.2435 213.987C22.7055 214.71 22.939 215.642 22.5955 216.461C22.3464 217.056 21.8326 217.508 21.262 217.808C20.4955 218.212 19.604 218.433 18.7524 218.566C15.9965 218.994 13.071 218.749 10.4671 217.646C9.08382 217.06 7.74102 216.152 6.78289 214.977C5.97168 213.984 5.62888 212.663 5.2648 211.445C4.61256 209.262 4.56927 206.976 4.15266 205.299C3.73605 203.622 2.14344 201.282 2.24635 199.583C2.30312 198.65 3.37836 197.001 4.40036 195.655C5.3379 194.42 6.83258 192.801 7.25202 193.126C7.18318 193.296 6.95678 194.031 6.95678 194.031C7.26409 194.898 8.14698 196.217 9.89432 197.021C11.0228 197.542 12.7694 197.688 13.6445 197.311Z" fill="#455A64"/>
<path d="M16.7417 209.296C16.8808 209.269 16.9951 209.159 17.0199 209.012C17.0526 208.821 16.9248 208.641 16.7339 208.609C14.6963 208.262 11.0731 208.699 9.45214 209.78C9.29103 209.887 9.24774 210.104 9.35561 210.264C9.46278 210.425 9.67925 210.468 9.84035 210.361C11.3059 209.384 14.7453 208.98 16.6175 209.297C16.6594 209.306 16.702 209.304 16.7417 209.296Z" fill="#E0E0E0"/>
<path d="M15.5259 206.671C15.6657 206.652 15.7871 206.549 15.8205 206.403C15.8645 206.216 15.7474 206.027 15.5586 205.984C13.7154 205.556 10.5976 205.755 8.77078 206.823C8.60399 206.92 8.54792 207.134 8.64586 207.301C8.74381 207.468 8.95673 207.523 9.12422 207.427C10.7495 206.477 13.6821 206.266 15.401 206.665C15.4436 206.675 15.4855 206.676 15.5259 206.671Z" fill="#E0E0E0"/>
<path d="M14.7602 203.931C14.8816 203.919 14.9937 203.843 15.0463 203.723C15.1236 203.546 15.042 203.34 14.8653 203.263C13.2421 202.557 9.98593 202.867 8.29111 203.886C8.12574 203.986 8.07181 204.201 8.17117 204.366C8.27124 204.532 8.48913 204.583 8.65094 204.486C10.1619 203.576 13.1577 203.282 14.5856 203.903C14.6424 203.928 14.702 203.937 14.7602 203.931Z" fill="#E0E0E0"/>
<path d="M73.8268 209.367C73.9148 210.205 73.6146 211.685 72.4968 212.397C71.3789 213.11 67.5017 214.779 63.8289 213.855C58.7984 212.589 57.8218 211.237 56.0958 209.418C53.8935 207.098 54.1291 205.895 51.6742 203.801C50.792 203.049 49.7409 202.446 48.9922 201.589C48.7466 200.722 48.7203 199.715 48.7615 199.232L73.8268 209.367Z" fill="#37474F"/>
<path d="M57.9183 192.315L58.0674 191.234C58.7551 191.324 59.2874 193.64 60.738 196.085C61.902 198.048 63.8544 200.064 65.4712 201.289C68.3576 203.476 71.995 205.642 73.6394 208.096C75.3044 210.58 70.1717 212.858 66.2994 212.771C62.4343 212.684 59.3434 211.043 57.078 208.725C55.4847 207.097 54.3825 205.094 53.2334 203.803C52.0844 202.512 49.5862 201.182 48.8871 199.631C48.5031 198.779 48.6877 196.819 48.9666 195.152C49.2221 193.623 49.677 191.679 50.2001 191.772C50.1923 191.92 50.2022 192.6 50.2022 192.6C50.8779 193.224 52.5443 193.906 54.4648 193.805C55.7047 193.74 57.3193 193.056 57.9183 192.315Z" fill="#455A64"/>
<path d="M68.0597 202.968C68.1825 202.899 68.2556 202.757 68.2329 202.61C68.2031 202.419 68.0243 202.288 67.8333 202.319C65.7915 202.638 62.4955 204.205 61.3018 205.745C61.1832 205.897 61.2109 206.117 61.3642 206.235C61.5168 206.354 61.7354 206.326 61.8546 206.173C62.9334 204.78 66.0661 203.304 67.9412 203.009C67.9845 203.003 68.0243 202.989 68.0597 202.968Z" fill="#E0E0E0"/>
<path d="M65.2989 201.063C65.4217 200.993 65.4955 200.853 65.4721 200.705C65.443 200.514 65.2634 200.383 65.0725 200.414C63.2031 200.705 60.3855 202.055 59.0902 203.728C58.9717 203.881 58.9994 204.1 59.1527 204.218C59.306 204.336 59.5239 204.309 59.6431 204.156C60.7957 202.668 63.4373 201.377 65.1811 201.104C65.2236 201.098 65.2627 201.084 65.2989 201.063Z" fill="#E0E0E0"/>
<path d="M62.9653 199.07C63.0717 199.009 63.1434 198.895 63.1427 198.764C63.1413 198.571 62.9837 198.415 62.7914 198.416C61.022 198.426 58.1682 200.026 57.0298 201.643C56.9191 201.802 56.9567 202.02 57.1143 202.131C57.2733 202.242 57.4926 202.2 57.6019 202.046C58.6161 200.603 61.2378 199.124 62.7949 199.116C62.8567 199.114 62.9149 199.098 62.9653 199.07Z" fill="#E0E0E0"/>
<path d="M30.0391 78.71C30.0391 78.71 24.3883 86.4765 22.406 94.771C20.4238 103.066 20.5338 108.512 20.6111 122.964C20.6885 137.417 20.8957 149.982 20.8957 149.982C20.8957 149.982 13.7226 154.713 11.3535 171.139C11.3535 171.139 17.0015 176.96 24.5033 175.026C24.5033 175.026 32.5558 160.72 35.2172 156.23C37.8787 151.74 43.5309 115.089 43.5309 115.089L46.9305 144.98C46.9305 144.98 44.3642 152.127 44.7013 157.178C45.0384 162.228 46.0412 169.611 46.0412 169.611C46.0412 169.611 52.5175 172.55 59.79 169.183C59.79 169.183 62.5785 145.711 62.8972 137.193C63.2158 128.674 64.2556 98.6077 60.0781 79.7703L30.0391 78.71Z" fill="#455A64"/>
<path d="M43.5104 115.167L46.873 101.993C46.873 101.993 53.34 102.741 58.4309 98.9785C58.4309 98.9785 57.3911 103.797 48.3727 105.237L44.5224 118.17L44.5828 124.347L43.5104 115.167Z" fill="#263238"/>
<path d="M111.183 63.5505C109.15 63.8287 104.478 64.2766 104.478 64.2766C104.478 64.2766 107.297 61.3632 106.352 60.5498C105.406 59.7365 104.461 61.8408 101.417 62.7393C98.3733 63.6378 97.0688 65.0331 95.2746 64.872L72.9659 62.8628C72.9659 62.8628 59.8538 42.3525 57.4684 40.207C55.0859 38.0651 52.2214 37.7656 49.1292 38.2028L51.7991 54.9224C51.7991 54.9224 60.6075 65.6996 63.281 68.9707C65.9553 72.2425 67.0085 73.3773 71.0078 73.5896C75.555 73.8316 87.1845 73.2262 93.8971 72.8316C98.2675 72.9288 99.7033 73.2524 102.801 73.0587C106.117 72.8507 109.55 73.1978 112.268 69.3078C115.427 64.7847 114.133 63.1467 111.183 63.5505Z" fill="#F28F8F"/>
<path d="M110.216 45.715C110.992 47.7682 111.322 50.3353 111.097 53.3282C110.307 63.8087 103.016 75.5035 94.8141 79.4488C92.472 80.5752 90.3102 80.9456 88.433 80.6596L87.8112 81.6575L84.4528 78.6965L84.4606 78.6838C82.2087 76.4921 81.0135 72.6561 81.3932 67.6163C82.1831 57.1359 89.4734 45.441 97.6757 41.4957C101.62 39.5986 105.062 39.8307 107.48 41.7562L110.838 44.7171L110.216 45.715Z" fill="#27DEBF"/>
<g opacity="0.25">
<path d="M110.216 45.716C110.992 47.7692 111.322 50.3363 111.097 53.3292C110.307 63.8096 103.016 75.5045 94.8142 79.4498C92.4721 80.5761 90.3103 80.9466 88.4331 80.6606L87.8114 81.6585L84.4529 78.6975L84.4608 78.6847C82.2088 76.4931 81.0136 72.6571 81.3933 67.6173C82.1832 57.1368 89.4735 45.442 97.6758 41.4967C101.62 39.5996 105.062 39.8317 107.48 41.7571L110.838 44.7181L110.216 45.716Z" fill="black"/>
</g>
<path opacity="0.1" d="M105.736 68.8383C102.789 73.5658 98.9164 77.4764 94.8149 79.4494C92.4728 80.5765 90.311 80.9462 88.4338 80.6602L87.8114 81.6581L84.4529 78.6971L84.4608 78.6843C82.2088 76.4927 81.0136 72.6567 81.3933 67.6169C81.7886 62.3763 83.8085 56.832 86.7553 52.1045L105.736 68.8383Z" fill="black"/>
<path opacity="0.1" d="M97.9064 77.5688C96.8986 78.309 95.8646 78.9442 94.8142 79.4496C92.4721 80.5766 90.3103 80.9464 88.433 80.6603L87.8106 81.6582L84.4522 78.6972L84.46 78.6845C82.2081 76.4929 81.0129 72.6568 81.3926 67.617C81.4941 66.2757 81.7042 64.9144 82.0065 63.5518L97.9064 77.5688Z" fill="black"/>
<path opacity="0.5" d="M110.483 57.3935C110.785 56.0308 110.996 54.6696 111.097 53.3282C111.322 50.3353 110.992 47.7675 110.216 45.715L110.838 44.7171L107.479 41.7562C105.061 39.8307 101.619 39.5986 97.6752 41.4957C96.6255 42.001 95.5914 42.6362 94.5829 43.3765L110.483 57.3935Z" fill="#27DEBF"/>
<path d="M100.754 44.2092C92.5516 48.1546 85.2613 59.8494 84.4714 70.3299C83.6814 80.8104 89.6907 86.1077 97.8922 82.1624C106.095 78.217 113.385 66.5222 114.175 56.0417C114.965 45.5612 108.956 40.2632 100.754 44.2092Z" fill="#27DEBF"/>
<path opacity="0.2" d="M100.754 44.2092C92.5516 48.1546 85.2613 59.8494 84.4714 70.3299C83.6814 80.8104 89.6907 86.1077 97.8922 82.1624C106.095 78.217 113.385 66.5222 114.175 56.0417C114.965 45.5612 108.956 40.2632 100.754 44.2092Z" fill="black"/>
<path d="M108.879 58.4311C108.496 61.6334 107.188 65.1579 105.192 68.3616C103.197 71.5617 100.74 74.077 98.2762 75.4411C95.6659 76.8868 93.3231 76.8847 91.6829 75.4382C90.0427 73.9918 89.3621 71.3296 89.7666 67.9386C90.1449 64.737 91.4551 61.209 93.4494 58.0096C95.4458 54.8066 97.9015 52.2942 100.369 50.9294C102.977 49.4865 105.317 49.4865 106.958 50.9329C108.599 52.3786 109.283 55.0443 108.879 58.4311Z" fill="#27DEBF"/>
<path opacity="0.4" d="M108.879 58.4311C108.496 61.6334 107.188 65.1579 105.192 68.3616C103.197 71.5617 100.74 74.077 98.2762 75.4411C95.6659 76.8868 93.3231 76.8847 91.6829 75.4382C90.0427 73.9918 89.3621 71.3296 89.7666 67.9386C90.1449 64.737 91.4551 61.209 93.4494 58.0096C95.4458 54.8066 97.9015 52.2942 100.369 50.9294C102.977 49.4865 105.317 49.4865 106.958 50.9329C108.599 52.3786 109.283 55.0443 108.879 58.4311Z" fill="black"/>
<path d="M110.334 45.5174C108.067 43.5181 104.793 43.391 101.121 45.1547C97.2946 46.9993 93.5359 50.655 90.5473 55.4499C87.5586 60.2448 85.7126 65.5798 85.3407 70.4712C84.9859 75.166 86.0427 78.8502 88.3102 80.8488C90.5813 82.8509 93.8489 82.9794 97.5231 81.2115C101.354 79.3697 105.109 75.7182 108.099 70.924C111.087 66.1291 112.935 60.7899 113.304 55.8956C113.656 51.2051 112.605 47.5202 110.334 45.5174ZM106.959 50.9325C108.599 52.3783 109.282 55.044 108.879 58.4315C108.496 61.6338 107.188 65.1582 105.192 68.3619C103.197 71.5621 100.74 74.0773 98.2762 75.4414C95.6658 76.8871 93.323 76.885 91.6828 75.4386C90.0427 73.9922 89.362 71.33 89.7666 67.9389C90.1449 64.7374 91.455 61.2093 93.4493 58.0099C95.4458 54.8069 97.9014 52.2945 100.369 50.9297C102.979 49.4861 105.319 49.4861 106.959 50.9325Z" fill="#27DEBF"/>
<path opacity="0.2" d="M100.692 51.6655C105.592 48.9558 108.951 51.9175 108.195 58.2809C107.439 64.6442 102.855 71.9998 97.9547 74.7095C93.0548 77.4193 89.6957 74.4576 90.4516 68.0942C91.2074 61.7308 95.7929 54.3753 100.692 51.6655Z" fill="black"/>
<path d="M100.692 51.6655C105.592 48.9558 108.951 51.9175 108.195 58.2809C107.439 64.6442 102.855 71.9998 97.9547 74.7095C93.0548 77.4193 89.6957 74.4576 90.4516 68.0942C91.2074 61.7308 95.7929 54.3753 100.692 51.6655Z" fill="#27DEBF"/>
<path opacity="0.6" d="M100.692 51.6655C105.592 48.9558 108.951 51.9175 108.195 58.2809C107.439 64.6442 102.855 71.9998 97.9547 74.7095C93.0548 77.4193 89.6957 74.4576 90.4516 68.0942C91.2074 61.7308 95.7929 54.3753 100.692 51.6655Z" fill="black"/>
<path d="M106.79 57.0412C106.034 63.4046 101.449 70.7602 96.5495 73.4699C94.5233 74.5905 92.7625 74.7389 91.4452 74.0802C90.5325 72.7729 90.14 70.7254 90.4523 68.0937C91.2082 61.7303 95.793 54.3748 100.693 51.6651C102.719 50.5444 104.481 50.3961 105.798 51.0547C106.71 52.3627 107.102 54.4096 106.79 57.0412Z" fill="#27DEBF"/>
<path opacity="0.5" d="M106.79 57.0412C106.034 63.4046 101.449 70.7602 96.5495 73.4699C94.5233 74.5905 92.7625 74.7389 91.4452 74.0802C90.5325 72.7729 90.14 70.7254 90.4523 68.0937C91.2082 61.7303 95.793 54.3748 100.693 51.6651C102.719 50.5444 104.481 50.3961 105.798 51.0547C106.71 52.3627 107.102 54.4096 106.79 57.0412Z" fill="black"/>
<path d="M102.041 60.7133C101.45 60.3442 100.589 60.4833 99.6978 60.7438C99.4316 60.8233 99.1747 60.9099 98.927 60.9943C99.1272 60.5969 99.4906 60.2484 99.9533 59.9695C101.131 59.2583 101.628 59.8637 101.747 60.4585L104.592 57.9084C104.511 57.5962 104.398 57.3414 104.268 57.1285C104.121 56.8999 103.946 56.7275 103.747 56.6047C103.617 56.5238 101.683 55.4649 101.493 55.4123C101.324 55.3655 101.146 55.3442 100.96 55.3421L100.948 55.0028L99.1123 53.9922L96.8781 55.3371L96.8923 55.7402L96.9434 57.1277C96.9434 57.1277 95.8397 57.5877 94.6495 59.6764C94.5991 59.7651 94.5558 59.8474 94.5126 59.929C94.0356 60.8297 93.778 61.7999 93.8184 62.7956C93.8135 62.8041 93.8135 62.8041 93.8135 62.8041C93.8539 63.7651 94.1471 64.3052 94.5835 64.5727C94.6275 64.5997 96.1385 65.3982 96.3834 65.56C96.4387 65.5962 96.4962 65.6281 96.5558 65.6558C96.5991 65.6756 96.6502 65.6884 96.6935 65.7083L96.7084 65.7147C96.7588 65.7282 96.8099 65.7409 96.861 65.7544C96.9057 65.7651 96.9512 65.7757 97.0008 65.7779C97.0228 65.7779 97.0399 65.7857 97.059 65.7842C97.0952 65.7913 97.1314 65.797 97.1698 65.7942C97.4849 65.8169 97.8277 65.7708 98.1712 65.7047C98.3401 65.6707 98.514 65.6281 98.6886 65.5763C98.9391 65.5082 99.1911 65.4301 99.4295 65.357C99.5083 65.3293 99.5807 65.3073 99.6538 65.2846C99.4643 65.6132 99.1407 65.9489 98.629 66.2576C98.3649 66.4159 98.1307 66.5216 97.9249 66.5791L96.8823 66.005L94.1818 68.4485C94.3493 68.9234 94.602 69.2704 94.9334 69.4911C95.2649 69.7111 96.5658 70.3811 96.8525 70.5522C97.0796 70.6884 97.3429 70.7679 97.6403 70.7885L97.6566 71.1845L99.492 72.1952L101.747 70.8396L101.675 69.0554C102.616 68.3378 103.379 67.4975 103.893 66.5834L103.906 66.5593C104.424 65.6267 104.691 64.6196 104.65 63.5621C104.611 62.5649 104.324 62.0064 103.889 61.7289C103.547 61.5117 102.298 60.8744 102.041 60.7133Z" fill="#27DEBF"/>
<path opacity="0.3" d="M102.041 60.7133C101.45 60.3442 100.589 60.4833 99.6978 60.7438C99.4316 60.8233 99.1747 60.9099 98.927 60.9943C99.1272 60.5969 99.4906 60.2484 99.9533 59.9695C101.131 59.2583 101.628 59.8637 101.747 60.4585L104.592 57.9084C104.511 57.5962 104.398 57.3414 104.268 57.1285C104.121 56.8999 103.946 56.7275 103.747 56.6047C103.617 56.5238 101.683 55.4649 101.493 55.4123C101.324 55.3655 101.146 55.3442 100.96 55.3421L100.948 55.0028L99.1123 53.9922L96.8781 55.3371L96.8923 55.7402L96.9434 57.1277C96.9434 57.1277 95.8397 57.5877 94.6495 59.6764C94.5991 59.7651 94.5558 59.8474 94.5126 59.929C94.0356 60.8297 93.778 61.7999 93.8184 62.7956C93.8135 62.8041 93.8135 62.8041 93.8135 62.8041C93.8539 63.7651 94.1471 64.3052 94.5835 64.5727C94.6275 64.5997 96.1385 65.3982 96.3834 65.56C96.4387 65.5962 96.4962 65.6281 96.5558 65.6558C96.5991 65.6756 96.6502 65.6884 96.6935 65.7083L96.7084 65.7147C96.7588 65.7282 96.8099 65.7409 96.861 65.7544C96.9057 65.7651 96.9512 65.7757 97.0008 65.7779C97.0228 65.7779 97.0399 65.7857 97.059 65.7842C97.0952 65.7913 97.1314 65.797 97.1698 65.7942C97.4849 65.8169 97.8277 65.7708 98.1712 65.7047C98.3401 65.6707 98.514 65.6281 98.6886 65.5763C98.9391 65.5082 99.1911 65.4301 99.4295 65.357C99.5083 65.3293 99.5807 65.3073 99.6538 65.2846C99.4643 65.6132 99.1407 65.9489 98.629 66.2576C98.3649 66.4159 98.1307 66.5216 97.9249 66.5791L96.8823 66.005L94.1818 68.4485C94.3493 68.9234 94.602 69.2704 94.9334 69.4911C95.2649 69.7111 96.5658 70.3811 96.8525 70.5522C97.0796 70.6884 97.3429 70.7679 97.6403 70.7885L97.6566 71.1845L99.492 72.1952L101.747 70.8396L101.675 69.0554C102.616 68.3378 103.379 67.4975 103.893 66.5834L103.906 66.5593C104.424 65.6267 104.691 64.6196 104.65 63.5621C104.611 62.5649 104.324 62.0064 103.889 61.7289C103.547 61.5117 102.298 60.8744 102.041 60.7133Z" fill="black"/>
<g opacity="0.1">
<path d="M101.533 61.7527C102.404 61.4979 103.246 61.3588 103.836 61.6967C103.444 61.4575 102.288 60.8663 102.04 60.7123C101.449 60.3432 100.588 60.4823 99.6971 60.7428C99.431 60.8223 99.174 60.9089 98.9264 60.9933C98.8092 61.2268 98.7461 61.4852 98.756 61.7492C98.8022 62.8897 100.081 62.185 101.533 61.7527Z" fill="black"/>
<path d="M97.6404 70.787L97.6567 71.183L99.4921 72.1937L99.4197 70.4102C98.7319 70.7011 98.1393 70.8225 97.6404 70.787Z" fill="black"/>
<path d="M96.0172 69.4569L94.1819 68.4463C94.3494 68.9211 94.6013 69.2682 94.9328 69.4889C95.2493 69.699 96.4395 70.3136 96.7972 70.5194C96.453 70.2973 96.1897 69.9459 96.0172 69.4569Z" fill="black"/>
<path d="M101.634 65.1684C101.561 65.0024 101.421 64.9285 101.217 64.9158C100.896 64.8902 100.4 65.0499 99.7141 65.2635C99.6814 65.2735 99.6524 65.2834 99.6524 65.2834C99.4629 65.612 99.1392 65.9477 98.6275 66.2564C98.3635 66.4147 98.1293 66.5205 97.9235 66.5779L98.7162 67.0137C98.883 67.7114 99.465 67.8668 100.463 67.2664C101.401 66.7 101.724 66.0442 101.703 65.5055C101.698 65.3707 101.674 65.2586 101.634 65.1684Z" fill="black"/>
<path d="M96.8781 55.335L98.7134 56.3456L98.7787 58.1362L96.9433 57.1256L96.8781 55.335Z" fill="black"/>
</g>
<path d="M98.7276 56.75L98.7787 58.1375C98.7787 58.1375 97.6751 58.5974 96.4849 60.6861C96.4345 60.7748 96.3912 60.8572 96.3479 60.9388C95.871 61.8394 95.6133 62.8096 95.6545 63.8054C95.6495 63.8132 95.6495 63.8132 95.6495 63.8132C95.6942 64.8721 96.0448 65.42 96.5558 65.6549C96.5991 65.6748 96.6502 65.6875 96.6935 65.7074L96.7077 65.7138C96.7581 65.7273 96.8092 65.7401 96.8596 65.7535C96.905 65.7642 96.9497 65.7748 96.9994 65.777C97.0214 65.777 97.0385 65.7848 97.0576 65.7834C97.0938 65.7905 97.13 65.7968 97.1683 65.7933C97.4835 65.816 97.8263 65.7699 98.1698 65.7039C98.3387 65.6698 98.5118 65.6272 98.6872 65.5754C98.9377 65.5073 99.1889 65.4292 99.4281 65.3561C99.5282 65.3206 99.6211 65.2922 99.7141 65.2638C100.397 65.0381 100.896 64.8912 101.217 64.9161C101.421 64.9289 101.561 65.0027 101.634 65.1687C101.674 65.2582 101.697 65.371 101.703 65.5066C101.724 66.0452 101.402 66.701 100.464 67.2674C99.4657 67.8671 98.8844 67.7124 98.717 67.0147L96.0165 69.4583C96.4977 70.8195 97.6559 71.1581 99.4189 70.4108L99.4913 72.195L101.747 70.8394L101.674 69.0552C102.615 68.3377 103.378 67.4973 103.892 66.5832L103.905 66.5591C104.422 65.6265 104.69 64.6194 104.647 63.5619C104.557 61.2099 103.089 61.2986 101.532 61.7543C100.08 62.1865 98.8007 62.8912 98.7553 61.75C98.729 61.0353 99.2145 60.4136 99.9526 59.9693C101.13 59.2582 101.627 59.8636 101.747 60.4583L104.591 57.9083C104.51 57.596 104.398 57.3405 104.267 57.1283C104.025 56.7493 103.702 56.5257 103.328 56.4221C102.664 56.2376 101.838 56.4299 101.015 56.794L100.947 55.002L98.7127 56.3469L98.7276 56.75Z" fill="#27DEBF"/>
<path d="M101.747 70.8391L99.492 72.1947L99.4196 70.4111L99.7049 71.8043L101.747 70.8391Z" fill="#F5F5F5"/>
<path d="M98.7177 67.0137L96.0172 69.4573L98.546 67.3146C98.546 67.3146 98.8703 68.5758 100.464 67.2663C99.4665 67.8668 98.8845 67.712 98.7177 67.0137Z" fill="#F5F5F5"/>
<path d="M104.592 57.908C104.511 57.5958 104.398 57.3403 104.268 57.1281C104.026 56.7491 103.703 56.5255 103.329 56.4219C103.329 56.4219 104.192 56.742 104.35 57.9478L101.747 60.4581L104.592 57.908Z" fill="#F5F5F5"/>
<path d="M101.015 56.7936L100.772 55.3103L98.7135 56.3465L100.946 55.0059L101.015 56.7936Z" fill="#F5F5F5"/>
<path d="M97.3912 80.8763C103.083 78.317 108.099 70.9238 108.099 70.9238C105.11 75.7187 101.354 79.3695 97.5232 81.2113C93.8497 82.9792 90.5814 82.8514 88.3103 80.8486C88.3103 80.8486 91.6013 83.4795 97.3912 80.8763Z" fill="#F5F5F5"/>
<path d="M88.9724 56.2689C92.0022 50.8984 96.24 46.3803 100.754 44.2093C105.448 41.9509 109.423 42.7203 111.818 45.7558C111.818 45.7558 107.791 41.0105 100.729 44.6706C93.6665 48.3306 88.9724 56.2689 88.9724 56.2689Z" fill="#F5F5F5"/>
<path d="M59.8829 74.3183C59.4223 71.0699 59.5536 66.3793 59.7629 63.3864C65.0106 58.0841 63.9198 52.0174 61.528 48.1465C56.6139 40.1941 50.3832 37.2246 50.3832 37.2246L42.1817 36.9727C41.0234 37.1054 30.9382 38.5617 29.6522 38.8953C29.6522 38.8953 26.1838 41.8392 25.2406 45.2154C24.704 47.1352 24.555 49.0557 26.2945 55.3183L30.5642 66.2005C30.5642 66.2005 31.8041 69.468 31.1753 71.747C30.5131 74.1444 27.0653 79.72 25.2406 85.2324C25.2406 85.2324 33.0305 92.2054 47.3123 90.588C59.5245 89.2054 61.3002 85.0954 61.3002 85.0954C61.3002 85.0954 60.0312 76.5497 59.8829 74.3183Z" fill="#27DEBF"/>
<path opacity="0.1" d="M36.8965 61.1934C36.8965 61.1934 39.2052 65.9357 45.3323 65.5859C50.9362 65.2658 53.0434 60.4609 53.0434 60.4609C53.0434 60.4609 52.9816 66.9066 45.3734 67.1274C37.7751 67.3467 36.8965 61.1934 36.8965 61.1934Z" fill="black"/>
<path d="M92.0235 60.6918C92.0356 59.7635 91.7978 58.9445 91.2648 58.1858C91.0845 57.9296 90.8979 57.7401 90.5409 57.6947C90.1832 57.6492 89.8106 57.8969 89.5175 58.1567C88.4713 59.0836 87.5771 60.1453 86.4784 61.0438C85.3805 61.9423 84.1945 62.5073 82.7559 62.5818C82.7609 62.283 82.8858 62.0829 83.0561 61.8444C83.4813 61.2497 83.8013 60.8252 84.2598 60.1787C84.7183 59.5321 85.2428 58.679 84.9951 57.8004C84.9291 57.5662 84.7588 57.359 84.5345 57.3157C84.3102 57.2724 84.1661 57.3682 83.9873 57.464C82.1768 58.4264 81.1356 59.0779 79.7857 60.2106C78.3698 61.3987 77.5338 63.3646 75.0994 64.3263C72.6651 65.288 70.0462 65.5279 65.538 66.1176C62.0341 66.5761 56.252 67.3284 52.3592 67.6656C46.7907 62.0098 39.9689 51.882 36.2527 46.8614C33.9674 43.7741 31.2861 40.3185 29.6523 38.8955C26.3947 39.8373 24.5075 41.5335 23.751 43.8742C21.7822 49.2461 24.5551 55.3959 31.8319 63.5009C34.2137 66.1538 41.4018 74.0602 45.0675 77.7372C45.9646 78.6372 47.5565 79.5201 49.2506 79.3206C51.2542 79.085 53.4628 78.777 55.7879 78.234C59.8013 77.2965 64.9036 75.8103 68.9064 74.8352C72.1477 74.046 75.5139 73.0964 78.2655 72.2873C81.0547 71.4668 81.993 71.1844 83.7872 70.4484C85.5813 69.7124 86.4884 69.3157 88.0753 68.19C88.9305 67.5832 89.7304 66.8189 90.3081 65.9856C90.8858 65.1524 91.2201 64.2475 91.5196 63.3426C91.8177 62.4377 92.0114 61.6201 92.0235 60.6918Z" fill="#FFA8A7"/>
<path d="M31.1171 6.58182C28.7048 6.84087 27.1121 8.26741 25.9333 10.4846C24.4833 13.2128 24.2818 16.5889 24.8453 19.3646C25.5444 22.8132 26.7069 24.9842 28.929 27.7124C31.0454 30.31 33.5947 32.5137 36.1476 34.667C38.4471 36.6067 41.9964 34.6578 43.8346 33.0609C46.6785 30.5918 49.5671 28.1652 52.643 25.9878C54.9404 24.3611 57.4549 22.7422 58.6302 20.1844C59.643 17.9814 59.6089 14.2234 57.5323 12.5974C58.5167 11.2262 59.5096 9.82312 60.0334 8.21844C60.5571 6.61376 60.5472 4.74718 59.6047 3.34619C58.748 2.07295 57.2527 1.36251 55.7537 1.03178C53.8538 0.613046 51.8566 0.593174 49.9233 0.439874C47.8077 0.272379 45.6906 0.12192 43.5699 0.0381722C41.67 -0.0370585 39.7317 -0.0533833 37.912 0.498781C36.3896 0.960811 35.0128 1.81603 33.8431 2.88487C33.2519 3.42497 32.7118 4.02043 32.2214 4.6535C32.1242 4.78054 30.9588 6.56905 31.1171 6.58182Z" fill="#455A64"/>
<path d="M32.1604 6.84721C32.1299 6.33196 31.8396 5.75708 31.5273 5.31563C30.1356 3.34473 27.3094 1.98916 25.0043 1.9047C22.5302 1.81315 20.1008 2.59527 18.4422 3.92032C16.7835 5.24537 15.5862 7.10485 14.4343 9.15524C13.2853 11.2014 12.1072 13.5548 10.1086 14.7848C7.15543 16.6031 3.41235 16.4938 0 15.8742C0.141945 17.6456 0.97232 19.3532 2.2775 20.5591C3.58268 21.7656 5.3506 22.4576 7.12775 22.4597C6.17743 23.0431 5.00426 23.2518 3.91129 23.0303C6.03407 26.5505 11.7566 26.0786 14.9808 24.5335C17.6068 23.2759 19.7133 20.9707 20.731 18.2425C21.4131 16.4136 21.6153 14.4405 22.198 12.5782C22.7814 10.7152 23.8737 8.85644 25.6714 8.09633C26.9673 7.54842 28.4102 7.66269 29.7587 7.92528C30.6678 8.10201 32.2484 8.32557 32.1604 6.84721Z" fill="#455A64"/>
<path d="M51.814 7.35938C53.7125 8.32673 56.2647 12.7909 56.6472 22.4594C56.9709 30.6546 54.4457 32.842 53.1504 33.5084C51.8552 34.1748 49.2647 33.9811 46.7409 33.7213L46.9978 37.8221C46.9978 37.8221 54.2697 43.0599 48.577 44.15C45.7345 44.6944 42.1774 43.776 39.6238 42.0038C37.0134 40.1919 36.0667 38.5524 36.0667 38.5524L35.4904 28.3785C35.4904 28.3785 34.11 29.8981 31.4819 27.8753C29.3115 26.2061 28.4286 23.216 29.9297 21.4878C31.4308 19.7597 34.4215 20.0173 35.7033 22.2664C35.7033 22.2664 37.2221 23.0301 38.5166 20.2188C38.5166 20.2188 41.7842 19.8831 45.4017 17.468C50.4428 14.1017 51.4641 9.02864 51.814 7.35938Z" fill="#FFA8A7"/>
<path d="M45.9135 20.5486C45.9802 21.1363 45.5756 21.6636 45.01 21.7261C44.4436 21.7885 43.9312 21.3627 43.8645 20.7743C43.7978 20.1867 44.2023 19.6593 44.7687 19.5969C45.3343 19.5344 45.8467 19.961 45.9135 20.5486Z" fill="#263238"/>
<path d="M46.0745 26.7607L50.0192 27.8793C49.731 29.007 48.6146 29.6706 47.5259 29.3619C46.4365 29.0531 45.7871 27.8892 46.0745 26.7607Z" fill="#B16668"/>
<path d="M48.4223 29.3985C48.3527 28.3609 47.4642 27.5682 46.4223 27.6249C46.2924 27.632 46.1668 27.6526 46.0461 27.6838C46.1852 28.466 46.7374 29.1395 47.5259 29.363C47.8297 29.4489 48.1334 29.4525 48.4223 29.3985Z" fill="#F28F8F"/>
<path d="M55.0163 16.7649L52.8439 15.4519C53.1867 14.8337 53.951 14.6265 54.5508 14.9891C55.1498 15.3518 55.3584 16.1474 55.0163 16.7649Z" fill="#263238"/>
<path d="M44.2421 16.7649L41.9341 17.821C41.6154 17.1901 41.8745 16.4413 42.5118 16.1496C43.1491 15.8579 43.9241 16.1333 44.2421 16.7649Z" fill="#263238"/>
<path d="M54.6352 19.7764C54.7019 20.3641 54.2966 20.8914 53.731 20.9539C53.1646 21.0163 52.6522 20.5905 52.5862 20.0028C52.5195 19.4145 52.924 18.8879 53.4897 18.8254C54.056 18.763 54.5684 19.1888 54.6352 19.7764Z" fill="#263238"/>
<path d="M49.66 19.4961L50.2122 25.6806L53.4088 24.4663L49.66 19.4961Z" fill="#F28F8F"/>
<path d="M46.7409 33.7223C44.088 33.542 38.5763 32.3263 37.5983 30.2383C37.5983 30.2383 37.9638 31.5655 39.6678 32.8508C41.3726 34.1354 46.8438 35.3603 46.8438 35.3603L46.7409 33.7223Z" fill="#F28F8F"/>
<path d="M35.7034 22.2686L35.9731 26.5731C37.5912 26.4716 38.8205 25.0777 38.719 23.4595L38.4699 19.4844L35.7034 22.2686Z" fill="#455A64"/>
</svg>
