<svg width="268" height="181" viewBox="0 0 268 181" fill="none" xmlns="http://www.w3.org/2000/svg">
<path d="M256.099 60.4023H240.088V170.728H256.099V60.4023Z" fill="#AB3A15"/>
<path d="M245.551 170.729H252.842L252.842 48.6071H245.551L245.551 170.729Z" fill="#F3D276"/>
<path d="M245.55 48.6064H236.485V170.729H245.55V48.6064Z" fill="#F1C754"/>
<path d="M245.551 161.355H252.842V154.694H245.551V161.355Z" fill="#FFB458"/>
<path d="M245.551 76.5117H252.842V69.8505H245.551V76.5117Z" fill="#FFB458"/>
<path d="M245.551 148.753H252.842V142.092H245.551V148.753Z" fill="#F1C754"/>
<path d="M252.842 57.9824H245.551V64.6436H252.842V57.9824Z" fill="#FFB458"/>
<path d="M221.907 170.728H238.072L238.072 31.9389H221.907L221.907 170.728Z" fill="#6F8E4F"/>
<path d="M221.907 31.9375H205.879V170.726H221.907V31.9375Z" fill="#5F823C"/>
<path d="M227.786 51.6318H232.193C232.193 53.0563 233.348 54.2112 234.773 54.2112V121.375C233.348 121.375 232.193 122.53 232.193 123.955H227.786C227.786 122.53 226.631 121.375 225.206 121.375V54.2114C226.631 54.2114 227.786 53.0565 227.786 51.6318Z" stroke="#8DA664" stroke-width="2.0231" stroke-miterlimit="10"/>
<path d="M227.786 135.023H232.193C232.193 136.448 233.348 137.603 234.773 137.603V150.043C233.348 150.043 232.193 151.198 232.193 152.622H227.786C227.786 151.198 226.631 150.043 225.206 150.043V137.603C226.631 137.603 227.786 136.448 227.786 135.023Z" stroke="#8DA664" stroke-width="2.0231" stroke-miterlimit="10"/>
<path d="M238.072 160.071H221.907" stroke="#8DA664" stroke-width="2.0231" stroke-miterlimit="10"/>
<path d="M238.072 130.004H221.907" stroke="#8DA664" stroke-width="2.0231" stroke-miterlimit="10"/>
<path d="M221.907 42.5918H238.072" stroke="#8DA664" stroke-width="2.0231" stroke-miterlimit="10"/>
<path d="M256.098 170.729H267.134V60.4041H256.098V170.729Z" fill="#DD5325"/>
<path d="M256.098 170.729H267.134V162.368H256.098V170.729Z" fill="#E37550"/>
<path d="M256.098 69.1621H267.134V60.4035H256.098V69.1621Z" fill="#E37550"/>
<path opacity="0.5" d="M256.098 160.086H267.134V157.189H256.098V160.086Z" fill="#E37550"/>
<path d="M256.098 97.125H267.134V94.2276H256.098V97.125Z" fill="#E37550"/>
<path opacity="0.5" d="M267.134 70.8564H256.098V73.7539H267.134V70.8564Z" fill="#E37550"/>
<path d="M259.355 88.1852V80.5553C259.355 78.4482 260.409 76.7402 261.711 76.7402C263.012 76.7402 264.066 78.4482 264.066 80.5553V88.1852C264.066 90.2921 263.012 92.0003 261.711 92.0003C260.41 92.0003 259.355 90.2923 259.355 88.1852Z" stroke="#E37550" stroke-width="2.0231" stroke-miterlimit="10"/>
<path d="M206.997 58.1625V170.729H218.144V58.1625H206.997Z" fill="#6073C9"/>
<path d="M187.514 58.1625V170.729H206.997V58.1625H187.514Z" fill="#495AAB"/>
<path d="M206.997 157.939V164.246H218.144V157.939H206.997Z" fill="#5262AF"/>
<path d="M206.997 139.468V145.775H218.144V139.468H206.997Z" fill="#5262AF"/>
<path d="M206.997 84.0573V90.3643H218.144V84.0573H206.997Z" fill="#5262AF"/>
<path d="M206.997 65.5885V71.8955H218.144V65.5885H206.997Z" fill="#5262AF"/>
<path d="M245.551 48.6045V170.727" stroke="#DD5325" stroke-width="2.0231" stroke-miterlimit="10" stroke-linecap="round" stroke-linejoin="round"/>
<path d="M210.696 73.7529H214.707C215.131 73.7529 215.474 74.0961 215.474 74.5195V80.0073C215.474 80.4306 215.131 80.7738 214.707 80.7738H210.696C210.273 80.7738 209.93 80.4306 209.93 80.0073V74.5195C209.929 74.0961 210.273 73.7529 210.696 73.7529Z" fill="#495AAB"/>
<path d="M189.539 26.1573V170.729H202.562V26.1573H189.539Z" fill="#21262B"/>
<path d="M152.643 26.1573V170.729H189.538V26.1573H152.643Z" fill="#373C40"/>
<path d="M189.538 153.181V161.954H202.562V153.181H189.538Z" fill="#373C40"/>
<path d="M189.539 33.9765V42.75H202.562V33.9765H189.539Z" fill="#373C40"/>
<path d="M186.178 171.315L186.178 56.1543H168.887L168.887 171.315H186.178Z" fill="#FFB458"/>
<path d="M168.887 171.315L168.887 56.1543L135.065 56.1543L135.065 171.315H168.887Z" fill="#F3D276"/>
<path d="M161.857 162.102V65.3663C159.493 65.3663 157.576 63.4496 157.576 61.085H142.591C142.591 63.4496 140.674 65.3663 138.309 65.3663V162.102C140.674 162.102 142.591 164.019 142.591 166.384H157.576C157.576 164.019 159.493 162.102 161.857 162.102Z" stroke="#DEA94D" stroke-width="2.0231" stroke-miterlimit="10" stroke-linecap="round" stroke-linejoin="round"/>
<path d="M186.179 70.5533V63.4531H168.887V70.5533H186.179Z" fill="#F3D276"/>
<path d="M186.179 82.6724V75.5723H168.887V82.6724H186.179Z" fill="#F3D276"/>
<path d="M186.179 150.836V143.735H168.887V150.836H186.179Z" fill="#F3D276"/>
<path d="M186.179 162.956V155.855H168.887V162.956H186.179Z" fill="#F3D276"/>
<path d="M186.178 66.7695H168.953" stroke="#DEA94D" stroke-width="2.0231" stroke-miterlimit="10" stroke-linecap="round" stroke-linejoin="round"/>
<path d="M186.178 79.1973H168.953" stroke="#DEA94D" stroke-width="2.0231" stroke-miterlimit="10" stroke-linecap="round" stroke-linejoin="round"/>
<path d="M186.178 146.682H168.953" stroke="#DEA94D" stroke-width="2.0231" stroke-miterlimit="10" stroke-linecap="round" stroke-linejoin="round"/>
<path d="M186.178 159.107H168.953" stroke="#DEA94D" stroke-width="2.0231" stroke-miterlimit="10" stroke-linecap="round" stroke-linejoin="round"/>
<path d="M165.804 56.1543V171.345" stroke="#DEA94D" stroke-width="2.0231" stroke-miterlimit="10" stroke-linecap="round" stroke-linejoin="round"/>
<path d="M107.778 171.755L141.421 172.374L162.715 77.84L129.072 77.2217L107.778 171.755Z" fill="#DD5325"/>
<path d="M152.808 77.1154L153.092 75.8566L119.449 75.2383L98.1549 169.772L106.442 171.156L138.339 171.775L159.633 77.241L152.808 77.1154Z" fill="white"/>
<path d="M141.421 172.374L130.691 169.619L151.985 75.085L162.715 77.8403L141.421 172.374Z" fill="#DD5325"/>
<path d="M97.048 168.999L130.691 169.618L151.985 75.0841L118.342 74.4658L97.048 168.999Z" fill="#DD5325"/>
<path d="M100.963 165.926L120.846 77.6562L148.07 78.1567L128.187 166.427L100.963 165.926Z" stroke="#AB3A15" stroke-width="2.0231" stroke-miterlimit="10"/>
<path d="M161.101 85.0048L150.371 82.2495L151.985 75.085L162.715 77.8403L161.101 85.0048Z" fill="#E37550"/>
<path d="M141.421 172.373L130.691 169.618L132.382 162.113L143.111 164.869L141.421 172.373Z" fill="#E37550"/>
<path d="M160.101 89.4441L149.372 86.6887L149.931 84.2061L160.661 86.9614L160.101 89.4441Z" fill="#E37550"/>
<path d="M147.949 143.39L137.219 140.634L137.779 138.151L148.509 140.907L147.949 143.39Z" fill="#E37550"/>
<path d="M133.268 158.178L143.998 160.933L143.439 163.416L132.709 160.66L133.268 158.178Z" fill="#E37550"/>
<path d="M130.691 169.619L151.985 75.085" stroke="#AB3A15" stroke-width="2.0231" stroke-miterlimit="10"/>
<path d="M197.806 146.558H194.289C194.289 145.485 193.419 144.616 192.346 144.616V50.7031C193.419 50.7031 194.289 49.8335 194.289 48.7607H197.806C197.806 49.8335 198.675 50.7031 199.748 50.7031V144.616C198.675 144.616 197.806 145.485 197.806 146.558Z" stroke="#4D5155" stroke-width="2.0231" stroke-miterlimit="10"/>
<path d="M189.538 35.8037H202.562" stroke="#21262B" stroke-width="2.0231" stroke-miterlimit="10"/>
<path d="M189.538 40.1777H202.562" stroke="#21262B" stroke-width="2.0231" stroke-miterlimit="10"/>
<path d="M189.538 155.701H202.562" stroke="#21262B" stroke-width="2.0231" stroke-miterlimit="10"/>
<path d="M189.538 160.073H202.562" stroke="#21262B" stroke-width="2.0231" stroke-miterlimit="10"/>
<path d="M204.838 57.9805V170.728" stroke="#6D7BBC" stroke-width="2.0231" stroke-miterlimit="10"/>
<path d="M187.868 26.1562V171.315" stroke="#21262B" stroke-width="2.0231" stroke-miterlimit="10"/>
<path d="M98.6194 117.658C94.1131 119.573 86.0363 127.887 86.0363 127.887L93.4274 136.723C93.4274 136.723 103.327 115.658 98.6194 117.658Z" fill="#F1C754"/>
<path d="M105.401 108.786C104.289 106.094 105.615 103.164 107.193 102.814C108.771 102.464 116.198 103.446 117.223 106.29C118.248 109.134 117.137 113.255 113.527 114.241C110.14 115.167 105.401 108.786 105.401 108.786Z" fill="#762F0E"/>
<path d="M119.683 119.688C111.913 116.801 101.167 115.148 97.8201 118.229C95.1359 128.839 93.0112 137.214 91.2211 147.965C98.3946 151.943 107.039 155.495 117.186 155.55C120.096 147.012 122.968 140.404 125.497 131.63C126.928 126.666 124.394 121.438 119.683 119.688Z" fill="#F1C754"/>
<path d="M108.339 116.911C104.569 116.27 103.507 120.864 109.245 122.118C115.338 123.45 117.783 118.528 114.288 118.001" fill="#E9A493"/>
<path d="M108.018 113.28L107.936 118.528C107.945 120.505 113.942 119.937 114.245 118.49C114.688 114.722 115.044 112.742 114.917 111.208L108.018 113.28Z" fill="#E9A493"/>
<path d="M112.49 114.308C109.319 116.524 106.069 116.515 105.179 113.519C104.29 110.522 105.418 107.308 105.847 105.897C106.276 104.486 107.865 101.297 112.331 102.182C116.798 103.067 117.677 110.789 112.49 114.308Z" fill="#E9A493"/>
<path d="M107.531 111.32C106.535 111.26 106.758 110.14 107.403 110.088C107.403 110.088 107.997 110.097 107.798 108.539" stroke="#AB6453" stroke-width="2.0231" stroke-miterlimit="10" stroke-linecap="round" stroke-linejoin="round"/>
<path d="M109.936 110.073C109.93 110.268 110.032 110.429 110.165 110.433C110.297 110.436 110.41 110.281 110.416 110.085C110.423 109.89 110.321 109.729 110.188 109.726C110.056 109.722 109.943 109.878 109.936 110.073Z" fill="#272532"/>
<path d="M106.161 109.3C106.155 109.495 106.257 109.656 106.39 109.659C106.522 109.663 106.635 109.507 106.641 109.312C106.648 109.117 106.546 108.956 106.413 108.952C106.281 108.949 106.168 109.104 106.161 109.3Z" fill="#272532"/>
<path d="M116.712 110.995C116.346 112.147 115.559 112.929 114.953 112.742C114.348 112.555 114.154 111.469 114.52 110.318C114.886 109.166 115.673 108.385 116.279 108.572C116.884 108.759 117.078 109.844 116.712 110.995Z" fill="#E9A493"/>
<path d="M108.219 115.879C110.238 115.946 111.906 115.078 112.258 114.465" stroke="#AB6453" stroke-width="2.0231" stroke-miterlimit="10" stroke-linecap="round" stroke-linejoin="round"/>
<path d="M107.727 112.5C108.13 112.771 108.694 112.879 109.119 112.612" stroke="#AB6453" stroke-width="2.0231" stroke-miterlimit="10" stroke-linecap="round" stroke-linejoin="round"/>
<path d="M115.988 108.554C115.096 108.756 114.572 111.12 114.572 111.12L113.768 110.931C113.768 110.931 114.086 109.899 113.452 108.953C112.819 108.007 113.116 106.604 113.655 105.936C112.282 106.661 110.13 106.887 109.553 106.689C108.713 106.401 108.43 105.765 107.393 105.653C106.673 105.575 106.436 105.841 105.933 105.636C105.283 105.372 104.867 104.597 104.794 104.006C104.517 101.748 106.873 97.6864 110.762 100.196C112.975 101.623 115.442 99.99 115.466 102.923C118.663 103.858 117.522 108.131 115.988 108.554Z" fill="#762F0E"/>
<path d="M110.003 108.003C110.003 108.003 110.34 108.015 110.762 108.251" stroke="#762F0E" stroke-width="2.0231" stroke-miterlimit="10" stroke-linecap="round" stroke-linejoin="round"/>
<path d="M106.115 107.556C106.115 107.556 106.546 107.25 106.981 107.321" stroke="#762F0E" stroke-width="2.0231" stroke-miterlimit="10" stroke-linecap="round" stroke-linejoin="round"/>
<path d="M107.751 101.082C106.531 101.839 106.151 103.742 108.397 103.702" stroke="#4D170C" stroke-width="2.0231" stroke-miterlimit="10" stroke-linecap="round" stroke-linejoin="round"/>
<path d="M108.112 102.547C108.112 102.547 110.27 101.963 111.304 102.583" stroke="#4D170C" stroke-width="2.0231" stroke-miterlimit="10" stroke-linecap="round" stroke-linejoin="round"/>
<path d="M110.801 101.297C110.801 101.297 112.864 101.346 113.655 102.699" stroke="#4D170C" stroke-width="2.0231" stroke-miterlimit="10" stroke-linecap="round" stroke-linejoin="round"/>
<path d="M110.388 103.826C110.388 103.826 111.936 104.212 113.348 103.734" stroke="#4D170C" stroke-width="2.0231" stroke-miterlimit="10" stroke-linecap="round" stroke-linejoin="round"/>
<path d="M114.917 105.658C114.917 105.658 115.348 107.029 115.024 107.782" stroke="#4D170C" stroke-width="2.0231" stroke-miterlimit="10" stroke-linecap="round" stroke-linejoin="round"/>
<path d="M115.903 104.32C116.023 104.619 116.527 106.532 116.403 107.551" stroke="#4D170C" stroke-width="2.0231" stroke-miterlimit="10" stroke-linecap="round" stroke-linejoin="round"/>
<path d="M73.4518 117.928L74.7174 117.464C74.7174 117.464 81.7315 118.221 82.4328 121.427C85.8798 118.897 99.7333 119.582 99.7333 119.582L100.858 120.799L95.6019 139.411L79.6537 139.73C79.6537 139.73 76.5325 137.994 76.4721 137.402C76.4118 136.81 73.4518 117.928 73.4518 117.928Z" fill="white"/>
<path d="M100.733 127.805C103.017 129.325 97.9531 126.508 98.5963 125.118C99.656 122.826 108.737 128.444 106.753 133.855" fill="#E9A493"/>
<path d="M72.7286 117.936L80.5969 122.091L84.1338 122.22L101.449 120.296L99.1976 141.003L83.367 143.249L79.8304 143.119L72.943 138.733L72.7286 117.936Z" fill="#8DA664"/>
<path d="M80.5967 122.091L79.8302 143.119" stroke="#5F823C" stroke-width="2.0231" stroke-miterlimit="10"/>
<path d="M84.1337 122.221L83.3669 143.249" stroke="#5F823C" stroke-width="2.0231" stroke-miterlimit="10"/>
<path d="M106.753 133.853C105.748 136.592 104.204 138.675 103.466 139.244C101.942 138.49 99.8298 137.026 96.9205 135.973C94.9676 135.266 92.2356 134.493 92.4757 133.388C92.6856 132.422 94.6493 133.253 96.037 133.299C94.9365 132.912 91.9049 132.105 92.1237 131.086C92.3717 129.93 95.6702 130.991 97.0577 131.16C94.7856 130.445 91.9765 129.413 92.3792 128.248C92.8503 126.886 96.2249 128.398 98.4051 129.224C91.1206 125.885 93.0074 122.66 100.733 127.803" fill="#E9A493"/>
<path d="M102.135 128.747L100.733 127.803" stroke="#AB6453" stroke-width="2.0231" stroke-miterlimit="10" stroke-linecap="round" stroke-linejoin="round"/>
<path d="M96.9558 128.571L99.1863 129.731" stroke="#AB6453" stroke-width="2.0231" stroke-miterlimit="10" stroke-linecap="round" stroke-linejoin="round"/>
<path d="M96.3757 131.045L98.2181 131.477" stroke="#AB6453" stroke-width="2.0231" stroke-miterlimit="10" stroke-linecap="round" stroke-linejoin="round"/>
<path d="M95.3134 133.224L97.6782 133.778" stroke="#AB6453" stroke-width="2.0231" stroke-miterlimit="10" stroke-linecap="round" stroke-linejoin="round"/>
<path d="M115.903 137.105L105.278 129.222C103.816 132.834 103.925 135.002 101.977 138.431C104.782 141.879 117.259 153.38 122.085 152.244C130.284 150.313 125.896 130.51 125.896 130.51L114.855 131.892L115.903 137.105Z" fill="#E9A493"/>
<path d="M115.903 137.104L119.849 139.288" stroke="#AB6453" stroke-width="2.0231" stroke-miterlimit="10" stroke-linecap="round" stroke-linejoin="round"/>
<path d="M72.3272 123.694C75.5002 123.557 75.7002 125.55 73.04 126.123C75.8973 125.509 75.5936 129.058 73.229 128.599C76.6656 128.223 74.6372 132.148 72.7155 131.021C75.3603 130.56 75.7064 133.393 72.6166 133.615C70.3721 133.776 70.951 131.338 71.1036 131.27C70.078 130.742 70.5968 129.422 71.0051 129.064C69.9227 128.913 70.2219 126.969 70.9318 126.505C70.123 125.622 70.1106 124.168 72.3272 123.694Z" fill="#E9A493"/>
<path d="M74.1471 131.033C74.1471 131.033 72.7819 130.374 71.1036 131.271" stroke="#AB6453" stroke-width="2.0231" stroke-miterlimit="10" stroke-linecap="round" stroke-linejoin="round"/>
<path d="M74.2495 128.524C74.2495 128.524 72.1691 128.249 70.803 129.313" stroke="#AB6453" stroke-width="2.0231" stroke-miterlimit="10" stroke-linecap="round" stroke-linejoin="round"/>
<path d="M73.7704 125.903C73.7704 125.903 72.4296 125.702 70.9318 126.505" stroke="#AB6453" stroke-width="2.0231" stroke-miterlimit="10" stroke-linecap="round" stroke-linejoin="round"/>
<path d="M78.0359 157.641C83.0706 172.446 114.943 178.297 115.904 163.335C102.697 149.304 86.7489 153.058 78.0359 157.641Z" fill="#495AAB"/>
<path d="M72.7274 163.712C72.7274 163.712 75.0824 173.105 74.2667 175.462C67.5071 180.312 56.368 180.179 53.6953 178.116C51.1095 175.711 53.6199 170.965 58.9679 171.263C63.6363 167.783 62.5737 164.151 62.5737 164.151L72.7274 163.712Z" fill="#21262B"/>
<path d="M74.4505 173.691C74.4505 173.691 65.2355 180.283 53.0537 177.021" stroke="#373C40" stroke-width="2.0231" stroke-miterlimit="10" stroke-linecap="round" stroke-linejoin="round"/>
<path d="M60.0757 178.027C60.0757 178.027 60.2814 172.552 56.2313 171.756" stroke="#373C40" stroke-width="2.0231" stroke-miterlimit="10" stroke-linecap="round" stroke-linejoin="round"/>
<path d="M62.6645 172.076L59.6149 170.66" stroke="white" stroke-width="2.0231" stroke-miterlimit="10"/>
<path d="M64.5161 170.582L61.0037 169.352" stroke="white" stroke-width="2.0231" stroke-miterlimit="10"/>
<path d="M65.5296 168.482L61.863 168.089" stroke="white" stroke-width="2.0231" stroke-miterlimit="10"/>
<path d="M66.1928 166.435L62.3826 166.022" stroke="white" stroke-width="2.0231" stroke-miterlimit="10"/>
<path d="M59.2827 173.883C59.2827 173.883 63.2152 172.75 64.5161 170.582C66.26 167.675 66.6919 163.973 66.6919 163.973" stroke="#373C40" stroke-width="2.0231" stroke-miterlimit="10" stroke-linecap="round" stroke-linejoin="round"/>
<path d="M74.4504 156.097L74.8275 164.526L59.9131 165.23C59.9131 165.23 56.1608 141.465 61.8633 133.994C73.4522 118.812 88.5166 151.125 88.5166 151.125C88.5166 151.125 82.7094 183.151 74.4504 156.097Z" fill="#495AAB"/>
<path d="M74.6059 159.572C74.6059 159.572 62.9796 159.903 59.3641 160.138" stroke="#7081CF" stroke-width="2.0231" stroke-miterlimit="10"/>
<path d="M82.5609 161.848C76.8669 154.597 71.9485 140.668 71.9485 140.668L72.3507 159.573" stroke="#7081CF" stroke-width="2.0231" stroke-miterlimit="10"/>
<path d="M89.7596 164.758C89.7596 164.758 92.1145 174.151 91.2988 176.508C84.5392 181.358 73.4002 181.225 70.7274 179.162C68.1417 176.757 70.6519 172.01 76 172.309C80.6684 168.829 79.6058 165.197 79.6058 165.197L89.7596 164.758Z" fill="#21262B"/>
<path d="M91.2309 174.735C91.2309 174.735 82.2675 181.327 70.0857 178.065" stroke="#373C40" stroke-width="2.0231" stroke-miterlimit="10" stroke-linecap="round" stroke-linejoin="round"/>
<path d="M77.1081 179.01C77.1081 179.01 77.1251 173.408 73.075 172.612" stroke="#373C40" stroke-width="2.0231" stroke-miterlimit="10" stroke-linecap="round" stroke-linejoin="round"/>
<path d="M69.7685 177.531C69.4073 174.841 71.936 172.192 74.3845 172.353" stroke="#373C40" stroke-width="2.0231" stroke-miterlimit="10" stroke-linecap="round" stroke-linejoin="round"/>
<path d="M79.6966 173.122L76.647 171.706" stroke="white" stroke-width="2.0231" stroke-miterlimit="10"/>
<path d="M81.5481 171.628L78.0359 170.397" stroke="white" stroke-width="2.0231" stroke-miterlimit="10"/>
<path d="M82.5621 169.528L78.8953 169.135" stroke="white" stroke-width="2.0231" stroke-miterlimit="10"/>
<path d="M83.2253 167.481L79.4148 167.068" stroke="white" stroke-width="2.0231" stroke-miterlimit="10"/>
<path d="M76.3146 174.929C76.3146 174.929 80.2471 173.796 81.548 171.628C83.2918 168.721 83.7238 165.019 83.7238 165.019" stroke="#373C40" stroke-width="2.0231" stroke-miterlimit="10" stroke-linecap="round" stroke-linejoin="round"/>
<path d="M117.186 153.843C117.315 155.091 116.608 161.616 115.145 166.307C113.111 172.825 88.5165 177.214 90.6239 150.592L91.8596 165.572L76.9451 166.276C76.9451 166.276 72.9082 141.241 78.8954 133.997C92.9627 119.403 103.628 151.276 103.628 151.276C105.007 151.742 104.85 152.161 106.454 152.538C110.451 153.479 114.098 153.806 117.186 153.843Z" fill="#495AAB"/>
<path d="M91.4823 160.619C91.4823 160.619 80.0115 160.95 76.396 161.185" stroke="#7081CF" stroke-width="2.0231" stroke-miterlimit="10"/>
<path d="M91.8595 149.825V165.572" stroke="#7081CF" stroke-width="2.0231" stroke-miterlimit="10"/>
<path d="M103.628 151.275L107.194 162.052" stroke="#7081CF" stroke-width="2.0231" stroke-miterlimit="10"/>
<path d="M77.5896 136.122C76.2554 140.518 75.401 150.219 76.1219 160.274" stroke="#7081CF" stroke-width="2.0231" stroke-miterlimit="10"/>
<path d="M114.335 133.973L127.069 132.298C127.069 132.298 127.801 122.641 119.683 119.806" fill="#F1C754"/>
<path d="M103.628 151.275C105.158 152.21 106.626 158.358 115.031 157.486C118.079 156.987 117.25 154.008 118.079 151.275" fill="#F1C754"/>
<path d="M113.768 127.792L114.335 133.973L116.897 133.61" stroke="#DEA94D" stroke-width="2.0231" stroke-miterlimit="10"/>
<path d="M114.335 130.471L127.069 129.293" stroke="#DEA94D" stroke-width="2.0231" stroke-miterlimit="10"/>
<path d="M104.99 116.732C101.988 118.799 104.554 122.272 108.558 123.095C112.563 123.917 118.196 122.552 117.201 118.829" stroke="#DEA94D" stroke-width="2.0231" stroke-miterlimit="10"/>
<path d="M104.453 149.012C106.688 150.422 107.428 154.887 112.228 155.239" stroke="#DEA94D" stroke-width="2.0231" stroke-miterlimit="10"/>
<path d="M109.708 152.126C109.708 152.126 111.234 155.146 117.186 153.842" stroke="#DEA94D" stroke-width="2.0231" stroke-miterlimit="10"/>
<path d="M114.335 117.593L114.091 119.292" stroke="#AB6453" stroke-width="2.0231" stroke-miterlimit="10" stroke-linecap="round" stroke-linejoin="round"/>
<path d="M107.936 116.433L107.839 117.793" stroke="#AB6453" stroke-width="2.0231" stroke-miterlimit="10" stroke-linecap="round" stroke-linejoin="round"/>
<path d="M182.299 167.02H220.865C224.183 167.02 226.883 168.872 226.883 171.148C226.883 173.425 224.183 175.277 220.865 175.277H182.299C181.855 175.277 181.495 175.03 181.495 174.726C181.495 174.421 181.855 174.174 182.299 174.174V168.123C181.855 168.123 181.495 167.876 181.495 167.571C181.495 167.267 181.855 167.02 182.299 167.02Z" fill="#6073C9"/>
<path d="M221.735 171.147C221.735 172.44 220.863 173.594 219.504 174.352H222.763C224.122 173.595 224.994 172.44 224.994 171.147C224.994 169.936 224.224 168.848 223.009 168.092H219.75C220.965 168.848 221.735 169.936 221.735 171.147Z" fill="#495AAB"/>
<path d="M213.702 171.147C213.702 172.44 212.831 173.594 211.471 174.352H214.73C216.09 173.595 216.961 172.44 216.961 171.147C216.961 169.936 216.192 168.848 214.976 168.092H211.717C212.933 168.848 213.702 169.936 213.702 171.147Z" fill="#495AAB"/>
<path d="M221.735 171.147C221.735 172.44 220.863 173.594 219.504 174.352H222.763C224.122 173.595 224.994 172.44 224.994 171.147C224.994 169.936 224.224 168.848 223.009 168.092H219.75C220.965 168.848 221.735 169.936 221.735 171.147Z" fill="#495AAB"/>
<path d="M213.702 171.147C213.702 172.44 212.831 173.594 211.471 174.352H214.73C216.09 173.595 216.961 172.44 216.961 171.147C216.961 169.936 216.192 168.848 214.976 168.092H211.717C212.933 168.848 213.702 169.936 213.702 171.147Z" fill="#495AAB"/>
<path d="M168.496 167.571H205.927C208.807 167.571 211.142 169.173 211.142 171.148C211.142 173.124 208.807 174.726 205.927 174.726H168.496C168.929 174.012 169.483 172.848 169.534 171.372C169.594 169.662 168.952 168.324 168.496 167.571Z" fill="white"/>
<path d="M210.49 171.147H169.535" stroke="#D0DAE9" stroke-width="2.0231" stroke-miterlimit="10"/>
<path d="M210.816 169.358C210.273 169.358 169.426 169.358 169.426 169.358" stroke="#D0DAE9" stroke-width="2.0231" stroke-miterlimit="10"/>
<path d="M209.729 172.938H169.426" stroke="#D0DAE9" stroke-width="2.0231" stroke-miterlimit="10"/>
<path d="M167.362 167.02H205.927C209.246 167.02 211.946 168.872 211.946 171.148C211.946 173.425 209.246 175.277 205.927 175.277H167.362C166.918 175.277 166.558 175.03 166.558 174.726C166.558 174.421 166.918 174.174 167.362 174.174H205.927C208.359 174.174 210.338 172.817 210.338 171.148C210.338 169.48 208.359 168.123 205.927 168.123H167.362C166.918 168.123 166.558 167.876 166.558 167.571C166.558 167.267 166.918 167.02 167.362 167.02Z" fill="#495AAB"/>
<path d="M161.597 166.113H230.965V158.088H161.597V166.113Z" fill="white"/>
<path d="M160.828 165.338H231.734C232.217 165.338 232.608 165.715 232.608 166.179C232.608 166.644 232.217 167.021 231.734 167.021H160.828C160.345 167.021 159.953 166.644 159.953 166.179C159.954 165.714 160.345 165.338 160.828 165.338Z" fill="#4D5155"/>
<path d="M160.828 156.794H231.734C232.217 156.794 232.608 157.171 232.608 157.635C232.608 158.1 232.217 158.477 231.734 158.477H160.828C160.345 158.477 159.953 158.1 159.953 157.635C159.954 157.171 160.345 156.794 160.828 156.794Z" fill="#4D5155"/>
<g opacity="0.7">
<path d="M188.332 165.337H231.734C232.217 165.337 232.608 165.714 232.608 166.178C232.608 166.643 232.217 167.02 231.734 167.02H188.332C187.849 167.02 187.458 166.643 187.458 166.178C187.458 165.713 187.849 165.337 188.332 165.337Z" fill="#21262B"/>
<path d="M188.332 156.794H231.734C232.217 156.794 232.608 157.171 232.608 157.635C232.608 158.1 232.217 158.477 231.734 158.477H188.332C187.849 158.477 187.458 158.1 187.458 157.635C187.458 157.171 187.849 156.794 188.332 156.794Z" fill="#21262B"/>
</g>
<path d="M231.051 164.043H161.51" stroke="#D0DAE9" stroke-width="2.0231" stroke-miterlimit="10"/>
<path d="M231.051 162.102H161.51" stroke="#D0DAE9" stroke-width="2.0231" stroke-miterlimit="10"/>
<path d="M231.051 160.16H161.51" stroke="#D0DAE9" stroke-width="2.0231" stroke-miterlimit="10"/>
<path d="M174.745 149.71C186.913 149.71 199.082 149.71 211.25 149.71C209.218 151.666 209.218 154.838 211.25 156.794C199.082 156.794 186.913 156.794 174.745 156.794C172.713 154.838 172.713 151.666 174.745 149.71Z" fill="white"/>
<path d="M211.365 150.527H154.256C154.022 150.527 153.832 150.344 153.832 150.119C153.832 149.893 154.022 149.71 154.256 149.71H211.365C211.599 149.71 211.789 149.893 211.789 150.119C211.789 150.344 211.599 150.527 211.365 150.527Z" fill="#DD5325"/>
<path d="M211.365 156.796H154.256C154.022 156.796 153.832 156.613 153.832 156.387C153.832 156.161 154.022 155.979 154.256 155.979H211.365C211.599 155.979 211.789 156.162 211.789 156.387C211.789 156.613 211.599 156.796 211.365 156.796Z" fill="#DD5325"/>
<path d="M189.5 151.644H210.065" stroke="#D0DAE9" stroke-width="2.0231" stroke-miterlimit="10"/>
<path d="M188.991 153.041H209.556" stroke="#D0DAE9" stroke-width="2.0231" stroke-miterlimit="10"/>
<path d="M189.5 154.733H210.065" stroke="#D0DAE9" stroke-width="2.0231" stroke-miterlimit="10"/>
<path d="M190.761 156.794C178.593 156.794 166.425 156.794 154.257 156.794C152.225 154.838 152.225 151.666 154.257 149.71C166.425 149.71 178.593 149.71 190.761 149.71C188.729 151.666 188.729 154.838 190.761 156.794Z" fill="#DD5325"/>
<path d="M158.634 156.794C157.892 156.794 157.149 156.794 156.407 156.794C154.375 154.838 154.375 151.666 156.407 149.71C157.149 149.71 157.892 149.71 158.634 149.71C156.602 151.666 156.602 154.838 158.634 156.794Z" fill="#E37550"/>
<path d="M188.891 156.794C188.149 156.794 187.407 156.794 186.664 156.794C184.632 154.838 184.632 151.666 186.664 149.71C187.407 149.71 188.149 149.71 188.891 149.71C186.859 151.666 186.859 154.838 188.891 156.794Z" fill="#E37550"/>
<path d="M184.913 149.71C176.215 149.71 167.517 149.71 158.82 149.71C160.272 147.754 160.272 144.582 158.82 142.625C167.517 142.625 176.215 142.625 184.913 142.625C186.365 144.582 186.365 147.754 184.913 149.71Z" fill="white"/>
<path d="M158.738 148.892H199.558C199.725 148.892 199.861 149.075 199.861 149.3C199.861 149.526 199.725 149.709 199.558 149.709H158.738C158.57 149.709 158.434 149.526 158.434 149.3C158.434 149.075 158.57 148.892 158.738 148.892Z" fill="#5F823C"/>
<path d="M158.738 142.625H199.558C199.725 142.625 199.861 142.808 199.861 143.034C199.861 143.259 199.725 143.442 199.558 143.442H158.738C158.57 143.442 158.434 143.259 158.434 143.034C158.434 142.808 158.57 142.625 158.738 142.625Z" fill="#5F823C"/>
<path d="M174.366 147.777H159.667" stroke="#D0DAE9" stroke-width="2.0231" stroke-miterlimit="10"/>
<path d="M174.73 146.378H160.031" stroke="#D0DAE9" stroke-width="2.0231" stroke-miterlimit="10"/>
<path d="M164.587 144.815V148.426L166.62 147.142L168.761 148.212L168.707 144.787L164.587 144.815Z" fill="#495AAB"/>
<path d="M174.366 144.686H159.667" stroke="#D0DAE9" stroke-width="2.0231" stroke-miterlimit="10"/>
<path d="M173.465 142.625C182.163 142.625 190.86 142.625 199.558 142.625C201.01 144.581 201.01 147.753 199.558 149.71C190.86 149.71 182.163 149.71 173.465 149.71C174.917 147.753 174.917 144.581 173.465 142.625Z" fill="#5F823C"/>
<path d="M196.429 142.625C196.959 142.625 197.49 142.625 198.02 142.625C199.473 144.581 199.473 147.753 198.02 149.71C197.49 149.71 196.959 149.71 196.429 149.71C197.881 147.753 197.881 144.581 196.429 142.625Z" fill="#7F9B63"/>
<path d="M174.802 142.625C175.332 142.625 175.863 142.625 176.393 142.625C177.846 144.581 177.846 147.753 176.393 149.71C175.863 149.71 175.332 149.71 174.802 149.71C176.254 147.753 176.254 144.581 174.802 142.625Z" fill="#7F9B63"/>
<path d="M178.398 142.625C178.929 142.625 179.46 142.625 179.99 142.625C181.443 144.581 181.443 147.753 179.99 149.71C179.459 149.71 178.929 149.71 178.398 149.71C179.851 147.753 179.851 144.581 178.398 142.625Z" fill="#7F9B63"/>
<path d="M192.955 142.625C193.486 142.625 194.016 142.625 194.547 142.625C195.999 144.581 195.999 147.753 194.547 149.71C194.016 149.71 193.485 149.71 192.955 149.71C194.407 147.753 194.407 144.581 192.955 142.625Z" fill="#7F9B63"/>
<path d="M20.3375 163.973C31.5798 163.973 42.8224 163.973 54.0647 163.973C52.1874 165.929 52.1874 169.101 54.0647 171.057C42.8224 171.057 31.5798 171.057 20.3375 171.057C18.4601 169.101 18.4601 165.929 20.3375 163.973Z" fill="white"/>
<path d="M54.1709 164.79H1.40794C1.19142 164.79 1.01587 164.607 1.01587 164.381C1.01587 164.156 1.19142 163.973 1.40794 163.973H54.1709C54.3877 163.973 54.563 164.156 54.563 164.381C54.563 164.607 54.3877 164.79 54.1709 164.79Z" fill="#F1C754"/>
<path d="M54.1709 171.058H1.40794C1.19142 171.058 1.01587 170.875 1.01587 170.65C1.01587 170.424 1.19142 170.241 1.40794 170.241H54.1709C54.3877 170.241 54.563 170.424 54.563 170.65C54.563 170.875 54.3877 171.058 54.1709 171.058Z" fill="#F1C754"/>
<path d="M33.9697 165.906H52.97" stroke="#D0DAE9" stroke-width="2.0231" stroke-miterlimit="10"/>
<path d="M33.4996 167.304H52.4999" stroke="#D0DAE9" stroke-width="2.0231" stroke-miterlimit="10"/>
<path d="M33.9697 168.997H52.97" stroke="#D0DAE9" stroke-width="2.0231" stroke-miterlimit="10"/>
<path d="M35.1353 171.057C23.8929 171.057 12.6504 171.057 1.40802 171.057C-0.46934 169.101 -0.46934 165.929 1.40802 163.973C12.6504 163.973 23.8929 163.973 35.1353 163.973C33.2579 165.929 33.2579 169.101 35.1353 171.057Z" fill="#F1C754"/>
<path d="M5.45231 171.057C4.76639 171.057 4.08069 171.057 3.39477 171.057C1.51742 169.101 1.51742 165.929 3.39477 163.973C4.08069 163.973 4.76639 163.973 5.45231 163.973C3.57496 165.929 3.57496 169.101 5.45231 171.057Z" fill="#F5D888"/>
<path d="M33.4072 171.057C32.7215 171.057 32.0356 171.057 31.3499 171.057C29.4723 169.101 29.4723 165.929 31.3499 163.973C32.0356 163.973 32.7215 163.973 33.4072 163.973C31.5301 165.929 31.5301 169.101 33.4072 171.057Z" fill="#F5D888"/>
<path d="M29.5111 142.374C30.9303 145.477 32.8484 150.896 32.2072 151.006C31.566 151.116 28.6087 145.876 27.1895 142.773C25.7703 139.671 26.2775 139.554 26.9185 139.444C27.5595 139.334 28.0919 139.272 29.5111 142.374Z" fill="#BDD5D7"/>
<path d="M37.9903 145.185H27.6004V156.987H37.9903V145.185Z" fill="white"/>
<path d="M25.8861 155.448C23.6936 155.448 22.0402 153.508 22.0402 150.935C22.0402 148.363 23.6936 146.423 25.8861 146.423C28.1329 146.423 29.9609 148.447 29.9609 150.935C29.9609 153.423 28.1331 155.448 25.8861 155.448ZM25.8861 147.916C24.5229 147.916 23.5334 149.186 23.5334 150.935C23.5334 152.685 24.5229 153.955 25.8861 153.955C27.3095 153.955 28.4675 152.6 28.4675 150.935C28.4677 149.27 27.3097 147.916 25.8861 147.916Z" fill="white"/>
<path d="M27.5859 146.429V155.709" stroke="#DAE4FE" stroke-width="2.0231" stroke-miterlimit="10"/>
<path d="M31.5118 163.974C23.4759 163.974 15.44 163.974 7.40411 163.974C8.746 162.018 8.746 158.846 7.40411 156.89C15.44 156.89 23.4759 156.89 31.5118 156.89C32.8539 158.846 32.8539 162.018 31.5118 163.974Z" fill="white"/>
<path d="M7.32833 163.156H45.0425C45.1973 163.156 45.3227 163.339 45.3227 163.565C45.3227 163.79 45.1971 163.973 45.0425 163.973H7.32833C7.17348 163.973 7.04816 163.79 7.04816 163.565C7.04816 163.339 7.17348 163.156 7.32833 163.156Z" fill="#DD5325"/>
<path d="M7.32827 156.89H45.0424C45.1973 156.89 45.3226 157.073 45.3226 157.298C45.3226 157.524 45.1971 157.707 45.0424 157.707H7.32827C7.17342 157.707 7.0481 157.524 7.0481 157.298C7.0481 157.073 7.17342 156.89 7.32827 156.89Z" fill="#DD5325"/>
<path d="M21.7679 162.042H8.18671" stroke="#D0DAE9" stroke-width="2.0231" stroke-miterlimit="10"/>
<path d="M22.1037 160.645H8.52277" stroke="#D0DAE9" stroke-width="2.0231" stroke-miterlimit="10"/>
<path d="M21.7679 158.949H8.18671" stroke="#D0DAE9" stroke-width="2.0231" stroke-miterlimit="10"/>
<path d="M20.9348 156.89C28.9707 156.89 37.0066 156.89 45.0425 156.89C46.3843 158.846 46.3843 162.018 45.0425 163.974C37.0066 163.974 28.9707 163.974 20.9348 163.974C22.2767 162.018 22.2767 158.846 20.9348 156.89Z" fill="#DD5325"/>
<path d="M42.1516 156.89C42.6417 156.89 43.132 156.89 43.6221 156.89C44.964 158.846 44.964 162.018 43.6221 163.974C43.132 163.974 42.6417 163.974 42.1516 163.974C43.4935 162.018 43.4935 158.846 42.1516 156.89Z" fill="#E37550"/>
<path d="M22.1699 156.89C22.6602 156.89 23.1503 156.89 23.6404 156.89C24.9825 158.846 24.9825 162.018 23.6404 163.974C23.1503 163.974 22.66 163.974 22.1699 163.974C23.5118 162.018 23.5118 158.846 22.1699 156.89Z" fill="#E37550"/>
<path d="M25.4932 156.89C25.9835 156.89 26.4736 156.89 26.9639 156.89C28.306 158.846 28.306 162.018 26.9639 163.974C26.4738 163.974 25.9835 163.974 25.4932 163.974C26.835 162.018 26.835 158.846 25.4932 156.89Z" fill="#E37550"/>
<path d="M38.942 156.89C39.4321 156.89 39.9224 156.89 40.4125 156.89C41.7544 158.846 41.7544 162.018 40.4125 163.974C39.9222 163.974 39.4321 163.974 38.942 163.974C40.2839 162.018 40.2839 158.846 38.942 156.89Z" fill="#E37550"/>
<path d="M146.982 37.3656C149.402 32.7725 143.946 30.5692 142.062 31.3366C140.178 32.1038 135.677 27.9385 133.06 31.8846C130.443 35.831 134.839 38.6811 137.77 38.2425C140.701 37.8042 143.632 43.7235 146.982 37.3656Z" fill="#6F8E4F"/>
<path d="M147.699 31.8048C152.617 30.6724 153.456 24.2412 150.211 21.3911C146.966 18.541 149.269 9.88114 141.314 10.4292C133.358 10.9772 135.766 17.9928 137.336 21.062C138.906 24.1315 132.94 35.2029 147.699 31.8048Z" fill="#98AF74"/>
<path d="M156.902 35.1285C162.153 36.9398 166.218 31.7304 164.648 27.3457C163.078 22.961 168.94 17.1512 163.288 14.5203C157.635 11.8896 156.902 19.3436 155.227 20.2204C153.552 21.0973 148.005 32.0593 156.902 35.1285Z" fill="#98AF74"/>
<path d="M154.454 17.7619C159.955 15.9543 155.396 12.1712 155.396 7.78653C155.396 3.40184 154.244 0.113215 150.476 0.00374069C146.707 -0.105954 144.195 2.19608 145.765 7.01933C147.336 11.8424 149.115 19.5157 154.454 17.7619Z" fill="#6F8E4F"/>
<path d="M160.88 19.124C160.88 19.124 160.042 29.3185 156.379 34.909C154.874 37.2051 153.934 39.7602 153.349 41.9741" stroke="#5F823C" stroke-width="2.0231" stroke-miterlimit="10"/>
<path d="M149.762 41.9717C148.731 38.6923 145.647 34.7693 136.933 33.9678" stroke="#5F823C" stroke-width="2.0231" stroke-miterlimit="10"/>
<path d="M142.675 17.9932C142.675 17.9932 142.884 27.0914 147.804 32.7918C149.947 35.2746 151.474 38.5686 152.438 41.9488" stroke="#5F823C" stroke-width="2.0231" stroke-miterlimit="10"/>
<path d="M150.497 2.54199C153.323 10.6536 155.836 14.4903 153.847 20.081C151.858 25.6716 150.706 30.7141 152.591 34.0027C153.444 35.4913 154.06 38.7995 154.48 41.9749" stroke="#5F823C" stroke-width="2.0231" stroke-miterlimit="10"/>
<path d="M163.113 29.6094L158.088 31.3634L154.25 24.4209" stroke="#5F823C" stroke-width="2.0231" stroke-miterlimit="10"/>
<path d="M162.903 25.006L159.624 26.6869L156.693 22.4482" stroke="#5F823C" stroke-width="2.0231" stroke-miterlimit="10"/>
<path d="M162.904 20.7681L160.391 22.0836L158.228 19.3066" stroke="#5F823C" stroke-width="2.0231" stroke-miterlimit="10"/>
<path d="M155.487 9.66699L154.091 12.371L148.648 10.6172" stroke="#5F823C" stroke-width="2.0231" stroke-miterlimit="10"/>
<path d="M154.44 5.57422L152.975 9.0091L148.02 7.40114" stroke="#5F823C" stroke-width="2.0231" stroke-miterlimit="10"/>
<path d="M153.114 1.62695L151.3 4.54993L146.624 2.72301" stroke="#5F823C" stroke-width="2.0231" stroke-miterlimit="10"/>
<path d="M146.303 18.3213L143.093 21.683L138.278 19.637" stroke="#5F823C" stroke-width="2.0231" stroke-miterlimit="10"/>
<path d="M148.118 22.3408L144.07 25.7024L138.627 24.5332" stroke="#5F823C" stroke-width="2.0231" stroke-miterlimit="10"/>
<path d="M148.885 26.6533L145.536 29.5765L139.604 29.6496" stroke="#5F823C" stroke-width="2.0231" stroke-miterlimit="10"/>
<path d="M144.644 33.126L145.342 36.4875L142.551 38.6067" stroke="#5F823C" stroke-width="2.0231" stroke-miterlimit="10"/>
<path d="M141.853 32.9795L142.83 35.3181L140.387 37.5834" stroke="#5F823C" stroke-width="2.0231" stroke-miterlimit="10"/>
<path d="M138.782 32.1777L139.899 34.3701L136.968 36.5626" stroke="#5F823C" stroke-width="2.0231" stroke-miterlimit="10"/>
<path d="M160.88 41.458H142.83V56.1548H160.88V41.458Z" fill="white"/>
<mask id="mask0_150_8702" style="mask-type:luminance" maskUnits="userSpaceOnUse" x="142" y="41" width="19" height="16">
<path d="M160.88 41.458H142.83V56.1548H160.88V41.458Z" fill="white"/>
</mask>
<g mask="url(#mask0_150_8702)">
<path d="M140.141 44.8987C141.522 46.1196 143.438 46.7115 145.267 46.4813C146.805 46.2875 148.218 45.5553 149.706 45.1185C152.001 44.4449 154.502 44.4921 156.77 45.2516C158.028 45.6727 159.216 46.3062 160.506 46.6137C162.6 47.1133 164.899 46.6846 166.673 45.4639C165.842 47.0157 164.345 48.1173 162.748 48.8576C160.439 49.9279 157.828 50.3376 155.301 50.0261C153.149 49.7607 150.947 48.99 148.87 49.612C148.214 49.8087 147.605 50.1378 146.96 50.368C144.18 51.3596 141.123 50.4283 138.322 49.4979C139.489 52.4372 142.916 53.8734 146.076 53.9927C149.236 54.1121 152.349 53.2418 155.505 53.0449C159.815 52.7762 164.129 53.7665 168.44 53.5062" stroke="#DAE4FE" stroke-width="2.0231" stroke-miterlimit="10"/>
</g>
<path d="M222.839 29.6113C231.548 29.7919 230.163 34.8474 228.117 35.3892C226.071 35.9309 225.228 35.0282 226.913 33.5235C228.599 32.0189 223.083 31.5107 220.895 31.8986" fill="white"/>
<path d="M212.147 14.3318C212.147 14.3318 210.964 20.2144 211.265 22.6574C211.566 25.1004 211.927 30.4567 211.927 30.4567C211.927 30.4567 210.001 32.1417 213.01 32.1417C213.973 32.1417 214.336 31.4796 214.336 31.4796C215.418 33.0444 217.404 32.1417 217.284 31.3593C220.714 32.9843 224.008 31.6675 224.265 27.1465C224.686 19.7436 217.806 18.4718 217.725 14.2327C217.645 9.99361 212.147 14.3318 212.147 14.3318Z" fill="white"/>
<path d="M210.977 10.3779C210.977 10.3779 210.349 7.81529 211.364 6.60645C212.525 7.18664 213.423 8.49218 213.423 8.49218" fill="white"/>
<path d="M213.927 15.6476C210.166 15.6496 209.261 12.7715 210.929 9.84526C212.902 6.38483 218.085 8.49149 218.81 10.5222C219.536 12.553 219.056 15.6447 213.927 15.6476Z" fill="white"/>
<path d="M215.377 8.49218C215.377 8.49218 216.828 6.60645 217.698 6.60645C218.665 8.34724 217.989 10.1398 217.989 10.1398" fill="white"/>
<path d="M215.713 11.6488C215.713 11.9082 215.547 12.1188 215.342 12.1188C215.137 12.1188 214.971 11.9085 214.971 11.6488C214.971 11.3893 215.137 11.1787 215.342 11.1787C215.547 11.1787 215.713 11.3893 215.713 11.6488Z" fill="#21262B"/>
<path d="M211.616 11.6488C211.616 11.9082 211.449 12.1188 211.244 12.1188C211.04 12.1188 210.873 11.9085 210.873 11.6488C210.873 11.3893 211.04 11.1787 211.244 11.1787C211.449 11.1787 211.616 11.3893 211.616 11.6488Z" fill="#21262B"/>
<path d="M214.368 31.252C214.417 30.8608 213.928 23.3789 213.928 23.3789" stroke="#DEDEDF" stroke-width="2.0231" stroke-miterlimit="10" stroke-linecap="round" stroke-linejoin="round"/>
<path d="M215.713 22.5977C215.713 22.5977 213.838 24.4559 212.147 22.5977" stroke="#DEDEDF" stroke-width="2.0231" stroke-miterlimit="10" stroke-linecap="round" stroke-linejoin="round"/>
<path d="M217.75 14.6875C215.689 15.9463 213.569 16.0864 211.964 15.3073" stroke="#DEDEDF" stroke-width="2.0231" stroke-miterlimit="10" stroke-linecap="round" stroke-linejoin="round"/>
<path d="M213.423 8.00195C211.581 8.02376 210.929 9.84517 210.929 9.84517" stroke="#DEDEDF" stroke-width="2.0231" stroke-miterlimit="10" stroke-linecap="round" stroke-linejoin="round"/>
<path d="M222.682 23.8684C218.574 18.6359 215.378 25.3376 217.284 31.36" stroke="#DEDEDF" stroke-width="2.0231" stroke-miterlimit="10" stroke-linecap="round" stroke-linejoin="round"/>
<path d="M213.93 13.5995C213.513 14.0396 212.743 13.8902 212.688 12.8525C212.388 14.162 211.679 14.0389 211.508 13.3424" stroke="#DEDEDF" stroke-width="2.0231" stroke-miterlimit="10" stroke-linecap="round" stroke-linejoin="round"/>
<path d="M212.688 12.853C211.76 12.5374 212.207 12.2907 212.69 12.2724C213.173 12.2539 213.658 12.5259 212.688 12.853Z" fill="#21262B"/>
<path d="M220.895 31.898C223.208 31.615 223.953 28.9678 223.953 28.9678" stroke="#DEDEDF" stroke-width="2.0231" stroke-miterlimit="10" stroke-linecap="round" stroke-linejoin="round"/>
</svg>
