<svg width="186" height="236" viewBox="0 0 186 236" fill="none" xmlns="http://www.w3.org/2000/svg">
<path d="M101.108 84.4375C101.108 84.4375 115.11 87.6317 116.568 97.903C118.15 109.051 114.996 131.497 115.389 135.229C115.782 138.962 115.834 142.016 115.834 142.016L144.268 157.231L138.477 164.909C138.477 164.909 113.228 163.911 106.548 158.999C99.8689 154.088 98.494 147.998 98.6901 142.497C98.8867 136.997 98.6725 106.94 98.6725 106.94L101.108 84.4375Z" fill="#AE7461"/>
<path d="M110.784 104.653C110.853 104.703 109.779 106.25 108.625 108.258C107.464 110.264 106.664 111.968 106.586 111.934C106.552 111.918 106.708 111.472 107.017 110.773C107.326 110.074 107.794 109.126 108.376 108.115C108.959 107.105 109.545 106.225 109.995 105.607C110.445 104.99 110.754 104.631 110.784 104.653Z" fill="#6F4439"/>
<path d="M185.696 155.501C185.696 161.908 181.914 167.102 177.25 167.102C175.332 167.102 170.306 167.081 170.306 167.081C168.274 164.962 168.803 159.274 168.803 155.501C168.803 152.01 167.735 146.095 169.511 143.968C169.511 143.968 175.127 143.9 177.25 143.9C181.914 143.9 185.696 149.094 185.696 155.501Z" fill="#FF725E"/>
<g opacity="0.3">
<path d="M185.696 155.501C185.696 161.908 181.914 167.102 177.25 167.102C175.332 167.102 170.306 167.081 170.306 167.081C168.274 164.962 168.803 159.274 168.803 155.501C168.803 152.01 167.735 146.095 169.511 143.968C169.511 143.968 175.127 143.9 177.25 143.9C181.914 143.9 185.696 149.094 185.696 155.501Z" fill="black"/>
</g>
<path d="M170.305 167.082C173.9 167.082 176.815 161.888 176.815 155.482C176.815 149.075 173.9 143.881 170.305 143.881C166.71 143.881 163.795 149.075 163.795 155.482C163.795 161.888 166.71 167.082 170.305 167.082Z" fill="#FF725E"/>
<path d="M174.137 159.493H150.503C149.473 159.493 148.638 158.658 148.638 157.628V155.338C148.638 154.308 149.473 153.473 150.503 153.473H174.137C175.167 153.473 176.002 154.308 176.002 155.338V157.628C176.002 158.658 175.167 159.493 174.137 159.493Z" fill="#FF725E"/>
<path d="M171.937 150.115C171.312 149.015 169.808 146.984 169.808 146.984C167.532 144.764 165.513 146.701 165.513 146.701C164.391 145.776 163.03 146.114 162.099 147.151C159.528 145.824 158.135 148.94 158.135 148.94C153.177 148.657 154.271 153.473 154.271 153.473C154.271 153.473 155.669 153.589 155.68 153.703C155.869 155.555 153.243 159.129 153.243 159.129L147.612 164.909L156.681 164.765C158.263 165.327 159.716 165.191 160.888 163.55C163.384 165.385 164.559 163.109 164.559 163.109C166.908 164.688 168.285 162.302 168.285 162.302C168.285 162.302 170.649 163.434 171.385 158.922C171.653 157.276 172.562 151.215 171.937 150.115Z" fill="#AE7461"/>
<path d="M159.293 158.787C159.254 158.769 159.514 158.167 159.878 157.175C160.241 156.185 160.696 154.795 161.044 153.227C161.128 152.838 161.183 152.458 161.148 152.1C161.104 151.741 161.003 151.4 160.843 151.108C160.521 150.52 160.021 150.126 159.59 149.838C158.711 149.269 158.11 148.987 158.135 148.942C158.144 148.925 158.299 148.978 158.572 149.096C158.844 149.215 159.238 149.391 159.699 149.668C160.153 149.942 160.702 150.337 161.073 150.98C161.256 151.3 161.374 151.673 161.426 152.071C161.471 152.475 161.41 152.887 161.324 153.287C160.971 154.877 160.48 156.269 160.066 157.249C159.651 158.23 159.325 158.803 159.293 158.787Z" fill="#6F4439"/>
<path d="M164.171 157.619C164.127 157.603 164.36 156.973 164.593 155.925C164.709 155.368 164.838 154.743 164.979 154.065C165.131 153.368 165.331 152.605 165.348 151.804C165.362 151.012 165.048 150.279 164.647 149.719C164.244 149.15 163.766 148.719 163.372 148.356C162.562 147.645 162.07 147.182 162.1 147.151C162.124 147.125 162.654 147.526 163.504 148.202C163.919 148.551 164.423 148.973 164.861 149.565C165.296 150.151 165.649 150.936 165.634 151.808C165.615 152.663 165.4 153.433 165.235 154.126C165.067 154.818 164.932 155.448 164.789 155.973C164.647 156.499 164.497 156.915 164.382 157.196C164.268 157.476 164.189 157.626 164.171 157.619Z" fill="#6F4439"/>
<path d="M168.299 156.586C168.261 156.574 168.42 155.929 168.706 154.895C168.86 154.352 169.032 153.744 169.218 153.085C169.397 152.411 169.558 151.643 169.395 150.873C169.234 150.101 168.81 149.441 168.35 148.929C167.886 148.415 167.375 148.035 166.938 147.734C166.052 147.145 165.468 146.819 165.491 146.778C165.501 146.761 165.656 146.824 165.926 146.954C166.197 147.086 166.586 147.282 167.048 147.565C167.506 147.849 168.045 148.22 168.544 148.751C169.037 149.277 169.499 149.973 169.674 150.814C169.852 151.662 169.667 152.474 169.472 153.155C169.268 153.84 169.066 154.443 168.9 154.954C168.564 155.973 168.336 156.597 168.299 156.586Z" fill="#6F4439"/>
<path d="M115.915 142.042C115.962 142.124 114.136 142.946 112.392 144.632C110.629 146.3 109.728 148.087 109.647 148.037C109.617 148.022 109.802 147.558 110.219 146.868C110.633 146.18 111.304 145.278 112.194 144.425C113.086 143.574 114.016 142.945 114.722 142.561C115.43 142.175 115.902 142.011 115.915 142.042Z" fill="#6F4439"/>
<path d="M153.868 156.365C153.868 162.772 150.086 167.966 145.421 167.966C143.504 167.966 138.477 167.945 138.477 167.945C136.446 165.826 136.975 160.138 136.975 156.365C136.975 152.875 135.906 146.959 137.683 144.833C137.683 144.833 143.298 144.765 145.422 144.765C150.086 144.765 153.868 149.958 153.868 156.365Z" fill="#FF725E"/>
<g opacity="0.3">
<path d="M153.868 156.365C153.868 162.772 150.086 167.966 145.421 167.966C143.504 167.966 138.477 167.945 138.477 167.945C136.446 165.826 136.975 160.138 136.975 156.365C136.975 152.875 135.906 146.959 137.683 144.833C137.683 144.833 143.298 144.765 145.422 144.765C150.086 144.765 153.868 149.958 153.868 156.365Z" fill="black"/>
</g>
<path d="M138.477 167.945C142.072 167.945 144.987 162.751 144.987 156.344C144.987 149.937 142.072 144.743 138.477 144.743C134.882 144.743 131.967 149.937 131.967 156.344C131.967 162.751 134.882 167.945 138.477 167.945Z" fill="#FF725E"/>
<path d="M144.035 156.343C144.03 156.343 144.024 156.298 144.017 156.211C144.01 156.107 144.002 155.98 143.992 155.826C143.983 155.486 143.938 154.987 143.87 154.347C143.822 154.027 143.769 153.673 143.711 153.289C143.621 152.908 143.561 152.486 143.428 152.049C143.2 151.166 142.858 150.177 142.308 149.174C142.021 148.681 141.701 148.172 141.282 147.715C140.882 147.242 140.369 146.833 139.78 146.546C139.191 146.26 138.496 146.135 137.809 146.265C137.122 146.395 136.478 146.775 135.934 147.278C134.832 148.295 134.092 149.756 133.599 151.316C133.104 152.885 132.88 154.596 132.865 156.342C132.88 158.089 133.104 159.8 133.598 161.37C134.092 162.93 134.832 164.391 135.934 165.408C136.478 165.911 137.122 166.291 137.809 166.42C138.496 166.551 139.192 166.426 139.78 166.14C140.37 165.852 140.882 165.443 141.282 164.97C141.702 164.513 142.022 164.004 142.308 163.511C142.859 162.508 143.201 161.518 143.428 160.636C143.561 160.199 143.621 159.777 143.711 159.396C143.769 159.011 143.823 158.658 143.871 158.337C143.939 157.698 143.984 157.199 143.992 156.859C144.002 156.704 144.011 156.577 144.017 156.474C144.024 156.387 144.03 156.343 144.035 156.343C144.04 156.343 144.043 156.387 144.046 156.475C144.047 156.579 144.048 156.706 144.049 156.862C144.059 157.203 144.031 157.705 143.98 158.351C143.946 158.673 143.896 159.029 143.844 159.42C143.761 159.806 143.708 160.233 143.582 160.677C143.367 161.572 143.035 162.579 142.485 163.609C142.198 164.116 141.875 164.64 141.446 165.117C141.037 165.609 140.506 166.044 139.881 166.354C139.258 166.664 138.505 166.805 137.762 166.668C137.017 166.533 136.328 166.128 135.755 165.603C134.596 164.542 133.838 163.044 133.329 161.454C132.822 159.854 132.592 158.116 132.577 156.342C132.593 154.569 132.822 152.832 133.33 151.232C133.839 149.641 134.596 148.145 135.755 147.083C136.328 146.559 137.017 146.153 137.762 146.018C138.505 145.881 139.258 146.023 139.881 146.332C140.506 146.642 141.037 147.077 141.446 147.568C141.876 148.045 142.198 148.57 142.485 149.077C143.036 150.107 143.367 151.114 143.583 152.008C143.71 152.452 143.762 152.88 143.845 153.265C143.896 153.656 143.947 154.013 143.981 154.335C144.032 154.981 144.059 155.483 144.05 155.824C144.048 155.98 144.047 156.107 144.046 156.211C144.043 156.298 144.04 156.343 144.035 156.343Z" fill="#263238"/>
<path d="M138.285 157.534L137.893 157.562L137.944 158.266L137.401 158.305L137.35 157.601L136.055 157.694L136.018 157.172L136.999 154.964L137.583 154.922L136.677 157.015L137.322 156.968L137.278 156.34L137.803 156.303L137.849 156.931L138.24 156.903L138.285 157.534Z" fill="#263238"/>
<path d="M139.336 157.15L139.104 157.524L139.151 158.18L138.615 158.217L138.36 154.663L138.896 154.625L139.041 156.637L139.75 155.546L140.389 155.5L139.698 156.648L140.642 158.072L139.993 158.119L139.336 157.15Z" fill="#263238"/>
<path d="M80.0022 14.9156C82.6712 12.8249 82.8421 8.55907 81.0222 5.69831C79.2024 2.83756 75.9049 1.22371 72.597 0.48051C67.4781 -0.669175 61.6105 0.160819 57.9077 3.87738C54.2048 7.59395 53.7462 14.525 57.8038 17.8516C55.4633 18.0345 52.992 18.2636 51.087 19.6346C49.1815 21.0062 48.201 23.9466 49.6973 25.7555C51.4018 27.8164 54.6756 27.0436 57.1749 26.0905C55.5319 27.1298 55.2754 29.6396 56.3515 31.2583C57.4276 32.8771 59.4781 33.6407 61.4221 33.6176C63.3661 33.5945 65.2353 32.8986 67.0178 32.1229" fill="#263238"/>
<path d="M71.8319 15.7129C72.797 14.5566 73.7857 13.3838 75.0573 12.5758C76.3284 11.7683 77.9489 11.3684 79.3633 11.887C80.0291 12.1309 80.6635 12.6373 80.7849 13.3355C80.9068 14.0336 80.2675 14.834 79.5797 14.6615L79.4105 14.7642C77.6314 15.8809 75.8308 16.962 74.0087 18.0073C73.5501 18.2704 73.0755 18.5363 72.5509 18.6066C72.0263 18.6769 71.4347 18.5066 71.1529 18.0589C70.6871 17.3196 71.2716 16.3835 71.8319 15.7129Z" fill="#FF725E"/>
<path d="M68.0621 20.3176C74.2708 14.857 81.8089 12.3681 89.9885 13.5804C94.6031 14.2648 96.3494 15.5354 99.5161 16.9773C102.682 18.4186 105.379 20.6905 106.893 23.8237C108.69 27.5447 110.046 31.6029 109.821 35.7293C109.589 39.9677 109.353 44.2346 108.349 48.3588C107.345 52.4829 105.516 56.5016 102.497 59.4854L91.5661 59.576C85.6644 58.8065 75.5715 64.634 70.0758 62.3511C64.5795 60.0677 61.0102 49.826 60.2664 43.6754C59.2727 35.4662 61.8528 25.7782 68.0621 20.3176Z" fill="#263238"/>
<path d="M88.49 78.445C89.0349 74.7043 89.6814 70.0094 89.6792 70.0264C89.6792 70.0264 98.5015 70.5032 102.73 59.7935C104.833 54.4675 106.566 45.3535 107.744 37.8512C108.803 31.0981 104.577 20.9651 96.2549 19.56L92.6251 18.5186L77.5287 21.8094C75.4656 21.5749 73.5655 22.958 73.1558 24.9943L64.5526 75.2382L71.1255 90.4011L87.3991 84.0973L88.49 78.445Z" fill="#AE7461"/>
<path d="M86.5021 54.4427C86.6757 53.8703 87.0866 53.4061 87.5606 53.1194C88.5081 52.5454 89.732 52.6767 90.5191 53.4364C91.3063 54.196 91.6073 55.5369 91.2464 56.6772C90.635 57.2804 89.7957 57.6165 88.9393 57.5506C88.8059 57.5402 88.6735 57.5231 88.5416 57.4979C87.9039 57.3754 87.2887 57.0513 86.8778 56.4987C86.4669 55.9467 86.2879 55.1491 86.5021 54.4427Z" fill="#6F4439"/>
<path d="M102.904 46.1705C102.763 46.9285 102.006 47.4344 101.212 47.302C100.419 47.1702 99.8893 46.4506 100.029 45.6926C100.17 44.9351 100.928 44.4281 101.72 44.5599C102.514 44.6917 103.045 45.413 102.904 46.1705Z" fill="#263238"/>
<path d="M104.587 41.1817C104.37 41.3284 103.468 40.2908 101.935 39.9541C100.409 39.5959 99.1095 40.1348 98.9848 39.9101C98.9216 39.809 99.1759 39.5141 99.7445 39.2658C100.305 39.018 101.204 38.8555 102.158 39.0713C103.111 39.2888 103.836 39.8184 104.217 40.2803C104.607 40.7467 104.692 41.118 104.587 41.1817Z" fill="#263238"/>
<path d="M92.6481 51.6619C92.6602 51.5734 93.6489 51.6201 95.2358 51.7657C95.6357 51.8118 96.0235 51.8168 96.1488 51.5646C96.3037 51.3021 96.2339 50.8445 96.1455 50.3474C95.9878 49.3191 95.8236 48.2408 95.65 47.1115C94.9859 42.5133 94.597 38.7676 94.7821 38.7423C94.9678 38.717 95.6571 42.4237 96.3218 47.0219C96.4761 48.1535 96.6245 49.2329 96.7645 50.2644C96.814 50.7423 96.9562 51.3032 96.6267 51.8453C96.4564 52.1145 96.1224 52.2622 95.8565 52.2743C95.5885 52.2952 95.3682 52.2502 95.1716 52.2188C93.5995 51.9574 92.6349 51.7503 92.6481 51.6619Z" fill="#263238"/>
<path d="M89.6802 70.0256C89.6802 70.0256 82.1048 68.8485 75.6934 62.7578C75.6934 62.7578 77.9449 71.3324 89.2869 72.7617L89.6802 70.0256Z" fill="#6F4439"/>
<path d="M87.9041 51.7191C88.1562 51.7597 87.7904 53.4236 88.9516 54.9199C90.109 56.4194 91.9233 56.6265 91.8849 56.8616C91.8849 56.9715 91.4185 57.0973 90.666 56.9512C89.9266 56.8133 88.9071 56.3392 88.1963 55.4241C87.4883 54.5073 87.3295 53.4587 87.4245 52.7639C87.5152 52.0547 87.792 51.6839 87.9041 51.7191Z" fill="#263238"/>
<path d="M104.955 38.0673C104.614 38.3843 103.497 37.8734 102.101 37.6828C100.711 37.4477 99.4889 37.601 99.2626 37.1972C99.1648 37.0028 99.3955 36.6716 99.9541 36.4008C100.506 36.13 101.392 35.963 102.35 36.1085C103.306 36.2557 104.1 36.6787 104.541 37.1017C104.99 37.5268 105.107 37.9108 104.955 38.0673Z" fill="#263238"/>
<path d="M85.5179 42.8091C85.3526 43.5622 85.853 44.3224 86.6363 44.5097C87.4174 44.6965 88.1864 44.24 88.3517 43.4874C88.5171 42.7349 88.0161 41.973 87.2356 41.7863C86.4528 41.5984 85.6838 42.0565 85.5179 42.8091Z" fill="#263238"/>
<path d="M83.7634 37.1287C83.9068 37.3484 85.1411 36.7436 86.6841 37.0298C88.2292 37.294 89.2169 38.296 89.419 38.1378C89.5168 38.0691 89.397 37.6983 88.9702 37.249C88.55 36.8024 87.7854 36.3031 86.823 36.1306C85.8601 35.9598 84.9867 36.1658 84.4555 36.4426C83.9139 36.72 83.6909 37.0287 83.7634 37.1287Z" fill="#263238"/>
<path d="M85.5109 32.3051C85.751 32.711 87.0088 32.566 88.4436 32.811C89.8861 33.011 91.0457 33.5311 91.3917 33.2153C91.5472 33.0598 91.4197 32.6737 90.9506 32.2447C90.4892 31.8184 89.6653 31.3883 88.676 31.2345C87.6867 31.0824 86.7759 31.2439 86.2124 31.5119C85.6405 31.7789 85.4082 32.1096 85.5109 32.3051Z" fill="#263238"/>
<path d="M71.9696 44.1263C72.1514 43.299 71.6285 41.1375 70.8403 40.8288C68.7353 40.0049 64.7667 39.3067 63.5005 44.836C61.7697 52.3938 69.7148 52.5729 69.7779 52.3592C69.8268 52.1922 71.3423 46.9827 71.9696 44.1263Z" fill="#AE7461"/>
<path d="M68.3251 49.1406C68.2976 49.1088 68.1724 49.2027 67.9268 49.2538C67.6868 49.3032 67.2979 49.2868 66.9375 49.0484C66.2064 48.5727 65.8247 47.1511 66.0999 45.78C66.2383 45.0874 66.5321 44.4655 66.8996 43.9789C67.2572 43.479 67.7033 43.1747 68.1218 43.1956C68.5426 43.1945 68.7722 43.5004 68.8161 43.7339C68.8689 43.969 68.7859 44.1091 68.8233 44.1305C68.8398 44.1546 69.0144 44.0415 69.0249 43.7152C69.0282 43.5576 68.9804 43.3593 68.8359 43.173C68.6887 42.9841 68.4393 42.8479 68.152 42.8138C67.5599 42.721 66.9128 43.1368 66.5085 43.6707C66.0718 44.2002 65.7252 44.8956 65.5698 45.6729C65.2693 47.2071 65.7225 48.8105 66.7431 49.3768C67.2429 49.6367 67.723 49.5784 67.9933 49.4526C68.2696 49.3203 68.3481 49.1599 68.3251 49.1406Z" fill="#6F4439"/>
<path d="M70.5256 40.8096L72.1334 43.1425C81.8357 36.5075 101.525 19.1348 100.414 20.1801C100.414 20.1801 95.0645 16.8717 88.6597 16.9035C82.2548 16.9354 69.9247 18.1016 68.892 25.4787C67.8593 32.8552 70.5256 40.8096 70.5256 40.8096Z" fill="#263238"/>
<path d="M59.7094 37.2928C59.6973 37.2868 59.7627 37.1418 59.8995 36.8704C60.0379 36.6002 60.2697 36.2146 60.6191 35.7526C61.3161 34.8347 62.5564 33.6422 64.4032 32.6892C66.2307 31.6988 68.6471 31.0435 71.3387 30.66C74.0302 30.2497 77.0162 30.08 80.0429 29.3329C83.0805 28.6348 85.8654 27.5477 88.2851 26.3541C90.6998 25.1429 92.7482 23.8114 94.3785 22.5787C96.0094 21.3445 97.2316 20.2228 98.061 19.4334C98.4444 19.0555 98.7559 18.749 99.0009 18.5073C99.2178 18.2969 99.3365 18.1909 99.3469 18.1997C99.3573 18.2091 99.2579 18.3332 99.0596 18.5617C98.8586 18.7875 98.5702 19.1297 98.1703 19.5428C97.3711 20.3689 96.1703 21.529 94.5493 22.8012C92.9289 24.0717 90.8784 25.4395 88.4494 26.6804C86.016 27.9037 83.2052 29.0132 80.134 29.7191C77.0679 30.4744 74.0632 30.6337 71.3914 31.0215C68.7147 31.3835 66.3417 31.9987 64.5317 32.9385C62.7037 33.8421 61.4633 34.9759 60.7405 35.8487C60.0181 36.7315 59.7468 37.3143 59.7094 37.2928Z" fill="#455A64"/>
<path d="M61.733 38.8611C61.733 38.8611 61.7594 38.2228 62.3049 37.2412C62.8322 36.2646 63.9681 35.0072 65.7676 34.1201C67.5589 33.1929 69.9561 32.8331 72.552 32.6749C75.1557 32.5354 77.9984 32.2772 80.8849 31.4703C83.7655 30.6727 86.4147 29.5681 88.6636 28.2789C90.9212 27.0034 92.8042 25.6032 94.2884 24.3217C95.7874 23.0512 96.8476 21.8608 97.599 21.0589C97.9336 20.6678 98.206 20.3497 98.423 20.0965C98.6147 19.879 98.7213 19.7686 98.7317 19.7768C98.7427 19.785 98.6575 19.9119 98.4856 20.1459C98.2835 20.4123 98.0291 20.7474 97.7166 21.1588C96.9976 21.9954 95.9616 23.2237 94.4735 24.5321C93.0003 25.8515 91.1162 27.2896 88.8437 28.5964C86.5806 29.9169 83.9039 31.0457 80.9882 31.8526C78.0725 32.6689 75.1684 32.921 72.5751 33.0391C69.9868 33.1764 67.6435 33.5038 65.8901 34.3717C64.123 35.2033 62.992 36.3909 62.4378 37.3187C61.8654 38.2514 61.7836 38.8787 61.733 38.8611Z" fill="#455A64"/>
<path d="M40.6233 108.4C40.9298 108.993 40.9298 116.311 42.3146 124.521C43.6994 132.732 50.7409 149.491 50.7409 149.491L49.2858 160.868L110.456 167.854L103.095 148.159L103.903 129.61C103.903 129.61 108.584 124.423 106.605 110.575C104.627 96.7282 101.764 84.8386 101.764 84.8386L96.8458 82.7403L90.5629 80.4107L67.0897 73.0616L54.2382 71.54L41.9191 96.9259L40.6233 108.4Z" fill="#AE7461"/>
<path d="M44.5261 133.338C44.5261 133.338 49.0293 130.153 59.851 129.917C70.6728 129.682 102.554 135.046 102.554 135.046L103.692 130.852C103.692 130.852 111.411 119.101 105.788 105.546C99.7934 91.0951 101.843 84.5134 101.843 84.5134L96.8459 82.7403C96.8459 82.7403 91.8379 92.6079 87.5693 94.9985C82.753 97.6955 73.8928 97.5697 66.085 87.3363C60.592 80.1371 60.4992 72.0492 60.4992 72.0492L54.625 71.54C54.625 71.54 53.2638 86.748 50.3229 93.8059C47.3819 100.863 39.9471 115.627 39.9471 115.627C39.9471 115.627 43.0809 131.349 44.5261 133.338Z" fill="#263238"/>
<path d="M48.6447 160.891C48.2492 161.88 41.9191 178.892 41.1275 192.74C40.336 206.587 40.1383 223.897 43.1056 235.221H78.1196C78.1196 235.221 81.0369 210.19 82.0262 209.003C83.0155 207.816 84.0043 207.442 84.4003 211.981C84.7958 216.52 83.6587 235.221 83.6587 235.221H117.692C117.692 235.221 118.673 204.094 117.882 196.438C117.38 191.588 115.768 183.618 114.653 178.428C113.956 175.183 113 172.001 111.79 168.911L107.822 158.785L48.6447 160.891Z" fill="#263238"/>
<path d="M110.456 165.511C110.456 165.516 110.4 165.521 110.291 165.527C110.165 165.531 110.005 165.537 109.804 165.545C109.356 165.555 108.73 165.569 107.933 165.586C106.308 165.608 103.958 165.674 101.055 165.776C95.2474 165.976 87.2358 166.466 78.3905 167.085C69.5418 167.704 61.5215 168.163 55.7093 168.311C52.8035 168.387 50.4514 168.422 48.826 168.41C48.029 168.404 47.4023 168.4 46.9546 168.397C46.7535 168.393 46.5937 168.39 46.4679 168.387C46.358 168.383 46.302 168.379 46.302 168.374C46.302 168.369 46.358 168.363 46.4679 168.358C46.5937 168.354 46.7535 168.347 46.9546 168.34C47.4023 168.33 48.0284 168.316 48.8255 168.299C50.4498 168.277 52.8002 168.211 55.7033 168.109C61.5105 167.909 69.5231 167.419 78.3712 166.8C87.2166 166.18 95.2364 165.722 101.049 165.574C103.954 165.498 106.306 165.463 107.932 165.475C108.729 165.481 109.356 165.485 109.804 165.487C110.005 165.492 110.166 165.495 110.291 165.498C110.4 165.502 110.456 165.506 110.456 165.511Z" fill="#455A64"/>
<path d="M52.3161 168.372C52.3211 168.373 52.3123 168.432 52.2914 168.545C52.2662 168.673 52.2332 168.838 52.192 169.046C52.0942 169.504 51.9569 170.147 51.7822 170.966C51.5966 171.798 51.3757 172.818 51.1544 174.008C50.9286 175.197 50.6402 176.546 50.4002 178.05C50.2716 178.802 50.1376 179.588 49.9975 180.408C49.8586 181.227 49.7487 182.086 49.6158 182.972C49.3373 184.742 49.1263 186.645 48.8852 188.644C48.46 192.65 48.1162 197.066 47.9728 201.713C47.8514 206.361 47.9443 210.792 48.1524 214.815C48.2876 216.825 48.3947 218.736 48.5853 220.518C48.6737 221.409 48.7391 222.272 48.838 223.098C48.9385 223.923 49.0352 224.715 49.1274 225.471C49.2933 226.986 49.5246 228.345 49.6971 229.543C49.8641 230.742 50.0426 231.77 50.1958 232.608C50.3376 233.433 50.4491 234.081 50.5282 234.542C50.5611 234.752 50.5875 234.918 50.6078 235.047C50.6243 235.161 50.6303 235.22 50.6254 235.221C50.6204 235.222 50.6051 235.165 50.5792 235.053C50.5518 234.925 50.5166 234.761 50.4721 234.554C50.3804 234.095 50.2513 233.45 50.0871 232.628C49.9168 231.792 49.7218 230.767 49.54 229.569C49.3521 228.372 49.1066 227.013 48.9275 225.497C48.8292 224.74 48.7265 223.948 48.6193 223.122C48.515 222.296 48.4441 221.432 48.3502 220.54C48.1491 218.756 48.0332 216.842 47.8904 214.829C47.6674 210.8 47.5663 206.361 47.6883 201.704C47.8316 197.049 48.1837 192.625 48.6243 188.614C48.8726 186.612 49.0934 184.708 49.3818 182.937C49.5202 182.051 49.6361 181.192 49.7806 180.372C49.9272 179.553 50.0679 178.766 50.2019 178.015C50.4551 176.511 50.7572 175.164 50.9989 173.976C51.2357 172.787 51.4719 171.771 51.6746 170.942C51.8718 170.128 52.0267 169.488 52.1371 169.033C52.1898 168.829 52.2315 168.665 52.2645 168.539C52.2936 168.427 52.3112 168.371 52.3161 168.372Z" fill="white"/>
<path d="M49.2857 168.719C49.2906 168.72 49.2824 168.778 49.2615 168.891C49.2363 169.019 49.2038 169.183 49.1632 169.389C49.0665 169.845 48.9303 170.485 48.7573 171.3C48.5733 172.128 48.3541 173.142 48.1377 174.327C47.9168 175.51 47.6307 176.852 47.4 178.35C47.2753 179.098 47.1451 179.881 47.0094 180.697C46.8737 181.513 46.771 182.368 46.643 183.249C46.3755 185.012 46.1783 186.906 45.9525 188.896C45.5581 192.883 45.2555 197.28 45.1566 201.903C45.0803 206.528 45.2159 210.934 45.4587 214.934C45.6087 216.932 45.7339 218.833 45.9344 220.603C46.0289 221.489 46.0992 222.347 46.2041 223.168C46.3085 223.988 46.409 224.776 46.5051 225.528C46.6793 227.034 46.9144 228.385 47.0901 229.576C47.2615 230.768 47.4417 231.79 47.5944 232.624C47.7367 233.444 47.8482 234.089 47.9273 234.548C47.9602 234.756 47.9866 234.922 48.0069 235.05C48.0234 235.163 48.0294 235.222 48.0245 235.223C48.0196 235.224 48.0042 235.168 47.9784 235.056C47.9509 234.929 47.9152 234.765 47.8707 234.559C47.779 234.102 47.6493 233.461 47.4851 232.644C47.3159 231.812 47.1193 230.792 46.9325 229.602C46.7419 228.411 46.4925 227.061 46.3052 225.555C46.203 224.802 46.0965 224.015 45.9855 223.195C45.8745 222.373 45.7987 221.515 45.6993 220.628C45.4884 218.856 45.3538 216.953 45.1967 214.952C44.9391 210.946 44.7952 206.532 44.8715 201.898C44.9709 197.266 45.2818 192.862 45.6916 188.869C45.9245 186.876 46.1311 184.98 46.409 183.217C46.5425 182.335 46.6507 181.48 46.7924 180.663C46.9347 179.848 47.0709 179.065 47.2016 178.317C47.4455 176.819 47.7466 175.478 47.9822 174.296C48.2135 173.113 48.4486 172.102 48.6496 171.277C48.8452 170.467 48.9984 169.831 49.1077 169.378C49.1599 169.174 49.2016 169.012 49.2341 168.886C49.2632 168.774 49.2808 168.718 49.2857 168.719Z" fill="white"/>
<path d="M107.839 159.493C107.821 159.501 107.672 159.194 107.418 158.629C107.151 158.021 106.796 157.211 106.364 156.227C105.484 154.191 104.283 151.364 102.963 148.215L102.953 148.192L102.952 148.166C102.947 148.033 102.941 147.891 102.935 147.748C102.79 144.242 102.675 141.067 102.606 138.769C102.579 137.654 102.556 136.735 102.539 136.047C102.538 135.753 102.536 135.509 102.535 135.306C102.538 135.136 102.544 135.047 102.554 135.047C102.563 135.046 102.577 135.135 102.593 135.303C102.609 135.506 102.628 135.749 102.651 136.042C102.691 136.729 102.744 137.647 102.808 138.76C102.929 141.056 103.076 144.23 103.221 147.736C103.227 147.879 103.232 148.021 103.238 148.154L103.227 148.104C104.544 151.254 105.715 154.093 106.547 156.149C106.945 157.147 107.273 157.969 107.519 158.587C107.742 159.164 107.857 159.486 107.839 159.493Z" fill="#6F4439"/>
<path d="M101.511 108.749C101.496 108.827 99.1858 108.437 96.3525 107.879C93.5181 107.321 91.233 106.806 91.2484 106.729C91.2637 106.651 93.573 107.041 96.4074 107.599C99.2412 108.157 101.526 108.672 101.511 108.749Z" fill="white"/>
<path d="M17.5376 216.716C22.8672 214.538 25.422 208.452 23.2439 203.122C21.0657 197.792 14.9795 195.237 9.64995 197.415C4.32036 199.593 1.7656 205.679 3.94372 211.009C6.12184 216.339 12.208 218.894 17.5376 216.716Z" fill="#FF725E"/>
<g opacity="0.3">
<path d="M17.5376 216.716C22.8672 214.538 25.422 208.452 23.2439 203.122C21.0657 197.792 14.9795 195.237 9.64995 197.415C4.32036 199.593 1.7656 205.679 3.94372 211.009C6.12184 216.339 12.208 218.894 17.5376 216.716Z" fill="black"/>
</g>
<path d="M21.056 216.619C26.3372 214.327 28.7604 208.187 26.4683 202.906C24.1761 197.624 18.0367 195.201 12.7555 197.493C7.47427 199.785 5.05113 205.924 7.34325 211.206C9.63538 216.487 15.7748 218.911 21.056 216.619Z" fill="#FF725E"/>
<path d="M11.0721 187.68C11.0721 188.072 11.0622 194.881 9.88778 198.698C8.71337 202.516 8.12562 206.431 8.61505 207.9C9.10447 209.368 14.5859 214.752 15.8587 215.241C17.1314 215.731 28.2904 214.752 28.2904 214.752L32.1081 201.733C32.1081 201.733 27.7032 195.468 25.8433 192.14C23.9834 188.812 22.302 184.937 22.5063 182.617C22.7106 180.295 11.0721 187.68 11.0721 187.68Z" fill="#AE7461"/>
<path d="M26.0043 218.486C31.7617 218.486 36.4289 213.819 36.4289 208.061C36.4289 202.304 31.7617 197.637 26.0043 197.637C20.247 197.637 15.5797 202.304 15.5797 208.061C15.5797 213.819 20.247 218.486 26.0043 218.486Z" fill="#FF725E"/>
<path d="M48.842 71.6669C45.7576 72.0619 42.7722 73.0874 40.1658 74.7831C35.9186 77.5466 30.7859 82.854 28.9491 92.7941C25.6093 110.868 23.8411 126.78 21.8768 130.906C19.9125 135.031 15.7867 142.889 15.394 151.14C15.0012 159.391 11.0721 187.68 11.0721 187.68H21.2874C21.2874 187.68 30.7173 158.409 34.2531 148.979C37.7895 139.549 36.8694 139.318 39.227 130.478C41.5846 121.638 46.4915 104.635 46.4915 104.635L52.3811 86.6809L54.2377 71.54L48.842 71.6669Z" fill="#AE7461"/>
<path d="M47.0271 87.0871C47.0617 87.0745 47.2968 87.5815 47.6094 88.4302C47.9203 89.2783 48.2987 90.4736 48.5783 91.8282C48.8557 93.1838 48.9782 94.4318 49.0271 95.3338C49.0738 96.2368 49.0579 96.7955 49.0211 96.7971C48.9788 96.7993 48.9238 96.244 48.8255 95.3503C48.7255 94.4571 48.5723 93.2256 48.2982 91.8853C48.0219 90.5461 47.678 89.3541 47.4177 88.4934C47.1556 87.6337 46.9876 87.1014 47.0271 87.0871Z" fill="#6F4439"/>
<g opacity="0.3">
<path d="M26.0043 218.486C31.7617 218.486 36.4289 213.819 36.4289 208.061C36.4289 202.304 31.7617 197.637 26.0043 197.637C20.247 197.637 15.5797 202.304 15.5797 208.061C15.5797 213.819 20.247 218.486 26.0043 218.486Z" fill="black"/>
</g>
<path d="M29.673 218.486C35.4306 218.486 40.0981 213.819 40.0981 208.061C40.0981 202.303 35.4306 197.636 29.673 197.636C23.9153 197.636 19.2478 202.303 19.2478 208.061C19.2478 213.819 23.9153 218.486 29.673 218.486Z" fill="#FF725E"/>
<path d="M30.0279 209.139L29.5456 209.173L29.6011 209.949L28.9326 209.997L28.8771 209.222L27.2825 209.336L27.2413 208.761L28.469 206.318L29.188 206.267L28.0532 208.58L28.8486 208.523L28.7991 207.832L29.4462 207.785L29.4957 208.476L29.9779 208.442L30.0279 209.139Z" fill="#263238"/>
<path d="M31.322 208.707L31.0331 209.12L31.0847 209.842L30.425 209.889L30.1443 205.975L30.804 205.928L30.9627 208.143L31.846 206.935L32.6332 206.879L31.7719 208.149L32.9215 209.71L32.1218 209.768L31.322 208.707Z" fill="#263238"/>
<path d="M38.4043 208.061C38.357 208.066 38.4152 207.283 38.0769 205.943C37.9187 205.273 37.6001 204.482 37.1013 203.644C36.5987 202.81 35.8758 201.94 34.8942 201.202C33.9159 200.471 32.6833 199.851 31.2623 199.602C29.8506 199.362 28.2587 199.408 26.7432 199.985C25.9807 200.25 25.2452 200.651 24.5696 201.157C24.2202 201.397 23.9154 201.698 23.5957 201.987C23.3067 202.307 23.0035 202.62 22.7547 202.983C21.6979 204.389 21.1024 206.197 21.0848 208.06C21.1013 209.923 21.6973 211.731 22.7542 213.138C23.003 213.501 23.3068 213.815 23.5951 214.135C23.9148 214.424 24.2202 214.724 24.5696 214.965C25.2452 215.471 25.9807 215.872 26.7437 216.137C28.2592 216.715 29.8517 216.761 31.2628 216.521C32.6839 216.272 33.9165 215.651 34.8948 214.92C35.8758 214.182 36.5987 213.312 37.1013 212.478C37.6001 211.64 37.9187 210.849 38.0769 210.178C38.4152 208.84 38.357 208.057 38.4043 208.061C38.4092 208.061 38.412 208.109 38.412 208.203C38.4103 208.314 38.4081 208.451 38.4054 208.62C38.4054 208.803 38.3955 209.03 38.3504 209.295C38.3147 209.561 38.2812 209.87 38.1856 210.206C38.0423 210.89 37.7341 211.699 37.2392 212.56C36.7404 213.418 36.0143 214.316 35.0178 215.082C34.0247 215.84 32.7657 216.488 31.3068 216.754C29.8583 217.012 28.2197 216.973 26.6542 216.386C25.8665 216.115 25.1063 215.704 24.4076 215.185C24.0467 214.938 23.7303 214.629 23.3996 214.332C23.1002 214.003 22.7866 213.679 22.5284 213.305C21.4342 211.855 20.8151 209.985 20.7992 208.061C20.8162 206.137 21.4353 204.268 22.5295 202.818C22.7877 202.444 23.1013 202.121 23.4007 201.792C23.7314 201.494 24.0472 201.185 24.4081 200.939C25.1068 200.419 25.867 200.009 26.6547 199.738C28.2197 199.15 29.8583 199.112 31.3068 199.369C32.7652 199.636 34.0247 200.283 35.0178 201.042C36.0143 201.807 36.7404 202.706 37.2397 203.563C37.7347 204.424 38.0423 205.234 38.1862 205.917C38.2818 206.254 38.3158 206.562 38.351 206.829C38.3955 207.094 38.4054 207.32 38.4059 207.504C38.4087 207.674 38.4109 207.81 38.4125 207.921C38.412 208.014 38.4092 208.061 38.4043 208.061Z" fill="#263238"/>
</svg>
