<svg width="156" height="183" viewBox="0 0 156 183" fill="none" xmlns="http://www.w3.org/2000/svg">
<path d="M102.611 57.6793C102.611 57.6793 108.846 52.9573 123.529 55.9603L118.964 61.8543L107.316 63.1763L103.268 60.2853L102.611 57.6793Z" fill="#617268"/>
<path d="M21.195 166.414L20.615 170.514L19.815 176.174L4.40503 170.894L4.56503 169.784L5.69503 162.094L6.21503 158.554L19.705 159.934L20.375 162.864L21.195 166.414Z" fill="#FFB6B2"/>
<path d="M58.7461 73.3071C58.7461 73.3071 62.2071 72.4891 66.0451 72.1051C69.8831 71.7211 82.456 88.5961 82.456 88.5961V112.393L71.9361 115.842L55.1331 88.5961L58.7461 73.3071Z" fill="#F67B7A"/>
<path d="M21.1949 166.414L20.6149 170.514L4.56494 169.784L5.69494 162.094L5.88494 161.894L20.3749 162.864L21.1949 166.414Z" fill="#F67B7A"/>
<path d="M4.40001 170.897C4.40001 170.897 2.43201 179.182 3.14001 180.67C3.84801 182.158 10.276 182.165 10.276 182.165C10.276 182.165 33.495 184.015 33.891 181.455C34.286 178.894 21.422 171.584 21.422 171.584C21.422 171.584 21.613 169.1 17.472 169.506C13.33 169.911 13.539 172.12 13.539 172.12C13.539 172.12 10.26 172.875 4.40001 170.897Z" fill="#718EAD"/>
<path d="M128.125 10.0837C127.035 11.0737 123.035 17.1837 123.035 17.1837L122.485 54.3237L122.315 65.8637L120.975 66.3537L105.655 72.0237L105.895 68.8537L106.845 55.9737L109.735 17.2237L110.815 3.87368C110.815 3.87368 111.435 2.8037 112.895 3.1437C112.895 3.1437 113.765 1.44369 114.655 1.35369C115.545 1.27369 116.085 1.57369 116.085 1.57369C116.085 1.57369 116.625 0.0836824 117.735 0.00368243C118.845 -0.0763176 119.085 1.1737 119.085 1.1737L118.865 6.09368L122.475 1.10369C122.475 1.10369 123.785 0.473695 124.315 1.95369L122.015 10.6437C122.015 10.6437 125.755 7.32369 128.335 8.38369C128.335 8.38369 129.225 9.0937 128.125 10.0837Z" fill="#FFB6B2"/>
<path d="M126.335 167.783C123.755 168.843 120.015 165.523 120.015 165.523L122.315 174.213C121.785 175.703 120.475 175.063 120.475 175.063L116.865 170.083L117.085 175.003C117.085 175.003 116.845 176.243 115.735 176.163C114.625 176.083 114.085 174.593 114.085 174.593C114.085 174.593 113.545 174.893 112.655 174.813C111.765 174.733 110.895 173.023 110.895 173.023C109.435 173.363 108.815 172.293 108.815 172.293L107.735 158.953L105.925 134.573L105.025 122.593L103.655 104.153L120.315 110.313L120.485 121.543L120.635 131.963L121.035 158.993C121.035 158.993 125.035 165.103 126.125 166.093C127.225 167.083 126.335 167.783 126.335 167.783Z" fill="#FFB6B2"/>
<path d="M114.085 174.599L113.906 167.888" stroke="#F67B7A" stroke-width="0.75" stroke-miterlimit="10" stroke-linecap="round" stroke-linejoin="round"/>
<path d="M122.485 54.3242L122.315 65.8642L120.975 66.3542L106.555 70.2142L105.895 68.8542L106.845 55.9742C108.385 56.0142 115.925 56.1342 122.485 54.3242Z" fill="#F67B7A"/>
<path d="M120.635 131.964L105.925 134.574L105.025 122.594L120.485 121.544L120.635 131.964Z" fill="#F67B7A"/>
<path d="M110.898 173.028V166.229" stroke="#F67B7A" stroke-width="0.75" stroke-miterlimit="10" stroke-linecap="round" stroke-linejoin="round"/>
<path d="M109.289 164.531C109.289 164.531 111.047 167.598 116.642 168.883" stroke="#F67B7A" stroke-width="0.75" stroke-miterlimit="10" stroke-linecap="round" stroke-linejoin="round"/>
<path d="M120.014 165.527C120.014 165.527 113.344 165.332 112.115 160.883" stroke="#F67B7A" stroke-width="0.75" stroke-miterlimit="10" stroke-linecap="round" stroke-linejoin="round"/>
<path d="M126.674 97.6609C126.674 97.6609 127.259 100.864 130.427 101.897C133.595 102.929 137.368 101.577 137.368 101.577C137.368 101.577 137.688 102.858 138.436 102.752C139.183 102.645 140.999 100.367 140.999 100.367L145.448 97.9469C145.448 97.9469 150.915 91.2919 148.063 85.4689C145.211 79.6459 139.566 77.5069 134.396 79.7649C129.227 82.0229 127.028 86.8949 127.028 86.8949L120.789 86.8359C120.789 86.8359 112.351 92.3619 120.314 98.9569C120.314 98.9569 124.241 97.2579 126.674 97.6609Z" fill="#FFB6B2"/>
<path d="M120.317 110.31L121.273 79.6387L103.654 88.2467V104.151L120.317 110.31Z" fill="#FFB6B2"/>
<path d="M102.611 57.6799C102.611 57.6799 110.563 61.4049 123.529 55.9609L121.114 86.838C121.114 86.838 114.273 87.2799 114.739 93.6259C115.205 99.9719 120.676 98.8089 120.676 98.8089L121.827 129.922C121.827 129.922 108.473 131.519 102.611 131.519L97.936 110.311L93.475 110.903C93.475 110.903 90.617 115.643 86.365 117.874L79.217 100.867C79.217 100.867 72.267 80.6269 62.411 72.0229C62.411 72.0229 87.067 69.2169 103.656 70.5209L102.611 57.6799Z" fill="#8FA699"/>
<path d="M110.985 170.984L107.185 176.174L95.7751 170.894L95.3651 170.514L92.6851 168.044L82.9351 159.034L101.335 154.854L105.355 161.574L108.545 166.904L110.985 170.984Z" fill="#FFB6B2"/>
<path d="M108.545 166.904L95.365 170.514L92.685 168.044L91.975 165.864L103.115 161.174L105.355 161.574L108.545 166.904Z" fill="#F67B7A"/>
<path d="M95.774 170.897C95.774 170.897 93.806 179.182 94.514 180.67C95.222 182.158 101.65 182.165 101.65 182.165C101.65 182.165 124.869 184.015 125.265 181.455C125.66 178.894 112.796 171.584 112.796 171.584C112.796 171.584 112.987 169.1 108.846 169.506C104.705 169.911 104.913 172.12 104.913 172.12C104.913 172.12 100.999 173.217 95.774 170.897Z" fill="#718EAD"/>
<path d="M88.292 170.982L110.263 164.232L79.215 100.866C79.215 100.866 68.165 78.3046 58.745 73.3066C58.745 73.3066 15.187 90.3406 0 167.227L25.143 168.728C25.143 168.728 40.58 131.961 50.964 119.892L88.292 170.982Z" fill="#815DCF"/>
<path d="M116.085 1.57422V6.90521" stroke="#F67B7A" stroke-width="0.75" stroke-miterlimit="10" stroke-linecap="round" stroke-linejoin="round"/>
<path d="M112.898 3.14453V8.74454" stroke="#F67B7A" stroke-width="0.75" stroke-miterlimit="10" stroke-linecap="round" stroke-linejoin="round"/>
<path d="M118.87 6.08887C118.87 6.08887 114.584 6.90487 111.912 9.79587" stroke="#F67B7A" stroke-width="0.75" stroke-miterlimit="10" stroke-linecap="round" stroke-linejoin="round"/>
<path d="M122.014 10.6468C122.014 10.6468 115.897 9.22676 112.438 14.6138" stroke="#F67B7A" stroke-width="0.75" stroke-miterlimit="10" stroke-linecap="round" stroke-linejoin="round"/>
<path d="M50.965 119.893C50.965 119.893 43.228 113.813 42.657 99.175C42.086 84.537 52.164 76.876 52.164 76.876" stroke="#3A3D4C" stroke-width="0.75" stroke-miterlimit="10" stroke-linecap="round" stroke-linejoin="round"/>
<path d="M93.474 110.901C93.474 110.901 95.236 108.25 95.32 106.254" stroke="#3A3D4C" stroke-width="0.75" stroke-miterlimit="10" stroke-linecap="round" stroke-linejoin="round"/>
<path d="M137.049 89.4997C137.049 89.4997 139.23 84.9967 135.22 84.7857C131.21 84.5747 132.265 89.4997 132.265 89.4997C132.265 89.4997 131.274 91.1537 128.674 90.8197C126.074 90.4847 125.511 87.7417 125.863 86.3347C126.215 84.9277 128.044 84.0837 128.044 84.0837C128.044 84.0837 131.506 77.7967 139.616 77.8877C147.725 77.9787 149.365 83.7187 149.639 85.6327C149.639 85.6327 152.464 88.7307 152.099 91.3727C152.099 91.3727 159.906 97.3967 153.455 101.116C147.004 104.835 143.531 98.9897 143.531 98.9897L145.448 97.9467C145.448 97.9467 140.263 96.2157 140.089 90.8197C140.089 90.8197 136.019 92.1437 133.696 91.2357L137.049 89.4997Z" fill="#3A3D4C"/>
<path d="M136.206 91.5403C136.206 91.5403 132.657 93.5524 131.419 94.9744C131.419 94.9744 136.051 96.8014 137.367 101.576C137.367 101.576 135.67 104.705 129.589 102.757C123.508 100.808 126.468 90.8534 127.49 89.4014L132.263 89.5004C132.263 89.5004 132.794 91.1334 133.693 91.2364C134.594 91.3374 136.206 91.5403 136.206 91.5403Z" fill="#3A3D4C"/>
<path d="M134.531 88.9586C134.531 88.9586 136.526 88.9036 136.732 87.1966C136.938 85.4886 133.672 84.9426 132.601 87.6596C132.601 87.6596 133.432 87.5366 133.55 88.2026C133.667 88.8696 132.666 88.8756 132.666 88.8756" stroke="#F67B7A" stroke-width="0.388" stroke-miterlimit="10" stroke-linecap="round" stroke-linejoin="round"/>
<path d="M133.086 86.8015C133.086 86.8015 136.464 86.1575 136.579 87.7625" stroke="#F67B7A" stroke-width="0.388" stroke-miterlimit="10" stroke-linecap="round" stroke-linejoin="round"/>
</svg>
