<svg width="189" height="196" viewBox="0 0 189 196" fill="none" xmlns="http://www.w3.org/2000/svg">
<path d="M20.5647 38.6439C20.5647 38.6439 7.51067 27.8719 2.04567 37.0529C-3.41933 46.2339 13.9717 56.2119 21.0637 68.8309C28.1547 81.4499 62.7207 196.394 117.007 194.659C171.293 192.924 194.715 146.225 185.173 87.5949C175.631 28.9659 158.368 38.1699 158.368 38.1699" stroke="#D66441" stroke-width="2" stroke-miterlimit="10" stroke-linecap="round" stroke-linejoin="round"/>
<path d="M81.4057 32.9647C81.4057 32.9647 70.1817 32.6377 63.3157 39.0677C56.4507 45.4967 46.3157 65.2207 46.3157 65.2207C46.3157 65.2207 41.9577 41.7907 39.8867 39.3937C37.8167 36.9967 31.6047 35.9067 27.3547 36.0157C23.1047 36.1247 18.4187 42.8807 18.6367 44.4067C18.8547 45.9327 22.3417 53.2337 26.1557 54.6497C29.9697 56.0667 30.4057 53.9957 30.4057 53.9957C30.4057 53.9957 26.9527 88.7387 41.2997 91.7277C55.6467 94.7167 75.3747 52.6707 75.3747 52.6707L81.4057 32.9647Z" fill="#FFB6B2"/>
<path d="M81.4056 32.9644L79.8596 32.9964L76.6396 44.8944C76.6396 44.8944 74.6686 51.6734 87.0446 49.8604C99.4206 48.0474 96.6696 32.9644 96.6696 32.9644L95.5286 32.5594C92.0456 29.7614 89.5166 20.1534 89.5166 20.1534C92.3206 20.5844 96.1146 22.5704 95.1456 15.2474C94.3046 8.88936 89.0846 15.6244 89.0846 15.6244L91.0976 13.0364C91.0976 13.0364 97.2076 7.28536 88.2226 5.48836C79.2376 3.69136 79.1096 9.33636 78.5476 9.93836C77.9866 10.5404 77.3046 14.4294 77.3046 14.4294C77.3046 14.4294 75.4996 15.9934 75.4996 16.3144C75.4996 16.6354 76.9036 16.6754 76.9036 16.6754C76.9036 16.6754 75.0856 21.4144 77.0386 23.8384C79.6626 27.0964 82.1696 26.5864 82.1696 26.5864L81.4056 32.9644Z" fill="#FFB6B2"/>
<path d="M23.6456 39.4347L23.2436 43.5267L18.4796 39.4347L20.7946 37.0527L23.6456 39.4347Z" fill="#3A3D4C"/>
<path d="M33.7346 51.6299L36.8116 53.7259L38.9076 50.5159L34.5826 47.1719C34.5826 47.1719 35.4286 49.9799 33.7346 51.6299Z" fill="#3A3D4C"/>
<path d="M34.5817 47.1701L30.1837 42.8271" stroke="#F67B7A" stroke-width="0.75" stroke-miterlimit="10" stroke-linecap="round" stroke-linejoin="round"/>
<path d="M30.4917 37.625C30.4917 37.625 31.9877 41.448 28.5407 44.999C28.5407 44.999 30.4917 49.981 27.6957 50.826C27.6957 50.826 27.0587 50.893 26.8397 50.147C26.6207 49.401 25.3917 46.637 25.3917 46.637C25.3917 46.637 23.3347 46.075 23.2447 43.526C23.1547 40.977 24.0757 38.696 24.0757 38.696" stroke="#F67B7A" stroke-width="0.75" stroke-miterlimit="10" stroke-linecap="round" stroke-linejoin="round"/>
<path d="M32.1547 50.4478C32.1547 50.4478 33.5647 49.1748 33.7347 46.7158" stroke="#F67B7A" stroke-width="0.75" stroke-miterlimit="10" stroke-linecap="round" stroke-linejoin="round"/>
<path d="M29.8496 48.5817C29.8496 48.5817 31.6776 46.5667 31.7806 44.5947" stroke="#F67B7A" stroke-width="0.75" stroke-miterlimit="10" stroke-linecap="round" stroke-linejoin="round"/>
<path d="M30.6677 41.126C30.6677 41.126 31.0237 45.29 35.6377 46.109" stroke="#F67B7A" stroke-width="0.75" stroke-miterlimit="10" stroke-linecap="round" stroke-linejoin="round"/>
<path d="M30.4066 53.9959L33.7346 51.6299" stroke="#F67B7A" stroke-width="0.75" stroke-miterlimit="10" stroke-linecap="round" stroke-linejoin="round"/>
<path d="M46.3167 65.2197L50.0176 72.4417" stroke="#F67B7A" stroke-width="0.75" stroke-miterlimit="10" stroke-linecap="round" stroke-linejoin="round"/>
<path d="M96.6707 32.9647C96.6707 32.9647 107.895 32.6377 114.761 39.0677C121.626 45.4967 131.761 65.2207 131.761 65.2207C131.761 65.2207 136.12 41.7917 138.19 39.3947C140.26 36.9977 146.472 35.9077 150.722 36.0167C154.972 36.1257 159.658 42.8817 159.44 44.4077C159.222 45.9337 155.735 53.2347 151.921 54.6507C148.107 56.0677 147.671 53.9967 147.671 53.9967C147.671 53.9967 151.124 88.7397 136.777 91.7287C122.429 94.7177 105.397 56.9347 105.397 56.9347L91.7797 48.5827L96.6707 32.9647Z" fill="#FFB6B2"/>
<path d="M154.43 39.4347L154.833 43.5267L159.596 39.4347L157.281 37.0527L154.43 39.4347Z" fill="#3A3D4C"/>
<path d="M144.342 51.6299L141.265 53.7259L139.169 50.5159L143.494 47.1719C143.494 47.1719 142.647 49.9799 144.342 51.6299Z" fill="#3A3D4C"/>
<path d="M143.495 47.1701L147.893 42.8271" stroke="#F67B7A" stroke-width="0.75" stroke-miterlimit="10" stroke-linecap="round" stroke-linejoin="round"/>
<path d="M147.585 37.625C147.585 37.625 146.089 41.448 149.536 44.999C149.536 44.999 147.585 49.981 150.381 50.826C150.381 50.826 151.018 50.893 151.237 50.147C151.456 49.401 152.685 46.637 152.685 46.637C152.685 46.637 154.742 46.075 154.832 43.526C154.922 40.977 154.001 38.696 154.001 38.696" stroke="#F67B7A" stroke-width="0.75" stroke-miterlimit="10" stroke-linecap="round" stroke-linejoin="round"/>
<path d="M145.922 50.4478C145.922 50.4478 144.512 49.1748 144.342 46.7158" stroke="#F67B7A" stroke-width="0.75" stroke-miterlimit="10" stroke-linecap="round" stroke-linejoin="round"/>
<path d="M148.227 48.5817C148.227 48.5817 146.399 46.5667 146.296 44.5947" stroke="#F67B7A" stroke-width="0.75" stroke-miterlimit="10" stroke-linecap="round" stroke-linejoin="round"/>
<path d="M147.408 41.126C147.408 41.126 147.052 45.29 142.438 46.109" stroke="#F67B7A" stroke-width="0.75" stroke-miterlimit="10" stroke-linecap="round" stroke-linejoin="round"/>
<path d="M147.67 53.9959L144.342 51.6299" stroke="#F67B7A" stroke-width="0.75" stroke-miterlimit="10" stroke-linecap="round" stroke-linejoin="round"/>
<path d="M131.76 65.2197L128.059 72.4417" stroke="#F67B7A" stroke-width="0.75" stroke-miterlimit="10" stroke-linecap="round" stroke-linejoin="round"/>
<path d="M80.6847 32.9797C80.6847 32.9797 77.8667 40.4177 78.5427 45.3127C78.5427 45.3127 84.6767 48.9137 93.5677 46.0437C93.5677 46.0437 93.7367 35.9147 95.9877 31.6377L99.0267 32.4817C99.0267 32.4817 92.4407 47.3787 105.397 56.9337C105.397 56.9337 101.741 70.0967 103.934 74.5887C103.934 74.5887 85.9207 85.7267 70.7087 75.8637C70.7087 75.8637 70.7087 62.9617 69.4477 56.5437C68.1867 50.1257 74.6877 44.9437 74.6877 44.9437C74.6877 44.9437 76.3287 36.2867 78.2177 33.1207L80.6847 32.9797Z" fill="#718EAD"/>
<path d="M89.0856 15.6246C89.0856 15.6246 79.5256 13.9976 78.3186 7.95961C77.1106 1.92061 86.9366 -2.25139 93.9086 1.31761C100.881 4.88561 105.584 13.5546 112.961 15.6246C120.338 17.6946 130.091 8.06661 137.593 13.9436C145.095 19.8206 144.845 43.0766 121.338 42.8266C97.8306 42.5766 89.6196 27.8336 89.5166 20.1526C89.5166 20.1526 91.1356 20.7326 92.4926 20.0206C94.1556 19.1476 95.4946 16.8056 93.8386 14.8866C91.5046 12.1806 89.0856 15.6246 89.0856 15.6246Z" fill="#3A3D4C"/>
<path d="M70.7077 75.8649C70.7077 75.8649 58.6507 92.2589 62.7357 124.259C66.8207 156.259 81.3247 163.068 87.3497 163.068C93.3747 163.068 96.8147 157.564 96.8147 157.564C96.8147 157.564 103.484 165.606 110.088 163.068C116.692 160.53 143.495 140.06 143.495 140.06C143.495 140.06 143.949 126.028 132.801 118.596L122.953 123.799C122.953 123.799 121.467 120.826 117.007 117.481C117.007 117.481 120.416 85.0838 103.934 74.5898C103.934 74.5898 83.0067 84.5799 70.7077 75.8649Z" fill="#E1CFBC"/>
<path d="M117.007 117.48C117.007 117.48 130.284 106.608 133.275 106.893C136.266 107.178 140.396 115.153 140.396 115.153C140.396 115.153 152.501 107.035 156.346 107.747C160.191 108.459 174.29 129.394 173.008 130.96C171.726 132.527 153.782 125.548 153.782 125.548L143.23 136.36C143.23 136.36 140.253 123.508 132.8 118.593L122.952 123.796C122.952 123.796 120.343 119.731 117.007 117.48Z" fill="#FFB6B2"/>
<path d="M96.8146 157.563C96.8146 157.563 83.0796 134.615 86.3256 96.5312" stroke="#3A3D4C" stroke-width="0.75" stroke-miterlimit="10" stroke-linecap="round" stroke-linejoin="round"/>
<path d="M78.3467 93.9004C78.3467 93.9004 84.7507 99.3064 93.4837 93.9004" stroke="#3A3D4C" stroke-width="0.75" stroke-miterlimit="10" stroke-linecap="round" stroke-linejoin="round"/>
<path d="M132.8 118.595L140.395 115.153" stroke="#F67B7A" stroke-width="0.75" stroke-miterlimit="10" stroke-linecap="round" stroke-linejoin="round"/>
<path d="M122.952 123.798L116.205 126.089" stroke="#3A3D4C" stroke-width="0.75" stroke-miterlimit="10" stroke-linecap="round" stroke-linejoin="round"/>
<path d="M117.007 117.48C117.007 117.48 114.64 141.636 111.354 148.336" stroke="#3A3D4C" stroke-width="0.75" stroke-miterlimit="10" stroke-linecap="round" stroke-linejoin="round"/>
<path d="M101.23 75.7268C101.23 75.7268 100.026 61.3748 102.694 54.5908" stroke="#3A3D4C" stroke-width="0.75" stroke-miterlimit="10" stroke-linecap="round" stroke-linejoin="round"/>
<path d="M82.1707 26.5873C82.1707 26.5873 85.5787 27.1173 88.2897 24.8193" stroke="#F67B7A" stroke-width="0.75" stroke-miterlimit="10" stroke-linecap="round" stroke-linejoin="round"/>
<path d="M105.396 56.9342L103.364 51.8252" stroke="#F67B7A" stroke-width="0.75" stroke-miterlimit="10" stroke-linecap="round" stroke-linejoin="round"/>
<path d="M89.9647 17.8058C89.9647 17.8058 89.4267 15.7388 91.1207 15.0188C92.8147 14.2988 94.3497 17.4928 91.8757 19.4038C91.8757 19.4038 91.7547 18.5128 91.0347 18.5908C90.3147 18.6688 90.6067 19.7008 90.6067 19.7008" stroke="#F67B7A" stroke-width="0.4153" stroke-miterlimit="10" stroke-linecap="round" stroke-linejoin="round"/>
<path d="M92.6126 18.6493C92.6126 18.6493 92.2676 14.9843 90.5836 15.3453" stroke="#F67B7A" stroke-width="0.4153" stroke-miterlimit="10" stroke-linecap="round" stroke-linejoin="round"/>
<path d="M81.4056 32.9649L87.6596 25.2949L85.2296 26.3709L82.1706 26.5879L81.4056 32.9649Z" fill="#F67B7A"/>
</svg>
