<svg width="188" height="172" viewBox="0 0 188 172" fill="none" xmlns="http://www.w3.org/2000/svg">
<path d="M84.5101 77.6722C84.5101 77.6722 88.3941 70.6492 87.1711 52.8252L78.5071 63.3812L79.5281 73.6902L84.5101 77.6722Z" fill="#9E3F2A"/>
<path d="M110.777 112.471L98.8571 114.631L88.4571 75.8407L87.2271 75.7307L78.507 74.9107L65.2671 73.6808L59.717 48.7607C59.717 48.7607 71.4871 49.8608 83.2671 52.0508C84.9671 52.3708 86.6671 52.7107 88.3271 53.0707C97.2971 55.0207 105.247 57.6207 106.657 60.8607C110.127 68.8807 110.777 112.471 110.777 112.471Z" fill="#FFB6B2"/>
<path d="M88.3271 53.0708C87.7571 58.9308 87.3671 70.8708 87.2271 75.7308L78.5071 74.9108V67.1208L83.2671 52.0508C84.9671 52.3708 86.6671 52.7108 88.3271 53.0708Z" fill="#F67B7A"/>
<path d="M88.457 75.8408L93.371 75.0928" stroke="#F67B7A" stroke-width="0.75" stroke-miterlimit="10" stroke-linecap="round" stroke-linejoin="round"/>
<path d="M84.5069 77.6711L75.6369 75.9011L64.0869 49.1211L87.1669 52.8211C87.1669 52.8211 82.8869 67.9811 84.5069 77.6711Z" fill="#BF5137"/>
<path d="M82.344 77.2385C82.344 77.2385 81.3771 58.6355 84.4961 52.3955" stroke="#3A3D4C" stroke-width="0.75" stroke-miterlimit="10" stroke-linecap="round" stroke-linejoin="round"/>
<path d="M50.638 89.6767C50.638 89.6767 69.777 83.4887 77.113 78.3367L62.379 74.2207L50.23 81.9487L50.638 89.6767Z" fill="#9E3F2A"/>
<path d="M114.386 122.372H101.928V124.787H114.386V122.372Z" fill="#9498AA"/>
<path d="M149.711 159.629C144.23 159.629 139.156 157.889 135.011 154.93C128.575 150.336 124.378 142.806 124.378 134.296" stroke="#CCCCCC" stroke-miterlimit="10" stroke-linecap="round" stroke-linejoin="round"/>
<path d="M140.401 110.729C143.283 109.59 146.424 108.964 149.71 108.964C152.505 108.964 155.194 109.417 157.709 110.253C167.78 113.602 175.043 123.101 175.043 134.297" stroke="#CCCCCC" stroke-miterlimit="10" stroke-linecap="round" stroke-linejoin="round"/>
<path d="M131.453 134.296C131.453 130.594 132.555 127.149 134.449 124.272C137.713 119.312 143.33 116.038 149.712 116.038" stroke="#CCCCCC" stroke-miterlimit="10" stroke-linecap="round" stroke-linejoin="round"/>
<path d="M167.969 134.296C167.969 138.496 166.551 142.365 164.167 145.45C160.828 149.771 155.594 152.554 149.711 152.554" stroke="#CCCCCC" stroke-miterlimit="10" stroke-linecap="round" stroke-linejoin="round"/>
<path d="M37.5649 159.629C32.0839 159.629 27.0099 157.889 22.8649 154.93C16.4289 150.336 12.2319 142.806 12.2319 134.296" stroke="#CCCCCC" stroke-miterlimit="10" stroke-linecap="round" stroke-linejoin="round"/>
<path d="M28.256 110.729C31.138 109.59 34.278 108.964 37.565 108.964C40.36 108.964 43.049 109.417 45.564 110.253C55.635 113.602 62.898 123.101 62.898 134.297" stroke="#CCCCCC" stroke-miterlimit="10" stroke-linecap="round" stroke-linejoin="round"/>
<path d="M19.307 134.296C19.307 130.594 20.409 127.149 22.303 124.272C25.567 119.312 31.184 116.038 37.566 116.038" stroke="#CCCCCC" stroke-miterlimit="10" stroke-linecap="round" stroke-linejoin="round"/>
<path d="M55.8229 134.296C55.8229 138.496 54.4049 142.365 52.0209 145.45C48.6819 149.771 43.4479 152.554 37.5649 152.554" stroke="#CCCCCC" stroke-miterlimit="10" stroke-linecap="round" stroke-linejoin="round"/>
<path d="M36.014 149.296L85.896 144.928L87.627 146.348L35.61 150.61L36.014 149.296Z" fill="#9498AA"/>
<path d="M90.7109 131.448L104.932 123.213H108.284L94.3849 136.71L90.7109 131.448Z" fill="#3A3D4C"/>
<path d="M158.217 140.499C161.635 135.804 160.599 129.226 155.903 125.808C151.208 122.39 144.63 123.426 141.212 128.122C137.794 132.817 138.83 139.395 143.526 142.813C148.221 146.231 154.799 145.195 158.217 140.499Z" fill="#3A3D4C"/>
<path d="M154.682 134.296C154.682 137.042 152.456 139.268 149.711 139.268C146.966 139.268 144.739 137.042 144.739 134.296C144.739 131.55 146.965 129.325 149.711 129.325C152.457 129.325 154.682 131.551 154.682 134.296Z" fill="#555970"/>
<path d="M39.9749 132.952L87.1719 132.608L92.8859 136.71H34.3099L33.8889 133.786L36.7289 132.997L61.5909 90.4766L65.6309 91.8386L39.9749 132.952Z" fill="#8FA699"/>
<path d="M98.2349 112.378C98.2349 112.378 97.1509 120.515 97.9749 121.873C98.7989 123.231 104.963 122.615 104.963 122.615C104.963 122.615 128.565 122.733 128.695 120.239C128.826 117.745 114.625 111.386 114.625 111.386C114.625 111.386 114.567 108.986 110.635 109.776C106.703 110.566 107.117 112.665 107.117 112.665C107.117 112.665 103.471 114.096 98.2349 112.378Z" fill="#3A3D4C"/>
<path d="M124.29 81.6973H68.9839V88.2353H124.29V81.6973Z" fill="#8FA699"/>
<path d="M116.585 88.2348L91.3669 129.722L78.15 100.705L74.2 104.199L87.172 132.608L92.886 136.71L124.29 88.2348L122.662 83.2998L116.585 88.2348Z" fill="#8FA699"/>
<path d="M149.707 96.7305C128.967 96.7305 112.147 113.55 112.147 134.3C112.147 155.04 128.967 171.86 149.707 171.86C170.457 171.86 187.277 155.04 187.277 134.3C187.277 113.55 170.457 96.7305 149.707 96.7305ZM149.707 166.66C131.837 166.66 117.347 152.17 117.347 134.3C117.347 116.42 131.837 101.93 149.707 101.93C167.587 101.93 182.067 116.42 182.067 134.3C182.067 152.17 167.587 166.66 149.707 166.66Z" fill="#3A3D4C"/>
<path d="M37.56 96.7305C16.82 96.7305 0 113.55 0 134.3C0 155.04 16.82 171.86 37.56 171.86C58.31 171.86 75.13 155.04 75.13 134.3C75.13 113.55 58.31 96.7305 37.56 96.7305ZM37.56 166.66C19.69 166.66 5.19998 152.17 5.19998 134.3C5.19998 116.42 19.69 101.93 37.56 101.93C55.44 101.93 69.92 116.42 69.92 134.3C69.92 152.17 55.44 166.66 37.56 166.66Z" fill="#3A3D4C"/>
<path d="M147.309 134.87C142.818 130.409 125.422 111.293 119.089 77.2481L121.706 74.2881H123.538L124.29 78.8011C124.29 78.8011 132.265 115.805 149.36 132.759C149.941 133.336 149.967 134.265 149.394 134.85C148.822 135.436 147.889 135.447 147.309 134.87Z" fill="#8FA699"/>
<path d="M38.849 30.5089C38.849 30.5089 36.454 34.2628 45.569 40.4748C54.683 46.6868 54.818 28.4648 54.818 28.4648L38.849 30.5089Z" fill="#2947B2"/>
<path d="M97.575 23.8372L103.915 22.1862C103.915 22.1862 100.059 16.2742 104.515 9.84822C108.97 3.42222 120.623 4.10722 122.594 11.9902C124.565 19.8732 121.651 22.6152 121.651 22.6152C121.651 22.6152 121.934 25.3262 121.764 25.5642C121.594 25.8022 119.93 25.5642 119.93 25.5642C119.93 25.5642 117.707 31.5292 113.156 30.6762C108.605 29.8232 109.364 29.4912 109.364 29.4912L102.728 32.4302L97.575 23.8372Z" fill="#FFB6B2"/>
<path d="M45.01 126.87L84.765 123.781L82.499 125.84L46.381 128.568L45.01 126.87Z" fill="#9498AA"/>
<path d="M92.2469 121.391C85.1169 121.391 79.3369 127.171 79.3369 134.301C79.3369 141.421 85.1169 147.201 92.2469 147.201C99.3769 147.201 105.157 141.421 105.157 134.301C105.157 127.171 99.3769 121.391 92.2469 121.391ZM92.2469 144.811C86.4369 144.811 81.7269 140.101 81.7269 134.301C81.7269 128.491 86.4369 123.781 92.2469 123.781C98.0569 123.781 102.757 128.491 102.757 134.301C102.757 140.101 98.0569 144.811 92.2469 144.811Z" fill="#555970"/>
<path d="M143.427 76.7011C142.317 82.3211 133.297 83.8411 131.427 83.1411C129.547 82.4411 129.397 80.1711 129.397 80.1711C129.397 80.1711 103.847 73.9311 94.9371 66.2111C91.2071 62.9811 88.9071 56.0011 87.4971 48.9811C87.1871 47.4211 86.9171 45.8611 86.6771 44.3411C85.4671 36.3311 85.2871 29.3811 85.2871 29.3811C85.2871 29.3811 87.4371 24.4311 92.7871 23.9011C100.977 23.0911 102.827 29.8811 102.827 29.8811L104.947 38.7011L106.007 43.1311L108.837 54.8911L133.757 69.1811C133.757 69.1811 138.297 70.9211 139.687 70.9211C141.087 70.9211 141.277 71.9311 141.277 71.9311L138.837 73.0611C140.087 74.1711 141.717 75.6111 141.717 75.6111L142.577 75.1611L143.427 76.7011Z" fill="#FFB6B2"/>
<path d="M76.537 141.721L72.637 145.401L65.047 141.281L60.497 102.931L53.267 90.3309L50.827 86.1009L37.097 62.1909C36.667 41.8209 59.717 48.7609 59.717 48.7609C59.717 48.7609 67.747 61.5109 74.197 74.2209L74.217 74.2509C75.057 75.8909 75.857 77.5309 76.617 79.1409C79.267 84.7709 81.337 90.0609 81.957 93.8309C84.117 107.051 76.537 141.721 76.537 141.721Z" fill="#FFB6B2"/>
<path d="M76.6169 79.1407C73.3169 80.3007 60.7869 84.9307 53.2669 90.3307L50.8269 86.1007L51.2069 79.4107L74.1969 74.2207L74.2169 74.2507C75.0569 75.8907 75.8569 77.5307 76.6169 79.1407Z" fill="#F67B7A"/>
<path d="M103.257 31.6811C103.257 31.6811 89.838 39.0091 82.028 47.1291C80.288 48.9391 69.54 57.5291 68.49 59.3291C68.34 59.5891 67.121 55.5921 66.991 55.8521C66.991 55.8521 53.647 44.7121 39.887 44.5621C39.887 44.5621 41.537 41.6521 44.977 37.7721C47.457 34.9821 50.857 31.7021 55.237 28.6521C60.527 24.9721 67.237 21.6421 75.457 19.9721C99.897 15.0011 103.257 31.6811 103.257 31.6811Z" fill="#FFB6B2"/>
<path d="M81.518 46.5514C79.778 48.3614 69.065 56.4244 68.015 58.2244C58.098 40.7464 44.978 37.7714 44.978 37.7714C47.458 34.9814 50.858 31.7014 55.238 28.6514L76.468 38.3214L81.518 46.5514Z" fill="#F67B7A"/>
<path d="M106.007 43.1312C97.167 44.1412 89.657 47.8412 87.497 48.9812C87.187 47.4212 86.917 45.8612 86.677 44.3412L94.497 39.6812L104.947 38.7012L106.007 43.1312Z" fill="#F67B7A"/>
<path d="M89.2029 133.205L74.2 148.547L77.4749 148.907L94.3849 136.71L89.2029 133.205Z" fill="#9498AA"/>
<path d="M99.119 23.8368C99.119 23.8368 92.919 14.6468 66.192 20.4658C40.825 25.9888 38.85 30.5088 38.85 30.5088C38.85 30.5088 64.088 35.9228 68.491 59.3278C68.491 59.3278 85.088 44.8838 86.58 43.6158L99.119 23.8368Z" fill="#3F59D8"/>
<path d="M85.2471 28.6325C85.2471 28.6325 85.2661 42.2744 86.3161 46.7944C86.3161 46.7944 97.2941 40.9824 106.577 41.4664C106.577 41.4664 103.59 28.2285 100.2 24.6765C96.8101 21.1245 85.8741 22.2555 85.2471 28.6325Z" fill="#3F59D8"/>
<path d="M75.637 75.9005L77.117 78.3404C77.117 78.3404 58.517 81.7105 50.637 89.6805C50.637 89.6805 39.017 72.2704 36.497 60.4704C34.537 51.3104 39.117 44.5704 39.117 44.5704L39.887 44.5604C39.887 44.5604 46.691 35.9245 64.087 49.1205L75.637 75.9005Z" fill="#D66441"/>
<path d="M64.8629 139.181C64.8629 139.181 62.2339 146.957 62.7809 148.448C63.3279 149.939 69.496 150.521 69.496 150.521C69.496 150.521 91.615 154.371 92.223 151.949C92.831 149.527 81.138 141.362 81.138 141.362C81.138 141.362 81.5429 138.996 77.5319 139.014C73.5209 139.033 73.524 141.172 73.524 141.172C73.524 141.172 69.6699 141.875 64.8629 139.181Z" fill="#3A3D4C"/>
<path d="M119.689 17.0579C119.689 17.0579 114.432 18.0959 111.803 17.0579C111.803 17.0579 111.388 13.3919 108.344 14.1529C105.3 14.9139 105.093 19.7559 108.621 21.4159C108.621 21.4159 99.6979 23.2139 95.2699 21.8999C90.8429 20.5859 88.1589 20.0319 85.2469 20.7929C82.3349 21.5539 71.6119 23.4219 67.0469 16.2279C62.4819 9.03392 67.1029 -0.104103 76.7659 0.000896654C86.4289 0.105897 87.0599 6.61791 91.1559 7.77391C95.2519 8.92891 95.2269 5.4869 98.7569 6.2639C102.287 7.0409 102.993 7.53492 104.335 6.96992C104.335 6.96992 118.805 8.1549 119.689 17.0579Z" fill="#3A3D4C"/>
<path d="M124.176 18.9646C124.176 18.9646 109.527 15.0356 103.257 5.99855C103.257 5.99855 107.316 -0.00143838 117.72 3.56856C128.126 7.13656 124.176 18.9646 124.176 18.9646Z" fill="#D66441"/>
<path d="M115.033 15.3649C115.033 15.3649 112.339 20.1279 109.653 21.9029C109.653 21.9029 107.616 21.1389 106.546 19.4859C105.732 18.2289 106.123 15.8549 106.926 14.9759C106.926 14.9759 106.895 12.1769 107.697 10.6989L106.465 9.62891C106.465 9.62891 102.303 17.2229 108.389 23.1839C108.389 23.1839 108.466 27.2469 109.365 29.4879C109.365 29.4879 109.341 29.9269 111.488 30.3319C111.488 30.3319 110.589 27.0179 110.427 23.5999C110.427 23.5999 114.427 21.2709 116.744 16.1829L115.033 15.3649Z" fill="white"/>
<path d="M92.245 137.531C94.0317 137.531 95.48 136.082 95.48 134.296C95.48 132.509 94.0317 131.061 92.245 131.061C90.4584 131.061 89.01 132.509 89.01 134.296C89.01 136.082 90.4584 137.531 92.245 137.531Z" fill="#9498AA"/>
<path d="M44.4429 142.28C48.8371 138.482 49.3206 131.841 45.5229 127.447C41.7251 123.053 35.0843 122.569 30.6901 126.367C26.2959 130.164 25.8123 136.805 29.61 141.2C33.4078 145.594 40.0487 146.077 44.4429 142.28Z" fill="#3A3D4C"/>
<path d="M42.536 134.296C42.536 137.042 40.31 139.268 37.565 139.268C34.819 139.268 32.593 137.042 32.593 134.296C32.593 131.55 34.819 129.325 37.565 129.325C40.311 129.325 42.536 131.551 42.536 134.296Z" fill="#555970"/>
<path d="M34.762 135.358L38.338 141.796C38.708 142.462 39.532 142.726 40.22 142.398L40.611 142.212C41.298 141.885 41.613 141.08 41.331 140.373L38.674 133.731C38.397 133.038 37.638 132.671 36.923 132.883L35.612 133.272C34.728 133.537 34.314 134.551 34.762 135.358Z" fill="#9498AA"/>
<path d="M37.6019 141.064L34.4899 147.931C34.1949 148.581 34.6269 149.328 35.3369 149.398C35.7149 149.435 36.0829 149.264 36.2979 148.952L40.6869 142.577C41.0689 142.022 40.8319 141.256 40.2029 141.014L38.9269 140.522C38.4099 140.324 37.8299 140.562 37.6019 141.064Z" fill="#9498AA"/>
<path d="M37.633 149.296C37.633 150.19 36.908 150.915 36.014 150.915C35.12 150.915 34.395 150.19 34.395 149.296C34.395 148.402 35.12 147.677 36.014 147.677C36.908 147.677 37.633 148.402 37.633 149.296Z" fill="#555970"/>
<path d="M138.838 73.0593L143.487 70.8223C144.296 70.4323 145.269 70.7344 145.716 71.5134C146.2 72.3574 145.885 73.4343 145.023 73.8853L141.718 75.6124L138.838 73.0593Z" fill="#3A3D4C"/>
<path d="M109.365 29.4899C109.365 29.4899 106.265 26.5389 105.076 24.0869L103.844 31.9349L109.365 29.4899Z" fill="#F67B7A"/>
<path d="M88.3269 53.0713C88.3269 53.0713 88.4109 67.2073 108.904 73.6893" stroke="#F67B7A" stroke-width="0.75" stroke-miterlimit="10" stroke-linecap="round" stroke-linejoin="round"/>
<path d="M60.497 102.931L59.718 96.5107" stroke="#F67B7A" stroke-width="0.75" stroke-miterlimit="10" stroke-linecap="round" stroke-linejoin="round"/>
<path d="M110.756 18.2925C110.756 18.2925 111.404 15.8035 109.364 14.9365C107.324 14.0695 105.476 17.9155 108.455 20.2155C108.455 20.2155 108.601 19.1425 109.468 19.2365C110.335 19.3305 109.984 20.5725 109.984 20.5725" stroke="#F67B7A" stroke-width="0.5" stroke-miterlimit="10" stroke-linecap="round" stroke-linejoin="round"/>
<path d="M107.568 19.308C107.568 19.308 107.983 14.895 110.011 15.33" stroke="#F67B7A" stroke-width="0.5" stroke-miterlimit="10" stroke-linecap="round" stroke-linejoin="round"/>
<path d="M142.697 78.5732L139.75 77.0742" stroke="#F67B7A" stroke-width="0.5" stroke-miterlimit="10" stroke-linecap="round" stroke-linejoin="round"/>
<path d="M139.448 81.495L136.279 79.25" stroke="#F67B7A" stroke-width="0.5" stroke-miterlimit="10" stroke-linecap="round" stroke-linejoin="round"/>
<path d="M135.407 82.971L132.652 80.373" stroke="#F67B7A" stroke-width="0.5" stroke-miterlimit="10" stroke-linecap="round" stroke-linejoin="round"/>
<path d="M80.6144 152.075L67.2991 149.763L66.8508 152.344L80.1661 154.656L80.6144 152.075Z" fill="#9498AA"/>
<path d="M40.798 47.6211C40.798 47.6211 45.261 65.7861 54.818 83.3001" stroke="#3A3D4C" stroke-width="0.75" stroke-miterlimit="10" stroke-linecap="round" stroke-linejoin="round"/>
<path d="M39.1169 44.571C39.1169 44.571 48.1909 35.462 64.0919 49.126L75.633 75.896C57.671 78.562 49.124 87.319 49.124 87.319" stroke="#3A3D4C" stroke-width="0.75" stroke-miterlimit="10" stroke-linecap="round" stroke-linejoin="round"/>
</svg>
