<svg width="125" height="289" viewBox="0 0 125 289" fill="none" xmlns="http://www.w3.org/2000/svg">
<path d="M107.234 251.593C106.078 240.706 106.925 232.415 105.465 215.404C105.249 211.04 104.944 206.366 104.514 202.219C103.066 188.266 100.671 183.551 100.382 180.859C100.382 180.859 99.343 159.113 97.4717 128.545C96.5912 114.164 92.1046 109.933 88.3956 102.396L47.0264 103.61C42.9701 122.598 42.8863 163.748 43.6064 183.173C43.9736 193.077 47.2539 243.756 47.4223 247.354C47.5908 250.952 46.8172 253.263 45.1024 255.133C41.5099 259.051 39.3696 262.765 34.824 266.221C35.5473 267.903 41.1315 267.677 43.8578 266.3C48.2135 264.102 52.5037 260.817 53.979 259.704C57.7144 256.887 60.8973 255.24 60.8358 251.12C60.831 250.607 60.9484 248.78 60.918 248.7C60.9188 246.294 67.3597 211.691 67.6008 203.451C67.8076 196.367 66.5486 184.391 66.5486 184.391L70.4157 154.293C70.4157 154.293 73.8844 171.914 77.219 183.917C79.9333 193.688 84.4263 210.365 87.5126 222.397C90.5455 236.274 94.3623 246.094 95.2356 253.059C95.4863 254.721 98.2725 271.03 99.1993 274.756C100.126 278.481 108.663 278.33 109.017 271.866C109.253 267.562 107.451 253.642 107.234 251.593Z" fill="#FFA8A7"/>
<path d="M24.722 269.98C24.4857 269.979 24.1081 272.47 25.383 273.539C26.8543 274.774 31.1868 276.819 36.9388 276.153C42.6907 275.487 45.8161 273.81 48.1313 271.986C50.4456 270.162 53.69 267.588 56.2941 267.06C58.7131 266.569 61.3435 265.543 62.1219 264.834C62.9003 264.126 62.8196 260.948 62.8196 260.948L24.722 269.98Z" fill="#263238"/>
<path d="M60.9181 248.699C60.9181 248.699 61.3516 248.716 61.4937 249.453C61.6629 250.329 61.8338 252.878 62.2018 254.318C62.7127 256.32 63.0321 260.416 62.7024 262.042C62.3726 263.667 58.4265 264.766 55.9038 265.664C53.3268 266.58 50.3395 268.487 47.7138 270.526C44.9963 272.636 39.2978 274.73 35.5529 274.753C29.8345 274.787 26.1446 273.272 25.0174 271.296C23.6227 268.85 24.5025 266.099 31.0966 263.236C32.3452 262.694 36.7344 260.253 38.2305 259.367C39.812 258.432 41.328 257.389 42.7274 256.216C43.4356 255.623 44.1133 254.996 44.7488 254.331C45.3084 253.747 46.0956 253.041 46.4301 252.31C46.5059 252.145 46.5586 251.951 46.6265 251.779C46.9171 251.042 46.9274 249.953 47.7106 249.568C49.4102 248.731 52.2195 249.658 53.8417 250.329C54.5978 250.642 55.4192 251.085 55.8551 251.823C56.3245 252.617 56.0675 253.852 56.0691 254.749C56.0691 254.905 55.9972 255.187 56.2271 255.124C56.4459 255.063 56.6941 254.517 56.7788 254.331C56.9648 253.921 57.0845 253.482 57.2873 253.079C57.5188 252.618 57.7807 252.146 58.116 251.754C58.4297 251.387 58.7706 251.036 59.1642 250.748C59.5218 250.486 59.9769 250.357 60.2954 250.059C60.6993 249.682 60.8806 249.01 60.9181 248.699Z" fill="#37474F"/>
<path d="M30.0332 263.708C38.3062 264.32 41.1132 270.586 41.4397 273.618C39.3824 274.297 37.2644 274.743 35.552 274.753C29.8336 274.787 25.9083 273.273 24.7818 271.296C23.467 268.99 24.1471 265.794 30.0332 263.708Z" fill="#FAFAFA"/>
<path d="M42.6826 265.237C42.7729 265.238 42.8631 265.21 42.9389 265.152C43.113 265.018 43.1393 264.774 43.0004 264.607C41.8588 263.247 38.3094 260.082 35.2989 260.372C35.0762 260.393 34.9134 260.583 34.9365 260.795C34.9581 261.008 35.1513 261.162 35.3788 261.142C38.1897 260.879 41.466 264.013 42.3705 265.092C42.4487 265.187 42.5645 265.236 42.6826 265.237Z" fill="#F0F0F0"/>
<path d="M46.264 263.277C46.3542 263.278 46.4444 263.251 46.5211 263.191C46.6951 263.058 46.7222 262.814 46.5825 262.647C45.4401 261.286 41.8892 258.117 38.8811 258.412C38.6584 258.433 38.4963 258.623 38.5187 258.836C38.5402 259.047 38.7294 259.203 38.9609 259.182C41.771 258.916 45.0481 262.053 45.9527 263.132C46.0301 263.227 46.1467 263.276 46.264 263.277Z" fill="#F0F0F0"/>
<path d="M49.585 261.032C49.6752 261.033 49.7654 261.005 49.842 260.947C50.0161 260.813 50.0432 260.569 49.9035 260.402C48.7627 259.041 45.199 255.875 42.202 256.167C41.9793 256.188 41.8164 256.379 41.8396 256.59C41.8611 256.803 42.052 256.957 42.2819 256.938C45.0888 256.674 48.3691 259.809 49.2736 260.888C49.3518 260.982 49.4676 261.032 49.585 261.032Z" fill="#F0F0F0"/>
<path d="M52.8397 258.786C52.9275 258.787 53.017 258.76 53.0912 258.704C53.2676 258.573 53.2988 258.329 53.1614 258.161C51.5927 256.232 47.7791 253.591 44.7718 253.881C44.5491 253.902 44.3863 254.093 44.4094 254.305C44.431 254.517 44.6226 254.666 44.8517 254.652C47.5596 254.392 51.1313 256.926 52.5252 258.637C52.6034 258.734 52.7216 258.786 52.8397 258.786Z" fill="#F0F0F0"/>
<path d="M96.3342 277.907C96.6855 281.774 97.3912 284.323 98.8953 286.553C100.399 288.783 103.128 289.417 105.85 288.671C108.573 287.926 112.032 286.044 112.717 282.68C113.403 279.315 113.793 277.012 113.062 273.438L96.3342 277.907Z" fill="#263238"/>
<path d="M107.022 249.519C108.155 249.57 108.644 254.761 109.451 259.95C110.318 265.512 112.127 267.769 112.888 272.328C113.758 277.536 112.924 279.898 111.106 283.116C109.288 286.334 102.607 289.634 99.1331 285.204C96.3015 281.593 96.066 277.502 96.1578 272.274C96.2528 266.869 95.7506 263.143 95.3978 259.054C95.0601 255.145 93.9648 251.098 94.9332 250.633C95.0258 251.206 95.1934 252.06 95.29 252.622C95.4097 253.314 95.4345 254.043 95.7171 254.699C95.8408 254.986 96.1019 255.284 96.1905 254.807C96.2504 254.484 96.2073 254.154 96.161 253.834C95.9518 252.397 96.7078 252.257 97.1134 252.132C97.9939 251.863 101.489 251.348 102.334 251.267C103.195 251.185 106.171 250.974 106.573 251.433C106.844 251.743 106.898 252.276 106.998 252.934C107.118 253.718 107.326 254.289 107.342 254.041C107.38 253.476 107.221 252.015 107.196 251.661C107.172 251.323 107.1 250.862 107.085 250.521C107.069 250.187 107.056 249.852 107.022 249.519Z" fill="#37474F"/>
<path d="M113.292 275.349C113.584 278.59 112.841 280.837 111.417 283.357C109.599 286.575 102.373 289.901 98.8991 285.471C97.1707 283.267 96.6454 280.616 96.3357 277.905C98.2317 274.356 110.047 272.471 113.292 275.349Z" fill="#FAFAFA"/>
<path d="M98.6309 272.147C98.678 272.141 98.7235 272.128 98.769 272.107C98.8138 272.085 103.981 269.861 109.103 270.84C109.329 270.879 109.55 270.741 109.597 270.524C109.642 270.306 109.495 270.094 109.268 270.052C103.85 269.02 98.5823 271.297 98.3851 271.393C98.1791 271.496 98.0985 271.738 98.2039 271.934C98.2861 272.087 98.4601 272.168 98.6309 272.147Z" fill="#F0F0F0"/>
<path d="M108.733 266.948C108.891 266.928 109.031 266.823 109.08 266.668C109.147 266.455 109.024 266.231 108.802 266.166C103.688 264.672 98.1392 267.303 97.9308 267.415C97.728 267.524 97.657 267.768 97.7711 267.961C97.8853 268.154 98.1432 268.218 98.3411 268.114C98.3882 268.089 103.796 265.538 108.555 266.934C108.615 266.952 108.675 266.956 108.733 266.948Z" fill="#F0F0F0"/>
<path d="M108.444 263.28C108.599 263.26 108.736 263.158 108.788 263.006C108.86 262.794 108.74 262.568 108.52 262.5C102.891 260.752 97.6354 263.604 97.4406 263.724C97.2458 263.846 97.1899 264.094 97.3168 264.28C97.443 264.466 97.7072 264.519 97.8964 264.397C97.9395 264.369 103.02 261.638 108.259 263.263C108.322 263.283 108.384 263.287 108.444 263.28Z" fill="#F0F0F0"/>
<path d="M108.059 259.669C108.212 259.65 108.348 259.549 108.402 259.401C108.477 259.191 108.36 258.963 108.141 258.891C102.864 257.173 97.2027 260.103 96.9912 260.23C96.794 260.345 96.7325 260.594 96.8539 260.782C96.9736 260.971 97.2315 261.033 97.4303 260.912C97.4798 260.883 102.97 258.053 107.87 259.65C107.932 259.671 107.997 259.677 108.059 259.669Z" fill="#EBEBEB"/>
<path d="M95.2676 101.104C100.009 111.108 101.458 118.501 101.509 143.967C101.556 167.262 101.174 175.43 101.369 178.496C101.566 181.561 103.594 186.991 105.686 202.057C107.777 217.124 106.38 235.191 106.38 235.191C106.38 235.191 105.323 237.656 99.3023 238.352C93.7484 238.993 90.9303 237.073 90.9303 237.073C90.9303 237.073 81.0925 207.022 78.7071 197.98C76.3225 188.938 70.6089 160.026 70.6089 160.026L67.6958 184.411C67.6958 184.411 69.6446 192.702 68.3433 206.006C67.0428 219.31 64.4571 232.976 64.4571 232.976C64.4571 232.976 60.7121 234.493 55.9469 234.564C51.1809 234.636 46.1946 232.42 46.1946 232.42C46.1946 232.42 42.3259 193.683 41.8748 178.659C41.4246 163.636 40.0068 121.719 46.2528 101.106H95.2676V101.104Z" fill="#37474F"/>
<path d="M70.5985 160.381L64.7611 131.636C64.7611 131.636 54.248 131.226 48.2422 125.558C50.7936 131.692 59.5329 135.784 63.3417 136.542L68.4941 160.117L67.6854 184.765L70.5985 160.381Z" fill="#263238"/>
<path d="M100.076 186.037C98.092 179.331 96.794 169.795 97.3312 150.99C98.0146 127.1 97.0271 117.924 90.7347 106.056L89.9571 106.436C93.6494 113.399 95.626 120.394 96.2958 129.665C94.494 130.159 91.9561 130.555 90.1287 129.526C87.8352 128.236 88.1992 125.18 87.1079 120.283C84.4854 108.523 81.8038 104.766 81.6912 104.612L80.976 105.092C81.0023 105.13 83.6799 108.91 86.2545 120.458C87.416 125.667 87.1382 128.813 89.6857 130.247C90.8401 130.896 92.0192 131.101 93.1648 131.067C94.0765 131.04 95.6021 130.718 96.4403 130.493C97.0582 135.832 96.6263 142.245 96.4802 151.157C96.1697 170.066 97.2394 179.514 99.2361 186.266C99.6065 187.518 99.9705 188.749 100.319 190.026C102.476 197.937 105.274 219.079 104.739 237.087C105.111 236.861 105.402 236.64 105.629 236.437C106.079 218.465 103.306 197.673 101.162 189.813C100.814 188.532 100.448 187.296 100.076 186.037Z" fill="#263238"/>
<path d="M63.9109 189.064C63.7768 187.31 63.6378 185.498 63.5564 183.558C63.3576 178.815 65.4373 164.119 67.2718 152.302L68.1572 152.331C66.3242 164.151 64.2342 178.893 64.4282 183.529C64.5088 185.455 64.6469 187.261 64.781 189.008C65.2201 194.758 65.6744 200.703 64.2398 212.175C63.2092 220.417 62.4164 228.338 61.9135 233.762C61.6349 233.831 61.3339 233.901 61.0186 233.969C61.5207 228.534 62.3246 220.468 63.3736 212.07C64.7978 200.679 64.346 194.775 63.9109 189.064Z" fill="#263238"/>
<path d="M56.2111 51.8363C50.5142 52.2522 46.9098 53.6461 39.942 56.3316C37.0393 57.4501 31.0942 60.3432 25.1451 63.3385C26.6276 55.5006 28.6641 49.0294 30.0085 46.5993L31.4638 37.4552C31.091 37.0505 30.8754 36.5052 30.9633 35.9464C31.0934 35.1241 31.1086 34.2803 31.1708 33.446C31.3089 31.5899 31.5173 29.737 31.8566 27.9065C32.1648 26.2412 32.6916 24.6238 33.2553 23.0255C33.7351 21.6636 33.9522 19.5871 31.9676 19.5169C31.4502 19.4985 31.0239 19.7428 30.5218 19.829C29.575 19.9911 28.7727 19.37 27.8969 19.1959C26.9748 19.0131 26.2045 19.8035 25.4764 20.2178C24.7986 20.6034 24.0154 20.5132 23.2922 20.7215C22.5521 20.9347 22.0069 21.5566 21.4001 21.9941C19.94 23.0479 19.2183 25.3925 18.6675 27.0427C18.036 28.9355 17.6408 30.9026 17.4117 32.8824C17.0293 36.1859 17.1475 39.487 17.2145 42.8016C17.26 45.0848 16.1336 47.2667 15.2554 49.3319C14.3972 51.3485 11.6143 56.9543 8.81932 63.3585C6.94086 67.6623 2.62673 77.1543 4.81334 82.6085C6.99996 88.0635 13.06 87.04 20.3998 84.4311C30.7741 81.0717 56.8075 71.8918 56.8075 71.8918L56.2111 51.8363Z" fill="#FFA8A7"/>
<path d="M25.1459 63.3383C24.132 68.8459 23.8366 72.8479 21.0114 77.1844C21.0114 77.1844 27.3596 72.4903 27.5241 62.1504L25.1459 63.3383Z" fill="#F28F8F"/>
<path d="M56.5783 51.5342C50.7729 51.6388 47.5764 52.9704 40.7851 55.7669C33.9937 58.5634 29.2109 61.2921 29.2109 61.2921C29.2109 61.2921 30.7836 63.545 32.0402 69.7496C33.4604 76.7628 32.1169 80.7585 32.1169 80.7585L57.2082 72.9014L56.5783 51.5342Z" fill="#455A64"/>
<path d="M99.9538 114.136C98.8968 107.826 96.1929 99.9007 94.9619 96.1167C93.762 92.4276 95.06 87.3367 97.1253 77.1844C100.648 59.8687 94.0094 57.3053 91.8021 55.1466C91.8021 55.1466 83.4356 52.861 80.4507 52.1226C73.162 50.3191 66.1112 51.2141 64.073 51.3035C61.144 51.4328 56.5832 51.5302 56.5776 51.5334C56.5776 51.5334 50.1064 56.6275 45.3683 65.1919C41.5882 72.0248 39.6156 79.7246 47.0017 86.4234C47.0017 86.4234 47.2013 90.8525 46.4013 98.5356C46.4013 98.5356 44.9476 105.692 43.6822 111.865C54.1084 124.629 88.026 124.563 99.9538 114.136Z" fill="#BA68C8"/>
<path opacity="0.2" d="M62.3997 89.4945C66.9118 92.4411 79.6786 93.4311 84.6314 86.8281C82.9805 95.1922 68.6729 97.0036 62.3997 89.4945Z" fill="black"/>
<path d="M103.172 128.484C104.172 127.393 105.459 126.429 105.875 124.947C106.089 124.183 106.015 123.303 105.516 122.687C105.412 122.559 105.287 122.437 105.247 122.276C105.212 122.143 105.242 122.003 105.267 121.868C105.373 121.306 105.402 120.702 105.157 120.185C104.95 119.748 104.548 119.406 104.083 119.273C104.349 118.452 104.341 117.544 104.06 116.728C103.728 115.763 102.731 114.992 102.076 116.074C101.757 116.602 101.524 117.184 101.321 117.764C100.815 119.215 99.6663 120.557 99.5122 122.084C99.351 123.684 99.8148 128.397 102.29 128.611C102.484 128.628 103.03 128.638 103.172 128.484Z" fill="#F28F8F"/>
<path d="M92.622 55.876C102.156 57.677 102.378 59.8548 108.055 67.672C113.659 75.387 121.296 86.1301 123.069 89.9341C125.263 94.6434 125.728 96.4509 120.685 101.47C118.088 104.056 114.461 107.138 110.775 110.617C107.865 113.363 104.361 116.275 101.544 119.116C100.798 119.87 100.413 120.615 100.666 121.718C100.814 122.36 101.094 122.974 101.166 123.628C101.261 124.472 101.004 125.313 100.964 126.161C100.925 127.008 101.194 127.981 101.963 128.34C102.335 128.513 102.763 128.512 103.173 128.482C102.448 128.995 101.691 129.482 100.845 129.751C99.9993 130.02 99.0469 130.051 98.2478 129.665C97.4726 129.291 96.8882 128.555 96.0628 128.309C95.6173 128.175 95.1383 128.199 94.6897 128.08C94.2282 127.958 93.8083 127.683 93.5113 127.31C93.0395 126.717 92.8447 125.865 92.1797 125.503C91.862 125.329 91.486 125.302 91.1499 125.167C90.4633 124.89 90.0218 124.186 89.871 123.462C89.7201 122.738 89.8143 121.987 89.9236 121.256C90.2182 119.289 90.6198 117.339 91.1251 115.416C91.3 114.752 91.6784 114.179 92.0672 113.62C92.5142 112.978 92.9397 112.314 93.4227 111.698C96.699 107.524 107.08 93.6032 107.08 93.6032L94.9683 78.4071C94.9683 78.4071 86.4477 69.4699 92.622 55.876Z" fill="#FFA8A7"/>
<path d="M107.08 93.6035C109.979 96.4432 114.478 96.6707 116.134 96.5693C110.29 98.9523 106.142 94.8601 106.142 94.8601L107.08 93.6035Z" fill="#F28F8F"/>
<path d="M91.8021 55.1475C96.8276 56.1518 98.8489 56.8615 101.471 58.7735C104.094 60.6854 107.096 65.5919 109.336 68.8148C111.576 72.0376 115.904 78.5176 115.904 78.5176C115.904 78.5176 115.785 81.2798 111.304 85.2683C106.825 89.2559 102.509 88.6005 102.509 88.6005C102.509 88.6005 94.7519 79.1499 92.5126 76.418C90.2725 73.687 87.959 61.8039 91.8021 55.1475Z" fill="#455A64"/>
<path d="M55.6003 5.60036C55.7145 5.24271 55.8542 4.89544 56.041 4.56972C56.7076 3.40098 57.9267 2.61542 59.2239 2.25937C60.7455 1.84185 62.6839 1.8139 64.1856 2.34319C66.1327 3.02895 68.708 2.48689 70.3869 1.23671C72.2398 -0.142792 75.2743 -0.458128 77.6134 0.750536C81.3072 2.65853 80.0291 4.09712 83.0971 5.96599C85.8321 7.6321 88.2495 7.15469 90.3674 10.332C91.6391 12.2408 91.7701 15.0613 90.9222 17.216C92.6642 18.9204 93.6956 26.9683 87.7066 34.1988C84.6282 37.915 81.6497 41.1953 79.9884 44.4764L74.5526 41.3621C74.1327 38.5105 71.3936 38.4107 69.116 37.2675C67.7357 36.2289 67.2463 34.3089 65.866 33.2703C63.8957 31.787 61.2421 31.8054 58.907 31.7423C57.3966 31.7016 55.8223 31.5196 54.5609 30.6885C53.1631 29.7673 52.3312 28.1155 52.2203 26.4446C52.1428 25.2855 52.3815 24.1175 52.2506 22.9631C52.1468 22.049 51.8083 21.1629 51.2766 20.4125C50.5685 19.4138 49.5203 18.6418 49.0493 17.5122C48.6525 16.559 48.73 15.4477 49.1331 14.4977C49.5363 13.5477 50.2428 12.7486 51.0563 12.1123C52.1891 11.227 53.5782 10.5923 54.3701 9.39161C55.1046 8.27874 55.194 6.8705 55.6003 5.60036Z" fill="#263238"/>
<path d="M64.0059 11.1962C63.9947 10.9575 63.9915 10.718 63.9947 10.4785C62.2751 11.1667 60.6833 12.1686 59.3118 13.4132C57.9817 14.6202 57.5187 15.682 56.785 17.2467C55.2754 20.4696 54.4092 23.9862 53.7331 27.4661C51.647 38.2067 54.5346 41.602 56.1073 42.7428C57.68 43.8836 60.5715 44.7019 63.9508 44.8704L64.0721 51.3033C64.0721 51.3033 57.7702 58.5225 62.6424 65.2676C77.6389 64.2601 80.453 52.4313 80.453 52.4313L80.5743 37.711C80.5743 37.711 81.6537 39.9846 84.174 39.1623C87.8662 37.9577 89.4365 33.3274 87.8072 30.7448C86.8476 29.224 85.045 28.4033 83.2831 28.9063C82.1023 29.2431 81.2848 30.819 80.0099 30.815C78.5841 30.8103 78.0101 28.8128 78.0931 27.6625C78.1698 26.5919 78.6073 25.5852 79.0392 24.6033C75.477 24.2209 72.1392 22.1165 70.2584 19.0677C69.6173 18.0291 69.1303 16.8396 69.2102 15.6221C68.4917 16.8476 68.0151 18.2143 67.8147 19.6201C65.5363 17.4343 64.1504 14.348 64.0059 11.1962Z" fill="#FFA8A7"/>
<path d="M63.9525 44.8711C67.0356 44.9238 73.823 44.5765 77.6326 39.9854C77.6326 39.9854 76.5581 43.031 74.2413 44.6859C70.8037 47.1423 64.002 47.5255 64.002 47.5255L63.9525 44.8711Z" fill="#F28F8F"/>
<path d="M64.9041 21.7061L61.9774 31.935L56.9688 29.2558L64.9041 21.7061Z" fill="#F28F8F"/>
<path d="M70.4884 20.9499L73.1668 23.9923C74.0034 23.21 74.0824 21.8936 73.3424 21.0537C72.6032 20.2131 71.325 20.1668 70.4884 20.9499Z" fill="#263238"/>
<path d="M57.3647 19.4881L61.3723 18.6986C61.1942 17.5746 60.1524 16.8409 59.046 17.0588C57.9395 17.276 57.1867 18.3641 57.3647 19.4881Z" fill="#263238"/>
<path d="M70.8701 27.2982C70.8701 27.2982 71.0457 26.1382 69.3261 25.3231C68.2755 24.825 67.3239 24.8976 66.7627 25.577C66.7627 25.577 68.8838 25.8452 70.8701 27.2982Z" fill="#263238"/>
<path d="M56.4618 23.2636C56.4618 23.2636 56.8889 22.1707 58.7801 22.3208C59.9361 22.4126 60.7224 22.9483 60.8685 23.8169C60.8685 23.8169 58.9031 22.993 56.4618 23.2636Z" fill="#263238"/>
<path d="M54.7039 36.5554C54.2305 35.0722 54.6959 32.9366 55.7441 31.7855C56.2662 31.2115 56.8338 30.9935 57.3304 31.1005C57.4222 31.1205 57.7854 31.1995 57.8756 31.2194C58.3738 31.3272 58.8009 31.7623 59.038 32.5039C59.5114 33.9872 59.046 36.1228 57.9978 37.2739C57.4741 37.8495 56.904 38.0675 56.4059 37.9581C56.3157 37.9381 55.9564 37.8599 55.8662 37.8408C55.3681 37.7322 54.941 37.2971 54.7039 36.5554Z" fill="#BA68C8"/>
<path opacity="0.5" d="M54.7039 36.5554C54.2305 35.0722 54.6959 32.9366 55.7441 31.7855C56.2662 31.2115 56.8338 30.9935 57.3304 31.1005C57.4222 31.1205 57.7854 31.1995 57.8756 31.2194C58.3738 31.3272 58.8009 31.7623 59.038 32.5039C59.5114 33.9872 59.046 36.1228 57.9978 37.2739C57.4741 37.8495 56.904 38.0675 56.4059 37.9581C56.3157 37.9381 55.9564 37.8599 55.8662 37.8408C55.3681 37.7322 54.941 37.2971 54.7039 36.5554Z" fill="white"/>
<path d="M58.4983 32.3861C58.0249 30.9028 56.7923 30.6346 55.7441 31.7858C54.6967 32.937 54.2305 35.0733 54.7039 36.5558C55.1773 38.0383 56.4107 38.3073 57.4581 37.1561C58.5063 36.0041 58.9717 33.8686 58.4983 32.3861Z" fill="#BA68C8"/>
<path opacity="0.5" d="M58.4983 32.3861C58.0249 30.9028 56.7923 30.6346 55.7441 31.7858C54.6967 32.937 54.2305 35.0733 54.7039 36.5558C55.1773 38.0383 56.4107 38.3073 57.4581 37.1561C58.5063 36.0041 58.9717 33.8686 58.4983 32.3861Z" fill="white"/>
<path opacity="0.1" d="M58.4983 32.3861C58.0249 30.9028 56.7923 30.6346 55.7441 31.7858C54.6967 32.937 54.2305 35.0733 54.7039 36.5558C55.1773 38.0383 56.4107 38.3073 57.4581 37.1561C58.5063 36.0041 58.9717 33.8686 58.4983 32.3861Z" fill="black"/>
<path d="M53.9783 36.3963C53.5049 34.913 53.9703 32.7775 55.0185 31.6263C55.5406 31.0523 56.1082 30.8343 56.6048 30.9413C56.6966 30.9613 57.0598 31.0403 57.15 31.0603C57.6482 31.168 58.0753 31.6031 58.3124 32.3448C58.7858 33.8281 58.3204 35.9636 57.2722 37.1148C56.7485 37.6904 56.1785 37.9083 55.6803 37.7989C55.5901 37.779 55.2309 37.7007 55.1406 37.6808C54.6425 37.573 54.2154 37.1371 53.9783 36.3963Z" fill="#BA68C8"/>
<path opacity="0.5" d="M53.9783 36.3963C53.5049 34.913 53.9703 32.7775 55.0185 31.6263C55.5406 31.0523 56.1082 30.8343 56.6048 30.9413C56.6966 30.9613 57.0598 31.0403 57.15 31.0603C57.6482 31.168 58.0753 31.6031 58.3124 32.3448C58.7858 33.8281 58.3204 35.9636 57.2722 37.1148C56.7485 37.6904 56.1785 37.9083 55.6803 37.7989C55.5901 37.779 55.2309 37.7007 55.1406 37.6808C54.6425 37.573 54.2154 37.1371 53.9783 36.3963Z" fill="white"/>
<path d="M57.7727 32.226C57.2993 30.7427 56.0667 30.4744 55.0185 31.6256C53.9711 32.7768 53.5049 34.9131 53.9783 36.3956C54.4517 37.8781 55.6851 38.1471 56.7325 36.996C57.7799 35.8448 58.2461 33.7093 57.7727 32.226Z" fill="#BA68C8"/>
<path opacity="0.5" d="M57.7727 32.226C57.2993 30.7427 56.0667 30.4744 55.0185 31.6256C53.9711 32.7768 53.5049 34.9131 53.9783 36.3956C54.4517 37.8781 55.6851 38.1471 56.7325 36.996C57.7799 35.8448 58.2461 33.7093 57.7727 32.226Z" fill="white"/>
<path opacity="0.1" d="M57.7727 32.226C57.2993 30.7427 56.0667 30.4744 55.0185 31.6256C53.9711 32.7768 53.5049 34.9131 53.9783 36.3956C54.4517 37.8781 55.6851 38.1471 56.7325 36.996C57.7799 35.8448 58.2461 33.7093 57.7727 32.226Z" fill="black"/>
<path d="M53.2527 36.239C52.7793 34.7558 53.2447 32.6202 54.2929 31.4691C54.815 30.8951 55.3826 30.6771 55.8792 30.7841C55.971 30.804 56.3342 30.8831 56.4244 30.903C56.9234 31.0108 57.3505 31.4459 57.5868 32.1875C58.0602 33.6708 57.5948 35.8064 56.5466 36.9575C56.0229 37.5331 55.4529 37.7511 54.9547 37.6417C54.8645 37.6217 54.5053 37.5435 54.4151 37.5243C53.9169 37.4158 53.4898 36.9807 53.2527 36.239Z" fill="#BA68C8"/>
<path opacity="0.5" d="M53.2527 36.239C52.7793 34.7558 53.2447 32.6202 54.2929 31.4691C54.815 30.8951 55.3826 30.6771 55.8792 30.7841C55.971 30.804 56.3342 30.8831 56.4244 30.903C56.9234 31.0108 57.3505 31.4459 57.5868 32.1875C58.0602 33.6708 57.5948 35.8064 56.5466 36.9575C56.0229 37.5331 55.4529 37.7511 54.9547 37.6417C54.8645 37.6217 54.5053 37.5435 54.4151 37.5243C53.9169 37.4158 53.4898 36.9807 53.2527 36.239Z" fill="white"/>
<path d="M57.0463 32.0697C56.5729 30.5864 55.3403 30.3182 54.2921 31.4694C53.2447 32.6206 52.7784 34.7569 53.2518 36.2394C53.7253 37.7227 54.9579 37.9909 56.0061 36.8397C57.0543 35.6885 57.5197 33.553 57.0463 32.0697Z" fill="#BA68C8"/>
<path opacity="0.1" d="M57.0463 32.0697C56.5729 30.5864 55.3403 30.3182 54.2921 31.4694C53.2447 32.6206 52.7784 34.7569 53.2518 36.2394C53.7253 37.7227 54.9579 37.9909 56.0061 36.8397C57.0543 35.6885 57.5197 33.553 57.0463 32.0697Z" fill="black"/>
<path opacity="0.7" d="M56.7109 32.4386C56.3213 31.218 55.3066 30.9969 54.4445 31.9445C53.5823 32.8921 53.1991 34.65 53.5887 35.8706C53.9782 37.0913 54.9929 37.3124 55.8551 36.3648C56.7173 35.4172 57.1005 33.6593 56.7109 32.4386Z" fill="#BA68C8"/>
<path opacity="0.3" d="M56.7109 32.4386C56.3213 31.218 55.3066 30.9969 54.4445 31.9445C53.5823 32.8921 53.1991 34.65 53.5887 35.8706C53.9782 37.0913 54.9929 37.3124 55.8551 36.3648C56.7173 35.4172 57.1005 33.6593 56.7109 32.4386Z" fill="white"/>
<path opacity="0.1" d="M56.1656 32.3197C56.2822 32.192 56.4012 32.0874 56.5209 32.002C56.5944 32.1297 56.659 32.2742 56.7109 32.4386C57.1005 33.6593 56.7173 35.4172 55.8551 36.3648C55.7385 36.4925 55.6196 36.5971 55.4999 36.6825C55.4264 36.5548 55.3617 36.4103 55.3099 36.2458C54.9203 35.0252 55.3035 33.2673 56.1656 32.3197Z" fill="black"/>
<path d="M52.4845 36.0728C52.0103 34.5879 52.4765 32.45 53.5255 31.298C54.0484 30.7232 54.616 30.5052 55.1134 30.6122C55.2052 30.6322 55.5684 30.712 55.6594 30.7312C56.1584 30.8389 56.5863 31.2748 56.8234 32.0173C57.2968 33.5021 56.8314 35.6401 55.7824 36.792C55.2579 37.3684 54.6879 37.5864 54.1889 37.477C54.0987 37.4571 53.7387 37.3788 53.6484 37.3597C53.1487 37.2511 52.7216 36.8152 52.4845 36.0728Z" fill="#BA68C8"/>
<path opacity="0.3" d="M52.4845 36.0728C52.0103 34.5879 52.4765 32.45 53.5255 31.298C54.0484 30.7232 54.616 30.5052 55.1134 30.6122C55.2052 30.6322 55.5684 30.712 55.6594 30.7312C56.1584 30.8389 56.5863 31.2748 56.8234 32.0173C57.2968 33.5021 56.8314 35.6401 55.7824 36.792C55.2579 37.3684 54.6879 37.5864 54.1889 37.477C54.0987 37.4571 53.7387 37.3788 53.6484 37.3597C53.1487 37.2511 52.7216 36.8152 52.4845 36.0728Z" fill="black"/>
<path d="M56.2828 31.8985C55.8086 30.4136 54.5744 30.1446 53.5262 31.2974C52.4772 32.4502 52.011 34.5881 52.4852 36.0722C52.9594 37.5571 54.1936 37.8261 55.2418 36.6733C56.29 35.5213 56.7562 33.3834 56.2828 31.8985Z" fill="#BA68C8"/>
<path opacity="0.5" d="M56.2828 31.8985C55.8086 30.4136 54.5744 30.1446 53.5262 31.2974C52.4772 32.4502 52.011 34.5881 52.4852 36.0722C52.9594 37.5571 54.1936 37.8261 55.2418 36.6733C56.29 35.5213 56.7562 33.3834 56.2828 31.8985Z" fill="black"/>
<path d="M51.6304 35.9601C51.1426 34.4329 51.6224 32.2335 52.7017 31.0472C53.239 30.4564 53.8234 30.2313 54.3351 30.3415C54.4301 30.3622 54.8037 30.4437 54.8963 30.4636C55.4096 30.5746 55.8495 31.0224 56.0938 31.7864C56.5816 33.3136 56.1018 35.513 55.0224 36.6993C54.4828 37.2925 53.896 37.5168 53.3835 37.4035C53.2909 37.3827 52.9205 37.3021 52.8279 37.2821C52.3137 37.1719 51.8739 36.7233 51.6304 35.9601Z" fill="#BA68C8"/>
<path opacity="0.5" d="M51.6304 35.9601C51.1426 34.4329 51.6224 32.2335 52.7017 31.0472C53.239 30.4564 53.8234 30.2313 54.3351 30.3415C54.4301 30.3622 54.8037 30.4437 54.8963 30.4636C55.4096 30.5746 55.8495 31.0224 56.0938 31.7864C56.5816 33.3136 56.1018 35.513 55.0224 36.6993C54.4828 37.2925 53.896 37.5168 53.3835 37.4035C53.2909 37.3827 52.9205 37.3021 52.8279 37.2821C52.3137 37.1719 51.8739 36.7233 51.6304 35.9601Z" fill="white"/>
<path d="M55.5373 31.6657C55.0496 30.1386 53.7802 29.8615 52.7009 31.047C51.6216 32.2326 51.1426 34.4327 51.6295 35.9599C52.1173 37.4871 53.3867 37.7642 54.466 36.5778C55.5453 35.3923 56.0251 33.1929 55.5373 31.6657Z" fill="#BA68C8"/>
<path opacity="0.5" d="M55.5373 31.6657C55.0496 30.1386 53.7802 29.8615 52.7009 31.047C51.6216 32.2326 51.1426 34.4327 51.6295 35.9599C52.1173 37.4871 53.3867 37.7642 54.466 36.5778C55.5453 35.3923 56.0251 33.1929 55.5373 31.6657Z" fill="white"/>
<path opacity="0.1" d="M55.5373 31.6657C55.0496 30.1386 53.7802 29.8615 52.7009 31.047C51.6216 32.2326 51.1426 34.4327 51.6295 35.9599C52.1173 37.4871 53.3867 37.7642 54.466 36.5778C55.5453 35.3923 56.0251 33.1929 55.5373 31.6657Z" fill="black"/>
<path d="M54.9075 31.936C54.6959 31.2726 54.308 30.8918 53.8577 30.8135L53.8585 30.8103C53.1624 30.6587 52.7113 30.586 52.3888 30.3369C52.0224 30.0535 51.7948 29.5546 51.2903 28.7139C50.3411 27.1325 47.8711 23.4394 44.5899 22.7241H44.5891C44.2922 22.6595 43.9856 22.6403 43.6727 22.6666C43.3988 22.5118 43.1107 22.4016 42.8129 22.3369L41.3974 22.028C41.1196 21.9673 40.8322 21.9466 40.54 21.9657C40.2471 21.8076 39.9389 21.7023 39.6204 21.6456L39.6212 21.6408L37.8545 21.256C37.2669 21.1283 36.6546 21.1802 36.0974 21.4069L35.4611 21.6655C34.9039 21.8923 34.2916 21.945 33.704 21.8164C33.2346 21.7142 32.7971 21.5003 32.4282 21.1921L31.1757 20.1463C30.8069 19.8382 30.3694 19.6242 29.9 19.522L7.27943 14.5908C5.99173 14.3098 4.51883 14.8798 3.16487 16.3679C0.457748 19.3424 -0.744546 24.8604 0.478488 28.6916C1.09 30.6076 2.1917 31.7388 3.47939 32.0198L26.1 36.9511C26.5694 37.0533 27.0563 37.0405 27.5202 36.9143L29.0944 36.4848C29.5583 36.3587 30.0453 36.3459 30.5147 36.4481C31.1023 36.5759 31.6371 36.8792 32.0498 37.3167L32.5209 37.8165C32.9336 38.2539 33.4685 38.5573 34.056 38.685L35.8227 39.0698L35.8235 39.065C36.1365 39.1457 36.4606 39.1784 36.7927 39.156C37.0506 39.2957 37.3196 39.3955 37.5982 39.4562L39.0137 39.7652C39.3114 39.8306 39.6188 39.8498 39.9325 39.8234C40.2063 39.9783 40.4929 40.0877 40.7899 40.1524H40.7907C44.0718 40.8669 47.8551 38.5381 49.3759 37.4947C50.1846 36.9399 50.5989 36.5806 51.05 36.4761C51.4476 36.3835 51.8882 36.5056 52.5836 36.6573L52.5844 36.6533C53.0258 36.7698 53.5368 36.5854 54.0062 36.0697C54.9147 35.0726 55.3178 33.2213 54.9075 31.936Z" fill="#BA68C8"/>
<path opacity="0.5" d="M54.0071 36.0709C53.5369 36.5858 53.0275 36.7694 52.5853 36.6552L52.5845 36.6584C51.8883 36.5068 51.4484 36.383 51.0501 36.4748C50.599 36.5802 50.1847 36.9386 49.376 37.4951C48.6136 38.0164 47.2892 38.8602 45.7444 39.4813C44.1949 40.1048 42.4306 40.5088 40.79 40.1511C40.4954 40.0864 40.2072 39.9787 39.9318 39.8238C39.6205 39.8509 39.3131 39.8294 39.0153 39.7639L37.5991 39.455C37.3213 39.3943 37.0523 39.2937 36.7944 39.1564C36.4599 39.1779 36.1374 39.1468 35.8252 39.0646L35.8244 39.0678L34.0569 38.6822C33.4678 38.5537 32.9337 38.2511 32.521 37.8144L32.0507 37.3155C31.6372 36.878 31.1047 36.5722 30.5148 36.4437C30.0462 36.3415 29.5592 36.3543 29.097 36.482L27.5226 36.9139C27.0572 37.0368 26.5702 37.0504 26.1016 36.9482L3.48109 32.017C2.19499 31.7368 1.09169 30.6055 0.48177 28.6903C-0.741264 24.8568 0.46181 19.3388 3.16893 16.3658C4.52049 14.8785 5.995 14.3093 7.2811 14.5895L29.9017 19.5208C30.3703 19.623 30.8077 19.8377 31.1798 20.1435L32.4316 21.1917C32.7996 21.4998 33.2362 21.7146 33.7049 21.8168C34.294 21.9453 34.9063 21.8894 35.4636 21.6635L36.0983 21.4056C36.6563 21.1797 37.267 21.127 37.8562 21.2555L39.6236 21.6411L39.6229 21.6443C39.9406 21.6994 40.2471 21.8048 40.5425 21.9637C40.8339 21.9469 41.1205 21.9669 41.3983 22.0275L42.8146 22.3365C43.1123 22.4011 43.4013 22.5097 43.6728 22.6638C43.9873 22.6375 44.2946 22.659 44.5892 22.7237C47.8703 23.439 50.3412 27.1312 51.2912 28.7127C51.7949 29.5557 52.0232 30.0539 52.3889 30.3373C52.713 30.5872 53.164 30.6574 53.861 30.8091L53.8602 30.8123C54.3088 30.8929 54.696 31.2721 54.9092 31.9355C55.3195 33.2208 54.9156 35.073 54.0071 36.0709Z" fill="white"/>
<path d="M29.0921 36.4809L29.0929 36.4777C29.8944 36.2773 30.7207 35.752 31.5055 34.889C33.9771 32.1763 35.0756 27.1373 33.9571 23.6422C33.6098 22.5493 33.0861 21.7334 32.4547 21.2177L32.4531 21.2105C32.4475 21.2025 32.4387 21.197 32.4291 21.1914L31.1773 20.1432C30.8053 19.8374 30.3686 19.6227 29.8992 19.5205L7.27867 14.5892C7.26191 14.5852 7.24515 14.582 7.22758 14.582C8.49213 14.879 9.57227 16.0054 10.1774 17.8943C11.3972 21.727 10.195 27.2419 7.49024 30.2188C6.19855 31.6382 4.79429 32.2226 3.5529 32.0294C3.52974 32.0246 3.50179 32.0214 3.47864 32.0166L26.0992 36.9479C26.5678 37.0501 27.0548 37.0373 27.5202 36.9136L29.0921 36.4809ZM47.5917 26.05C48.8147 29.8835 47.6125 35.3984 44.9045 38.3745C43.6312 39.7732 42.2525 40.3568 41.0231 40.1867C41.9284 40.3456 42.872 40.2809 43.7877 40.0877C43.8875 40.0638 43.9904 40.0406 44.091 40.0167C44.3944 39.9424 44.6946 39.8538 44.9892 39.7564L45.2925 39.651C45.4833 39.58 45.6677 39.5081 45.8521 39.4331C45.9439 39.3972 46.0365 39.3572 46.1307 39.3149C46.3128 39.2351 46.4956 39.1529 46.672 39.0683C46.7582 39.0275 46.8453 38.9828 46.9307 38.9421C47.0177 38.8982 47.0999 38.8567 47.1837 38.8112C48.1002 38.3378 48.8642 37.8444 49.3759 37.4932C50.1846 36.9367 50.5998 36.5783 51.05 36.4729C51.4492 36.3811 51.8883 36.5048 52.5844 36.6565L52.5852 36.6533C53.0267 36.7675 53.5368 36.5839 54.007 36.069C54.9155 35.071 55.3195 33.2197 54.9084 31.9336C54.6952 31.2702 54.308 30.891 53.8593 30.8104L53.8601 30.8072C53.164 30.6555 52.7122 30.5853 52.388 30.3354C52.0216 30.052 51.7941 29.5538 51.2903 28.7108C51.2592 28.6621 51.2281 28.6094 51.1977 28.5575C51.1307 28.4481 51.0604 28.3348 50.9846 28.2166C50.9455 28.1552 50.9071 28.0913 50.864 28.029C50.7826 27.9029 50.6924 27.7704 50.5998 27.6315C50.5543 27.5652 50.5064 27.4957 50.4553 27.4247C50.3563 27.2842 50.2509 27.1381 50.1431 26.9888C50.0513 26.8635 49.9563 26.7373 49.8573 26.6112C49.7416 26.4667 49.6234 26.3182 49.5013 26.1689C49.4398 26.0963 49.3759 26.0188 49.3113 25.9454C49.2466 25.8719 49.1819 25.7977 49.1141 25.7235C49.0494 25.65 48.9816 25.575 48.9137 25.5007C48.8459 25.4265 48.7732 25.3546 48.7062 25.2804C48.4938 25.0624 48.2703 24.8485 48.042 24.6449C47.9629 24.5747 47.8863 24.506 47.8064 24.439C47.7298 24.3735 47.6492 24.3064 47.5686 24.2434C46.7591 23.5967 45.8538 23.0698 44.871 22.7992C46.0366 23.1752 47.0249 24.2745 47.5917 26.05ZM43.1299 37.9873C45.837 35.0128 47.0393 29.4947 45.817 25.6628C45.2111 23.7652 44.1246 22.6371 42.8528 22.3433L41.4079 22.028C42.6916 22.3122 43.7901 23.4426 44.4 25.3546C45.623 29.1866 44.4199 34.7038 41.7136 37.6792C40.3605 39.1665 38.8868 39.7365 37.5991 39.4562L39.0161 39.7652C40.3038 40.0446 41.7767 39.4746 43.1299 37.9873ZM40.0499 37.3159C42.757 34.3414 43.9593 28.8234 42.7363 24.9914C42.1248 23.0754 41.0223 21.9442 39.7354 21.6632L37.7843 21.2385C39.0879 21.5051 40.2056 22.6403 40.8227 24.5747C42.0457 28.4066 40.8427 33.9239 38.1363 36.8992C36.7832 38.3865 35.3095 38.9565 34.0218 38.6763L35.9353 39.0938C37.223 39.3732 38.696 38.8032 40.0499 37.3159Z" fill="#BA68C8"/>
<path opacity="0.7" d="M29.0921 36.4809L29.0929 36.4777C29.8944 36.2773 30.7207 35.752 31.5055 34.889C33.9771 32.1763 35.0756 27.1373 33.9571 23.6422C33.6098 22.5493 33.0861 21.7334 32.4547 21.2177L32.4531 21.2105C32.4475 21.2025 32.4387 21.197 32.4291 21.1914L31.1773 20.1432C30.8053 19.8374 30.3686 19.6227 29.8992 19.5205L7.27867 14.5892C7.26191 14.5852 7.24515 14.582 7.22758 14.582C8.49213 14.879 9.57227 16.0054 10.1774 17.8943C11.3972 21.727 10.195 27.2419 7.49024 30.2188C6.19855 31.6382 4.79429 32.2226 3.5529 32.0294C3.52974 32.0246 3.50179 32.0214 3.47864 32.0166L26.0992 36.9479C26.5678 37.0501 27.0548 37.0373 27.5202 36.9136L29.0921 36.4809ZM47.5917 26.05C48.8147 29.8835 47.6125 35.3984 44.9045 38.3745C43.6312 39.7732 42.2525 40.3568 41.0231 40.1867C41.9284 40.3456 42.872 40.2809 43.7877 40.0877C43.8875 40.0638 43.9904 40.0406 44.091 40.0167C44.3944 39.9424 44.6946 39.8538 44.9892 39.7564L45.2925 39.651C45.4833 39.58 45.6677 39.5081 45.8521 39.4331C45.9439 39.3972 46.0365 39.3572 46.1307 39.3149C46.3128 39.2351 46.4956 39.1529 46.672 39.0683C46.7582 39.0275 46.8453 38.9828 46.9307 38.9421C47.0177 38.8982 47.0999 38.8567 47.1837 38.8112C48.1002 38.3378 48.8642 37.8444 49.3759 37.4932C50.1846 36.9367 50.5998 36.5783 51.05 36.4729C51.4492 36.3811 51.8883 36.5048 52.5844 36.6565L52.5852 36.6533C53.0267 36.7675 53.5368 36.5839 54.007 36.069C54.9155 35.071 55.3195 33.2197 54.9084 31.9336C54.6952 31.2702 54.308 30.891 53.8593 30.8104L53.8601 30.8072C53.164 30.6555 52.7122 30.5853 52.388 30.3354C52.0216 30.052 51.7941 29.5538 51.2903 28.7108C51.2592 28.6621 51.2281 28.6094 51.1977 28.5575C51.1307 28.4481 51.0604 28.3348 50.9846 28.2166C50.9455 28.1552 50.9071 28.0913 50.864 28.029C50.7826 27.9029 50.6924 27.7704 50.5998 27.6315C50.5543 27.5652 50.5064 27.4957 50.4553 27.4247C50.3563 27.2842 50.2509 27.1381 50.1431 26.9888C50.0513 26.8635 49.9563 26.7373 49.8573 26.6112C49.7416 26.4667 49.6234 26.3182 49.5013 26.1689C49.4398 26.0963 49.3759 26.0188 49.3113 25.9454C49.2466 25.8719 49.1819 25.7977 49.1141 25.7235C49.0494 25.65 48.9816 25.575 48.9137 25.5007C48.8459 25.4265 48.7732 25.3546 48.7062 25.2804C48.4938 25.0624 48.2703 24.8485 48.042 24.6449C47.9629 24.5747 47.8863 24.506 47.8064 24.439C47.7298 24.3735 47.6492 24.3064 47.5686 24.2434C46.7591 23.5967 45.8538 23.0698 44.871 22.7992C46.0366 23.1752 47.0249 24.2745 47.5917 26.05ZM43.1299 37.9873C45.837 35.0128 47.0393 29.4947 45.817 25.6628C45.2111 23.7652 44.1246 22.6371 42.8528 22.3433L41.4079 22.028C42.6916 22.3122 43.7901 23.4426 44.4 25.3546C45.623 29.1866 44.4199 34.7038 41.7136 37.6792C40.3605 39.1665 38.8868 39.7365 37.5991 39.4562L39.0161 39.7652C40.3038 40.0446 41.7767 39.4746 43.1299 37.9873ZM40.0499 37.3159C42.757 34.3414 43.9593 28.8234 42.7363 24.9914C42.1248 23.0754 41.0223 21.9442 39.7354 21.6632L37.7843 21.2385C39.0879 21.5051 40.2056 22.6403 40.8227 24.5747C42.0457 28.4066 40.8427 33.9239 38.1363 36.8992C36.7832 38.3865 35.3095 38.9565 34.0218 38.6763L35.9353 39.0938C37.223 39.3732 38.696 38.8032 40.0499 37.3159Z" fill="white"/>
<path d="M40.9933 39.2145C40.7874 39.1698 40.5886 39.094 40.4018 38.9886L40.1431 38.8425L39.8477 38.8681C39.6378 38.8856 39.4262 38.8721 39.2179 38.8274L37.8016 38.5184C37.6132 38.4777 37.4256 38.4074 37.2428 38.31L37.0017 38.1815L36.7295 38.1991C36.5307 38.2119 36.3423 38.1983 36.1531 38.1568C36.1244 38.1504 36.0956 38.1432 36.0677 38.136L35.0993 37.8813L35.0897 37.926L34.2595 37.7448C33.8587 37.6578 33.4979 37.4534 33.216 37.1549L32.7474 36.6575C32.1958 36.0731 31.4941 35.6756 30.7173 35.5063C30.1002 35.3714 29.4512 35.389 28.8412 35.5566L27.2669 35.9885C26.9556 36.0707 26.6203 36.0795 26.3042 36.0109L3.68442 31.0796C2.68971 30.8625 1.87621 29.9109 1.39482 28.3996C0.98927 27.1279 1.1641 26.1108 2.24504 25.2479C3.40181 24.3242 4.94975 24.5789 6.30371 24.7864C7.57145 24.9812 8.57576 24.4336 9.46829 23.5602C10.7448 22.31 12.3518 21.4989 14.176 21.6426C15.894 21.7775 17.4404 22.5367 19.0649 23.0277C19.8737 23.272 20.7143 23.5091 21.5565 23.3343C22.4914 23.1403 23.1923 22.5862 23.9786 22.0833C25.711 20.9768 27.6158 20.5721 29.6132 20.9074C30.4826 21.0526 31.1436 21.3672 31.8126 21.9276C32.2972 22.334 32.88 22.6198 33.4979 22.7539C34.2746 22.9231 35.0777 22.8537 35.8218 22.5527L36.458 22.294C36.8372 22.1408 37.25 22.1056 37.6508 22.1935L38.481 22.3747L38.4722 22.4154L39.4581 22.5902C39.4869 22.595 39.5156 22.6006 39.5444 22.607C39.7336 22.6485 39.9108 22.714 40.0864 22.809L40.3267 22.9391L40.599 22.9231C40.8041 22.9112 41.0045 22.9255 41.1937 22.967L42.61 23.276C42.8175 23.3215 43.0163 23.3973 43.2007 23.5011L43.4578 23.6464L43.7524 23.6217C43.9655 23.6041 44.1787 23.6177 44.3846 23.6624C47.1428 24.2635 49.3797 27.3945 50.4679 29.2075C50.578 29.392 50.6754 29.5612 50.764 29.7145C51.1153 30.3228 51.3684 30.7627 51.8011 31.0972C52.0845 31.3151 52.3902 31.4405 52.7207 31.5339L53.6907 31.7582C53.7562 31.7726 53.8935 31.9123 53.9957 32.23C54.3014 33.188 53.9757 34.6817 53.2987 35.4257C53.0744 35.6716 52.8908 35.7418 52.8277 35.7283L51.8529 35.5287C51.5129 35.4752 51.1832 35.4616 50.8359 35.5415C50.301 35.666 49.8883 35.9598 49.3167 36.3669C49.1722 36.4699 49.0125 36.5833 48.8329 36.707C47.6514 37.5141 46.4914 38.1496 45.3873 38.5926C43.6949 39.2712 42.2172 39.4812 40.9933 39.2145Z" fill="#BA68C8"/>
<path opacity="0.95" d="M40.9933 39.2145C40.7874 39.1698 40.5886 39.094 40.4018 38.9886L40.1431 38.8425L39.8477 38.8681C39.6378 38.8856 39.4262 38.8721 39.2179 38.8274L37.8016 38.5184C37.6132 38.4777 37.4256 38.4074 37.2428 38.31L37.0017 38.1815L36.7295 38.1991C36.5307 38.2119 36.3423 38.1983 36.1531 38.1568C36.1244 38.1504 36.0956 38.1432 36.0677 38.136L35.0993 37.8813L35.0897 37.926L34.2595 37.7448C33.8587 37.6578 33.4979 37.4534 33.216 37.1549L32.7474 36.6575C32.1958 36.0731 31.4941 35.6756 30.7173 35.5063C30.1002 35.3714 29.4512 35.389 28.8412 35.5566L27.2669 35.9885C26.9556 36.0707 26.6203 36.0795 26.3042 36.0109L3.68442 31.0796C2.68971 30.8625 1.87621 29.9109 1.39482 28.3996C0.98927 27.1279 1.1641 26.1108 2.24504 25.2479C3.40181 24.3242 4.94975 24.5789 6.30371 24.7864C7.57145 24.9812 8.57576 24.4336 9.46829 23.5602C10.7448 22.31 12.3518 21.4989 14.176 21.6426C15.894 21.7775 17.4404 22.5367 19.0649 23.0277C19.8737 23.272 20.7143 23.5091 21.5565 23.3343C22.4914 23.1403 23.1923 22.5862 23.9786 22.0833C25.711 20.9768 27.6158 20.5721 29.6132 20.9074C30.4826 21.0526 31.1436 21.3672 31.8126 21.9276C32.2972 22.334 32.88 22.6198 33.4979 22.7539C34.2746 22.9231 35.0777 22.8537 35.8218 22.5527L36.458 22.294C36.8372 22.1408 37.25 22.1056 37.6508 22.1935L38.481 22.3747L38.4722 22.4154L39.4581 22.5902C39.4869 22.595 39.5156 22.6006 39.5444 22.607C39.7336 22.6485 39.9108 22.714 40.0864 22.809L40.3267 22.9391L40.599 22.9231C40.8041 22.9112 41.0045 22.9255 41.1937 22.967L42.61 23.276C42.8175 23.3215 43.0163 23.3973 43.2007 23.5011L43.4578 23.6464L43.7524 23.6217C43.9655 23.6041 44.1787 23.6177 44.3846 23.6624C47.1428 24.2635 49.3797 27.3945 50.4679 29.2075C50.578 29.392 50.6754 29.5612 50.764 29.7145C51.1153 30.3228 51.3684 30.7627 51.8011 31.0972C52.0845 31.3151 52.3902 31.4405 52.7207 31.5339L53.6907 31.7582C53.7562 31.7726 53.8935 31.9123 53.9957 32.23C54.3014 33.188 53.9757 34.6817 53.2987 35.4257C53.0744 35.6716 52.8908 35.7418 52.8277 35.7283L51.8529 35.5287C51.5129 35.4752 51.1832 35.4616 50.8359 35.5415C50.301 35.666 49.8883 35.9598 49.3167 36.3669C49.1722 36.4699 49.0125 36.5833 48.8329 36.707C47.6514 37.5141 46.4914 38.1496 45.3873 38.5926C43.6949 39.2712 42.2172 39.4812 40.9933 39.2145Z" fill="white"/>
<path d="M47.5916 26.0509C47.5022 25.7707 47.3992 25.5136 47.2891 25.2677C46.5698 24.6394 45.7738 24.1181 44.9204 23.8259C45.2789 24.3241 45.5847 24.9356 45.817 25.6645C47.04 29.498 45.8377 35.0121 43.1298 37.989C42.6181 38.5526 42.088 38.9837 41.5563 39.2879C42.452 39.3765 43.39 39.2352 44.3033 38.963C44.5053 38.785 44.7065 38.5934 44.9045 38.3762C47.6124 35.3993 48.8147 29.8844 47.5916 26.0509ZM40.8218 24.5748C40.5935 23.8595 40.2973 23.2535 39.9477 22.7602C39.7896 22.6883 39.6244 22.6301 39.4503 22.5997L38.458 22.4233L38.4668 22.3818L37.6493 22.2037C37.2509 22.1167 36.8398 22.1526 36.463 22.3043L35.8267 22.563C35.1242 22.8488 34.3642 22.9238 33.6201 22.7865C33.7447 23.0508 33.8588 23.335 33.957 23.6431C35.0747 27.1382 33.9762 32.1772 31.5054 34.8899C31.2867 35.1302 31.0647 35.3418 30.8412 35.5302C31.5756 35.7146 32.2358 36.0978 32.7564 36.6502L33.2274 37.15C33.506 37.447 33.8652 37.6489 34.2636 37.7352L35.0811 37.9132L35.0891 37.8773L36.0678 38.1247C36.2363 38.1694 36.4103 38.1854 36.5835 38.1854C37.1064 37.8829 37.6293 37.4549 38.1347 36.8993C40.8426 33.9232 42.0441 28.4083 40.8218 24.5748ZM44.4007 25.3555C44.1876 24.6889 43.9137 24.1197 43.5952 23.6463L43.4563 23.6591L43.1969 23.5114C43.0077 23.4044 42.8097 23.3294 42.6085 23.2855L41.8102 23.1114C42.1822 23.6168 42.4975 24.2435 42.7362 24.9931C43.9593 28.8267 42.757 34.3407 40.0491 37.3176C39.5198 37.9004 38.9721 38.3387 38.4237 38.6429L39.2196 38.8161C39.4248 38.8608 39.6355 38.8752 39.8503 38.856L40.1481 38.8297L40.2686 38.8983C40.7556 38.6005 41.241 38.1966 41.7128 37.6793C44.4215 34.7031 45.6238 29.1891 44.4007 25.3555Z" fill="#BA68C8"/>
<path opacity="0.7" d="M47.5916 26.0509C47.5022 25.7707 47.3992 25.5136 47.2891 25.2677C46.5698 24.6394 45.7738 24.1181 44.9204 23.8259C45.2789 24.3241 45.5847 24.9356 45.817 25.6645C47.04 29.498 45.8377 35.0121 43.1298 37.989C42.6181 38.5526 42.088 38.9837 41.5563 39.2879C42.452 39.3765 43.39 39.2352 44.3033 38.963C44.5053 38.785 44.7065 38.5934 44.9045 38.3762C47.6124 35.3993 48.8147 29.8844 47.5916 26.0509ZM40.8218 24.5748C40.5935 23.8595 40.2973 23.2535 39.9477 22.7602C39.7896 22.6883 39.6244 22.6301 39.4503 22.5997L38.458 22.4233L38.4668 22.3818L37.6493 22.2037C37.2509 22.1167 36.8398 22.1526 36.463 22.3043L35.8267 22.563C35.1242 22.8488 34.3642 22.9238 33.6201 22.7865C33.7447 23.0508 33.8588 23.335 33.957 23.6431C35.0747 27.1382 33.9762 32.1772 31.5054 34.8899C31.2867 35.1302 31.0647 35.3418 30.8412 35.5302C31.5756 35.7146 32.2358 36.0978 32.7564 36.6502L33.2274 37.15C33.506 37.447 33.8652 37.6489 34.2636 37.7352L35.0811 37.9132L35.0891 37.8773L36.0678 38.1247C36.2363 38.1694 36.4103 38.1854 36.5835 38.1854C37.1064 37.8829 37.6293 37.4549 38.1347 36.8993C40.8426 33.9232 42.0441 28.4083 40.8218 24.5748ZM44.4007 25.3555C44.1876 24.6889 43.9137 24.1197 43.5952 23.6463L43.4563 23.6591L43.1969 23.5114C43.0077 23.4044 42.8097 23.3294 42.6085 23.2855L41.8102 23.1114C42.1822 23.6168 42.4975 24.2435 42.7362 24.9931C43.9593 28.8267 42.757 34.3407 40.0491 37.3176C39.5198 37.9004 38.9721 38.3387 38.4237 38.6429L39.2196 38.8161C39.4248 38.8608 39.6355 38.8752 39.8503 38.856L40.1481 38.8297L40.2686 38.8983C40.7556 38.6005 41.241 38.1966 41.7128 37.6793C44.4215 34.7031 45.6238 29.1891 44.4007 25.3555Z" fill="white"/>
<g opacity="0.05">
<path d="M54.007 36.0706C53.5368 36.5855 53.0275 36.7691 52.5852 36.6549L52.5844 36.6581C51.8882 36.5064 51.4484 36.3827 51.05 36.4745C50.5989 36.5799 50.1846 36.9383 49.3759 37.4948C48.6135 38.0161 47.2891 38.8599 45.7443 39.481C44.1948 40.1045 42.4305 40.5085 40.7899 40.1508C40.6358 40.1173 40.4818 40.0694 40.3301 40.0087C40.1936 39.9576 40.0642 39.8945 39.9317 39.8235C39.7745 39.8347 39.6204 39.8363 39.4679 39.8275C39.3154 39.8187 39.1621 39.7955 39.0152 39.7636L37.599 39.4547C37.3978 39.4108 37.2062 39.3413 37.0139 39.2567C36.9404 39.2231 36.8662 39.1928 36.7935 39.1561C36.459 39.1776 36.1365 39.1465 35.8244 39.0643L35.8235 39.0675L34.056 38.6819C33.6138 38.5853 33.2042 38.3905 32.853 38.1183C32.7332 38.0257 32.6255 37.9251 32.5193 37.8141L32.0491 37.3151C31.8383 37.09 31.5948 36.904 31.333 36.7555C31.0767 36.6118 30.8013 36.5064 30.5139 36.4434C30.0453 36.3412 29.5583 36.354 29.0961 36.4817L29.0929 36.4809L27.5218 36.9136C27.4108 36.9415 27.3006 36.9639 27.1881 36.9815C27.1809 36.983 27.1769 36.9862 27.1697 36.9846C27.0867 36.9942 27.0045 37.0046 26.9222 37.0078C26.9182 37.0102 26.911 37.0126 26.9039 37.011C26.8184 37.0166 26.7306 37.019 26.6436 37.0142C26.5526 37.0118 26.4664 37.007 26.3778 36.995C26.3714 36.9934 26.3602 36.995 26.3506 36.9894C26.2644 36.9815 26.1838 36.9671 26.1 36.9487L3.4794 32.0175C3.46263 32.0143 3.44668 32.0071 3.42992 32.0031C3.34929 31.9855 3.27344 31.9656 3.19521 31.9376C3.18563 31.9352 3.17523 31.9336 3.16885 31.9289C2.74733 31.7875 2.34897 31.5536 1.98892 31.2263C0.482484 29.7933 0.0609689 27.5932 0.0034895 25.5814C0.00189285 25.5742 0.00349515 25.567 0.00429347 25.5606C-0.0076814 22.2819 0.983039 18.8619 3.16646 16.3663C4.49966 14.8998 5.95421 14.3258 7.22754 14.5828C8.49209 14.8798 9.57223 16.0063 10.1774 17.8951C11.0851 20.7475 10.6523 24.5324 9.25688 27.5077C9.18663 27.6538 9.1124 27.7991 9.03895 27.9444C8.98387 28.0514 8.92479 28.1616 8.87051 28.2653C8.79546 28.4003 8.72201 28.528 8.64537 28.6549L27.1058 32.6545C27.5744 32.7567 28.0646 32.7447 28.5277 32.617L30.1012 32.1883C30.5634 32.0614 31.0504 32.0478 31.519 32.15C32.0347 32.2626 32.5105 32.51 32.8969 32.8605C32.9528 32.9108 33.0039 32.9643 33.0557 33.0178L33.526 33.5167C33.9387 33.9574 34.476 34.26 35.0619 34.3877L36.8294 34.7733L36.831 34.7669C37.1432 34.8491 37.4689 34.8819 37.8002 34.8587C38.0572 34.9984 38.3263 35.0998 38.6041 35.1605L40.0203 35.4694C40.3181 35.5341 40.6263 35.5525 40.9408 35.5261C41.2122 35.6802 41.5004 35.7919 41.795 35.8558C41.7982 35.8566 41.7982 35.8566 41.7982 35.8566C45.0793 36.5719 48.6925 35.0096 50.2134 33.9702C51.0252 33.4137 51.4372 33.0553 51.8874 32.9499C52.0942 32.9036 53.5951 33.1926 55.0448 33.4944C54.9554 34.4532 54.5842 35.4351 54.007 36.0706Z" fill="black"/>
<path d="M14.3342 18.8005C15.5573 22.6317 14.3542 28.1497 11.6471 31.1243C10.2939 32.6115 10.1598 33.4737 8.87207 33.1927L20.419 35.7098C21.7067 35.9908 23.1797 35.42 24.5328 33.9328C27.2399 30.9574 28.443 25.4402 27.22 21.6082C26.6085 19.6922 25.5068 18.561 24.2191 18.28L11.3325 15.4707C12.621 15.7533 13.7227 16.8845 14.3342 18.8005Z" fill="black"/>
</g>
<path d="M15.4479 19.0431C16.6709 22.8742 15.4678 28.3922 12.7607 31.3676C11.4076 32.8549 9.93467 33.4249 8.64697 33.1447L21.5327 35.954C22.8204 36.235 24.2933 35.6642 25.6465 34.1769C28.3536 31.2023 29.5567 25.6843 28.3336 21.8524C27.7221 19.9364 26.6204 18.8052 25.3327 18.5241L12.447 15.7148C13.7347 15.9959 14.8364 17.1279 15.4479 19.0431Z" fill="#BA68C8"/>
<path d="M17.5842 35.0921C17.9171 34.0239 18.6699 33.1625 18.9581 32.8616C19.5209 32.2748 20.1644 31.6928 20.8453 31.0773C22.0141 30.0211 23.2227 28.9282 24.0873 27.7323C25.2736 26.091 25.7487 24.3706 25.676 21.9812C25.6369 20.7126 25.28 19.6038 24.5065 18.3424L24.0394 18.2402C24.9168 19.5854 25.2936 20.6759 25.3335 21.9908C25.4038 24.2995 24.9487 25.9552 23.8103 27.5303C22.9665 28.6967 21.7714 29.7776 20.6154 30.8218C19.9296 31.4413 19.2822 32.0273 18.7106 32.6237C18.4041 32.9438 17.6065 33.8643 17.2537 35.0186L17.5842 35.0921Z" fill="#FAFAFA"/>
<path d="M16.0858 19.1816C17.3088 23.0127 16.1058 28.5307 13.3986 31.5053C12.0455 32.9926 10.5726 33.5626 9.28406 33.2824L15.3641 34.6076C15.6427 33.6983 16.2287 32.8744 16.7827 32.2956C18.3299 30.6814 20.5484 29.0496 21.8968 27.1848C23.1629 25.434 23.5182 23.6913 23.4527 21.539C23.4088 20.1148 22.957 19.0035 22.2217 17.8444L13.0833 15.8525C14.3726 16.1343 15.4751 17.2664 16.0858 19.1816Z" fill="#FAFAFA"/>
<path opacity="0.1" d="M13.5462 30.373C13.3012 30.7283 13.0393 31.062 12.7615 31.3678C11.4083 32.855 9.9354 33.425 8.64771 33.1448L21.5335 35.9541C22.8212 36.2351 24.2941 35.6643 25.6472 34.1771C25.9251 33.8713 26.1869 33.5376 26.432 33.1831L13.5462 30.373Z" fill="black"/>
<path d="M39.4111 36.4645C38.0212 36.3455 36.5946 36.6361 35.3716 37.3099C34.5509 37.7626 33.5442 38.291 32.5591 38.0891C32.1455 38.0044 31.7575 37.7729 31.4654 37.4552L30.01 46.5992C31.53 44.8589 34.392 44.0374 35.7835 42.3904C37.175 40.7435 40.2661 38.7916 40.7762 38.2719C41.8875 37.1407 40.2382 36.5355 39.4111 36.4645Z" fill="#FFA8A7"/>
</svg>
